<?xml version="1.0" encoding="utf-8"?>
<!-- Generator: Adobe Illustrator 16.0.0, SVG Export Plug-In . SVG Version: 6.00 Build 0)  -->
<!DOCTYPE svg PUBLIC "-//W3C//DTD SVG 1.1//EN" "http://www.w3.org/Graphics/SVG/1.1/DTD/svg11.dtd">
<svg version="1.1" id="Layer_1" xmlns="http://www.w3.org/2000/svg" xmlns:xlink="http://www.w3.org/1999/xlink" x="0px" y="0px"
	 width="264px" height="264px" viewBox="0 0 264 264" enable-background="new 0 0 264 264" xml:space="preserve">
<g id="Layer_1_1_" display="none">
	<path display="inline" fill="#CCC0AF" d="M263.895,175.318c0-1.816-2.766-1.816-2.766-3.633c0-1.67,0.592-1.863,0.686-3.293
		c0.123-0.088,0.211-0.146,0.34-0.281c0.88-0.844,0.142-1.23-0.475-1.887c-0.088-0.457-0.176-0.902-0.176-1.812
		c0-1.815,2.133-1.815,2.133-3.627c0-1.277-0.451-1.677-0.721-2.433c0.076-0.233,0.146-0.451,0.146-0.785
		c0-1.821,0.239-1.821,0.239-3.633c0-0.99-0.614-1.44-1.207-1.951c0.271-0.557,0.593-1.002,0.593-2.098
		c0-0.621-0.188-1.002-0.41-1.342c0.639-0.48,1.301-0.932,1.301-1.887c0-1.482-0.609-1.805-0.855-2.824
		c0.246-0.305,0.434-0.68,0.434-1.195c0-1.834,0.82-1.834,0.82-3.645c0-1.242-1.02-1.652-1.67-2.367
		c-0.006-0.24-0.018-0.504-0.018-0.873c0-0.791-0.234-1.219-0.486-1.635c0.035-0.727,0.105-1.119,0.105-2.385
		c0-0.697,0.234-1.102,0.498-1.471c0.621-0.451,1.219-0.896,1.219-1.775c0-0.504-0.176-0.85-0.428-1.143
		c-0.394-1.061-1.482-1.383-1.482-2.871c0-0.328-0.023-0.521-0.047-0.744c0.621-0.82,1.77-1.189,1.77-2.52
		c0-1.084-0.686-1.541-1.242-2.109c0.504-0.475,1.021-0.932,1.021-1.893c0-0.949-0.34-1.418-0.662-1.893
		c0.246-0.346,0.439-0.732,0.439-1.377c0-1.143-0.111-1.582-0.188-2.197c0.381-0.445,0.768-0.908,0.768-1.787
		c0-0.709-0.146-1.125-0.311-1.5c0.258-0.434,0.521-0.896,0.521-1.77c0-0.826-0.545-1.26-1.107-1.676
		c-0.053-0.68-0.105-1.107-0.105-2.32c0-1.811,1.349-1.811,1.349-3.621s0.246-2.631-1.097-3.902
		c-0.479-0.475-0.914-0.475-1.336-0.375c0.609-0.896,1.916-1.236,1.916-2.643c0-1.816-1.506-1.816-1.506-3.627
		c0-1.822,2.104-1.822,2.104-3.645c0-1.805-0.104-1.805-0.104-3.633c0-1.816-2.767-1.816-2.767-3.627
		c0-1.816,0.731-1.816,0.731-3.639c0-1.811-0.356-1.811-0.356-3.633c0-1.816,2.133-1.816,2.133-3.621
		c0-1.828-0.914-1.828-0.914-3.639c0-1.816-0.954-1.816-0.954-3.633c0-1.822,0.92-1.822,0.92-3.633s-1.459-1.811-1.459-3.639
		c0-1.805,1.928-1.805,1.928-3.615c0-1.828,0.82-1.828,0.82-3.639c0-1.816-2.203-1.816-2.203-3.633s0.135-1.816,0.135-3.633
		c0-1.811,1.471-1.811,1.471-3.627c0-1.816-1.664-1.816-1.664-3.627c0-1.816-0.393-1.816-0.393-3.633s1.893-1.816,1.893-3.633
		c0-1.817-1.225-1.816-1.225-3.639c0-1.811,1.582-1.811,1.582-3.615c0-1.816-0.873-1.816-0.873-3.639
		c0-1.811-0.129-1.811-0.129-3.627c0-1.811,1.348-1.811,1.348-3.627c0-1.811,0.246-2.631-1.096-3.896
		c-1.336-1.289-2.162,0.486-4.055,0.486c-1.894,0-1.894-1.307-3.785-1.307c-1.888,0-1.888,1.992-3.773,1.992
		c-1.881,0-1.881-1.863-3.773-1.863c-1.892,0-1.893,0.727-3.772,0.727c-1.894,0-1.894,0.527-3.772,0.527
		c-1.894,0-1.894-1.359-3.779-1.359c-1.887,0-1.887,2.162-3.773,2.162c-1.886,0-1.887-0.662-3.773-0.662
		c-1.885,0-1.887,0.398-3.768,0.398c-1.887,0-1.887-1.77-3.779-1.77c-1.881,0-1.881,1.318-3.772,1.318
		c-1.882,0-1.882-0.686-3.763-0.686c-1.893,0-1.893-0.451-3.768-0.451c-1.898,0-1.898,0.744-3.773,0.744
		c-1.887,0-1.887-0.703-3.772-0.703c-1.881,0-1.881,1.711-3.772,1.711c-1.888,0-1.888,0.328-3.769,0.328
		c-1.887,0-1.887-1.98-3.778-1.98c-1.882,0-1.882,0.504-3.773,0.504c-1.881,0-1.881,0.047-3.773,0.047
		c-1.875,0-1.875-0.539-3.756-0.539c-1.893,0-1.893-0.188-3.785-0.188c-1.881,0-1.881,1.371-3.762,1.371
		c-1.893,0-1.893-1.43-3.779-1.43c-1.881,0-1.881,1.594-3.768,1.594c-1.893,0-1.893-1.664-3.773-1.664
		c-1.88,0-1.881,0.809-3.768,0.809c-1.881,0-1.881,0.381-3.768,0.381c-1.888,0-1.888,0.422-3.769,0.422
		c-1.894,0-1.894-1.43-3.772-1.43c-1.881,0-1.881-0.053-3.773-0.053c-1.881,0-1.881,0.059-3.768,0.059
		c-1.875,0-1.875,1.008-3.769,1.008c-1.887,0-1.887-0.539-3.773-0.539c-0.715,0-1.775,1.09-2.168,1.371
		c-0.926-0.281-1.277-0.885-2.719-0.885c-1.893,0-1.893-0.973-3.773-0.973c-1.887,0-1.887,0.397-3.773,0.397
		c-1.881,0-1.881-0.662-3.773-0.662c-1.869,0-1.869,0.75-3.756,0.75c-1.881,0-1.881,0.633-3.762,0.633
		c-1.887,0-1.887,0.27-3.762,0.27C101.15,1.961,101.15,1,99.269,1c-1.875,0-1.875-0.562-3.762-0.562
		c-1.887,0-1.887,0.105-3.773,0.105c-1.881,0-1.881,1.02-3.768,1.02c-1.887,0-1.891,0.833-3.766,0.833
		c-1.893,0-1.893-1.482-3.768-1.482c-1.893,0-1.893,0.955-3.773,0.955c-1.88,0-1.881-0.182-3.773-0.182
		c-1.881,0-1.881,1.125-3.768,1.125c-1.887,0-1.887-0.779-3.768-0.779c-1.887,0-1.887-0.281-3.762-0.281
		c-1.893,0-1.893-1.037-3.773-1.037C55.928,0.715,55.928,0,54.047,0c-1.887,0-1.887,0.539-3.773,0.539
		c-1.875,0-1.875,1.383-3.762,1.383c-1.881,0-1.881-1.33-3.773-1.33c-1.881,0-1.881-0.498-3.756-0.498
		c-1.893,0-1.893,1.705-3.773,1.705c-1.89,0-1.89,0.592-3.768,0.592c-1.89,0-1.89-0.141-3.771-0.141c-1.89,0-1.89-2.109-3.768-2.109
		c-1.89,0-1.89,0.891-3.768,0.891c-1.884,0-1.884,0.697-3.771,0.697c-1.881,0-1.881-1.061-3.765-1.061
		c-1.881,0-1.881,1.242-3.765,1.242c-1.89,0-1.89,0.059-3.771,0.059c-1.89,0-2.628-2.074-3.964-0.797
		C-0.237,2.467,0.106,3.188,0.598,5.18c0.434,1.758,1.23,1.664,1.23,3.48c0,1.811-1.104,1.811-1.104,3.639
		c0,1.822,0.712,1.822,0.712,3.627c0,1.828-1.063,1.828-1.063,3.645c0,1.817,2.279,1.816,2.279,3.645c0,1.811-0.94,1.811-0.94,3.627
		c0,1.816,0.053,1.816,0.053,3.639c0,1.816,0.463,1.816,0.463,3.633c0,1.817,0.437,1.816,0.437,3.633
		c0,1.828-1.456,1.828-1.456,3.639c0,1.816-0.627,1.816-0.627,3.627c0,1.828-0.504,1.828-0.504,3.633
		c0,1.828,1.125,1.828,1.125,3.633c0,1.828-0.457,1.828-0.457,3.639c0,1.816,0.636,1.816,0.636,3.633
		c0,1.811-1.166,1.811-1.166,3.633c0,1.811,0.51,1.811,0.51,3.639c0,1.816,1.219,1.816,1.219,3.633c0,1.811-0.835,1.811-0.835,3.633
		c0,1.811,0.759,1.811,0.759,3.633c0,1.816,0.466,1.816,0.466,3.633s-2.124,1.816-2.124,3.639C0.208,86.801,0,86.801,0,88.623
		c0,1.805,2.273,1.805,2.273,3.615c0,1.834-2.227,1.834-2.227,3.645c0,1.822,0.047,1.822,0.047,3.627
		c0,1.816,0.744,1.816,0.744,3.627c0,0.615,0.211,1.002,0.469,1.342c-0.281,0.48-0.583,0.938-0.583,1.881
		c0,1.465,0.445,1.793,0.621,2.807c-0.199,0.316-0.369,0.68-0.369,1.242c0,0.492,0.023,0.838,0.062,1.125
		c-0.299,0.568-0.665,1.02-0.665,2.098c0,0.709,0.372,1.125,0.791,1.5c-0.296,0.85-0.896,1.189-0.896,2.543
		c0,1.816,0.902,1.816,0.902,3.627c0,1.26,0.36,1.67,0.589,2.379c0.006,0.246,0.006,0.504,0.006,0.867
		c0,0.439,0.029,0.773,0.073,1.049c-0.246,1.137-1.005,1.43-1.005,2.965c0,1.828-0.48,1.828-0.48,3.633
		c0,1.225,0.63,1.641,1.058,2.314c-0.114,0.265-0.202,0.545-0.202,0.943c0,1.481-0.404,1.799-0.56,2.836
		c-0.158,0.305-0.275,0.668-0.275,1.166c0,0.356,0.05,0.604,0.1,0.838c-0.149,0.756-0.396,1.147-0.396,2.42
		c0,1.529,0.762,1.822,1.014,2.953c-0.015,0.28-0.021,0.614-0.021,1.062c0,0.334,0.021,0.557,0.038,0.809
		c-0.132,0.768-0.363,1.148-0.363,2.449c0,1.815,0.636,1.815,0.636,3.627c0,1.815-1.166,1.815-1.166,3.639
		c0,1.811,0.51,1.811,0.51,3.639c0,1.002,0.366,1.459,0.7,1.98c-0.483,0.51-0.091,0.967-0.091,1.998
		c0,1.646,1.655,2.197,1.655,3.229v0.059c0,1.806-0.176,1.806-0.176,3.634c0,1.815-0.012,1.815-0.012,3.627
		c0,1.815-2.361,1.815-2.361,3.64c0,1.811-0.322,1.811-0.322,3.639c0,1.805,2.215,1.805,2.215,3.615
		c0,1.827-2.256,1.827-2.256,3.645c0,1.816,0.029,1.816,0.029,3.633s0.738,1.816,0.738,3.627s1.711,1.811,1.711,3.633
		s-1.579,1.822-1.579,3.633c0,1.816,0.349,1.816,0.349,3.633c0,1.818-1.058,1.816-1.058,3.634s0.902,1.815,0.902,3.633
		s0.773,1.815,0.773,3.627c0,1.815-1.11,1.815-1.11,3.634c0,1.827-0.48,1.827-0.48,3.639c0,1.799,1.441,1.799,1.441,3.627
		c0,1.811-1.421,1.811-1.421,3.621c0,1.828,0.814,1.828,0.814,3.639c0,1.805-0.117,1.805-0.117,3.633
		c0,1.816,0.322,1.816,0.322,3.633c0,1.817,1.377,1.816,1.377,3.627c0,1.816-0.129,1.816-0.129,3.633
		c0,1.812-0.501,1.812-0.501,3.615c0,1.828-1.743,1.828-1.743,3.633c0,1.812-0.343,2.269,0.99,3.545
		c1.339,1.295,1.796-0.287,3.691-0.287c1.887,0,1.887,0.019,3.782,0.019c1.884,0,1.884,0.826,3.773,0.826
		c1.887,0,1.887-0.838,3.776-0.838c1.889,0,1.89,1.5,3.773,1.5c1.89,0,1.89-1.718,3.776-1.718c1.886,0,1.887,0.732,3.776,0.732
		c1.887,0,1.887-0.908,3.773-0.908c1.886,0,1.887,1.805,3.768,1.805c1.89,0,1.89-0.784,3.776-0.784c1.893,0,1.893-0.763,3.773-0.763
		c1.887,0,1.887,1.144,3.773,1.144c1.881,0,1.881-0.69,3.768-0.69c1.887,0,1.887-0.435,3.768-0.435c1.887,0,1.887,1.67,3.773,1.67
		c1.881,0,1.881-0.41,3.768-0.41h3.768h3.779h3.768c1.887,0,1.887-1.547,3.779-1.547c1.875,0,1.875,2.134,3.762,2.134
		c1.893,0,1.893-1.062,3.779-1.062c1.881,0,1.881-1.57,3.768-1.57c1.893,0,1.893,0.914,3.779,0.914c1.875,0,1.875,0.095,3.768,0.095
		c1.875,0,1.875,1.424,3.768,1.424c1.887,0,1.887-0.101,3.762-0.101c1.893,0,1.893-0.832,3.779-0.832
		c1.881,0,1.881-0.164,3.768-0.164c1.887,0,1.887-1.26,3.768-1.26c1.887,0,1.887,2.051,3.773,2.051c1.886,0,1.887-0.721,3.773-0.721
		c1.875,0,1.875,0.06,3.762,0.06c1.881,0,1.881,1.241,3.768,1.241c1.295,0,1.723-0.188,2.455-0.312v-0.006
		c0.732-0.287,1.166-2.067,2.455-2.067c1.881,0,1.881-0.117,3.762-0.117c1.887,0,1.887-0.375,3.768-0.375
		c1.888,0,1.888,2.812,3.773,2.812c1.887,0,1.887-1.664,3.768-1.664c1.888,0,1.888-0.627,3.763-0.627
		c1.881,0,1.881,0.646,3.769,0.646c1.875,0,1.875,1.56,3.768,1.56c1.869,0,1.869-0.82,3.756-0.82s1.887-0.264,3.768-0.264
		s1.881-0.423,3.769-0.423c1.881,0,1.881,0.064,3.768,0.064c1.875,0,1.875-1.009,3.772-1.009c1.875,0,1.875,0.353,3.769,0.353
		c1.882,0,1.882-0.229,3.769-0.229c1.875,0,1.875,0.41,3.768,0.41c1.881,0,1.881,1.963,3.762,1.963c1.894,0,1.894-2.666,3.773-2.666
		s1.881,0.979,3.773,0.979c1.875,0,1.875-0.188,3.772-0.188c1.875,0,1.875-0.627,3.762-0.627c1.882,0,1.882,1.097,3.763,1.097
		c1.887,0,1.887-1.107,3.768-1.107s1.881,0.177,3.773,0.177c1.881,0,1.881,0.803,3.772,0.803c1.875,0,1.875-0.451,3.763-0.451
		c1.881,0,1.881,0.287,3.772,0.287c1.875,0,1.875-0.24,3.769-0.24c1.881,0,1.881,1.055,3.756,1.055c1.893,0,1.893-0.791,3.768-0.791
		c1.893,0,1.893,0.006,3.768,0.006c1.881,0,1.881,1.396,3.773,1.396c1.881,0,1.881-0.006,3.762-0.006
		c1.893,0,1.893-0.504,3.768-0.504c1.894,0,2.045,0.368,3.382-0.927c1.336-1.295-1.091-1.44-1.091-3.258
		c0-1.828,0.797-1.828,0.797-3.656c0-1.815,1.201-1.815,1.201-3.639c0-1.822,0.24-1.822,0.24-3.633c0-1.822-2.168-1.822-2.168-3.633
		c0-1.822,2.443-1.822,2.443-3.639c0-1.812-0.967-1.812-0.967-3.64c0-1.815-0.158-1.815-0.158-3.633
		c0-1.828-0.164-1.828-0.164-3.646c0-1.811-1.184-1.811-1.184-3.627c0-1.821,2.52-1.821,2.52-3.633c0-1.828-2.332-1.828-2.332-3.639
		c0-1.816,2.145-1.816,2.145-3.633c0-1.817-1.957-1.816-1.957-3.633c0-1.817,1.513-1.816,1.513-3.627
		c0-1.812-0.281-1.812-0.281-3.627c0-1.816,1.072-1.816,1.072-3.646c0-1.815-2.562-1.815-2.562-3.633
		c0-1.812,0.891-1.812,0.891-3.634c0-1.811-0.954-1.811-0.954-3.639c0-1.816,2.243-1.816,2.243-3.627
		c0-1.816-1.506-1.816-1.506-3.633c0-1.811,2.104-1.811,2.104-3.645C264,177.135,263.895,177.135,263.895,175.318z"/>
	<g display="inline">
		<g>
			<polyline fill="none" stroke="#FFFFFF" stroke-width="2.4" stroke-linecap="round" stroke-linejoin="round" points="
				249.375,244.447 249.375,247.447 246.375,247.447 			"/>
			
				<line fill="none" stroke="#FFFFFF" stroke-width="2.4" stroke-linecap="round" stroke-linejoin="round" stroke-dasharray="6.3366,27.2472" x1="219.128" y1="247.447" x2="31.249" y2="247.447"/>
			<polyline fill="none" stroke="#FFFFFF" stroke-width="2.4" stroke-linecap="round" stroke-linejoin="round" points="
				17.625,247.447 14.625,247.447 14.625,244.447 			"/>
			
				<line fill="none" stroke="#FFFFFF" stroke-width="2.4" stroke-linecap="round" stroke-linejoin="round" stroke-dasharray="6.2296,26.7873" x1="14.625" y1="217.66" x2="14.625" y2="32.952"/>
			<polyline fill="none" stroke="#FFFFFF" stroke-width="2.4" stroke-linecap="round" stroke-linejoin="round" points="
				14.625,19.559 14.625,16.559 17.625,16.559 			"/>
			
				<line fill="none" stroke="#FFFFFF" stroke-width="2.4" stroke-linecap="round" stroke-linejoin="round" stroke-dasharray="6.3366,27.2472" x1="44.873" y1="16.559" x2="232.751" y2="16.559"/>
			<polyline fill="none" stroke="#FFFFFF" stroke-width="2.4" stroke-linecap="round" stroke-linejoin="round" points="
				246.375,16.559 249.375,16.559 249.375,19.559 			"/>
			
				<line fill="none" stroke="#FFFFFF" stroke-width="2.4" stroke-linecap="round" stroke-linejoin="round" stroke-dasharray="6.2296,26.7873" x1="249.375" y1="46.346" x2="249.375" y2="231.055"/>
		</g>
	</g>
</g>
<g id="Layer_2">
	<g>
		<g>
			<polyline fill="none" stroke="#CAC1B0" stroke-width="2.4" stroke-linecap="round" stroke-linejoin="round" points="
				249.375,246.947 249.375,247.447 248.875,247.447 			"/>
			
				<line fill="none" stroke="#CAC1B0" stroke-width="2.4" stroke-linecap="round" stroke-linejoin="round" stroke-dasharray="0.9731,25.1072" x1="223.768" y1="247.447" x2="27.679" y2="247.447"/>
			<polyline fill="none" stroke="#CAC1B0" stroke-width="2.4" stroke-linecap="round" stroke-linejoin="round" points="
				15.125,247.447 14.625,247.447 14.625,246.947 			"/>
			
				<line fill="none" stroke="#CAC1B0" stroke-width="2.4" stroke-linecap="round" stroke-linejoin="round" stroke-dasharray="0.9571,24.6925" x1="14.625" y1="222.255" x2="14.625" y2="29.405"/>
			<polyline fill="none" stroke="#CAC1B0" stroke-width="2.4" stroke-linecap="round" stroke-linejoin="round" points="
				14.625,17.059 14.625,16.559 15.125,16.559 			"/>
			
				<line fill="none" stroke="#CAC1B0" stroke-width="2.4" stroke-linecap="round" stroke-linejoin="round" stroke-dasharray="0.9731,25.1072" x1="40.233" y1="16.559" x2="236.322" y2="16.559"/>
			<polyline fill="none" stroke="#CAC1B0" stroke-width="2.4" stroke-linecap="round" stroke-linejoin="round" points="
				248.875,16.559 249.375,16.559 249.375,17.059 			"/>
			
				<line fill="none" stroke="#CAC1B0" stroke-width="2.4" stroke-linecap="round" stroke-linejoin="round" stroke-dasharray="0.9571,24.6925" x1="249.375" y1="41.751" x2="249.375" y2="234.602"/>
		</g>
	</g>
</g>
</svg>
