<?xml version="1.0" encoding="utf-8"?>
<!-- Generator: Adobe Illustrator 16.0.0, SVG Export Plug-In . SVG Version: 6.00 Build 0)  -->
<!DOCTYPE svg PUBLIC "-//W3C//DTD SVG 1.1//EN" "http://www.w3.org/Graphics/SVG/1.1/DTD/svg11.dtd">
<svg version="1.1" id="Layer_1" xmlns="http://www.w3.org/2000/svg" xmlns:xlink="http://www.w3.org/1999/xlink" x="0px" y="0px"
	 width="264px" height="264px" viewBox="0 0 264 264" enable-background="new 0 0 264 264" xml:space="preserve">
<g>
	<path fill="#FFFFFF" d="M44.052,55.881c-1.867,0-3.38-1.513-3.38-3.38v-8.45c0-1.867,1.513-3.38,3.38-3.38h8.449
		c1.867,0,3.38,1.513,3.38,3.38c0,1.867-1.513,3.38-3.38,3.38h-5.069v5.07C47.432,54.368,45.918,55.881,44.052,55.881z"/>
</g>
<g>
	<path fill="#FFFFFF" d="M219.952,55.881c1.866,0,3.38-1.513,3.38-3.38v-8.45c0-1.867-1.514-3.38-3.38-3.38h-8.449
		c-1.867,0-3.38,1.513-3.38,3.38c0,1.867,1.513,3.38,3.38,3.38h5.069v5.07C216.572,54.368,218.086,55.881,219.952,55.881z"/>
</g>
<path fill="#FFFFFF" d="M140.963,47.393h-17.849c-1.867,0-3.38-1.513-3.38-3.38c0-1.867,1.513-3.38,3.38-3.38h17.849
	c1.867,0,3.379,1.513,3.379,3.38C144.342,45.88,142.83,47.393,140.963,47.393z"/>
<g>
	<path fill="#FFFFFF" d="M219.952,208.084c1.866,0,3.38,1.514,3.38,3.381v8.449c0,1.867-1.514,3.381-3.38,3.381h-8.449
		c-1.867,0-3.38-1.514-3.38-3.381c0-1.866,1.513-3.379,3.38-3.379h5.069v-5.07C216.572,209.598,218.086,208.084,219.952,208.084z"/>
</g>
<g>
	<path fill="#FFFFFF" d="M44.052,208.084c-1.867,0-3.38,1.514-3.38,3.381v8.449c0,1.867,1.513,3.381,3.38,3.381h8.449
		c1.867,0,3.38-1.514,3.38-3.381c0-1.866-1.513-3.379-3.38-3.379h-5.069v-5.07C47.432,209.598,45.918,208.084,44.052,208.084z"/>
</g>
<path fill="#FFFFFF" d="M123.041,216.572h17.85c1.866,0,3.379,1.514,3.379,3.381c0,1.865-1.513,3.379-3.379,3.379h-17.85
	c-1.867,0-3.379-1.514-3.379-3.379C119.662,218.086,121.174,216.572,123.041,216.572z"/>
<path fill="#FFFFFF" d="M223.332,123.075v17.85c0,1.866-1.514,3.38-3.381,3.38c-1.866,0-3.379-1.514-3.379-3.38v-17.85
	c0-1.867,1.513-3.379,3.379-3.379C221.818,119.696,223.332,121.208,223.332,123.075z"/>
<path fill="#FFFFFF" d="M47.393,123.075v17.85c0,1.866-1.514,3.38-3.381,3.38c-1.866,0-3.379-1.514-3.379-3.38v-17.85
	c0-1.867,1.513-3.379,3.379-3.379C45.879,119.696,47.393,121.208,47.393,123.075z"/>
<rect display="none" fill="none" width="264.003" height="264.003"/>
<line display="none" fill="none" stroke="#FFFFFF" stroke-width="0.25" stroke-linecap="round" stroke-linejoin="round" x1="0" y1="175.957" x2="264.003" y2="175.957"/>
<line display="none" fill="none" stroke="#FFFFFF" stroke-width="0.25" stroke-linecap="round" stroke-linejoin="round" x1="0" y1="88.045" x2="264.003" y2="88.045"/>
<line display="none" fill="none" stroke="#FFFFFF" stroke-width="0.25" stroke-linecap="round" stroke-linejoin="round" x1="176.023" y1="0" x2="176.023" y2="264.003"/>
<line display="none" fill="none" stroke="#FFFFFF" stroke-width="0.25" stroke-linecap="round" stroke-linejoin="round" x1="87.979" y1="0" x2="87.979" y2="264.003"/>
<rect display="none" fill="none" width="88.025" height="88.025"/>
<rect x="88.025" display="none" fill="none" width="88.025" height="88.025"/>
<rect x="40.671" y="40.671" display="none" fill="#FFFFFF" width="182.661" height="182.661"/>
<g id="Layer_2" display="none">
	<g display="inline">
		<path fill="#CAC1B0" d="M262.991,147.105c-0.06-1.475-1.458-1.931-2.953-2.123c1.229-0.297,2.159-0.918,1.663-2.508
			c-0.283-0.91-1.153-1.803-2.137-2.219c0.947-0.458,2.574-1.263,2.756-2.095c0.201-0.952-0.893-1.649-1.631-1.91
			c-0.326-0.112-0.791-0.128-1.281-0.125c1.264-0.418,2.455-1.142,2.359-2.315c-0.076-0.896-0.998-1.438-1.709-1.771
			c-0.302-0.142-0.623-0.258-0.947-0.362c1.918-0.148,3.927-0.604,3.205-2.364c-0.568-1.394-2.241-2.65-3.896-3.008
			c1.499-0.71,2.981-1.796,1.845-3.476c-0.173-0.253-0.568-0.53-1.035-0.767c0.108-0.02,0.215-0.04,0.275-0.057
			c0.844-0.261,1.426-0.813,1.409-1.727c-0.019-0.962-0.466-1.852-1.278-2.357c-0.261-0.162-0.543-0.262-0.83-0.333
			c0.127-0.047,0.25-0.104,0.381-0.174c0.533-0.296,2.17-0.999,2.252-1.792c0.135-1.297-1.961-1.722-3.446-1.79
			c1.75-0.712,4.375-2.302,4.231-3.892c-0.068-0.754-1.025-1.574-1.69-1.866c-0.468-0.205-1.052-0.168-1.638-0.048
			c1.328-1.109,2.451-2.448,0.791-4.199c-0.588-0.622-1.78-0.468-2.709,0.031c0.062-0.197,0.133-0.384,0.164-0.624
			c0.09-0.697,0.209-1.91-0.513-2.348c-0.673-0.41-1.688,0.225-2.259,0.671c-0.078-0.566-0.303-1.108-0.844-1.337
			c-1.25-0.53-2.313,0.587-2.965,1.884c-0.125-1.075-0.674-2.093-1.746-2.129c-0.627-0.019-1.229,0.401-1.711,0.979
			c-0.283-0.53-0.75-0.952-1.392-1.107c-1.188-0.294-2.396,0.454-3.165,1.494c-0.066-0.197-0.15-0.393-0.264-0.595
			c-0.415-0.735-1.062-1.562-1.988-1.508c-1.257,0.074-2.232,1.135-2.766,2.347c-0.424-1.33-1.193-2.552-2.692-2.36
			c-1.315,0.17-2.562,1.491-3.019,2.848c-0.18-1.2-0.435-2.374-1.893-2.309c-0.882,0.04-1.693,0.492-2.24,1.147
			c-0.354-0.945-1.056-1.647-2.336-1.448c-1.178,0.183-2.336,1.322-2.983,2.561c-0.009-0.35-0.052-0.69-0.306-1.048
			c-0.375-0.528-0.862-0.786-1.5-0.737c-0.889,0.069-1.893,0.738-2.611,1.59c-0.358-0.946-1.176-1.65-2.445-1.766
			c-0.757-0.068-1.559,0.587-2.056,1.394c-0.423-1.25-1.657-2.424-2.814-2.4c-1.362,0.029-2.432,0.836-3.083,1.922
			c-0.479-0.775-1.381-1.268-2.562-1.114c-0.55,0.07-1.265,0.534-1.792,1.125c-0.309-1.185-1.694-1.476-3.28-1.223
			c-1.046,0.167-2.01,0.371-2.728,1.129c-0.526-1.002-1.582-1.671-2.865-1.727c-1.59-0.07-2.639,0.896-3.145,2.217
			c-0.425-0.604-1.07-1.026-2.07-1.158c-0.905-0.12-1.547,0.233-1.946,0.81c-0.332-1.056-0.981-1.904-2.331-1.846
			c-1.359,0.061-2.699,1.049-3.3,2.305c-0.921-1.773-4.013-1.954-5.056-0.428c-0.651-0.718-1.631-1.308-2.231-1.359
			c-1.149-0.102-2.292,0.815-2.548,1.895c-0.238-0.295-0.525-0.557-0.829-0.77c-0.62-0.438-1.606-0.967-2.402-0.892
			c-0.657,0.063-1.327,0.524-1.829,1.135c-0.521-0.695-1.34-1.191-2.256-1.26c-0.872-0.066-2.023,0.486-2.725,1.276
			c-0.242-0.582-0.736-0.939-1.405-1.019c-1.578-0.182-2.782,0.81-3.567,2.041c-0.084-1.37,0.203-3.019-1.881-2.49
			c-0.676,0.17-2.009,1.018-2.637,1.958c-0.234-0.934-0.494-1.775-2.09-1.743c-1.36,0.025-2.36,0.596-2.943,1.526
			c-0.217-1.207-0.688-2.373-1.906-2.234c-0.842,0.096-1.992,1.112-2.601,2.207c-0.132-0.254-0.245-0.459-0.297-0.518
			c-0.562-0.629-1.354-1.081-2.204-1.168c-1.781-0.187-2.548,0.964-3.124,2.305c-0.876-1.556-2.122-2.651-4.19-2.17
			c-0.977,0.227-3.077,1.131-3.783,2.314c-0.598-0.733-1.352-1.631-1.572-1.778c-0.683-0.453-1.271-0.688-2.106-0.616
			c-1.45,0.124-2.577,0.933-3.106,2.125c-0.841-1.352-2.222-2.307-3.94-2.037c-1.075,0.167-2.432,0.912-3.123,1.928
			c-0.476-0.769-1.137-1.69-1.644-1.868c-1.604-0.563-2.756,0.766-3.808,1.761c-0.592-1.526-1.433-2.341-3.388-2.006
			c-1.176,0.2-2.71,0.865-3.441,1.913c-0.421-1.073-1.403-2.01-2.425-2.419c-2.017-0.811-3.371,0.428-4.24,2.034
			c-0.992-2.446-4.917-1.604-6.119,0.557c-1.362-2.406-5.327-2.862-6.73-0.492c-0.516-1.151-1.24-2.108-2.701-2.179
			c-2.136-0.102-3.502,1.1-4.407,2.682c-0.164-0.364-0.337-0.712-0.499-1.007c-0.51-0.937-1.365-1.635-2.459-1.635
			c-1.409-0.001-2.542,1.027-3.463,1.971c-0.115,0.118-0.26,0.256-0.41,0.405c-0.114-0.727-0.326-1.465-0.613-1.938
			c-0.509-0.842-1.598-1.417-2.562-1.281c-1.128,0.16-1.778,0.78-2.356,1.631c-0.49-1.34-1.565-2.483-2.85-2.415
			c-1.601,0.085-3.501,1.179-4.478,2.683c-0.097-0.288-0.208-0.557-0.333-0.773c-0.616-1.052-1.556-1.303-2.696-1.381
			c-1.352-0.09-2.411,0.294-3.153,1.47c-0.179,0.283-0.384,0.623-0.561,0.982c-0.187-0.276-0.391-0.541-0.616-0.777
			c-0.746-0.784-2.064-1.288-3.151-1.128c-0.94,0.138-2.493,1.297-3.148,2.523c-0.029-0.042-0.071-0.096-0.097-0.136
			c-0.664-1.013-1.46-2.308-2.805-2.387c-1.321-0.077-2.739,1.14-3.537,2.553c-0.093-0.307-0.22-0.606-0.45-0.881
			c-0.714-0.855-1.751-1.428-2.884-1.206c-1.898,0.374-3.033,1.581-3.541,3.141c-0.009-0.02-0.023-0.042-0.028-0.053
			c-0.305-0.46-0.706-0.935-1.059-1.362c-1.175-1.42-2.572-1.162-3.952-0.26c-0.874,0.569-1.518,1.229-1.929,2.113
			c-0.16-0.503-0.347-0.994-0.573-1.452c-0.428-0.868-1.162-0.981-2.057-0.864c-1.334,0.173-1.957,0.378-2.666,1.523
			c-0.152,0.249-0.305,0.526-0.445,0.815c-0.155-0.488-0.336-0.962-0.53-1.412c-0.442-1.031-1.234-1.423-2.346-1.343
			c-1.866,0.133-3.349,1.558-4.151,3.225c-0.136-0.393-0.267-0.786-0.421-1.174c-0.472-1.179-1.265-0.971-2.327-0.764
			c-1.272,0.249-2.414,0.332-3.101,1.579c-0.438,0.794-0.505,1.718-0.241,2.558c-1.992,0.197-2.883,1.368-2.918,3.684
			c-0.014,0.768,0.041,0.877,0.489,1.479c0.273,0.366,0.68,0.821,1.062,1.056c0.029,0.018,0.093,0.031,0.14,0.047
			c-1.197,0.547-2.082,1.547-2.157,3.038c-0.092,1.793,1.236,2.535,2.718,2.915c-2.603,1.507-2.683,4.804,0.1,5.831
			c-1.337,0.739-2.447,1.837-2.467,3.504c-0.023,1.746,1.019,2.823,2.441,3.365c-2.806,1.954-1.716,6.971,0.453,8.006
			c-1.25,0.307-2.279,1.563-2.318,2.909c-0.049,1.744,1.239,2.315,2.612,2.664c-1.416,0.776-2.818,2.31-2.823,3.341
			c-0.005,1.297,0.979,2.46,2.067,2.926c0.018,0.01,0.05,0.02,0.07,0.027c-0.488,0.23-0.932,0.602-1.288,1.021
			c-0.368,0.429-0.311,0.858-0.394,1.396c-0.093,0.601-0.335,1.183-0.317,1.798c0.02,0.664,0.317,1.045,0.737,1.325
			c-0.093,0.067-0.185,0.117-0.276,0.207c-0.742,0.753-1.498,1.968-1.792,2.976c-0.484,1.647,0.886,2.76,2.28,3.473
			c-1.605,0.722-2.937,2.615-2.351,4.281c0.329,0.924,0.953,2.129,1.713,2.721c-0.162,0.146-0.297,0.298-0.385,0.438
			c-0.683,1.077-0.876,2.483-0.227,3.618c0.4,0.693,1.622,1.996,2.57,1.739c0.652-0.178,1.04-0.983,1.472-1.438
			c0.069-0.072,0.145-0.119,0.216-0.181c0.189,1.667,1.235,3.647,2.918,3.283c0.582-0.124,1.668-0.906,2.209-1.741
			c0.73,1.268,1.702,2.307,3.438,1.629c0.944-0.367,1.498-1.17,1.727-2.07c0.244,1.535,0.075,3.448,2.292,3.242
			c1.38-0.132,2.298-1.261,2.679-2.533c0.477,0.813,1.162,1.453,2.037,1.396c1.039-0.063,2.47-1.038,3.348-2.164
			c0.343,1.677,1.209,3.272,3.183,2.79c0.812-0.2,1.882-0.896,2.459-1.484c0.459-0.467,0.626-0.92,0.68-1.408
			c0.726,1.229,1.522,2.139,3.41,1.361c0.576-0.24,0.954-0.559,1.234-1.005c0.481,1.535,1.268,2.966,2.683,2.563
			c0.993-0.286,2.065-1.86,2.55-3.361c0.551,0.941,1.43,1.688,2.444,1.636c1.12-0.057,1.964-0.69,2.463-1.556
			c0.237,0.434,0.499,0.843,0.693,1.195c0.385,0.689,0.989,1.646,1.937,1.463c0.713-0.139,1.533-1.041,2.028-2.051
			c0.462,0.889,1.185,1.588,2.149,1.496c0.83-0.076,1.516-0.688,1.924-1.467c0.455,1.291,1.621,2.441,2.894,2.309
			c1.153-0.121,1.723-1.244,2.311-2.123c0.003,0.006,0.005,0.018,0.008,0.022c0.24,0.575,0.557,1.12,0.995,1.57
			c0.504,0.519,1.165,0.985,1.929,0.919c0.892-0.078,1.403-0.729,1.692-1.546c0.157,0.498,0.32,0.927,0.41,1.069
			c0.449,0.723,1.399,1.211,2.251,1.104c1.157-0.143,1.742-0.887,2.018-1.811c0.476,0.918,1.194,1.613,2.214,1.549
			c1.149-0.073,1.88-0.745,2.197-1.617c0.402,1.414,0.955,2.613,2.889,2.216c1.32-0.269,2.208-1.114,2.46-2.187
			c0.804,1.062,1.871,1.841,3.416,1.701c0.885-0.078,1.404-0.479,1.717-1.028c0.43,1.131,1.175,2.014,2.571,1.587
			c1.118-0.342,2.194-1.357,2.615-2.521c0.496,0.998,1.112,1.713,2.661,1.428c1.465-0.271,1.936-0.871,2.042-1.771
			c0.328,0.762,0.655,1.648,0.838,1.883c0.668,0.852,1.693,1.479,2.798,1.232c1.248-0.274,1.891-1.195,2.177-2.271
			c0.308,0.875,0.808,1.586,1.944,1.534c1.435-0.067,2.077-1.233,2.325-2.517c0.308,1.422,0.673,2.803,2.623,2.641
			c0.958-0.078,2.388-1.24,2.842-2.033c0.691,1.031,1.777,1.559,3.409,0.772c0.417-0.202,0.922-0.765,1.33-1.429
			c0.268,1.316,0.972,2.238,3.021,1.863c0.817-0.152,1.658-0.64,2.194-1.271c0.301-0.354,0.458-0.707,0.546-1.06
			c0.604,1.15,1.53,2.01,3.004,1.459c0.567-0.215,1.07-0.765,1.412-1.425c0.393,1.449,1.198,2.782,2.719,2.691
			c1.399-0.084,2.577-1.195,3.112-2.515c0.586,1.053,1.511,1.698,3.065,1.022c0.729-0.322,1.465-1.021,1.977-1.847
			c0.054,0.644,0.186,1.261,0.615,1.677c0.623,0.601,1.674,0.579,2.4,0.198c0.697-0.368,1.525-1.055,2.086-1.862
			c0.312,0.924,0.889,1.667,1.971,1.56c0.729-0.07,1.289-0.58,1.725-1.141c0.184-0.244,0.4-0.641,0.538-0.945
			c0.181,0.727,0.386,1.706,0.621,2.002c0.507,0.635,1.749,1.816,2.628,1.851c1.684,0.063,2.562-1.495,3.095-3.066
			c0.351,0.974,1.021,1.767,2.128,1.81c1.475,0.06,2.322-0.659,2.814-1.664c0.221,0.734,0.501,1.445,0.654,1.637
			c0.576,0.705,1.461,0.975,2.361,0.838c0.945-0.143,2.145-0.831,2.762-1.547c0.217-0.253,0.369-0.505,0.484-0.76
			c0.473,1.147,1.286,1.938,2.723,1.4c0.804-0.3,2.101-1.275,2.791-2.361c0.072,1.351,0.246,2.916,1.584,2.929
			c1.032,0.014,2.426-1.521,3.026-2.19c0.179-0.197,0.306-0.386,0.405-0.572c0.449,1.057,1.085,1.854,2.636,1.608
			c0.983-0.155,1.71-0.763,2.157-1.56c0.285,1.785,0.449,3.963,2.742,3.49c1.818-0.373,3.168-1.824,3.603-3.51
			c0.731,1.463,1.794,2.396,3.663,1.58c0.812-0.354,1.342-1.029,1.607-1.818c0.17,1.225,0.539,2.313,2.183,2.389
			c1.313,0.061,2.465-0.881,3.062-2.036c0.474,1.294,1.129,2.798,2.592,2.392c0.801-0.222,1.492-1.098,1.921-1.771
			c0.106-0.168,0.303-0.812,0.489-1.407c0.799,1.734,0.791,3.479,3.521,3.055c0.89-0.139,3.083-0.922,3.621-2.08
			c0.149,0.33,0.295,0.617,0.394,0.713c0.67,0.648,1.561,1.018,2.516,0.951c1.312-0.09,2.061-1.031,2.439-2.148
			c0.247,1.384,0.24,2.66,2.387,2.663c1.879,0.003,3.887-1.418,4.561-3.188c0.12,0.539,0.241,1.084,0.725,1.5
			c0.609,0.527,1.6,0.756,2.375,0.715c1.191-0.065,2.112-0.768,2.666-1.717c0.199,1.307,0.817,2.873,2.03,3.023
			c1.67,0.207,2.628-1.232,3.19-2.696c0.389,1.003,1.184,1.837,2.256,1.634c0.811-0.154,1.554-0.791,1.98-1.471
			c0.055-0.086,0.17-0.395,0.277-0.75c0.643,1.298,1.035,2.834,2.866,2.68c1.475-0.123,2.665-1.281,2.974-2.632
			c0.891,1.095,1.879,1.812,3.604,1.171c1.154-0.426,1.57-0.925,1.689-1.552c0.59,1.026,1.438,1.884,2.598,1.688
			c0.722-0.125,1.701-0.814,2.086-1.452c0.233-0.39,0.277-0.8,0.268-1.22c0.659,1.022,1.418,1.903,2.986,1.636
			c1.558-0.261,1.31-1.666,1.723-2.826c0.021,0.019,0.05,0.043,0.068,0.056c0.486,0.301,1.002,0.57,1.582,0.629
			c0.724,0.071,1.675-0.468,1.957-1.158c0.336-0.83-0.312-1.603-0.869-2.133c-0.145-0.134-0.301-0.279-0.451-0.426
			c0.98,0,2.154,0.021,3.04-0.333c0.159-0.062,0.265-0.206,0.218-0.385c-0.195-0.763-0.984-1.354-1.604-1.778
			c-0.245-0.164-0.541-0.398-0.858-0.619c0.043-0.008,0.085-0.006,0.129-0.014c0.821-0.148,2.224-0.406,2.636-1.277
			c0.441-0.931-0.168-1.963-0.88-2.516c-0.235-0.184-0.503-0.348-0.776-0.499c1.078-0.228,1.882-0.8,1.408-2.131
			c-0.289-0.81-1.125-1.248-1.838-1.701c1.256,0.056,2.479-0.05,2.463-1.416c-0.011-0.823-0.769-1.765-1.365-2.28
			c-0.25-0.209-0.479-0.334-0.705-0.404c0.953-0.328,1.736-0.867,1.261-1.894c-0.228-0.487-0.729-0.948-1.328-1.295
			c0.433-0.042,0.858-0.112,1.242-0.274C262.307,148.87,263.027,148.075,262.991,147.105 M259.889,141.096
			c0.295,0.327,0.588,0.653,0.883,0.98c0.488,0.574,0.408,1.07-0.244,1.486c-0.629,0.81-1.113,0.834-2.041,0.949
			c-0.152,0.021-0.305,0.023-0.457,0.029c0.004-0.546,0.001-1.102,0.021-1.639c0.026-0.717,0.034-1.434,0.04-2.146
			c0.212-0.025,0.417-0.07,0.626-0.133C259.111,140.73,259.553,140.859,259.889,141.096 M260.744,137.146
			c1.414,1.062-0.614,1.819-1.545,2.354c-0.406,0.233-0.762,0.336-1.1,0.38c0-1.023-0.021-2.041-0.051-3.058
			C258.954,136.824,259.967,136.562,260.744,137.146 M259.27,132.467c1.168,0.494,1.744,1.772,0.474,2.674
			c-0.451,0.32-1.109,0.498-1.731,0.603c-0.051-1.285-0.109-2.567-0.181-3.849C258.271,132.146,258.79,132.264,259.27,132.467
			 M259.503,127.647c1.024,0.632,2.759,2.745,0.625,2.968c-0.771,0.08-1.581,0.065-2.362,0.151
			c-0.072-1.279-0.146-2.557-0.216-3.836C258.244,126.966,258.92,127.286,259.503,127.647 M258.566,125.655
			c-0.33,0.173-0.69,0.289-1.062,0.396c-0.062-1.283-0.123-2.565-0.155-3.853c0.133,0.001,0.269-0.003,0.403-0.008
			c0.415,0.097,0.819,0.239,1.129,0.455C259.682,123.203,259.529,125.146,258.566,125.655 M259.562,120.626
			c-0.576,0.794-0.945,0.759-1.853,0.714c-0.132-0.007-0.258-0.038-0.386-0.056c-0.018-0.993-0.023-1.991-0.008-2.989
			c0-0.045,0.002-0.098,0.002-0.146C258.967,118.454,260.844,118.856,259.562,120.626 M258.105,114.476
			c0.516,0.052,3.039,0.284,2.174,1.417c-0.409,0.536-1.967,1.116-2.551,1.191c-0.123,0.014-0.244,0.012-0.365,0.009
			c0.046-0.838,0.113-1.757,0.178-2.71C257.854,114.448,258.152,114.481,258.105,114.476 M259.547,108.747
			c0.661,0.168,1.242,0.468,1.742,0.906c0.229,0.566,0.09,0.994-0.42,1.285c-0.653,0.912-2.055,1.822-3.256,2.312
			c0.072-1.366,0.086-2.763-0.023-4.097C258.193,108.98,258.975,108.715,259.547,108.747 M258.087,104.284
			c1.328-0.103,1.843,1.304,1.134,2.545c-0.386,0.67-1.09,1.012-1.723,1.418c-0.166-1.199-0.465-2.313-0.982-3.256
			C257.073,104.835,258.256,104.271,258.087,104.284 M254.303,103.161c0.572-0.98,1.567-1.866,1.953-0.698
			c0.201,0.604-0.033,1.127-0.383,1.606c-0.28-0.244-0.758-0.342-1.088-0.226c-0.197,0.066-0.43,0.108-0.659,0.156
			C254.209,103.728,254.27,103.444,254.303,103.161 M252.281,101.249c0.267-0.364,0.541-0.38,0.828-0.042
			c0.328,0.045,0.475,0.211,0.437,0.496c0.07,0.252,0.009,0.533-0.063,0.803c-0.346,0.488-0.551,1.043-0.545,1.642
			c-0.799,0.046-1.684,0.024-2.594-0.038C250.624,103.022,251.309,101.667,252.281,101.249 M247.417,102.122
			c0.222-0.456,0.497-0.841,0.799-0.854c0.448-0.02,1.462,1.059,1.479,1.549c0.006,0.216-0.188,0.78-0.247,1.024
			c-0.019,0.078,0.009,0.138,0.024,0.201c-0.871-0.074-1.728-0.167-2.522-0.25C247.292,103.307,247.448,102.712,247.417,102.122
			 M242.648,102.494c0.02-0.109,0.02-0.211,0.022-0.314c0.517-0.692,1.177-1.305,1.894-1.482c0.898-0.225,1.727,0.334,1.986,1.085
			c-0.335,0.641-0.52,1.329-0.451,1.843c0.004,0.029,0.024,0.054,0.034,0.082c-0.444-0.043-0.868-0.082-1.229-0.099
			c-0.871-0.046-1.734-0.099-2.598-0.153c-0.007-0.003-0.007-0.008-0.013-0.013C242.284,103.433,242.62,102.673,242.648,102.494
			 M238.4,101.713c0.566-1.015,0.974-1.441,2.138-1.1c1.333,0.388,1.034,1.122,0.978,2.397c-0.004,0.084-0.076,0.274-0.111,0.395
			c-1.127-0.068-2.26-0.111-3.389-0.163C238.036,102.715,238.131,102.192,238.4,101.713 M234.418,100.232
			c0.848-0.143,2.006,1.106,2.284,1.798c0.127,0.319,0.231,0.76,0.308,1.168c-0.557-0.021-1.105-0.057-1.666-0.069
			c-1.1-0.023-2.201-0.009-3.303-0.01C232.389,102.083,233.385,100.41,234.418,100.232 M229.711,100.718
			c0.736-0.075,0.898,0.252,1.166,1.062c0.148,0.452,0.161,0.897,0.208,1.337c-1.03,0.003-2.062-0.008-3.092,0.005
			c0.013-0.255,0.009-0.519-0.011-0.792C228.198,101.523,228.912,100.799,229.711,100.718 M224.255,100.921
			c0.454-0.548,0.989-0.466,1.601,0.25c0.854-0.031,1.271,0.255,1.248,0.857c-0.099,0.354-0.113,0.726-0.052,1.104
			c-1.493,0.017-2.987,0.038-4.481,0.047c-0.016-0.056-0.062-0.092-0.096-0.133C222.859,102.181,223.503,101.309,224.255,100.921
			 M221.174,101.464c0.48,0.383,0.242,1.114,0.36,1.718c-1.089,0.003-2.177-0.007-3.267-0.026
			C218.865,102.03,220.266,100.738,221.174,101.464 M213.535,102.789c0.232-0.477,0.533-1.004,0.797-1.211
			c0.438-0.345,1.656-0.5,2.162-0.224c0.459,0.255,0.654,1.055,0.65,1.768c-1.052-0.029-2.104-0.04-3.156-0.1
			c-0.164-0.008-0.332-0.012-0.497-0.021C213.52,102.935,213.518,102.858,213.535,102.789 M207.911,102.283
			c0.264-0.841,0.791-1.618,1.651-1.975c1.47-0.614,3.463,1.049,3.064,2.625c-0.004,0.011,0.005,0.019,0.005,0.029
			c-1.584-0.083-3.161-0.142-4.741-0.211C207.917,102.592,207.912,102.437,207.911,102.283 M207.104,101.975
			c-0.08,0.242-0.142,0.486-0.182,0.732c-1.25-0.05-2.504-0.125-3.752-0.167C203.604,100.79,206.842,100.342,207.104,101.975
			 M202.119,102.508c-1.528-0.047-3.055-0.067-4.58-0.1c0.001-0.134,0.012-0.272-0.002-0.4
			C198.551,100.927,203.643,98.695,202.119,102.508 M192.421,100.749c1.462-0.94,3.722-0.616,4.144,1.059
			c-0.08,0.192-0.133,0.386-0.131,0.574c-1.601-0.031-3.203-0.087-4.803-0.105c-0.025-0.081-0.068-0.145-0.1-0.222
			C191.718,101.561,191.997,101.02,192.421,100.749 M189.973,101.415c0.309,0.193,0.506,0.507,0.67,0.848
			c-1.023-0.009-2.05-0.008-3.076-0.011C187.771,101.246,188.469,100.471,189.973,101.415 M183.404,100.465
			c1.15-0.674,2.162-0.906,3.125,1.113c0.043,0.092,0.078,0.369,0.105,0.674c-1.617,0-3.234-0.01-4.854,0.006
			c-0.006-0.04-0.027-0.068-0.034-0.106C182.166,101.479,182.802,100.817,183.404,100.465 M179.768,101.25
			c0.616,0.313,0.922,0.594,1.066,1.025c-1.232,0.014-2.473,0.047-3.706,0.071c-0.007-0.154-0.036-0.311-0.103-0.473
			C177.262,100.667,178.991,100.857,179.768,101.25 M172.314,102.065c0.172-1.007,0.736-1.352,1.697-1.042
			c0.666-0.293,1.148-0.176,1.45,0.353c0.308,0.255,0.528,0.576,0.694,0.937c0,0.018,0.003,0.036,0.004,0.053
			c-1.309,0.028-2.61,0.036-3.92,0.075C172.301,102.335,172.332,102.215,172.314,102.065 M169.393,101.027
			c0.873,0.212,1.338,0.756,1.599,1.448c-1.261,0.041-2.517,0.058-3.777,0.111c-0.014-0.239-0.06-0.475-0.134-0.698
			C167.643,101.246,168.718,100.864,169.393,101.027 M161.771,102.459c0.422-1.058,0.815-1.264,1.938-1.49
			c0.852-0.518,1.452-0.326,1.803,0.575c0.258,0.134,0.439,0.297,0.549,0.486c-0.078,0.197-0.129,0.396-0.162,0.596
			c-1.414,0.056-2.824,0.095-4.235,0.131c-0.001-0.006,0-0.01,0-0.015C161.693,102.65,161.729,102.562,161.771,102.459
			 M158.676,101.287c1.012-0.542,1.908,0.527,2.195,1.494c-1.227,0.028-2.446,0.047-3.668,0.062
			C157.557,102.21,158.006,101.646,158.676,101.287 M153.725,100.845c1.01-0.687,2.053-0.684,2.285,0.733
			c0.074,0.436-0.021,0.852-0.004,1.278c-1.13,0.012-2.263,0.032-3.39,0.035c-0.046-0.074-0.071-0.154-0.104-0.232
			C152.688,101.936,153.068,101.291,153.725,100.845 M151.491,101.771c0.159,0.314,0.137,0.735,0.192,1.123
			c-1.406,0-2.812,0-4.217-0.008C147.98,101.402,150.232,99.28,151.491,101.771 M146.152,100.745
			c0.347,0.507,0.345,1.41,0.379,2.133c-1.024-0.008-2.051-0.015-3.076-0.026c-0.082-0.103-0.223-0.354-0.375-0.643
			C143.652,100.818,145.062,99.13,146.152,100.745 M142.188,102.265c0.03,0.051,0.041,0.1,0.062,0.15
			c-0.018,0.144-0.039,0.289-0.025,0.424c-1.533-0.019-3.072-0.031-4.607-0.054C138.585,100.773,140.596,99.373,142.188,102.265
			 M134.171,100.987c1.479,0.323,1.812,0.688,2.3,1.779c-2.318-0.036-4.639-0.074-6.964-0.107
			C130.526,101.19,132.65,100.654,134.171,100.987 M124.159,101.027c2.074-0.367,3.481,0.188,4.261,1.617
			c-1.786-0.025-3.573-0.046-5.362-0.059C123.425,102.065,123.792,101.545,124.159,101.027 M121.734,102.563
			c-2.018-0.029-4.035-0.095-6.049-0.177C117.432,100.651,120.471,100.19,121.734,102.563 M114.336,101.902
			c0.085,0.142,0.135,0.292,0.197,0.439c-1.39-0.06-2.78-0.119-4.169-0.176C111.703,101.057,113.138,99.933,114.336,101.902
			 M106.505,100.396c1.275-0.009,2.08,0.611,2.522,1.717c-1.273-0.048-2.546-0.092-3.817-0.118c-0.661-0.015-1.319,0.003-1.978,0.01
			C104.109,101.131,105.799,100.403,106.505,100.396 M101.338,100.752c0.432,0.452,0.646,0.857,0.752,1.262
			c-1.83,0.041-3.656,0.129-5.48,0.239C97.495,100.299,99.397,98.732,101.338,100.752 M95.633,102.312
			c-1.699,0.105-3.396,0.213-5.094,0.291C91.924,100.794,95.547,99.256,95.633,102.312 M83.896,102.601
			c0.411-3.302,4.459-1.936,5.46-0.473c0.086,0.126,0.155,0.319,0.219,0.519c-1.9,0.073-3.8,0.083-5.705,0.011
			C83.876,102.635,83.894,102.625,83.896,102.601 M79.252,100.318c2.155-0.605,2.958,0.434,3.645,2.295
			c-1.458-0.084-2.916-0.206-4.379-0.438c-0.32-0.05-0.556,0.136-0.666,0.37c-0.406-0.004-0.807-0.003-1.211-0.006
			C77.248,101.534,78.371,100.567,79.252,100.318 M73.365,100.12c1.362,0.129,1.425,1.039,1.959,2.07
			c0.064,0.127,0.158,0.23,0.24,0.345c-1.325-0.008-2.65-0.017-3.975-0.02c-0.668-0.078-1.339-0.146-2.012-0.197
			C70.567,101.142,72.06,99.995,73.365,100.12 M64.174,101.008c0.613-0.971,1.392-2.065,2.669-1.722
			c1.401,0.379,1.473,1.742,1.766,2.979c-0.595-0.023-1.194-0.03-1.801,0.006c-0.757,0.046-1.506,0.109-2.258,0.164
			c-0.172-0.005-0.345-0.018-0.518-0.023C64.188,101.988,64.219,101.501,64.174,101.008 M57.65,100.115
			c0.695-0.861,2.317-2.014,3.535-1.791c1.189,0.22,1.833,1.543,2.031,2.69c-0.213,0.416-0.403,0.895-0.442,1.343
			c-1.237-0.039-2.476-0.077-3.715-0.165c-0.727-0.05-1.44-0.06-2.16-0.09c0.011-0.222,0-0.453-0.024-0.685
			C57.086,100.954,57.333,100.51,57.65,100.115 M51.08,100.052c0.61-1.021,1.5-1.275,2.621-1.162
			c1.023,0.103,1.708,0.53,1.978,1.588c0.082,0.325,0.197,0.721,0.308,1.125c-0.027,0.152-0.041,0.307-0.045,0.463
			c-1.801-0.053-3.589-0.071-5.357-0.023c-0.042-0.204-0.094-0.407-0.181-0.612c-0.017-0.041-0.044-0.077-0.063-0.119
			C50.559,100.847,50.872,100.399,51.08,100.052 M44.572,100.394c0.806-0.819,1.647-1.131,2.776-0.806
			c1.076,0.311,1.636,1.077,2.117,1.99c-0.021,0.175-0.019,0.345,0.004,0.513c-1.893,0.071-3.779,0.172-5.664,0.328
			c-0.066-0.159-0.176-0.311-0.271-0.465C43.755,101.354,44.119,100.852,44.572,100.394 M37.518,101.085
			c0.299-0.412,0.664-0.75,1.061-1.062c1.042-0.816,1.865-0.694,2.77,0.318c0.522,0.587,0.885,1.297,1.295,1.966
			c0.011,0.069,0.017,0.14,0.037,0.206c-1.921,0.173-3.846,0.375-5.787,0.599c-0.056-0.192-0.086-0.393-0.117-0.591
			C37.041,101.917,37.427,101.213,37.518,101.085 M30.728,101.486c0.838-1.344,3.109-2.13,4.333-1.008
			c0.775,0.711,0.699,1.552,0.823,2.361c-0.014,0.137,0.005,0.259,0.008,0.389c-0.989,0.118-1.983,0.238-2.986,0.362
			c-0.918,0.113-1.838,0.179-2.76,0.246c0.052-0.121,0.007-0.358-0.075-0.624C30.226,102.609,30.401,102.009,30.728,101.486
			 M23.331,103c0.25-0.498,0.579-0.955,1.005-1.314c0.789-0.671,1.157-0.798,2.205-0.726c1.203,0.08,1.234,0.249,1.813,1.132
			c0.261,0.397,0.519,0.423,0.721,0.991c0.109,0.308,0.109,0.576,0.119,0.833c-1.208,0.07-2.417,0.107-3.629,0.126
			c-0.847-0.064-1.696-0.131-2.542-0.171c-0.008-0.03-0.017-0.06-0.025-0.091C23.138,103.428,23.29,103.081,23.331,103
			 M17.88,102.438c0.62-0.977,1.239-1.236,2.368-1.366c1.384-0.158,1.47,1.722,1.797,2.69c0.009,0.028,0.024,0.052,0.033,0.081
			c-0.821-0.014-1.638,0.003-2.439,0.106c-0.183,0.024-0.368,0.051-0.552,0.077c-0.601-0.008-1.2,0-1.799-0.004
			c-0.016-0.079-0.045-0.157-0.062-0.236C17.413,103.324,17.609,102.867,17.88,102.438 M10.534,103.081
			c0.474-0.8,1.61-1.668,2.401-2.092c0.785-0.421,1.936-0.786,2.628,0.234c0.216,0.317,0.258,0.795,0.381,1.152
			c0.188,0.554,0.361,1.098,0.533,1.647c-2.074,0-4.144,0.026-6.206,0.144c-0.015-0.042-0.027-0.085-0.038-0.128
			C10.386,103.594,10.501,103.133,10.534,103.081 M2.021,107.786c-0.013-0.652,0.228-1.191,0.723-1.621
			c0.405-0.131,0.787-0.312,1.166-0.504c-0.004,0.045-0.024,0.09-0.019,0.133c0.18,1.734,0.276,3.453,0.336,5.165
			c-0.245-0.165-0.542-0.197-0.94-0.376C1.916,109.97,1.685,109.273,2.021,107.786 M2.873,116.422
			c-0.843-0.549-1.691-1.97-1.228-2.935c0.433-0.9,1.457-1.344,2.464-1.358c0.046,0,0.092-0.022,0.138-0.036
			c0.039,1.578,0.056,3.157,0.045,4.733C3.783,116.739,3.239,116.663,2.873,116.422 M3.977,117.65
			c0.105,0.018,0.208,0.04,0.31,0.056c-0.015,1.595-0.021,3.209-0.028,4.822C2.573,121.907,2.52,118.763,3.977,117.65 M4.252,123.87
			c0,0.194-0.004,0.384-0.004,0.579c0.008,1.716,0.076,3.441,0.168,5.167C-0.483,128.673,1.913,125.117,4.252,123.87 M2.208,134.258
			c-0.217-1.341,1.005-3.336,2.257-3.779c0.136,2.361,0.304,4.727,0.418,7.089c-0.043,0.101-0.032,0.211,0.012,0.313
			c0.002,0.045,0.003,0.091,0.005,0.138C3.902,137.482,2.326,134.988,2.208,134.258 M2.116,153.428
			c0.123-0.578,0.205-1.64,0.567-2.082c0.43-0.527,1.004-0.775,1.608-0.968c0.086,0.021,0.172,0.056,0.256,0.065
			c-0.151,1.719-0.312,3.433-0.466,5.146c-0.003-0.068-0.037-0.138-0.121-0.165c-0.329-0.108-0.625-0.161-0.912-0.172
			c-0.009-0.005-0.039-0.017-0.043-0.021C2.062,154.85,1.898,154.436,2.116,153.428 M0.906,159.422
			c-0.095-0.915,0.774-1.917,1.271-2.654c0.271-0.402,0.547-0.578,0.869-0.697c0.268,0.097,0.636,0.283,0.967,0.32
			c-0.155,1.85-0.282,3.696-0.357,5.558c-0.017-0.005-0.028-0.021-0.046-0.021c-0.043-0.003-0.087,0.012-0.132,0.012
			c-0.109-0.066-0.237-0.131-0.421-0.225C2.156,161.253,1.016,160.484,0.906,159.422 M0.903,166.386
			c-0.474-1.483,0.795-3.1,2.151-3.765c0.125,0.052,0.254,0.107,0.368,0.152c0.071,0.024,0.138,0.014,0.201-0.016
			c-0.031,1.035-0.05,2.071-0.035,3.113c0.013,0.749-0.05,1.574-0.078,2.395c-0.014,0.004-0.029-0.002-0.043,0.006
			c-0.759,0.357-1.117,0.277-1.683-0.379C1.474,167.529,1.049,166.842,0.903,166.386 M4.256,173.104
			c-0.174,0.189-0.498,0.726-0.73,0.836c-0.572,0.274-1.223-0.41-1.525-0.791c-0.704-0.888-0.667-2.103-0.085-3.049
			c0.057-0.096,0.247-0.295,0.462-0.51c0.367,0.036,0.746-0.105,1.129-0.502c0.023,1.383,0.291,2.666,1.397,3.462
			C4.681,172.725,4.452,172.889,4.256,173.104 M4.917,145.562c-0.076,1.373-0.186,2.74-0.303,4.104
			c-0.454-0.069-0.966-0.239-1.224-0.385c-1.378-0.771-2.013-2.226-0.591-3.634c0.244-0.239,1.362-1.032,2.15-1.379
			C4.936,144.7,4.941,145.134,4.917,145.562 M3.287,142.205c-1.177-0.414-1.374-1.158-0.585-2.234
			c0.549-0.736,1.24-1.212,2.073-1.422c0.088-0.029,0.132-0.109,0.139-0.191c0.066,1.567,0.083,3.133,0.065,4.692
			C4.412,142.881,3.92,142.688,3.287,142.205 M4.697,104.736c-0.14,0.024-0.27,0.106-0.39,0.212
			c-0.044-0.459-0.097-0.917,0.037-1.362c0.397-1.325,1.564-1.574,2.76-1.791c0.782-0.141,1.484-0.269,1.812,0.586
			c0.109,0.289,0.129,0.609,0.24,0.902c0.102,0.267,0.209,0.529,0.314,0.79c-0.012,0.049-0.02,0.098-0.032,0.146
			C7.854,104.331,6.27,104.477,4.697,104.736 M9.041,175.355c-0.67,0.631-1.159,0.967-2.054,0.345
			c-0.913-0.63-1.194-1.646-1.314-2.66c0.02-0.017,0.04-0.037,0.06-0.052c1.026,0.379,2.491,0.504,4.058,0.517
			c-0.057,0.104-0.084,0.226-0.019,0.356c0.035,0.074,0.076,0.152,0.113,0.226C9.882,174.464,9.182,175.218,9.041,175.355
			 M13.472,175.659c-1.52,0.569-2.201-0.579-2.828-1.788c-0.018-0.087-0.081-0.165-0.129-0.248c-0.02-0.04-0.042-0.082-0.062-0.122
			c1.472-0.015,2.988-0.114,4.303-0.202C14.868,174.291,14.497,175.275,13.472,175.659 M18.673,176.396
			c-2.538,1.049-2.496-0.717-2.799-1.98c-0.104-0.428-0.131-0.723-0.245-0.982c-0.003-0.062,0.014-0.125,0.006-0.189
			c0.721-0.041,1.347-0.07,1.818-0.062c0.764,0.016,1.532-0.013,2.299-0.019c0.015,0.06,0.023,0.127,0.037,0.188
			c0.016,0.078,0.023,0.155,0.043,0.242C19.948,174.63,19.604,176.008,18.673,176.396 M24.784,174.141
			c-0.646,0.782-1.282,1.28-2.32,1.154c-0.989-0.12-1.683-1.068-1.861-2.138c1.663-0.026,3.328-0.078,4.996-0.159
			C25.396,173.428,24.988,173.893,24.784,174.141 M31.364,172.82c0.026,1.328-0.197,2.668-1.562,3.203
			c-2.229,0.871-3.119-0.529-3.562-2.119c0.188-0.317,0.336-0.643,0.391-0.951c1.592-0.081,3.184-0.174,4.772-0.248
			C31.39,172.743,31.364,172.771,31.364,172.82 M32.669,173.693c-0.175-0.204-0.367-0.754-0.517-1.021
			c1.306-0.062,2.61-0.121,3.909-0.155c0.077,0,0.155,0,0.233,0c0.011,0.043,0.02,0.094,0.031,0.14
			C36.399,174.621,34.788,176.15,32.669,173.693 M40.863,174.516c-0.595,1.271-1.547,2.127-3.087,0.809
			c-0.332-0.283-0.518-0.713-0.666-1.174c0.013-0.031,0.03-0.057,0.039-0.09c0.214-0.586,0.104-1.069-0.037-1.551
			c1.473-0.025,2.943-0.021,4.413-0.013c0.011,0.056,0.028,0.11,0.042,0.168C41.455,173.32,41.051,174.111,40.863,174.516
			 M44.132,174.611c-0.727-0.207-1.54-1.188-1.823-2.117c1.361,0.012,2.72,0.048,4.077,0.086c0.004,0.02,0.006,0.035,0.012,0.056
			C46.073,173.712,46.082,175.162,44.132,174.611 M50.458,174.938c-0.763,1.121-1.648,0.739-2.335-0.224
			c-0.299-0.418-0.595-0.868-0.874-1.325c0.089-0.255,0.164-0.517,0.199-0.787c1.206,0.039,2.414,0.108,3.621,0.16
			c0.025,0.229,0.068,0.465,0.128,0.709C51.009,174.059,50.623,174.695,50.458,174.938 M53.294,175.156
			c-0.562-0.15-1.021-1.008-1.266-1.817c0.028-0.188,0.031-0.36,0.02-0.53c1.035,0.047,2.071,0.08,3.106,0.135
			C55.148,174.061,54.405,175.459,53.294,175.156 M59.696,175.116c-2.503,1.964-3.299-0.517-3.487-2.115
			c1.35,0.075,2.698,0.162,4.049,0.242c0.008,0.03-0.004,0.056,0.012,0.087C60.598,173.925,60.262,174.673,59.696,175.116
			 M62.199,175.407c-0.571-0.572-0.6-1.452-0.971-2.105c1.259,0.081,2.52,0.161,3.778,0.243
			C64.814,175.245,64.371,177.576,62.199,175.407 M69.547,175.479c-0.096,1-0.673,1.217-1.733,0.646
			c-0.986,0.349-1.509,0.14-1.568-0.628c-0.179-0.287-0.312-0.63-0.441-0.98c0.034-0.313,0.052-0.625,0.049-0.916
			c1.224,0.078,2.447,0.154,3.67,0.231c0.026,0.215,0.062,0.437,0.109,0.66C69.646,174.82,69.632,175.146,69.547,175.479
			 M73.316,175.708c-0.107,1.03-0.517,1.344-1.23,0.949c-0.42,0.057-0.668-0.093-0.754-0.447c-0.496-0.495-0.779-1.267-0.918-2.024
			c-0.005-0.102-0.009-0.201-0.017-0.299c1.137,0.068,2.273,0.141,3.41,0.204C74.011,174.741,73.841,174.771,73.316,175.708
			 M75.393,176.27c-0.291-0.447-0.423-1.012-0.595-1.555c-0.019-0.189-0.049-0.387-0.1-0.574c1.436,0.08,2.876,0.156,4.314,0.226
			c0,0.045-0.026,0.086-0.008,0.138C79.835,176.596,76.944,178.676,75.393,176.27 M82.424,176.839
			c-1.295-0.179-2.015-1.332-2.544-2.429c1.578,0.072,3.145,0.105,4.71,0.131c0.031,0.229,0.071,0.484,0.119,0.746
			C84.615,176.292,84.182,177.084,82.424,176.839 M85.844,176.711c-0.159-0.254-0.289-0.55-0.413-0.854
			c0.083-0.418,0.116-0.859,0.12-1.301c1.37,0.012,2.733,0.004,4.096-0.013C90.044,176.359,87.218,178.876,85.844,176.711
			 M93.31,176.27c-1.296,0.366-2.09-0.703-2.667-1.737c1.192-0.019,2.382-0.05,3.568-0.084
			C94.171,175.218,94.087,176.051,93.31,176.27 M100.127,175.697c-0.247,1.096-0.605,1.133-1.718,1.46
			c-0.826,0.628-1.49,0.532-1.994-0.288c-0.193-0.271-0.385-0.541-0.578-0.811c-0.236-0.359-0.417-0.754-0.647-1.107
			c-0.065-0.1-0.125-0.205-0.182-0.307c-0.006-0.074-0.006-0.143-0.009-0.22c1.708-0.055,3.412-0.135,5.116-0.212
			C100.194,174.71,100.242,175.206,100.127,175.697 M103.931,176.038c-1.592,0.565-2.459,0.354-2.602-0.634
			c-0.182-0.383-0.212-0.81-0.286-1.229c1.145-0.055,2.291-0.108,3.438-0.168c0,0.115,0.017,0.24,0.001,0.345
			C104.299,174.916,104.115,175.479,103.931,176.038 M109.616,175.739c-0.249,0.229-0.51,0.446-0.784,0.646
			c-1.577,1.124-2.627,0.845-3.15-0.845c-0.262-0.588-0.302-1.039-0.475-1.436c0.001-0.043,0.006-0.09,0.006-0.138
			c1.493-0.077,2.991-0.149,4.486-0.225C109.813,174.419,109.986,175.15,109.616,175.739 M112.303,176.204
			c-0.823-0.119-1.27-0.662-1.525-1.328c-0.036-0.382-0.157-0.762-0.248-1.173c1.522-0.077,3.047-0.143,4.576-0.211
			c0.003,0.072,0.008,0.143,0.011,0.217C114.875,174.766,113.203,176.334,112.303,176.204 M117.756,176.391
			c-1.371,0.072-1.752-0.966-1.971-2.09c0.111-0.29,0.196-0.578,0.225-0.841c1.385-0.06,2.775-0.101,4.164-0.147
			C120.147,174.832,119.784,176.275,117.756,176.391 M124.799,173.316c-0.031,0.336-0.062,0.673-0.093,1.012
			c-0.275,1.039-0.847,1.324-1.714,0.855c-1.191-0.229-1.582-0.965-1.827-1.906c0.39-0.012,0.777-0.034,1.168-0.043
			c0.824-0.017,1.649-0.02,2.473-0.031C124.804,173.24,124.801,173.283,124.799,173.316 M126.815,176.035
			c-0.419-0.444-0.777-1.146-1.063-1.855c0.099-0.33,0.156-0.669,0.154-0.99c1.565-0.017,3.129-0.021,4.693-0.022
			C130.833,175.082,128.594,177.921,126.815,176.035 M135.406,173.739c-0.395,0.555-0.875,1.026-1.443,1.411
			c-1.652,0.656-2.116-0.651-2.369-1.83c-0.005-0.055-0.024-0.104-0.031-0.157c1.36,0.003,2.719,0.013,4.08,0.021
			C135.566,173.37,135.496,173.557,135.406,173.739 M139.43,175.006c-0.285,0.361-0.689,0.389-1.216,0.081
			c-0.856,0.272-1.243,0.026-1.164-0.737c-0.146-0.275-0.211-0.662-0.271-1.048c0.016-0.036,0.041-0.073,0.054-0.11
			c1.381,0.01,2.761,0.024,4.142,0.041C140.602,173.982,139.884,174.785,139.43,175.006 M144.139,174.445
			c-1.345,0.867-1.859-0.16-2.054-1.205c0.875,0.011,1.75,0.019,2.625,0.025C144.645,173.706,144.583,174.158,144.139,174.445
			 M147.881,176.029c-1.055-0.5-1.427-1.713-1.896-2.752c1.822,0.019,3.645,0.027,5.468,0.037
			C150.996,175.096,150.223,177.141,147.881,176.029 M154.643,175.373c-1.099,0.001-1.785-1.033-1.988-2.059
			c1.32,0.004,2.639-0.004,3.957-0.014C156.43,174.337,156.062,175.373,154.643,175.373 M160.632,175.829
			c-0.414,0.188-0.853,0.112-1.319-0.224c-1.031,0.17-1.576-0.24-1.639-1.229c-0.105-0.322-0.199-0.657-0.291-0.99
			c0.008-0.029,0.016-0.059,0.021-0.088c1.716-0.013,3.431-0.053,5.146-0.09C162.427,174.398,161.982,175.529,160.632,175.829
			 M167.279,174.053c-0.395,0.465-1.031,1.252-1.737,1.381c-1.212,0.227-1.737-1.054-1.97-2.24c1.484-0.039,2.975-0.107,4.461-0.172
			C167.922,173.424,167.684,173.771,167.279,174.053 M171.514,174.941c-1.337,0.672-1.647,0.424-2.012-0.99
			c-0.104-0.391-0.178-0.701-0.309-0.979c0.693-0.031,1.387-0.047,2.08-0.087c0.578-0.034,1.158-0.036,1.735-0.062
			C172.877,173.709,172.348,174.521,171.514,174.941 M177.046,174.303c-1.396,0.912-2.231-0.311-2.778-1.525
			c1.281-0.041,2.562-0.075,3.848-0.084C177.975,173.342,177.637,173.916,177.046,174.303 M179.273,174.701
			c-0.246-0.537-0.271-1.014-0.381-1.471c0.051-0.179,0.092-0.357,0.119-0.539c1.771-0.006,3.538,0.027,5.309,0.062
			C184.316,175.098,181.184,178.869,179.273,174.701 M188.874,174.201c-1.092,1.531-3.115-0.07-3.754-1.438
			c1.36,0.026,2.722,0.062,4.082,0.101C189.098,173.418,189.012,174.008,188.874,174.201 M190.669,173.703
			c-0.136-0.211-0.198-0.514-0.278-0.807c0.963,0.028,1.928,0.054,2.889,0.084c0.548,0.018,1.095,0,1.644,0.008
			C194.564,175.209,192.078,175.902,190.669,173.703 M199.459,173.875c-0.467,1.007-1.436,2.242-2.723,0.961
			c-0.166-0.166-0.607-1.238-0.857-1.843c1.271,0.005,2.541,0.008,3.809-0.024C199.627,173.302,199.572,173.632,199.459,173.875
			 M205.529,174.941c-2.061,1.205-3.061,0.093-4.537-1.604c-0.163-0.183-0.234-0.297-0.303-0.397
			c1.908-0.054,3.813-0.129,5.718-0.194C206.307,173.534,206.721,174.246,205.529,174.941 M212.021,173.688
			c-0.846,0.439-1.688,0.881-2.535,1.318c-0.685-0.472-1.17-1.061-1.465-1.77c-0.104-0.182-0.172-0.363-0.242-0.531
			c1.525-0.051,3.054-0.075,4.58-0.082C212.268,173.029,212.163,173.498,212.021,173.688 M213.439,174.055
			c-0.133-0.386-0.154-0.865-0.303-1.248c0.008-0.062,0.021-0.123,0.027-0.187c0.247,0.003,0.49-0.006,0.738-0.003
			c1.746,0.019,3.49,0.054,5.232,0.094C218.445,175.116,214.443,177.02,213.439,174.055 M220.408,172.809
			c-0.014-0.023-0.016-0.05-0.025-0.07c1.528,0.037,3.057,0.07,4.585,0.102C223.805,174.611,221.973,175.695,220.408,172.809
			 M226.875,175.352c-0.488-0.623-0.591-1.525-0.938-2.271c0.027-0.075,0.059-0.146,0.08-0.223c1.465,0.025,2.931,0.035,4.394,0.037
			C229.895,174.404,228.535,177.471,226.875,175.352 M233.966,174.402c-1.278,1.271-2.681-0.146-2.661-1.512
			c1.109-0.006,2.223-0.021,3.33-0.049C234.609,173.387,234.495,173.875,233.966,174.402 M237.451,175.283
			c-0.693-0.201-1.135-1.096-1.473-1.633c-0.174-0.274-0.307-0.561-0.469-0.812c0.002-0.006,0.004-0.012,0.004-0.018
			c1.596-0.051,3.188-0.133,4.778-0.247C240.531,174.066,238.953,175.721,237.451,175.283 M231.596,170.79
			c-4.797,0.304-9.72-0.284-14.523-0.465c-5.119-0.194-10.158,0.399-15.297,0.325c-12.43-0.178-24.662-0.254-37.068,0.043
			c-12.833,0.304-25.521,0.344-38.345,0.012c-11.293-0.295-22.443,2.189-33.773,1.783c-21.977-0.786-43.917-3.359-65.958-2.37
			c-4.642,0.21-9.125,0.552-13.781,0.429c-4.522-0.117-6.785,1.485-6.984-3.559c-0.405-10.342,1.474-20.506,0.846-30.853
			c-0.433-7.072-0.202-14.108-0.185-21.186c0.003-1.548-0.878-6.251-0.145-7.485c0.894-1.496,5.031-1.053,6.708-1.041
			c6.204,0.04,12.276-0.415,18.349-0.957c1.801,0.103,3.569,0.194,5.451,0.042c3.603-0.293,7.412-0.593,11.013-0.688
			c5.354-0.143,10.618-0.484,15.948-0.878c17.277,0.561,34.656,2.822,51.827,0.838c7.887,0.267,15.781,0.303,23.681,0.773
			c12.601,0.75,25.16-0.691,37.752-1.15c12.393-0.452,24.554,0.44,36.88,0.964c11.141,0.475,22.206,0.112,33.356,0.777
			c0.906,0.055,5.338-0.22,6.271,0.431c1.149,0.803,0.892,1.163,1.044,3.262c0.43,5.985-0.021,12.016,0.428,18.04
			c0.305,4.055,0.355,8.089,0.322,12.117c-0.008,0.03-0.001,0.062,0,0.096c-0.057,6.728-0.354,13.438-0.128,20.22
			c0.188,5.664,0.612,7.33-4.417,7.979C244.465,169.111,238.036,170.375,231.596,170.79 M244.197,174.104
			c-1.469,0.801-2.248-0.641-2.829-1.627c1.414-0.117,2.825-0.268,4.239-0.453c0.029,0.146,0.061,0.297,0.092,0.442
			C245.199,173.012,244.695,173.557,244.197,174.104 M250.598,172.232c-0.24,1.604-1.562,2.215-2.9,1.434
			c-0.535-0.309-0.877-0.868-1.209-1.43c-0.01-0.112-0.02-0.223-0.029-0.34c1.355-0.194,2.71-0.43,4.064-0.69
			C250.576,171.559,250.643,171.934,250.598,172.232 M254.866,172.341c-1.212,1.802-2.468-0.118-3.289-1.358
			c0.638-0.141,1.276-0.258,1.914-0.416c0.504-0.127,0.913-0.24,1.284-0.36c0.05,0.034,0.09,0.077,0.158,0.086
			c0.116,0.015,0.246,0.078,0.373,0.159c-0.006,0.084,0.03,0.152,0.09,0.224C255.204,171.24,255.156,171.909,254.866,172.341
			 M258.67,169.189c0.285,0.427,0.275,1.465-0.195,1.777c-0.69,0.457-1.662-0.24-2.26-0.673c-0.033-0.046-0.043-0.104-0.099-0.13
			c-0.066-0.031-0.134-0.061-0.199-0.094l-0.001,0.004c-0.094-0.071-0.182-0.139-0.277-0.211c0.779-0.385,1.192-0.918,1.512-1.924
			c0.023,0.004,0.051,0.009,0.076,0.015c0.268,0.209,0.521,0.438,0.75,0.632C258.201,168.773,258.508,168.947,258.67,169.189
			 M260.918,167.197c-0.616,0.129-1.285,0.086-1.904,0.126c-0.478,0.034-0.984,0.079-1.461,0.003
			c-0.062-0.046-0.128-0.086-0.191-0.133c0.08-0.334,0.156-0.707,0.242-1.127c0.071-0.361,0.117-0.734,0.174-1.104
			c0.147,0.017,0.299,0.017,0.447,0.021c0.297,0.235,0.601,0.463,0.928,0.687C259.689,166.032,260.566,166.527,260.918,167.197
			 M261.048,163.688c-0.8,0.746-2.005,0.735-3.147,0.521c0.15-1.104,0.248-2.241,0.31-3.396c0.161,0.014,0.326,0.022,0.488,0.047
			C259.543,160.975,262.747,162.1,261.048,163.688 M260.068,157.712c1.111,0.521,0.998,1.294-0.342,2.326
			c-0.151,0.063-0.332,0.096-0.525,0.11c-0.329-0.092-0.646-0.086-0.96-0.076c0.042-1.109,0.063-2.229,0.054-3.358
			c0.078,0,0.171,0.007,0.255,0.009c0.304,0.199,0.618,0.389,0.906,0.588C259.672,157.428,259.875,157.562,260.068,157.712
			 M261.021,154.35c0.408,0.308,0.383,0.647-0.078,1.023c-0.049,0.562-0.303,0.779-0.762,0.652
			c-0.656,0.074-1.305-0.211-1.893-0.199c-0.016-0.869-0.039-1.738-0.068-2.608c0.535,0.081,1.053-0.034,1.588,0.127
			C260.323,153.502,260.818,153.816,261.021,154.35 M260.634,150.68c0.657,1.668-1.381,1.562-2.438,1.811
			c-0.034-1.029-0.07-2.062-0.104-3.086c0.204,0.025,0.408,0.056,0.609,0.084C259.543,149.771,260.471,150.259,260.634,150.68
			 M259.389,148.711c-0.449,0.002-0.887-0.118-1.326-0.162c-0.026-0.97-0.047-1.935-0.052-2.88c0.22,0.031,0.438,0.063,0.655,0.09
			c0.467,0.056,0.938,0.062,1.404,0.116l0.963,0.139c1.088,0.269,1.189,0.789,0.301,1.56
			C260.691,148.7,260.578,148.707,259.389,148.711"/>
	</g>
	<rect x="-596" y="-486.003" display="inline" fill="none" width="1200" height="1752.292"/>
</g>
</svg>
