<?xml version="1.0" standalone="no"?>
<!DOCTYPE svg PUBLIC "-//W3C//DTD SVG 20010904//EN"
 "http://www.w3.org/TR/2001/REC-SVG-20010904/DTD/svg10.dtd">
<svg version="1.0" xmlns="http://www.w3.org/2000/svg"
 width="260.000000pt" height="260.000000pt" viewBox="0 0 260.000000 260.000000"
 preserveAspectRatio="xMidYMid meet">
<metadata>
Created by potrace 1.11, written by Peter Selinger 2001-2013
</metadata>
<g transform="translate(0.000000,260.000000) scale(0.100000,-0.100000)"
fill="#000000" stroke="none">
<path d="M858 1923 c-112 -4 -97 17 -123 -173 -48 -344 -119 -717 -180 -935
-13 -49 -23 -91 -21 -92 2 -2 30 8 62 22 l58 26 52 -52 52 -51 11 33 c42 132
113 458 152 704 12 77 25 143 28 147 4 4 46 -95 94 -220 49 -125 100 -246 113
-270 l25 -43 132 3 131 3 43 80 c23 44 71 150 107 235 88 211 107 252 112 247
17 -16 104 -532 124 -737 7 -63 13 -117 15 -118 2 -2 24 15 49 38 l46 43 61
-27 c34 -15 63 -25 66 -23 6 7 -27 297 -52 452 -20 126 -52 288 -127 643 l-11
52 -47 0 c-26 0 -81 3 -123 6 l-76 7 -51 -79 c-57 -86 -154 -283 -215 -434
-21 -52 -42 -99 -45 -103 -4 -5 -35 63 -70 150 -68 173 -130 301 -193 406 -38
61 -45 67 -72 65 -16 -1 -74 -4 -127 -5z"/>
</g>
</svg>
