<?xml version="1.0" encoding="utf-8"?>
<!-- Generator: Adobe Illustrator 16.0.0, SVG Export Plug-In . SVG Version: 6.00 Build 0)  -->
<!DOCTYPE svg PUBLIC "-//W3C//DTD SVG 1.1//EN" "http://www.w3.org/Graphics/SVG/1.1/DTD/svg11.dtd">
<svg version="1.1" id="Layer_1" xmlns="http://www.w3.org/2000/svg" xmlns:xlink="http://www.w3.org/1999/xlink" x="0px" y="0px"
	 width="319.495px" height="89.194px" viewBox="0 0 319.495 89.194" style="enable-background:new 0 0 319.495 89.194;"
	 xml:space="preserve">
<style type="text/css">
<![CDATA[
	.st0{fill:#CAC1B0;}
]]>
</style>
<g>
	<path class="st0" d="M319.493,54.538c-0.07-1.616-1.766-2.117-3.58-2.33c1.49-0.324,2.62-1.009,2.016-2.752
		c-0.342-1.001-1.396-1.979-2.59-2.436c1.146-0.504,3.123-1.387,3.34-2.301c0.249-1.045-1.078-1.811-1.974-2.098
		c-0.397-0.121-0.966-0.141-1.556-0.136c1.527-0.462,2.976-1.256,2.862-2.545c-0.092-0.984-1.213-1.58-2.075-1.945
		c-0.365-0.155-0.754-0.284-1.15-0.398c2.326-0.16,4.767-0.661,3.893-2.592c-0.693-1.53-2.723-2.911-4.731-3.304
		c1.82-0.78,3.62-1.971,2.24-3.815c-0.209-0.277-0.69-0.584-1.255-0.844c0.132-0.021,0.258-0.042,0.333-0.063
		c1.023-0.284,1.73-0.893,1.71-1.894c-0.023-1.057-0.564-2.037-1.55-2.59c-0.318-0.176-0.661-0.286-1.007-0.365
		c0.148-0.051,0.299-0.112,0.459-0.19c0.65-0.325,2.634-1.096,2.733-1.97c0.165-1.42-2.382-1.886-4.182-1.961
		c2.12-0.785,5.311-2.529,5.137-4.275c-0.085-0.827-1.241-1.727-2.054-2.05c-0.566-0.225-1.275-0.18-1.986-0.052
		c1.611-1.218,2.976-2.688,0.961-4.612c-0.715-0.679-2.161-0.51-3.291,0.038c0.075-0.218,0.164-0.422,0.201-0.687
		c0.108-0.764,0.248-2.097-0.623-2.575c-0.816-0.453-2.047,0.246-2.738,0.733c-0.097-0.618-0.369-1.216-1.025-1.465
		c-1.516-0.582-2.812,0.643-3.594,2.067c-0.155-1.181-0.82-2.299-2.125-2.338c-0.758-0.021-1.489,0.44-2.076,1.078
		c-0.346-0.583-0.908-1.047-1.686-1.219c-1.444-0.323-2.906,0.5-3.84,1.641c-0.084-0.216-0.182-0.431-0.324-0.654
		c-0.5-0.804-1.287-1.713-2.412-1.655c-1.52,0.082-2.71,1.244-3.352,2.576c-0.516-1.458-1.454-2.803-3.271-2.587
		c-1.599,0.186-3.105,1.636-3.66,3.126c-0.222-1.319-0.526-2.605-2.297-2.535c-1.074,0.044-2.059,0.541-2.719,1.258
		c-0.434-1.038-1.279-1.807-2.836-1.591c-1.43,0.201-2.834,1.453-3.623,2.812c-0.01-0.382-0.061-0.757-0.37-1.148
		c-0.454-0.583-1.046-0.865-1.823-0.812c-1.074,0.075-2.292,0.812-3.164,1.749c-0.436-1.04-1.429-1.813-2.966-1.94
		c-0.925-0.075-1.892,0.645-2.498,1.531c-0.511-1.374-2.013-2.663-3.415-2.637c-1.652,0.033-2.951,0.918-3.742,2.111
		c-0.578-0.85-1.674-1.392-3.107-1.223c-0.667,0.08-1.537,0.588-2.18,1.235c-0.371-1.301-2.054-1.622-3.977-1.34
		c-1.268,0.182-2.439,0.405-3.309,1.236c-0.641-1.101-1.921-1.836-3.481-1.898c-1.927-0.075-3.2,0.987-3.815,2.438
		c-0.513-0.667-1.299-1.128-2.508-1.275c-1.102-0.129-1.878,0.257-2.365,0.891c-0.402-1.161-1.191-2.091-2.828-2.025
		c-1.65,0.066-3.275,1.148-4.006,2.531c-1.115-1.95-4.87-2.147-6.132-0.471c-0.794-0.79-1.981-1.437-2.713-1.493
		c-1.392-0.112-2.779,0.895-3.089,2.079c-0.289-0.321-0.639-0.612-1.004-0.844c-0.756-0.48-1.953-1.062-2.919-0.977
		c-0.798,0.065-1.612,0.574-2.222,1.244c-0.633-0.764-1.621-1.31-2.737-1.385c-1.06-0.073-2.452,0.532-3.304,1.401
		c-0.296-0.637-0.891-1.031-1.707-1.115c-1.917-0.204-3.375,0.886-4.33,2.24c-0.098-1.506,0.248-3.316-2.277-2.737
		c-0.826,0.188-2.443,1.121-3.201,2.151c-0.285-1.026-0.601-1.95-2.539-1.915c-1.652,0.03-2.865,0.657-3.568,1.676
		c-0.268-1.322-0.84-2.607-2.316-2.452c-1.021,0.103-2.418,1.218-3.154,2.423c-0.164-0.279-0.301-0.504-0.361-0.57
		c-0.684-0.691-1.645-1.188-2.675-1.282c-2.161-0.206-3.095,1.054-3.792,2.531c-1.059-1.711-2.573-2.913-5.086-2.386
		c-1.186,0.248-3.73,1.241-4.59,2.54c-0.727-0.803-1.639-1.79-1.907-1.949c-0.828-0.5-1.545-0.754-2.558-0.68
		c-1.764,0.139-3.127,1.026-3.769,2.334c-1.021-1.486-2.694-2.531-4.78-2.235c-1.309,0.183-2.954,0.998-3.793,2.116
		c-0.576-0.841-1.377-1.854-1.996-2.05c-1.946-0.619-3.342,0.844-4.616,1.933c-0.718-1.675-1.743-2.571-4.115-2.203
		c-1.425,0.223-3.29,0.949-4.172,2.1c-0.515-1.178-1.706-2.205-2.942-2.655c-2.452-0.891-4.098,0.469-5.15,2.231
		c-1.201-2.684-5.963-1.758-7.426,0.614c-1.65-2.644-6.463-3.146-8.165-0.542c-0.627-1.266-1.509-2.315-3.28-2.393
		c-2.592-0.113-4.246,1.209-5.348,2.945c-0.197-0.4-0.408-0.78-0.604-1.108c-0.62-1.027-1.655-1.793-2.983-1.793
		c-1.709-0.002-3.087,1.127-4.202,2.163c-0.142,0.131-0.313,0.279-0.498,0.445c-0.138-0.799-0.397-1.61-0.745-2.128
		c-0.617-0.923-1.938-1.556-3.105-1.406c-1.375,0.173-2.162,0.853-2.863,1.788c-0.592-1.469-1.897-2.725-3.457-2.65
		c-1.943,0.096-4.25,1.298-5.435,2.944c-0.118-0.314-0.254-0.607-0.404-0.844c-0.745-1.158-1.888-1.432-3.272-1.517
		c-1.639-0.101-2.929,0.322-3.828,1.61c-0.216,0.312-0.465,0.685-0.68,1.081c-0.225-0.302-0.474-0.593-0.744-0.854
		c-0.91-0.865-2.51-1.415-3.826-1.24c-1.139,0.155-3.027,1.425-3.818,2.77c-0.039-0.044-0.086-0.105-0.12-0.15
		c-0.804-1.11-1.774-2.535-3.405-2.62c-1.604-0.084-3.323,1.251-4.289,2.803c-0.111-0.335-0.271-0.666-0.547-0.965
		c-0.869-0.94-2.129-1.571-3.502-1.324c-2.305,0.41-3.68,1.736-4.299,3.447c-0.009-0.021-0.027-0.047-0.031-0.056
		c-0.372-0.506-0.855-1.029-1.285-1.498c-1.428-1.556-3.119-1.277-4.795-0.283c-1.064,0.623-1.842,1.35-2.344,2.317
		c-0.197-0.551-0.42-1.089-0.693-1.596c-0.52-0.949-1.411-1.073-2.498-0.947c-1.617,0.19-2.372,0.415-3.234,1.674
		c-0.186,0.271-0.371,0.576-0.539,0.895c-0.188-0.534-0.408-1.06-0.642-1.551c-0.54-1.132-1.499-1.561-2.85-1.474
		c-2.265,0.146-4.064,1.708-5.038,3.541c-0.166-0.431-0.322-0.862-0.507-1.289c-0.574-1.298-1.537-1.064-2.827-0.839
		C7.449,4.311,6.066,4.405,5.231,5.773C4.7,6.645,4.618,7.658,4.941,8.581c-2.417,0.215-3.501,1.5-3.542,4.045
		c-0.018,0.844,0.051,0.966,0.595,1.624c0.333,0.404,0.825,0.903,1.282,1.161c0.039,0.019,0.113,0.035,0.174,0.051
		c-1.452,0.601-2.525,1.699-2.615,3.335c-0.111,1.966,1.501,2.784,3.296,3.202c-3.16,1.654-3.258,5.275,0.124,6.4
		c-1.625,0.813-2.97,2.018-2.996,3.848c-0.024,1.917,1.236,3.098,2.964,3.696c-3.405,2.146-2.083,7.651,0.548,8.79
		c-1.517,0.338-2.768,1.718-2.811,3.194c-0.059,1.917,1.506,2.543,3.168,2.927c-1.719,0.851-3.42,2.535-3.424,3.666
		c-0.006,1.424,1.184,2.699,2.506,3.215c0.024,0.007,0.062,0.021,0.088,0.027c-0.594,0.256-1.133,0.662-1.564,1.121
		c-0.444,0.471-0.379,0.946-0.478,1.535c-0.112,0.658-0.407,1.295-0.384,1.973c0.024,0.73,0.384,1.15,0.895,1.455
		c-0.113,0.075-0.225,0.127-0.336,0.23c-0.901,0.824-1.815,2.16-2.173,3.264c-0.589,1.812,1.074,3.033,2.765,3.813
		c-1.948,0.792-3.562,2.872-2.852,4.696c0.397,1.017,1.152,2.341,2.08,2.992c-0.197,0.162-0.36,0.326-0.468,0.48
		c-0.831,1.182-1.064,2.728-0.276,3.97c0.487,0.765,1.967,2.193,3.117,1.912c0.795-0.196,1.266-1.08,1.789-1.579
		c0.082-0.075,0.174-0.127,0.258-0.194c0.234,1.831,1.502,4.003,3.543,3.602c0.703-0.136,2.025-0.993,2.681-1.91
		c0.886,1.393,2.063,2.531,4.178,1.788c1.144-0.405,1.813-1.283,2.09-2.275c0.3,1.686,0.091,3.787,2.78,3.561
		c1.676-0.143,2.793-1.383,3.252-2.782c0.58,0.897,1.41,1.596,2.47,1.535c1.264-0.071,2.999-1.144,4.068-2.377
		c0.412,1.843,1.468,3.593,3.856,3.063c0.99-0.219,2.283-0.982,2.986-1.629c0.559-0.514,0.762-1.01,0.828-1.547
		c0.879,1.346,1.85,2.348,4.135,1.49c0.703-0.26,1.158-0.609,1.5-1.102c0.582,1.688,1.539,3.26,3.258,2.815
		c1.201-0.312,2.503-2.041,3.095-3.688c0.669,1.033,1.73,1.854,2.965,1.795c1.356-0.063,2.382-0.758,2.987-1.706
		c0.291,0.476,0.604,0.923,0.843,1.31c0.466,0.76,1.194,1.81,2.349,1.607c0.867-0.15,1.86-1.141,2.461-2.254
		c0.562,0.977,1.438,1.746,2.609,1.646c1.008-0.086,1.843-0.759,2.334-1.611c0.553,1.416,1.969,2.681,3.516,2.535
		c1.396-0.131,2.086-1.365,2.803-2.332c0.006,0.008,0.006,0.02,0.01,0.023c0.291,0.634,0.68,1.23,1.205,1.726
		c0.613,0.567,1.416,1.085,2.348,1.01c1.078-0.084,1.699-0.8,2.049-1.696c0.191,0.546,0.389,1.014,0.5,1.174
		c0.541,0.792,1.693,1.326,2.73,1.213c1.398-0.158,2.111-0.975,2.445-1.991c0.58,1.011,1.453,1.774,2.689,1.702
		c1.393-0.082,2.283-0.816,2.668-1.775c0.487,1.55,1.157,2.867,3.506,2.434c1.602-0.298,2.682-1.226,2.985-2.4
		c0.977,1.165,2.267,2.018,4.147,1.868c1.068-0.087,1.701-0.527,2.082-1.13c0.52,1.242,1.424,2.213,3.121,1.744
		c1.354-0.38,2.66-1.493,3.17-2.773c0.604,1.1,1.353,1.883,3.231,1.571c1.777-0.298,2.349-0.958,2.479-1.945
		c0.398,0.837,0.793,1.809,1.018,2.065c0.811,0.934,2.053,1.621,3.393,1.354c1.515-0.305,2.297-1.312,2.645-2.493
		c0.375,0.961,0.98,1.741,2.357,1.685c1.738-0.072,2.521-1.352,2.821-2.766c0.376,1.566,0.818,3.08,3.183,2.901
		c1.166-0.084,2.896-1.36,3.449-2.23c0.84,1.13,2.156,1.708,4.135,0.846c0.505-0.22,1.121-0.839,1.616-1.565
		c0.325,1.445,1.177,2.456,3.666,2.044c0.993-0.165,2.015-0.704,2.665-1.397c0.363-0.389,0.555-0.771,0.662-1.158
		c0.73,1.264,1.856,2.209,3.646,1.6c0.689-0.232,1.295-0.837,1.711-1.561c0.478,1.588,1.458,3.051,3.299,2.949
		c1.697-0.091,3.127-1.31,3.779-2.76c0.707,1.16,1.832,1.867,3.721,1.125c0.884-0.35,1.775-1.12,2.395-2.025
		c0.066,0.706,0.23,1.385,0.75,1.84c0.755,0.66,2.03,0.637,2.91,0.219c0.849-0.403,1.852-1.158,2.537-2.047
		c0.375,1.018,1.073,1.83,2.385,1.714c0.887-0.08,1.566-0.636,2.09-1.254c0.227-0.265,0.488-0.703,0.661-1.038
		c0.216,0.799,0.465,1.877,0.751,2.197c0.613,0.696,2.123,1.994,3.188,2.032c2.043,0.073,3.111-1.641,3.758-3.365
		c0.422,1.069,1.238,1.938,2.58,1.987c1.793,0.061,2.819-0.727,3.42-1.828c0.262,0.801,0.604,1.589,0.791,1.795
		c0.702,0.773,1.771,1.068,2.867,0.922c1.145-0.155,2.6-0.912,3.35-1.701c0.266-0.277,0.449-0.551,0.589-0.83
		c0.575,1.258,1.562,2.125,3.306,1.537c0.974-0.332,2.549-1.401,3.383-2.594c0.09,1.482,0.3,3.2,1.924,3.215
		c1.254,0.014,2.941-1.669,3.673-2.404c0.22-0.221,0.37-0.426,0.495-0.631c0.545,1.16,1.314,2.037,3.195,1.77
		c1.198-0.17,2.076-0.839,2.617-1.715c0.351,1.963,0.55,4.352,3.33,3.833c2.205-0.407,3.847-2.001,4.377-3.853
		c0.883,1.607,2.174,2.632,4.441,1.734c0.986-0.389,1.623-1.129,1.951-1.998c0.206,1.345,0.656,2.545,2.648,2.626
		c1.593,0.063,2.99-0.972,3.717-2.237c0.571,1.422,1.367,3.072,3.141,2.627c0.975-0.246,1.812-1.207,2.333-1.945
		c0.126-0.183,0.366-0.893,0.592-1.547c0.97,1.905,0.96,3.822,4.272,3.355c1.079-0.152,3.746-1.012,4.397-2.285
		c0.183,0.363,0.356,0.676,0.476,0.779c0.809,0.715,1.893,1.119,3.053,1.049c1.59-0.098,2.5-1.135,2.959-2.359
		c0.3,1.521,0.295,2.92,2.9,2.922c2.278,0.002,4.715-1.556,5.531-3.5c0.145,0.592,0.291,1.189,0.881,1.648
		c0.736,0.579,1.941,0.828,2.879,0.783c1.447-0.072,2.562-0.842,3.235-1.885c0.241,1.438,0.991,3.152,2.464,3.318
		c2.029,0.229,3.191-1.352,3.875-2.959c0.47,1.102,1.435,2.018,2.732,1.795c0.986-0.171,1.889-0.869,2.41-1.617
		c0.062-0.094,0.205-0.432,0.337-0.822c0.778,1.428,1.254,3.112,3.478,2.943c1.785-0.137,3.229-1.408,3.604-2.89
		c1.084,1.2,2.283,1.987,4.379,1.284c1.396-0.469,1.902-1.018,2.053-1.703c0.713,1.129,1.738,2.068,3.148,1.854
		c0.873-0.137,2.063-0.893,2.527-1.594c0.285-0.427,0.342-0.881,0.328-1.341c0.796,1.125,1.72,2.091,3.623,1.798
		c1.889-0.289,1.588-1.835,2.09-3.103c0.028,0.016,0.061,0.044,0.084,0.058c0.586,0.334,1.215,0.629,1.922,0.694
		c0.877,0.075,2.029-0.516,2.373-1.274c0.408-0.912-0.38-1.758-1.055-2.34c-0.174-0.149-0.361-0.309-0.55-0.469
		c1.196,0,2.616,0.023,3.694-0.365c0.193-0.065,0.318-0.225,0.262-0.422c-0.236-0.839-1.194-1.488-1.949-1.954
		c-0.297-0.183-0.652-0.438-1.041-0.682c0.052-0.008,0.105-0.003,0.159-0.015c0.997-0.164,2.696-0.447,3.197-1.398
		c0.534-1.026-0.202-2.156-1.064-2.766c-0.291-0.201-0.614-0.379-0.946-0.544c1.308-0.253,2.284-0.886,1.705-2.346
		c-0.346-0.884-1.363-1.371-2.226-1.868c1.523,0.063,3.01-0.051,2.985-1.551c-0.01-0.907-0.93-1.938-1.654-2.502
		c-0.301-0.236-0.581-0.367-0.857-0.446c1.162-0.36,2.109-0.954,1.533-2.078c-0.277-0.54-0.887-1.044-1.613-1.423
		c0.521-0.047,1.041-0.125,1.51-0.301C318.665,56.478,319.541,55.603,319.493,54.538 M315.73,47.942
		c0.355,0.355,0.712,0.717,1.068,1.075c0.596,0.633,0.498,1.177-0.294,1.634c-0.766,0.885-1.355,0.914-2.479,1.043
		c-0.185,0.021-0.369,0.023-0.555,0.03c0.005-0.601,0.005-1.21,0.027-1.798c0.032-0.787,0.042-1.572,0.048-2.359
		c0.252-0.027,0.511-0.078,0.763-0.148C314.786,47.54,315.323,47.68,315.73,47.942 M316.767,43.604
		c1.719,1.167-0.743,1.996-1.873,2.585c-0.494,0.257-0.926,0.37-1.334,0.415c0-1.119-0.022-2.236-0.061-3.354
		C314.597,43.25,315.824,42.964,316.767,43.604 M314.976,38.465c1.42,0.544,2.118,1.946,0.574,2.939
		c-0.546,0.349-1.344,0.544-2.102,0.661c-0.057-1.412-0.133-2.822-0.216-4.228C313.767,38.113,314.396,38.242,314.976,38.465
		 M315.264,33.174c1.241,0.693,3.345,3.016,0.758,3.257c-0.937,0.087-1.917,0.075-2.868,0.169c-0.09-1.406-0.179-2.808-0.26-4.213
		C313.734,32.426,314.555,32.78,315.264,33.174 M314.128,30.985c-0.399,0.189-0.84,0.318-1.289,0.438
		c-0.08-1.409-0.15-2.82-0.193-4.235c0.165,0.004,0.329-0.003,0.493-0.005c0.506,0.106,0.998,0.263,1.373,0.5
		C315.478,28.294,315.294,30.429,314.128,30.985 M315.333,25.466c-0.699,0.869-1.146,0.834-2.246,0.783
		c-0.159-0.007-0.314-0.04-0.47-0.061c-0.019-1.09-0.026-2.187-0.008-3.284c0-0.049,0-0.107,0.005-0.159
		C314.61,23.078,316.889,23.521,315.333,25.466 M313.565,18.712c0.628,0.058,3.688,0.312,2.639,1.554
		c-0.496,0.59-2.387,1.228-3.094,1.31c-0.15,0.016-0.3,0.014-0.445,0.012c0.056-0.924,0.137-1.931,0.216-2.979
		C313.259,18.682,313.627,18.717,313.565,18.712 M315.313,12.424c0.807,0.183,1.51,0.514,2.119,0.989
		c0.276,0.623,0.107,1.095-0.512,1.411c-0.793,1.002-2.488,2.001-3.955,2.542c0.094-1.502,0.107-3.035-0.023-4.502
		C313.673,12.677,314.62,12.386,315.313,12.424 M313.541,7.523c1.613-0.114,2.236,1.433,1.374,2.792
		c-0.464,0.736-1.316,1.111-2.085,1.561c-0.203-1.319-0.565-2.542-1.196-3.576C312.312,8.126,313.747,7.507,313.541,7.523
		 M308.948,6.289c0.697-1.078,1.908-2.049,2.371-0.769c0.244,0.665-0.036,1.237-0.461,1.764c-0.344-0.267-0.922-0.377-1.324-0.248
		c-0.234,0.073-0.521,0.122-0.796,0.171C308.836,6.912,308.911,6.598,308.948,6.289 M306.497,4.188
		c0.323-0.4,0.656-0.417,1.008-0.046c0.398,0.052,0.576,0.23,0.529,0.544c0.084,0.276,0.01,0.585-0.08,0.881
		c-0.416,0.535-0.666,1.146-0.66,1.804c-0.971,0.052-2.043,0.025-3.148-0.042C304.487,6.137,305.315,4.648,306.497,4.188
		 M300.597,5.145c0.262-0.499,0.601-0.92,0.969-0.935c0.545-0.021,1.773,1.16,1.797,1.702c0.004,0.237-0.23,0.853-0.301,1.123
		c-0.023,0.087,0.006,0.154,0.028,0.225c-1.054-0.084-2.096-0.185-3.062-0.276C300.441,6.448,300.634,5.794,300.597,5.145
		 M294.808,5.558c0.023-0.122,0.023-0.234,0.028-0.346c0.628-0.76,1.43-1.435,2.302-1.631c1.086-0.244,2.09,0.37,2.406,1.195
		c-0.406,0.703-0.63,1.457-0.549,2.024c0.008,0.032,0.031,0.059,0.045,0.089c-0.543-0.049-1.055-0.089-1.495-0.11
		c-1.06-0.049-2.104-0.107-3.154-0.166c0,0-0.005-0.009-0.012-0.014C294.366,6.586,294.774,5.75,294.808,5.558 M289.651,4.697
		c0.691-1.113,1.188-1.582,2.593-1.207c1.622,0.427,1.261,1.23,1.19,2.632c-0.008,0.096-0.096,0.302-0.137,0.434
		c-1.368-0.075-2.743-0.122-4.11-0.181C289.206,5.797,289.325,5.225,289.651,4.697 M284.819,3.074
		c1.027-0.16,2.433,1.213,2.771,1.973c0.158,0.347,0.28,0.834,0.374,1.282c-0.675-0.023-1.341-0.063-2.021-0.078
		c-1.335-0.023-2.671-0.007-4.008-0.009C282.355,5.103,283.567,3.266,284.819,3.074 M279.106,3.605
		c0.895-0.082,1.092,0.276,1.415,1.167c0.183,0.495,0.197,0.984,0.253,1.47c-1.25,0.002-2.504-0.012-3.752,0.002
		c0.018-0.279,0.012-0.569-0.012-0.869C277.273,4.489,278.136,3.695,279.106,3.605 M272.483,3.828
		c0.559-0.602,1.205-0.51,1.945,0.275c1.035-0.035,1.537,0.281,1.514,0.94c-0.119,0.389-0.135,0.796-0.061,1.213
		c-1.814,0.019-3.629,0.042-5.442,0.052c-0.019-0.061-0.075-0.101-0.116-0.146C270.792,5.211,271.575,4.254,272.483,3.828
		 M268.749,4.423c0.579,0.422,0.291,1.224,0.436,1.889c-1.322,0-2.643-0.01-3.961-0.03C265.945,5.047,267.642,3.626,268.749,4.423
		 M259.478,5.879c0.281-0.522,0.646-1.102,0.966-1.329c0.533-0.379,2.015-0.551,2.624-0.246c0.558,0.279,0.797,1.16,0.793,1.94
		c-1.277-0.03-2.551-0.042-3.832-0.107c-0.199-0.012-0.402-0.014-0.607-0.026C259.454,6.038,259.454,5.957,259.478,5.879
		 M252.653,5.323c0.318-0.923,0.955-1.776,2.001-2.167c1.786-0.673,4.204,1.15,3.722,2.882c-0.006,0.012,0.004,0.021,0.004,0.035
		c-1.922-0.096-3.837-0.16-5.75-0.234C252.657,5.661,252.653,5.492,252.653,5.323 M251.669,4.986
		c-0.094,0.262-0.169,0.532-0.217,0.806c-1.518-0.058-3.041-0.14-4.552-0.185C247.422,3.683,251.354,3.191,251.669,4.986
		 M245.625,5.572c-1.858-0.054-3.71-0.075-5.562-0.113c0-0.145,0.015-0.294-0.002-0.436C241.292,3.835,247.474,1.384,245.625,5.572
		 M233.854,3.639c1.776-1.032,4.519-0.673,5.028,1.165c-0.096,0.21-0.158,0.421-0.158,0.627c-1.943-0.033-3.889-0.094-5.831-0.113
		c-0.026-0.089-0.079-0.159-0.116-0.244C232.996,4.531,233.337,3.938,233.854,3.639 M230.882,4.372
		c0.375,0.211,0.615,0.553,0.811,0.928c-1.242-0.009-2.482-0.009-3.729-0.012C228.21,4.184,229.058,3.334,230.882,4.372
		 M222.915,3.327c1.396-0.74,2.619-0.994,3.787,1.223c0.057,0.101,0.098,0.406,0.131,0.741c-1.965-0.002-3.924-0.012-5.887,0.004
		c-0.011-0.042-0.039-0.072-0.043-0.117C221.409,4.442,222.183,3.713,222.915,3.327 M218.495,4.188
		c0.754,0.345,1.119,0.652,1.297,1.125c-1.494,0.016-2.999,0.052-4.498,0.08c-0.01-0.169-0.043-0.345-0.127-0.518
		C215.458,3.549,217.557,3.758,218.495,4.188 M209.454,5.084c0.205-1.104,0.895-1.486,2.062-1.144
		c0.805-0.324,1.391-0.192,1.759,0.384c0.372,0.284,0.64,0.632,0.838,1.031c0,0.019,0.005,0.037,0.009,0.059
		c-1.59,0.03-3.166,0.037-4.758,0.082C209.437,5.382,209.474,5.248,209.454,5.084 M205.905,3.945c1.063,0.232,1.627,0.83,1.94,1.589
		c-1.528,0.047-3.052,0.065-4.585,0.124c-0.013-0.265-0.069-0.52-0.163-0.766C203.784,4.184,205.089,3.768,205.905,3.945
		 M196.657,5.516c0.512-1.16,0.99-1.387,2.354-1.636c1.03-0.566,1.758-0.356,2.184,0.633c0.314,0.147,0.535,0.326,0.666,0.534
		c-0.095,0.216-0.154,0.436-0.192,0.656c-1.719,0.057-3.431,0.101-5.142,0.141c-0.004-0.004,0-0.009,0-0.014
		C196.563,5.727,196.61,5.63,196.657,5.516 M192.898,4.231c1.232-0.597,2.321,0.579,2.667,1.641
		c-1.486,0.031-2.966,0.052-4.451,0.068C191.544,5.244,192.088,4.625,192.898,4.231 M186.895,3.744
		c1.224-0.753,2.489-0.748,2.776,0.808c0.087,0.476-0.035,0.935-0.006,1.402c-1.373,0.011-2.746,0.035-4.115,0.039
		c-0.057-0.082-0.089-0.17-0.131-0.255C185.634,4.941,186.099,4.233,186.895,3.744 M184.181,4.761
		c0.197,0.347,0.169,0.812,0.238,1.232c-1.705,0-3.416,0-5.121-0.009C179.921,4.355,182.657,2.028,184.181,4.761 M177.704,3.634
		c0.42,0.56,0.416,1.549,0.459,2.344c-1.242-0.012-2.49-0.017-3.73-0.026c-0.104-0.117-0.268-0.394-0.455-0.708
		C174.674,3.716,176.382,1.862,177.704,3.634 M172.896,5.305c0.031,0.056,0.046,0.108,0.074,0.164
		c-0.019,0.159-0.047,0.319-0.032,0.466c-1.858-0.021-3.727-0.035-5.593-0.061C168.522,3.667,170.964,2.129,172.896,5.305
		 M163.164,3.903c1.796,0.356,2.198,0.755,2.789,1.953c-2.813-0.04-5.628-0.082-8.45-0.12C158.74,4.124,161.318,3.538,163.164,3.903
		 M151.011,3.943c2.521-0.398,4.229,0.209,5.176,1.777c-2.17-0.025-4.337-0.049-6.508-0.064
		C150.123,5.084,150.567,4.515,151.011,3.943 M148.072,5.632c-2.452-0.033-4.897-0.103-7.343-0.192
		C142.847,3.533,146.54,3.027,148.072,5.632 M139.093,4.906c0.107,0.155,0.164,0.318,0.238,0.483
		c-1.688-0.066-3.37-0.131-5.059-0.192C135.896,3.978,137.64,2.743,139.093,4.906 M129.592,3.251
		c1.546-0.009,2.522,0.67,3.061,1.887c-1.546-0.054-3.091-0.101-4.635-0.131c-0.802-0.014-1.599,0.007-2.399,0.012
		C126.682,4.058,128.734,3.261,129.592,3.251 M123.32,3.646c0.525,0.492,0.784,0.939,0.912,1.38
		c-2.223,0.049-4.437,0.143-6.649,0.265C118.652,3.146,120.962,1.426,123.32,3.646 M116.396,5.356
		c-2.063,0.115-4.123,0.234-6.185,0.318C111.894,3.69,116.291,2,116.396,5.356 M102.155,5.675c0.495-3.628,5.408-2.128,6.627-0.521
		c0.104,0.139,0.185,0.35,0.264,0.567c-2.307,0.082-4.613,0.094-6.919,0.014C102.129,5.712,102.149,5.698,102.155,5.675
		 M96.515,3.167c2.617-0.666,3.591,0.473,4.426,2.519c-1.771-0.091-3.539-0.225-5.315-0.478c-0.388-0.06-0.675,0.147-0.808,0.405
		c-0.49-0.005-0.98-0.005-1.471-0.007C94.086,4.503,95.448,3.439,96.515,3.167 M89.374,2.947c1.653,0.143,1.729,1.141,2.376,2.275
		c0.077,0.138,0.191,0.251,0.291,0.377c-1.609-0.009-3.218-0.019-4.825-0.023c-0.811-0.084-1.625-0.159-2.443-0.216
		C85.976,4.07,87.788,2.811,89.374,2.947 M78.218,3.922c0.746-1.064,1.688-2.266,3.239-1.889c1.7,0.415,1.788,1.912,2.142,3.271
		c-0.72-0.023-1.449-0.033-2.184,0.007c-0.92,0.048-1.828,0.119-2.742,0.18c-0.207-0.005-0.418-0.021-0.627-0.026
		C78.237,5,78.274,4.466,78.218,3.922 M70.302,2.942c0.844-0.945,2.812-2.21,4.289-1.964c1.441,0.239,2.226,1.692,2.465,2.953
		c-0.258,0.455-0.487,0.982-0.537,1.474c-1.502-0.045-3.007-0.084-4.51-0.181c-0.879-0.056-1.744-0.065-2.621-0.099
		c0.014-0.243,0-0.496-0.027-0.754C69.616,3.866,69.917,3.376,70.302,2.942 M62.329,2.875c0.74-1.12,1.818-1.401,3.178-1.277
		c1.242,0.115,2.074,0.584,2.399,1.744c0.102,0.358,0.239,0.792,0.376,1.235c-0.029,0.17-0.047,0.339-0.057,0.511
		c-2.186-0.059-4.354-0.08-6.496-0.026c-0.057-0.225-0.117-0.448-0.221-0.673c-0.021-0.044-0.053-0.086-0.08-0.129
		C61.696,3.749,62.075,3.256,62.329,2.875 M54.427,3.25c0.984-0.897,2.002-1.242,3.375-0.884c1.303,0.342,1.986,1.181,2.567,2.184
		c-0.028,0.192-0.022,0.378,0.006,0.561c-2.302,0.078-4.589,0.189-6.876,0.363c-0.08-0.179-0.211-0.343-0.328-0.511
		C53.438,4.304,53.884,3.75,54.427,3.25 M45.868,4.008c0.365-0.452,0.807-0.822,1.295-1.165c1.26-0.897,2.258-0.764,3.355,0.347
		c0.633,0.647,1.072,1.424,1.574,2.161c0.009,0.075,0.019,0.152,0.043,0.225c-2.33,0.192-4.669,0.413-7.021,0.656
		c-0.068-0.208-0.105-0.429-0.144-0.647C45.291,4.92,45.761,4.147,45.868,4.008 M37.628,4.449c1.018-1.474,3.773-2.341,5.26-1.108
		c0.941,0.783,0.848,1.706,0.998,2.596c-0.019,0.146,0.006,0.282,0.01,0.427c-1.199,0.126-2.41,0.257-3.625,0.393
		c-1.113,0.125-2.23,0.197-3.349,0.27c0.064-0.129,0.013-0.395-0.09-0.685C37.019,5.682,37.23,5.023,37.628,4.449 M28.653,6.111
		c0.305-0.546,0.702-1.047,1.219-1.444c0.956-0.736,1.406-0.874,2.677-0.797c1.462,0.09,1.499,0.272,2.196,1.245
		c0.32,0.436,0.633,0.461,0.879,1.085c0.135,0.338,0.135,0.632,0.146,0.918c-1.469,0.073-2.938,0.117-4.404,0.137
		c-1.029-0.071-2.062-0.146-3.089-0.188c-0.008-0.032-0.019-0.065-0.026-0.098C28.417,6.58,28.604,6.2,28.653,6.111 M22.04,5.497
		c0.75-1.076,1.499-1.36,2.872-1.502c1.679-0.173,1.782,1.892,2.181,2.953c0.012,0.03,0.027,0.059,0.041,0.089
		c-0.998-0.017-1.99,0.002-2.961,0.12c-0.221,0.025-0.445,0.053-0.668,0.082c-0.729-0.009-1.459,0-2.188-0.002
		c-0.018-0.089-0.051-0.173-0.069-0.26C21.468,6.467,21.707,5.965,22.04,5.497 M13.12,6.2c0.577-0.878,1.955-1.83,2.916-2.297
		c0.951-0.461,2.348-0.862,3.191,0.258c0.26,0.347,0.311,0.872,0.461,1.266c0.228,0.609,0.437,1.205,0.646,1.807
		c-2.513,0.002-5.026,0.03-7.533,0.157c-0.014-0.047-0.03-0.088-0.042-0.14C12.942,6.762,13.084,6.259,13.12,6.2 M2.79,11.365
		c-0.014-0.713,0.276-1.308,0.877-1.777c0.492-0.144,0.957-0.344,1.414-0.552C5.077,9.083,5.057,9.134,5.062,9.18
		c0.213,1.903,0.334,3.792,0.404,5.667c-0.293-0.179-0.656-0.216-1.138-0.41C2.663,13.765,2.382,13,2.79,11.365 M3.826,20.852
		c-1.027-0.605-2.053-2.166-1.49-3.225c0.524-0.989,1.767-1.477,2.989-1.49c0.057,0,0.113-0.025,0.168-0.04
		c0.043,1.733,0.067,3.465,0.054,5.197C4.929,21.198,4.271,21.112,3.826,20.852 M5.167,22.199c0.127,0.016,0.252,0.042,0.373,0.058
		c-0.012,1.753-0.027,3.524-0.031,5.294C3.466,26.872,3.396,23.42,5.167,22.199 M5.499,29.025c0,0.215-0.004,0.422-0.004,0.635
		c0.01,1.886,0.094,3.778,0.206,5.673C-0.247,34.301,2.659,30.396,5.499,29.025 M3.02,40.434c-0.263-1.477,1.219-3.666,2.737-4.151
		c0.168,2.594,0.371,5.19,0.511,7.787c-0.056,0.108-0.04,0.228,0.015,0.343c0,0.051,0,0.101,0.004,0.15
		C5.073,43.972,3.16,41.232,3.02,40.434 M2.908,61.482c0.147-0.638,0.248-1.8,0.688-2.286c0.521-0.58,1.219-0.854,1.95-1.064
		c0.107,0.023,0.21,0.061,0.312,0.072c-0.186,1.887-0.377,3.769-0.564,5.655c-0.005-0.077-0.048-0.155-0.146-0.183
		c-0.404-0.12-0.761-0.178-1.111-0.192c-0.01-0.003-0.042-0.017-0.05-0.019C2.843,63.043,2.646,62.589,2.908,61.482 M1.44,68.062
		c-0.117-1.006,0.938-2.103,1.543-2.914c0.327-0.445,0.662-0.633,1.054-0.768c0.327,0.107,0.771,0.313,1.177,0.351
		c-0.193,2.032-0.342,4.063-0.436,6.104c-0.02-0.006-0.034-0.021-0.059-0.021c-0.049-0.005-0.105,0.015-0.158,0.015
		c-0.136-0.075-0.29-0.146-0.51-0.249C2.954,70.069,1.571,69.229,1.44,68.062 M1.436,75.712c-0.576-1.631,0.966-3.406,2.612-4.137
		c0.148,0.058,0.309,0.118,0.449,0.168c0.084,0.029,0.168,0.014,0.241-0.018c-0.038,1.137-0.063,2.276-0.043,3.42
		c0.013,0.822-0.062,1.725-0.097,2.629c-0.016,0.005-0.037-0.004-0.051,0.005c-0.919,0.394-1.355,0.308-2.044-0.417
		C2.128,76.966,1.614,76.212,1.436,75.712 M5.505,83.085c-0.211,0.209-0.605,0.797-0.887,0.916c-0.693,0.301-1.48-0.449-1.852-0.869
		c-0.854-0.971-0.811-2.307-0.104-3.344c0.07-0.105,0.301-0.326,0.564-0.561c0.443,0.039,0.903-0.117,1.367-0.551
		c0.029,1.517,0.352,2.928,1.697,3.801C6.019,82.668,5.743,82.851,5.505,83.085 M6.306,52.845c-0.094,1.507-0.225,3.01-0.369,4.509
		c-0.549-0.077-1.168-0.268-1.482-0.425c-1.674-0.846-2.447-2.439-0.717-3.985c0.295-0.268,1.65-1.138,2.605-1.515
		C6.329,51.9,6.339,52.374,6.306,52.845 M4.328,49.16c-1.43-0.454-1.667-1.274-0.709-2.455c0.667-0.807,1.505-1.329,2.513-1.561
		c0.107-0.033,0.162-0.122,0.17-0.212c0.078,1.723,0.098,3.44,0.078,5.154C5.696,49.901,5.099,49.686,4.328,49.16 M310.858,7.285
		L258.38,6.073L95.625,5.209L6.038,8.019C5.869,8.044,5.71,8.13,5.569,8.248C5.513,7.746,5.447,7.243,5.611,6.755
		C6.095,5.3,7.511,5.025,8.964,4.789c0.945-0.154,1.799-0.295,2.196,0.642c0.132,0.319,0.155,0.671,0.29,0.993
		c0.126,0.293,0.254,0.579,0.385,0.865c-0.013,0.054-0.024,0.105-0.041,0.162C9.868,7.57,7.948,7.733,6.038,8.019 M11.312,85.558
		c-0.816,0.691-1.406,1.059-2.493,0.377c-1.106-0.689-1.45-1.805-1.595-2.92c0.023-0.019,0.047-0.039,0.07-0.057
		c1.246,0.415,3.023,0.556,4.926,0.567c-0.07,0.114-0.102,0.249-0.023,0.394c0.043,0.082,0.094,0.166,0.142,0.249
		C12.333,84.58,11.479,85.409,11.312,85.558 M16.688,85.892c-1.848,0.627-2.673-0.637-3.433-1.963
		c-0.022-0.099-0.099-0.183-0.157-0.274c-0.025-0.042-0.049-0.087-0.074-0.132c1.785-0.018,3.626-0.129,5.221-0.222
		C18.378,84.39,17.935,85.471,16.688,85.892 M23.001,86.698c-3.079,1.158-3.028-0.783-3.398-2.174
		c-0.127-0.469-0.16-0.795-0.295-1.076c-0.005-0.07,0.016-0.139,0.004-0.209c0.877-0.047,1.636-0.077,2.209-0.066
		c0.926,0.013,1.86-0.016,2.788-0.021c0.024,0.064,0.03,0.135,0.047,0.203c0.019,0.092,0.026,0.176,0.051,0.27
		C24.548,84.763,24.13,86.274,23.001,86.698 M30.418,84.224c-0.786,0.858-1.56,1.404-2.819,1.268
		c-1.199-0.131-2.039-1.174-2.256-2.345c2.017-0.034,4.037-0.09,6.061-0.179C31.161,83.44,30.663,83.952,30.418,84.224
		 M38.401,82.775c0.033,1.458-0.239,2.927-1.898,3.516c-2.703,0.958-3.781-0.581-4.32-2.325c0.229-0.352,0.408-0.707,0.473-1.045
		c1.932-0.092,3.867-0.188,5.793-0.276C38.435,82.689,38.397,82.722,38.401,82.775 M39.984,83.734
		c-0.212-0.228-0.443-0.829-0.622-1.122c1.58-0.066,3.165-0.135,4.74-0.17c0.092,0,0.186,0,0.285,0
		c0.01,0.05,0.023,0.104,0.035,0.155C44.515,84.754,42.554,86.432,39.984,83.734 M49.928,84.637
		c-0.722,1.395-1.874,2.332-3.747,0.886c-0.402-0.312-0.631-0.783-0.807-1.289c0.016-0.035,0.037-0.061,0.049-0.099
		c0.258-0.642,0.127-1.175-0.047-1.701c1.787-0.026,3.571-0.023,5.353-0.015c0.015,0.061,0.038,0.123,0.052,0.184
		C50.646,83.324,50.157,84.191,49.928,84.637 M53.896,84.739c-0.884-0.227-1.87-1.301-2.212-2.322
		c1.65,0.014,3.301,0.055,4.949,0.094c0.005,0.021,0.005,0.039,0.015,0.059C56.252,83.755,56.265,85.349,53.896,84.739
		 M61.573,85.096c-0.928,1.237-2,0.815-2.835-0.243c-0.36-0.455-0.721-0.949-1.06-1.456c0.109-0.278,0.197-0.564,0.243-0.86
		c1.464,0.04,2.931,0.117,4.394,0.174c0.027,0.253,0.079,0.514,0.154,0.78C62.245,84.133,61.776,84.831,61.573,85.096
		 M65.015,85.339c-0.68-0.166-1.238-1.105-1.537-1.996c0.033-0.207,0.037-0.394,0.023-0.584c1.26,0.053,2.512,0.092,3.768,0.15
		C67.265,84.135,66.365,85.668,65.015,85.339 M72.786,85.298c-3.042,2.155-4.006-0.572-4.232-2.325
		c1.636,0.084,3.275,0.176,4.911,0.267c0.009,0.033,0,0.062,0.019,0.094C73.878,83.987,73.47,84.81,72.786,85.298 M75.823,85.613
		c-0.694-0.628-0.731-1.591-1.178-2.308c1.525,0.086,3.057,0.174,4.586,0.262C78.995,85.438,78.457,87.997,75.823,85.613
		 M84.739,85.694c-0.114,1.094-0.816,1.332-2.106,0.709c-1.194,0.379-1.828,0.15-1.9-0.689c-0.218-0.318-0.376-0.693-0.536-1.077
		c0.042-0.345,0.066-0.687,0.061-1.009c1.484,0.09,2.967,0.17,4.453,0.256c0.031,0.237,0.074,0.477,0.135,0.725
		C84.859,84.97,84.841,85.33,84.739,85.694 M89.312,85.946c-0.131,1.13-0.625,1.475-1.49,1.043
		c-0.511,0.061-0.813-0.104-0.919-0.492c-0.601-0.546-0.942-1.39-1.114-2.224c-0.006-0.11-0.01-0.224-0.02-0.331
		c1.377,0.08,2.762,0.155,4.138,0.228C90.155,84.885,89.95,84.917,89.312,85.946 M91.834,86.563
		c-0.356-0.496-0.517-1.111-0.724-1.707c-0.022-0.213-0.059-0.426-0.121-0.637c1.744,0.094,3.492,0.176,5.235,0.253
		c0,0.049-0.032,0.093-0.008,0.147C97.224,86.922,93.718,89.206,91.834,86.563 M100.363,87.188c-1.565-0.199-2.44-1.465-3.083-2.667
		c1.911,0.077,3.814,0.115,5.713,0.139c0.037,0.257,0.088,0.534,0.145,0.822C103.024,86.587,102.497,87.456,100.363,87.188
		 M104.517,87.046c-0.193-0.277-0.352-0.603-0.502-0.938c0.104-0.459,0.141-0.942,0.145-1.428c1.666,0.012,3.319,0.003,4.971-0.014
		C109.616,86.661,106.185,89.424,104.517,87.046 M113.577,86.563c-1.576,0.4-2.536-0.773-3.24-1.908
		c1.449-0.023,2.894-0.057,4.337-0.094C114.622,85.409,114.522,86.319,113.577,86.563 M121.854,85.933
		c-0.3,1.205-0.735,1.244-2.086,1.605c-1.007,0.688-1.81,0.581-2.423-0.319c-0.229-0.296-0.467-0.593-0.701-0.891
		c-0.286-0.394-0.504-0.825-0.785-1.214c-0.079-0.107-0.148-0.225-0.22-0.337c-0.005-0.08-0.005-0.157-0.015-0.239
		c2.072-0.061,4.144-0.148,6.211-0.232C121.929,84.847,121.99,85.394,121.854,85.933 M126.466,86.306
		c-1.932,0.623-2.985,0.393-3.16-0.699c-0.219-0.414-0.252-0.881-0.346-1.346c1.392-0.056,2.779-0.116,4.172-0.182
		c0,0.126,0.023,0.262,0.004,0.379C126.911,85.072,126.686,85.69,126.466,86.306 M133.364,85.979
		c-0.305,0.25-0.618,0.489-0.951,0.71c-1.912,1.237-3.187,0.926-3.824-0.926c-0.314-0.646-0.366-1.144-0.571-1.577
		c0-0.047,0.004-0.102,0.004-0.15c1.814-0.084,3.632-0.164,5.446-0.248C133.606,84.533,133.815,85.335,133.364,85.979
		 M136.628,86.49c-1-0.134-1.543-0.729-1.852-1.458c-0.045-0.42-0.192-0.839-0.303-1.289c1.848-0.084,3.699-0.159,5.556-0.229
		c0,0.077,0.008,0.155,0.012,0.235C139.745,84.908,137.72,86.633,136.628,86.49 M143.243,86.689
		c-1.662,0.087-2.126-1.055-2.394-2.29c0.136-0.318,0.239-0.635,0.276-0.923c1.68-0.063,3.365-0.11,5.053-0.161
		C146.146,84.983,145.706,86.567,143.243,86.689 M151.792,83.319c-0.038,0.37-0.072,0.74-0.113,1.111
		c-0.335,1.141-1.027,1.453-2.084,0.941c-1.443-0.258-1.915-1.059-2.211-2.098c0.473-0.012,0.942-0.035,1.415-0.044
		c0.999-0.021,2.001-0.023,2.999-0.035C151.796,83.235,151.792,83.284,151.792,83.319 M154.236,86.306
		c-0.511-0.488-0.942-1.262-1.29-2.04c0.118-0.362,0.188-0.73,0.188-1.087c1.901-0.019,3.796-0.023,5.694-0.023
		C159.116,85.261,156.396,88.374,154.236,86.306 M164.665,83.78c-0.479,0.612-1.064,1.131-1.754,1.553
		c-2.006,0.722-2.568-0.716-2.873-2.009c-0.006-0.062-0.028-0.115-0.037-0.173c1.65,0,3.299,0.014,4.949,0.023
		C164.856,83.376,164.772,83.582,164.665,83.78 M169.548,85.171c-0.348,0.398-0.843,0.43-1.479,0.094
		c-1.038,0.295-1.508,0.027-1.412-0.811c-0.175-0.308-0.254-0.729-0.324-1.148c0.02-0.043,0.047-0.082,0.061-0.127
		c1.676,0.014,3.352,0.03,5.024,0.047C170.968,84.05,170.097,84.932,169.548,85.171 M175.261,84.56
		c-1.631,0.953-2.258-0.176-2.492-1.324c1.059,0.012,2.123,0.021,3.185,0.03C175.876,83.746,175.801,84.245,175.261,84.56
		 M179.804,86.298c-1.285-0.549-1.734-1.882-2.307-3.021c2.213,0.017,4.426,0.03,6.637,0.038
		C183.581,85.274,182.642,87.517,179.804,86.298 M188.005,85.578c-1.33,0-2.165-1.136-2.41-2.261
		c1.603,0.002,3.201-0.005,4.805-0.017C190.177,84.439,189.729,85.578,188.005,85.578 M195.274,86.08
		c-0.502,0.206-1.034,0.124-1.6-0.243c-1.25,0.182-1.912-0.27-1.987-1.355c-0.132-0.354-0.241-0.721-0.354-1.088
		c0.004-0.031,0.02-0.062,0.025-0.096c2.084-0.014,4.162-0.054,6.247-0.096C197.45,84.505,196.915,85.747,195.274,86.08
		 M203.347,84.126c-0.482,0.511-1.257,1.377-2.111,1.519c-1.469,0.247-2.112-1.155-2.393-2.461c1.804-0.042,3.607-0.118,5.412-0.188
		C204.123,83.437,203.833,83.821,203.347,84.126 M208.483,85.104c-1.626,0.736-2.002,0.463-2.445-1.087
		c-0.121-0.434-0.213-0.771-0.367-1.075c0.839-0.035,1.678-0.052,2.52-0.096c0.699-0.038,1.408-0.041,2.107-0.066
		C210.137,83.749,209.491,84.644,208.483,85.104 M215.194,84.401c-1.692,1.004-2.703-0.339-3.371-1.673
		c1.558-0.047,3.109-0.086,4.67-0.099C216.319,83.347,215.911,83.976,215.194,84.401 M217.894,84.841
		c-0.289-0.588-0.322-1.113-0.459-1.615c0.062-0.197,0.113-0.394,0.146-0.596c2.146-0.004,4.293,0.033,6.443,0.07
		C224.017,85.274,220.219,89.417,217.894,84.841 M229.55,84.292c-1.324,1.681-3.781-0.082-4.556-1.584
		c1.651,0.033,3.306,0.067,4.955,0.112C229.817,83.433,229.72,84.079,229.55,84.292 M231.726,83.743
		c-0.164-0.231-0.238-0.564-0.338-0.885c1.172,0.032,2.34,0.058,3.507,0.091c0.665,0.019,1.326,0.003,1.991,0.009
		C236.455,85.397,233.44,86.159,231.726,83.743 M242.394,83.933c-0.562,1.107-1.738,2.463-3.305,1.055
		c-0.201-0.182-0.735-1.359-1.036-2.021c1.538,0.002,3.081,0.007,4.618-0.026C242.601,83.306,242.529,83.666,242.394,83.933
		 M249.766,85.103c-2.505,1.324-3.717,0.104-5.512-1.76c-0.195-0.207-0.284-0.328-0.365-0.438c2.315-0.062,4.626-0.144,6.938-0.214
		C250.708,83.559,251.206,84.339,249.766,85.103 M257.64,83.728c-1.025,0.482-2.049,0.965-3.074,1.447
		c-0.835-0.518-1.42-1.164-1.775-1.944c-0.133-0.199-0.213-0.398-0.297-0.586c1.853-0.052,3.703-0.079,5.555-0.085
		C257.94,83.005,257.809,83.521,257.64,83.728 M259.36,84.13c-0.16-0.424-0.188-0.951-0.367-1.373
		c0.01-0.067,0.029-0.134,0.034-0.201c0.301,0,0.599-0.006,0.896-0.003c2.119,0.021,4.236,0.06,6.351,0.101
		C265.436,85.298,260.581,87.383,259.36,84.13 M267.817,82.759c-0.01-0.023-0.017-0.051-0.03-0.074
		c1.856,0.039,3.71,0.077,5.563,0.109C271.94,84.739,269.719,85.931,267.817,82.759 M275.667,85.555
		c-0.596-0.687-0.717-1.675-1.14-2.498c0.032-0.081,0.069-0.159,0.098-0.241c1.776,0.025,3.559,0.04,5.335,0.04
		C279.327,84.515,277.682,87.883,275.667,85.555 M284.271,84.51c-1.551,1.399-3.25-0.157-3.229-1.659
		c1.348-0.004,2.695-0.023,4.045-0.051C285.054,83.394,284.914,83.933,284.271,84.51 M288.499,85.479
		c-0.839-0.219-1.373-1.203-1.785-1.795c-0.211-0.302-0.37-0.611-0.566-0.888c0-0.007,0.004-0.015,0.004-0.021
		c1.936-0.054,3.867-0.146,5.803-0.272C292.235,84.14,290.323,85.958,288.499,85.479 M281.394,80.542
		c-5.82,0.335-11.797-0.309-17.623-0.511c-6.215-0.211-12.326,0.443-18.564,0.36c-15.088-0.195-29.928-0.275-44.986,0.045
		c-15.569,0.333-30.973,0.38-46.532,0.015c-13.704-0.321-27.235,2.404-40.987,1.959c-26.669-0.862-53.297-3.688-80.04-2.602
		c-5.638,0.229-11.077,0.604-16.728,0.469c-5.485-0.128-8.235,1.632-8.475-3.909C6.966,65.017,9.247,53.857,8.479,42.496
		c-0.52-7.764-0.242-15.491-0.222-23.262c0.007-1.702-1.066-6.866-0.177-8.218c1.088-1.644,6.107-1.158,8.143-1.144
		c7.531,0.042,14.899-0.457,22.268-1.053c2.184,0.113,4.33,0.216,6.617,0.047c4.368-0.324,8.99-0.654,13.357-0.757
		c6.502-0.152,12.891-0.532,19.357-0.963c20.967,0.616,42.061,3.098,62.895,0.921c9.572,0.293,19.154,0.333,28.742,0.85
		c15.288,0.82,30.535-0.759,45.814-1.263c15.036-0.497,29.796,0.48,44.754,1.057c13.52,0.521,26.947,0.125,40.478,0.855
		c1.104,0.061,6.483-0.242,7.612,0.471c1.393,0.881,1.084,1.277,1.266,3.581c0.525,6.571-0.022,13.196,0.52,19.809
		c0.37,4.453,0.432,8.882,0.395,13.304c-0.01,0.033-0.004,0.065-0.004,0.104c-0.066,7.387-0.427,14.757-0.15,22.202
		c0.226,6.22,0.741,8.048-5.364,8.76C297.011,78.702,289.206,80.091,281.394,80.542 M296.687,84.182
		c-1.779,0.879-2.727-0.702-3.433-1.786c1.714-0.126,3.429-0.293,5.144-0.496c0.039,0.164,0.076,0.323,0.113,0.487
		C297.906,82.986,297.296,83.584,296.687,84.182 M304.457,82.126c-0.299,1.766-1.897,2.436-3.522,1.578
		c-0.651-0.342-1.068-0.957-1.468-1.57c-0.011-0.122-0.019-0.244-0.033-0.373c1.642-0.213,3.291-0.471,4.932-0.757
		C304.431,81.392,304.511,81.801,304.457,82.126 M309.636,82.248c-1.469,1.98-2.994-0.134-3.991-1.497
		c0.772-0.147,1.546-0.276,2.325-0.453c0.609-0.138,1.105-0.267,1.555-0.396c0.059,0.038,0.109,0.085,0.192,0.097
		c0.144,0.012,0.301,0.084,0.455,0.176c-0.009,0.091,0.032,0.164,0.107,0.243C310.046,81.042,309.987,81.775,309.636,82.248
		 M314.25,78.786c0.347,0.47,0.335,1.611-0.235,1.955c-0.839,0.502-2.021-0.264-2.742-0.74c-0.041-0.051-0.053-0.115-0.121-0.143
		c-0.08-0.033-0.159-0.068-0.242-0.101l0,0c-0.114-0.075-0.218-0.153-0.337-0.228c0.944-0.424,1.448-1.01,1.835-2.114
		c0.029,0.005,0.062,0.012,0.094,0.017c0.321,0.229,0.628,0.479,0.91,0.693C313.683,78.333,314.058,78.522,314.25,78.786
		 M316.978,76.601c-0.746,0.143-1.561,0.096-2.307,0.139c-0.581,0.037-1.199,0.084-1.771,0.002c-0.079-0.049-0.16-0.096-0.238-0.143
		c0.098-0.368,0.191-0.778,0.295-1.242c0.084-0.395,0.145-0.807,0.211-1.21c0.178,0.02,0.364,0.02,0.543,0.024
		c0.361,0.258,0.727,0.506,1.125,0.75C315.487,75.319,316.551,75.867,316.978,76.601 M317.136,72.745
		c-0.969,0.818-2.432,0.812-3.82,0.572c0.184-1.214,0.307-2.461,0.377-3.727c0.196,0.012,0.397,0.023,0.59,0.047
		C315.313,69.765,319.198,71.002,317.136,72.745 M315.946,66.187c1.354,0.568,1.214,1.42-0.413,2.554
		c-0.183,0.073-0.403,0.105-0.64,0.12c-0.398-0.099-0.785-0.094-1.159-0.085c0.046-1.218,0.069-2.444,0.061-3.687
		c0.098-0.002,0.206,0.006,0.31,0.008c0.369,0.22,0.754,0.432,1.102,0.648C315.469,65.874,315.712,66.021,315.946,66.187
		 M317.104,62.495c0.497,0.332,0.464,0.711-0.094,1.123c-0.062,0.618-0.37,0.854-0.924,0.717c-0.796,0.082-1.583-0.232-2.298-0.221
		c-0.018-0.953-0.05-1.908-0.082-2.863c0.646,0.088,1.279-0.04,1.926,0.141C316.259,61.562,316.858,61.907,317.104,62.495
		 M316.635,58.46c0.798,1.832-1.678,1.721-2.962,1.991c-0.042-1.134-0.084-2.263-0.126-3.386c0.248,0.023,0.496,0.059,0.74,0.087
		C315.313,57.466,316.435,58,316.635,58.46 M315.12,56.304c-0.543,0-1.072-0.132-1.607-0.18c-0.031-1.066-0.055-2.121-0.059-3.165
		c0.262,0.038,0.529,0.073,0.791,0.101c0.566,0.062,1.139,0.068,1.707,0.129l1.166,0.152c1.322,0.296,1.443,0.867,0.365,1.711
		C316.705,56.292,316.563,56.298,315.12,56.304"/>
</g>
</svg>
