<?xml version="1.0" encoding="utf-8"?>
<!-- Generator: Adobe Illustrator 16.0.0, SVG Export Plug-In . SVG Version: 6.00 Build 0)  -->
<!DOCTYPE svg PUBLIC "-//W3C//DTD SVG 1.1//EN" "http://www.w3.org/Graphics/SVG/1.1/DTD/svg11.dtd">
<svg version="1.1" id="Layer_1" xmlns="http://www.w3.org/2000/svg" xmlns:xlink="http://www.w3.org/1999/xlink" x="0px" y="0px"
	 width="320px" height="90px" viewBox="0 0 320 90" style="enable-background:new 0 0 320 90;" xml:space="preserve">
<style type="text/css">
<![CDATA[
	.st0{fill:#FFFFFF;}
	.st1{fill:#CAC1B0;}
]]>
</style>
<polygon class="st0" points="97.833,7.5 64.992,6.576 36.667,8.333 11.833,9.333 6.5,9.333 6.5,18.667 6.5,80.334 11.333,81.834 
	18.167,81.834 40.167,81.834 56.167,81.834 77.5,81.834 91.167,83.167 104.833,84 119.5,84 129.333,83.167 144.833,82.5 
	156.167,82.334 180.667,82.167 250.833,81.667 270.167,82 282,82 307.167,79 311.667,76 311.667,72.334 311,9.667 308.167,9 
	298.5,8.5 229.167,6.576 181.333,8.333 132,7.333 "/>
<g>
	<path class="st1" d="M319.765,54.943c-0.07-1.616-1.768-2.118-3.581-2.332c1.49-0.323,2.619-1.008,2.016-2.752
		c-0.343-1-1.397-1.978-2.59-2.435c1.146-0.504,3.123-1.388,3.34-2.302c0.248-1.045-1.078-1.812-1.973-2.098
		c-0.4-0.122-0.967-0.141-1.557-0.136c1.527-0.462,2.976-1.256,2.861-2.546c-0.092-0.983-1.213-1.579-2.074-1.945
		c-0.365-0.154-0.756-0.283-1.151-0.398c2.327-0.159,4.769-0.66,3.894-2.592c-0.693-1.53-2.724-2.911-4.732-3.305
		c1.82-0.78,3.621-1.972,2.24-3.815c-0.208-0.277-0.691-0.584-1.254-0.844c0.133-0.021,0.258-0.043,0.334-0.063
		c1.021-0.283,1.729-0.893,1.708-1.894c-0.024-1.058-0.564-2.037-1.55-2.591c-0.318-0.175-0.66-0.285-1.008-0.364
		c0.15-0.052,0.301-0.112,0.46-0.19c0.651-0.325,2.634-1.098,2.735-1.971c0.164-1.421-2.385-1.887-4.184-1.963
		c2.12-0.784,5.311-2.528,5.137-4.274c-0.084-0.827-1.242-1.727-2.053-2.051c-0.567-0.225-1.275-0.18-1.988-0.052
		c1.613-1.218,2.977-2.688,0.962-4.612c-0.715-0.679-2.161-0.511-3.29,0.038c0.074-0.218,0.164-0.422,0.201-0.687
		c0.107-0.765,0.248-2.099-0.623-2.576c-0.816-0.453-2.049,0.246-2.738,0.733c-0.098-0.619-0.37-1.217-1.026-1.465
		c-1.517-0.581-2.812,0.643-3.595,2.067c-0.155-1.182-0.821-2.3-2.125-2.34c-0.758-0.021-1.49,0.441-2.075,1.078
		c-0.347-0.583-0.909-1.048-1.688-1.219c-1.444-0.322-2.906,0.5-3.84,1.642c-0.084-0.216-0.183-0.432-0.323-0.654
		c-0.502-0.805-1.289-1.713-2.414-1.654c-1.52,0.082-2.709,1.244-3.352,2.575c-0.516-1.458-1.453-2.803-3.271-2.587
		c-1.6,0.185-3.105,1.636-3.661,3.126c-0.22-1.319-0.525-2.605-2.297-2.535c-1.073,0.044-2.058,0.541-2.719,1.258
		c-0.433-1.038-1.279-1.807-2.836-1.592c-1.431,0.202-2.834,1.454-3.624,2.812c-0.01-0.381-0.061-0.757-0.37-1.148
		c-0.454-0.583-1.045-0.864-1.823-0.811c-1.073,0.075-2.293,0.811-3.164,1.749c-0.436-1.041-1.43-1.814-2.967-1.94
		c-0.924-0.076-1.893,0.645-2.498,1.529c-0.512-1.373-2.012-2.662-3.416-2.636c-1.652,0.033-2.95,0.918-3.742,2.111
		c-0.576-0.851-1.674-1.392-3.108-1.224c-0.665,0.08-1.536,0.589-2.18,1.235c-0.37-1.301-2.054-1.622-3.978-1.341
		c-1.268,0.183-2.439,0.406-3.307,1.237c-0.643-1.102-1.922-1.837-3.482-1.897c-1.928-0.075-3.201,0.986-3.816,2.437
		c-0.512-0.665-1.298-1.127-2.507-1.274c-1.102-0.129-1.88,0.257-2.368,0.89c-0.4-1.159-1.189-2.09-2.826-2.024
		c-1.652,0.065-3.276,1.148-4.008,2.531c-1.115-1.949-4.87-2.146-6.131-0.471c-0.795-0.79-1.983-1.437-2.714-1.493
		c-1.392-0.112-2.78,0.895-3.089,2.079c-0.291-0.321-0.639-0.612-1.004-0.844c-0.757-0.48-1.954-1.062-2.92-0.978
		c-0.797,0.065-1.613,0.574-2.223,1.245c-0.633-0.765-1.621-1.311-2.736-1.386c-1.061-0.072-2.452,0.532-3.305,1.402
		c-0.296-0.639-0.892-1.031-1.707-1.116c-1.917-0.204-3.375,0.886-4.331,2.241c-0.099-1.508,0.249-3.316-2.278-2.738
		c-0.824,0.188-2.441,1.121-3.201,2.151c-0.283-1.026-0.601-1.95-2.539-1.915c-1.652,0.03-2.865,0.656-3.568,1.676
		c-0.268-1.321-0.84-2.606-2.316-2.451c-1.021,0.104-2.419,1.219-3.154,2.424c-0.164-0.279-0.3-0.505-0.361-0.57
		c-0.684-0.69-1.646-1.188-2.677-1.281c-2.161-0.207-3.093,1.055-3.792,2.53c-1.059-1.71-2.573-2.913-5.086-2.385
		c-1.186,0.247-3.73,1.241-4.592,2.539c-0.726-0.803-1.637-1.79-1.904-1.949c-0.83-0.499-1.548-0.754-2.561-0.68
		c-1.762,0.139-3.127,1.027-3.768,2.335c-1.023-1.486-2.695-2.532-4.782-2.236c-1.308,0.183-2.952,0.999-3.792,2.116
		c-0.576-0.842-1.378-1.854-1.996-2.051c-1.945-0.618-3.343,0.845-4.617,1.935c-0.717-1.676-1.742-2.572-4.116-2.203
		c-1.425,0.222-3.29,0.948-4.172,2.099c-0.516-1.179-1.706-2.205-2.944-2.654c-2.451-0.892-4.096,0.469-5.15,2.231
		c-1.201-2.685-5.963-1.759-7.426,0.613c-1.65-2.644-6.465-3.146-8.166-0.541c-0.627-1.267-1.509-2.315-3.28-2.394
		c-2.593-0.112-4.247,1.21-5.349,2.946c-0.197-0.4-0.408-0.78-0.605-1.108c-0.618-1.026-1.654-1.793-2.983-1.793
		c-1.708-0.002-3.087,1.128-4.202,2.163c-0.141,0.132-0.313,0.279-0.496,0.445C84.727,4,84.466,3.188,84.119,2.669
		c-0.619-0.923-1.938-1.555-3.107-1.405c-1.373,0.173-2.161,0.853-2.865,1.788c-0.59-1.47-1.895-2.726-3.457-2.651
		c-1.942,0.098-4.248,1.299-5.435,2.944c-0.116-0.314-0.253-0.606-0.403-0.844c-0.745-1.158-1.889-1.432-3.271-1.517
		c-1.641-0.101-2.93,0.321-3.83,1.61c-0.215,0.312-0.463,0.685-0.68,1.08c-0.225-0.302-0.473-0.593-0.745-0.853
		c-0.909-0.865-2.507-1.416-3.825-1.24c-1.139,0.155-3.027,1.425-3.82,2.771c-0.037-0.045-0.084-0.105-0.119-0.15
		c-0.804-1.11-1.774-2.535-3.405-2.62c-1.603-0.085-3.324,1.252-4.29,2.803c-0.111-0.334-0.271-0.665-0.547-0.965
		c-0.868-0.94-2.129-1.57-3.502-1.325c-2.307,0.411-3.68,1.737-4.299,3.449c-0.01-0.022-0.027-0.048-0.033-0.058
		c-0.37-0.505-0.853-1.028-1.283-1.497c-1.428-1.557-3.12-1.276-4.796-0.284c-1.064,0.624-1.843,1.351-2.345,2.318
		c-0.195-0.551-0.419-1.09-0.693-1.596c-0.52-0.949-1.41-1.073-2.498-0.947c-1.617,0.189-2.371,0.415-3.234,1.674
		c-0.185,0.271-0.371,0.576-0.539,0.895c-0.188-0.533-0.41-1.059-0.643-1.551c-0.539-1.132-1.5-1.561-2.85-1.475
		c-2.264,0.146-4.063,1.709-5.039,3.541c-0.164-0.43-0.32-0.861-0.506-1.288c-0.574-1.299-1.537-1.064-2.827-0.839
		c-1.546,0.271-2.93,0.365-3.765,1.734C4.936,7.043,4.854,8.056,5.177,8.98c-2.419,0.215-3.501,1.499-3.544,4.045
		c-0.016,0.844,0.053,0.966,0.596,1.625c0.334,0.402,0.825,0.901,1.284,1.16c0.038,0.019,0.112,0.034,0.175,0.051
		C2.232,16.461,1.16,17.56,1.07,19.196c-0.111,1.967,1.5,2.785,3.295,3.201c-3.158,1.655-3.258,5.276,0.125,6.401
		c-1.624,0.812-2.969,2.019-2.996,3.849c-0.025,1.917,1.236,3.098,2.963,3.695c-3.404,2.147-2.083,7.653,0.549,8.792
		c-1.517,0.338-2.768,1.718-2.811,3.196c-0.061,1.916,1.506,2.542,3.17,2.927c-1.722,0.851-3.423,2.535-3.428,3.665
		c-0.004,1.426,1.188,2.7,2.508,3.216c0.023,0.007,0.062,0.021,0.087,0.028c-0.593,0.256-1.132,0.661-1.563,1.12
		c-0.445,0.472-0.379,0.947-0.478,1.535c-0.112,0.659-0.407,1.296-0.384,1.974c0.025,0.731,0.384,1.15,0.895,1.455
		c-0.112,0.075-0.225,0.127-0.338,0.229c-0.899,0.826-1.812,2.161-2.172,3.266c-0.588,1.812,1.076,3.033,2.766,3.813
		c-1.948,0.791-3.563,2.873-2.854,4.696c0.399,1.018,1.154,2.341,2.082,2.994c-0.196,0.161-0.361,0.324-0.469,0.479
		c-0.829,1.182-1.064,2.728-0.276,3.97c0.487,0.765,1.97,2.194,3.12,1.913c0.794-0.196,1.262-1.08,1.787-1.58
		c0.082-0.074,0.174-0.126,0.258-0.194c0.234,1.831,1.502,4.004,3.545,3.603c0.703-0.136,2.024-0.994,2.681-1.91
		c0.886,1.392,2.062,2.531,4.177,1.788c1.143-0.405,1.814-1.284,2.09-2.275c0.301,1.686,0.092,3.788,2.782,3.56
		c1.674-0.143,2.792-1.382,3.251-2.782c0.581,0.898,1.41,1.597,2.471,1.536c1.264-0.07,3-1.144,4.068-2.377
		c0.412,1.842,1.467,3.593,3.857,3.063c0.989-0.218,2.283-0.982,2.986-1.629c0.559-0.514,0.762-1.01,0.827-1.547
		c0.882,1.346,1.849,2.349,4.138,1.49c0.702-0.26,1.156-0.609,1.5-1.102c0.58,1.688,1.539,3.261,3.257,2.814
		c1.2-0.311,2.503-2.04,3.095-3.688c0.67,1.034,1.73,1.854,2.967,1.796c1.354-0.063,2.381-0.757,2.985-1.707
		c0.29,0.477,0.604,0.924,0.845,1.311c0.465,0.76,1.195,1.809,2.348,1.607c0.867-0.149,1.861-1.142,2.461-2.255
		c0.562,0.978,1.439,1.746,2.611,1.648c1.008-0.087,1.842-0.76,2.334-1.613c0.554,1.416,1.969,2.682,3.516,2.537
		c1.396-0.132,2.086-1.367,2.803-2.333c0.005,0.008,0.005,0.02,0.01,0.023c0.291,0.634,0.68,1.231,1.205,1.726
		c0.613,0.567,1.415,1.085,2.348,1.01c1.078-0.085,1.699-0.799,2.049-1.697c0.191,0.546,0.39,1.015,0.502,1.174
		c0.539,0.793,1.691,1.328,2.728,1.215c1.401-0.159,2.114-0.975,2.448-1.992c0.58,1.011,1.452,1.774,2.689,1.701
		c1.393-0.081,2.283-0.814,2.668-1.773c0.486,1.549,1.157,2.866,3.506,2.433c1.603-0.298,2.682-1.226,2.986-2.4
		c0.977,1.165,2.268,2.019,4.148,1.868c1.068-0.087,1.701-0.527,2.08-1.13c0.521,1.242,1.426,2.213,3.122,1.743
		c1.354-0.379,2.661-1.492,3.171-2.772c0.604,1.1,1.353,1.883,3.232,1.57c1.777-0.297,2.348-0.957,2.48-1.944
		c0.398,0.836,0.791,1.809,1.016,2.065c0.812,0.935,2.054,1.621,3.395,1.354c1.514-0.305,2.297-1.312,2.645-2.494
		c0.374,0.962,0.979,1.742,2.357,1.686c1.738-0.072,2.521-1.353,2.822-2.766c0.374,1.565,0.817,3.08,3.182,2.902
		c1.165-0.085,2.898-1.362,3.451-2.231c0.839,1.13,2.155,1.708,4.133,0.846c0.508-0.22,1.121-0.839,1.617-1.566
		c0.324,1.447,1.178,2.457,3.666,2.045c0.994-0.164,2.016-0.703,2.666-1.396c0.363-0.39,0.555-0.772,0.663-1.158
		c0.731,1.264,1.856,2.207,3.646,1.598c0.689-0.231,1.295-0.836,1.711-1.561c0.479,1.589,1.459,3.052,3.301,2.951
		c1.697-0.092,3.127-1.31,3.778-2.762c0.708,1.16,1.833,1.868,3.722,1.125c0.885-0.349,1.776-1.12,2.396-2.025
		c0.065,0.707,0.229,1.386,0.751,1.841c0.754,0.661,2.028,0.638,2.91,0.218c0.849-0.403,1.852-1.158,2.536-2.047
		c0.374,1.018,1.073,1.832,2.386,1.714c0.886-0.08,1.565-0.635,2.091-1.254c0.226-0.265,0.487-0.703,0.66-1.038
		c0.216,0.8,0.465,1.878,0.751,2.198c0.613,0.697,2.123,1.995,3.187,2.032c2.044,0.073,3.112-1.641,3.76-3.365
		c0.421,1.068,1.237,1.938,2.581,1.986c1.793,0.062,2.818-0.726,3.418-1.827c0.264,0.802,0.605,1.589,0.793,1.795
		c0.701,0.774,1.772,1.068,2.866,0.921c1.146-0.154,2.603-0.912,3.35-1.701c0.267-0.277,0.45-0.551,0.591-0.829
		c0.574,1.259,1.561,2.125,3.305,1.537c0.975-0.333,2.551-1.401,3.384-2.595c0.09,1.483,0.3,3.201,1.925,3.216
		c1.254,0.014,2.941-1.669,3.673-2.405c0.22-0.22,0.37-0.427,0.493-0.63c0.547,1.16,1.315,2.037,3.197,1.77
		c1.197-0.171,2.077-0.839,2.618-1.716c0.349,1.964,0.549,4.353,3.328,3.835c2.208-0.408,3.849-2.002,4.378-3.854
		c0.885,1.607,2.176,2.632,4.443,1.734c0.986-0.39,1.623-1.13,1.951-2c0.205,1.346,0.656,2.546,2.648,2.628
		c1.594,0.062,2.99-0.973,3.717-2.238c0.572,1.423,1.369,3.073,3.141,2.628c0.975-0.247,1.812-1.207,2.334-1.946
		c0.127-0.183,0.366-0.893,0.591-1.546c0.971,1.905,0.961,3.821,4.275,3.356c1.077-0.153,3.745-1.013,4.397-2.285
		c0.183,0.362,0.355,0.675,0.475,0.777c0.81,0.715,1.892,1.12,3.055,1.05c1.588-0.098,2.498-1.134,2.957-2.359
		c0.301,1.521,0.295,2.92,2.902,2.922c2.277,0.003,4.715-1.556,5.531-3.501c0.145,0.593,0.291,1.19,0.881,1.649
		c0.736,0.58,1.94,0.828,2.878,0.783c1.448-0.072,2.565-0.842,3.237-1.884c0.241,1.436,0.992,3.151,2.463,3.317
		c2.029,0.229,3.191-1.352,3.877-2.96c0.469,1.102,1.434,2.019,2.732,1.796c0.986-0.172,1.889-0.869,2.409-1.617
		c0.063-0.095,0.206-0.431,0.337-0.823c0.779,1.428,1.255,3.113,3.479,2.943c1.785-0.135,3.229-1.407,3.604-2.89
		c1.082,1.2,2.282,1.988,4.378,1.284c1.397-0.468,1.903-1.016,2.054-1.703c0.712,1.129,1.738,2.069,3.149,1.854
		c0.872-0.137,2.062-0.894,2.526-1.594c0.286-0.427,0.342-0.882,0.328-1.342c0.797,1.125,1.721,2.091,3.623,1.799
		c1.89-0.289,1.59-1.836,2.092-3.104c0.027,0.017,0.061,0.044,0.084,0.059c0.586,0.333,1.213,0.628,1.922,0.693
		c0.877,0.075,2.029-0.515,2.371-1.275c0.411-0.911-0.379-1.757-1.055-2.339c-0.173-0.149-0.361-0.309-0.547-0.469
		c1.193,0,2.614,0.023,3.692-0.365c0.192-0.065,0.319-0.226,0.263-0.422c-0.236-0.839-1.195-1.488-1.95-1.955
		c-0.296-0.183-0.651-0.438-1.04-0.682c0.051-0.007,0.105-0.002,0.16-0.014c0.995-0.164,2.694-0.448,3.195-1.399
		c0.535-1.026-0.201-2.156-1.063-2.766c-0.29-0.202-0.614-0.38-0.946-0.544c1.308-0.253,2.285-0.886,1.705-2.346
		c-0.347-0.884-1.363-1.372-2.227-1.868c1.523,0.062,3.01-0.052,2.986-1.553c-0.009-0.906-0.931-1.938-1.654-2.502
		c-0.301-0.234-0.581-0.366-0.857-0.445c1.162-0.36,2.108-0.953,1.532-2.078c-0.276-0.54-0.886-1.044-1.612-1.424
		c0.52-0.047,1.04-0.124,1.509-0.301C318.936,56.882,319.812,56.007,319.765,54.943 M316,48.346
		c0.356,0.356,0.713,0.718,1.068,1.076c0.596,0.633,0.498,1.177-0.294,1.633c-0.765,0.887-1.354,0.914-2.478,1.043
		c-0.186,0.021-0.37,0.023-0.557,0.03c0.006-0.6,0.006-1.209,0.029-1.797c0.033-0.787,0.041-1.573,0.047-2.36
		c0.253-0.028,0.51-0.077,0.764-0.147C315.056,47.942,315.593,48.083,316,48.346 M317.037,44.007
		c1.719,1.167-0.744,1.998-1.873,2.585c-0.495,0.258-0.926,0.37-1.334,0.414c0-1.118-0.023-2.236-0.061-3.354
		C314.865,43.653,316.094,43.368,317.037,44.007 M315.245,38.868c1.421,0.544,2.119,1.944,0.574,2.938
		c-0.546,0.35-1.342,0.544-2.103,0.661c-0.055-1.411-0.131-2.822-0.215-4.228C314.036,38.515,314.664,38.644,315.245,38.868
		 M315.533,33.575c1.241,0.694,3.346,3.017,0.758,3.258c-0.938,0.087-1.918,0.075-2.868,0.17c-0.09-1.407-0.179-2.809-0.261-4.215
		C314.004,32.828,314.824,33.181,315.533,33.575 M314.396,31.385c-0.397,0.19-0.839,0.319-1.289,0.438
		c-0.078-1.408-0.149-2.819-0.191-4.234c0.164,0.005,0.328-0.003,0.492-0.005c0.507,0.105,0.998,0.262,1.373,0.499
		C315.747,28.696,315.564,30.831,314.396,31.385 M315.603,25.867c-0.698,0.869-1.146,0.834-2.246,0.782
		c-0.159-0.007-0.313-0.039-0.469-0.061c-0.019-1.09-0.027-2.187-0.009-3.284c0-0.049,0-0.107,0.004-0.159
		C314.881,23.478,317.158,23.92,315.603,25.867 M313.834,19.112c0.629,0.059,3.689,0.312,2.641,1.554
		c-0.498,0.591-2.387,1.229-3.095,1.311c-0.149,0.017-0.3,0.014-0.445,0.012c0.057-0.924,0.136-1.932,0.216-2.979
		C313.527,19.082,313.896,19.117,313.834,19.112 M315.583,12.823c0.807,0.184,1.509,0.514,2.118,0.989
		c0.277,0.624,0.109,1.095-0.51,1.411c-0.793,1.004-2.489,2.001-3.957,2.543c0.095-1.502,0.108-3.035-0.023-4.502
		C313.942,13.077,314.889,12.786,315.583,12.823 M313.811,7.923c1.613-0.115,2.236,1.431,1.374,2.791
		c-0.464,0.735-1.316,1.11-2.085,1.56c-0.202-1.318-0.564-2.542-1.195-3.576C312.58,8.525,314.018,7.907,313.811,7.923
		 M309.217,6.688c0.699-1.078,1.909-2.049,2.373-0.77c0.243,0.666-0.037,1.237-0.462,1.765c-0.345-0.267-0.921-0.377-1.325-0.248
		c-0.233,0.072-0.52,0.122-0.796,0.171C309.105,7.311,309.18,6.997,309.217,6.688 M306.766,4.587
		c0.324-0.401,0.656-0.417,1.009-0.047c0.397,0.052,0.576,0.229,0.529,0.544c0.084,0.276,0.01,0.586-0.079,0.881
		c-0.418,0.534-0.666,1.146-0.662,1.805c-0.97,0.052-2.043,0.026-3.147-0.042C304.756,6.535,305.585,5.047,306.766,4.587
		 M300.865,5.544c0.262-0.5,0.6-0.922,0.971-0.936c0.543-0.021,1.771,1.16,1.795,1.701c0.004,0.236-0.23,0.853-0.301,1.123
		c-0.023,0.086,0.005,0.154,0.028,0.225c-1.055-0.085-2.095-0.185-3.062-0.276C300.711,6.847,300.902,6.193,300.865,5.544
		 M295.076,5.956c0.023-0.121,0.023-0.233,0.027-0.346c0.629-0.761,1.43-1.436,2.301-1.632c1.088-0.244,2.091,0.37,2.408,1.195
		c-0.406,0.703-0.631,1.458-0.549,2.024c0.007,0.034,0.03,0.06,0.045,0.09c-0.544-0.049-1.055-0.09-1.496-0.11
		c-1.059-0.05-2.104-0.108-3.154-0.166c0,0-0.004-0.01-0.012-0.015C294.635,6.985,295.043,6.149,295.076,5.956 M289.919,5.096
		c0.692-1.113,1.187-1.582,2.593-1.207c1.621,0.426,1.261,1.23,1.19,2.632c-0.007,0.096-0.097,0.303-0.136,0.434
		c-1.369-0.075-2.744-0.122-4.111-0.18C289.475,6.196,289.592,5.624,289.919,5.096 M285.086,3.472
		c1.027-0.159,2.434,1.214,2.771,1.973c0.159,0.348,0.28,0.835,0.374,1.283c-0.675-0.023-1.34-0.063-2.021-0.079
		c-1.336-0.021-2.671-0.006-4.008-0.008C282.62,5.502,283.836,3.664,285.086,3.472 M279.373,4.004
		c0.895-0.082,1.092,0.275,1.415,1.167c0.183,0.494,0.196,0.984,0.253,1.47c-1.252,0.002-2.503-0.012-3.752,0.002
		c0.017-0.279,0.012-0.57-0.012-0.87C277.539,4.887,278.402,4.093,279.373,4.004 M272.748,4.226
		c0.559-0.602,1.206-0.511,1.946,0.275c1.036-0.035,1.537,0.28,1.514,0.938c-0.12,0.39-0.136,0.798-0.062,1.215
		c-1.812,0.019-3.627,0.042-5.441,0.052c-0.019-0.062-0.075-0.102-0.117-0.146C271.057,5.61,271.84,4.653,272.748,4.226
		 M269.013,4.822c0.581,0.422,0.29,1.223,0.437,1.89c-1.322,0-2.642-0.01-3.961-0.03C266.21,5.445,267.906,4.025,269.013,4.822
		 M259.74,6.278c0.282-0.523,0.648-1.102,0.967-1.33c0.534-0.379,2.016-0.551,2.625-0.245c0.558,0.279,0.797,1.16,0.793,1.94
		c-1.278-0.031-2.551-0.043-3.834-0.108c-0.198-0.012-0.399-0.014-0.605-0.025C259.717,6.436,259.717,6.355,259.74,6.278
		 M252.916,5.722c0.319-0.924,0.956-1.776,2.002-2.168c1.785-0.673,4.205,1.15,3.721,2.882c-0.004,0.012,0.006,0.021,0.006,0.035
		c-1.922-0.096-3.839-0.158-5.752-0.233C252.92,6.059,252.916,5.89,252.916,5.722 M251.932,5.384
		c-0.094,0.263-0.168,0.532-0.215,0.807c-1.52-0.059-3.043-0.142-4.555-0.186C247.685,4.082,251.617,3.589,251.932,5.384
		 M245.888,5.97c-1.858-0.054-3.71-0.075-5.562-0.112c0-0.146,0.015-0.295-0.002-0.437C241.554,4.233,247.736,1.782,245.888,5.97
		 M234.114,4.037c1.776-1.031,4.519-0.672,5.03,1.165c-0.096,0.211-0.16,0.422-0.16,0.628c-1.942-0.033-3.889-0.094-5.83-0.112
		c-0.029-0.089-0.08-0.159-0.118-0.244C233.256,4.929,233.599,4.336,234.114,4.037 M231.143,4.77
		c0.375,0.212,0.614,0.553,0.811,0.929c-1.241-0.01-2.484-0.01-3.73-0.012C228.471,4.583,229.318,3.732,231.143,4.77 M223.174,3.724
		c1.396-0.739,2.62-0.992,3.791,1.224c0.053,0.102,0.096,0.406,0.127,0.741c-1.963-0.002-3.922-0.012-5.887,0.005
		c-0.01-0.042-0.037-0.072-0.042-0.117C221.669,4.84,222.442,4.112,223.174,3.724 M218.754,4.587
		c0.754,0.344,1.119,0.651,1.298,1.125c-1.495,0.017-2.999,0.052-4.5,0.08c-0.009-0.169-0.042-0.345-0.126-0.519
		C215.717,3.948,217.816,4.156,218.754,4.587 M209.711,5.482c0.207-1.103,0.896-1.485,2.062-1.144
		c0.807-0.322,1.393-0.191,1.762,0.385c0.371,0.284,0.639,0.633,0.838,1.031c0,0.019,0.003,0.038,0.007,0.059
		c-1.589,0.03-3.165,0.038-4.757,0.082C209.695,5.781,209.732,5.647,209.711,5.482 M206.164,4.343
		c1.062,0.232,1.625,0.83,1.939,1.589c-1.528,0.047-3.051,0.065-4.584,0.124c-0.014-0.264-0.07-0.52-0.164-0.766
		C204.041,4.583,205.348,4.166,206.164,4.343 M196.915,5.914c0.511-1.16,0.989-1.387,2.353-1.636
		c1.031-0.567,1.758-0.355,2.185,0.633c0.313,0.148,0.534,0.326,0.665,0.534c-0.093,0.217-0.154,0.437-0.191,0.657
		c-1.719,0.056-3.432,0.101-5.143,0.141c-0.004-0.005,0-0.01,0-0.015C196.82,6.125,196.868,6.029,196.915,5.914 M193.155,4.629
		c1.233-0.598,2.321,0.579,2.667,1.641c-1.486,0.031-2.967,0.052-4.453,0.068C191.801,5.642,192.344,5.024,193.155,4.629
		 M187.15,4.142c1.223-0.752,2.489-0.747,2.775,0.81c0.088,0.475-0.033,0.935-0.004,1.4c-1.374,0.012-2.748,0.035-4.117,0.04
		c-0.056-0.082-0.089-0.171-0.131-0.255C185.89,5.339,186.354,4.632,187.15,4.142 M184.436,5.16c0.198,0.347,0.17,0.811,0.24,1.232
		c-1.707,0-3.417,0-5.124-0.01C180.176,4.753,182.913,2.426,184.436,5.16 M177.958,4.032c0.422,0.561,0.418,1.55,0.46,2.344
		c-1.242-0.012-2.49-0.016-3.73-0.025c-0.104-0.117-0.269-0.395-0.455-0.708C174.928,4.114,176.637,2.26,177.958,4.032
		 M173.148,5.704c0.033,0.056,0.047,0.107,0.076,0.163c-0.02,0.159-0.047,0.319-0.033,0.467c-1.859-0.021-3.727-0.035-5.592-0.061
		C168.775,4.065,171.218,2.527,173.148,5.704 M163.418,4.301c1.795,0.356,2.198,0.755,2.789,1.953
		c-2.812-0.04-5.63-0.082-8.452-0.119C158.992,4.522,161.571,3.936,163.418,4.301 M151.264,4.341
		c2.521-0.398,4.228,0.209,5.175,1.777c-2.171-0.026-4.337-0.05-6.509-0.064C150.375,5.482,150.817,4.913,151.264,4.341
		 M148.324,6.031c-2.452-0.033-4.898-0.103-7.344-0.191C143.098,3.931,146.791,3.425,148.324,6.031 M139.342,5.304
		c0.109,0.155,0.165,0.319,0.24,0.483c-1.688-0.065-3.37-0.131-5.061-0.192C136.146,4.377,137.89,3.141,139.342,5.304 M129.842,3.65
		c1.547-0.01,2.521,0.67,3.061,1.887c-1.547-0.055-3.092-0.101-4.636-0.132c-0.802-0.014-1.599,0.008-2.401,0.012
		C126.93,4.457,128.983,3.66,129.842,3.65 M123.568,4.043c0.525,0.493,0.784,0.94,0.912,1.381c-2.222,0.049-4.437,0.144-6.648,0.265
		C118.9,3.544,121.211,1.825,123.568,4.043 M116.644,5.754c-2.063,0.115-4.122,0.234-6.186,0.318
		C112.141,4.088,116.538,2.398,116.644,5.754 M102.4,6.073c0.496-3.628,5.41-2.127,6.629-0.52c0.103,0.139,0.185,0.349,0.264,0.567
		c-2.308,0.082-4.614,0.094-6.92,0.015C102.375,6.112,102.396,6.097,102.4,6.073 M96.762,3.566c2.615-0.666,3.59,0.474,4.424,2.519
		c-1.771-0.091-3.537-0.225-5.314-0.478c-0.389-0.059-0.675,0.147-0.809,0.405c-0.49-0.005-0.98-0.005-1.47-0.007
		C94.33,4.901,95.692,3.838,96.762,3.566 M89.617,3.345c1.655,0.143,1.73,1.142,2.377,2.276c0.08,0.138,0.191,0.25,0.291,0.376
		c-1.608-0.009-3.216-0.019-4.824-0.023c-0.811-0.084-1.625-0.158-2.444-0.215C86.219,4.468,88.033,3.209,89.617,3.345 M78.461,4.32
		c0.746-1.063,1.688-2.267,3.239-1.889c1.702,0.415,1.788,1.912,2.143,3.272c-0.72-0.023-1.449-0.033-2.185,0.007
		C80.74,5.759,79.83,5.83,78.916,5.89C78.709,5.886,78.5,5.87,78.29,5.865C78.48,5.398,78.518,4.864,78.461,4.32 M70.544,3.341
		c0.845-0.945,2.812-2.211,4.29-1.965c1.443,0.239,2.227,1.692,2.465,2.953c-0.258,0.455-0.486,0.981-0.537,1.475
		c-1.502-0.045-3.007-0.085-4.509-0.181c-0.88-0.056-1.746-0.065-2.622-0.1c0.014-0.243,0-0.495-0.029-0.754
		C69.86,4.264,70.16,3.774,70.544,3.341 M62.571,3.272c0.741-1.119,1.818-1.401,3.177-1.277c1.243,0.115,2.076,0.584,2.401,1.744
		c0.101,0.359,0.239,0.793,0.374,1.236c-0.027,0.17-0.047,0.339-0.057,0.51c-2.184-0.059-4.354-0.08-6.496-0.025
		c-0.056-0.225-0.117-0.447-0.221-0.673c-0.021-0.045-0.053-0.087-0.078-0.129C61.938,4.147,62.318,3.655,62.571,3.272
		 M54.668,3.648c0.984-0.897,2.002-1.242,3.375-0.884c1.303,0.342,1.986,1.182,2.568,2.184c-0.027,0.193-0.023,0.378,0.004,0.561
		c-2.301,0.078-4.588,0.19-6.875,0.363c-0.08-0.178-0.212-0.342-0.328-0.511C53.679,4.703,54.124,4.149,54.668,3.648 M46.107,4.407
		c0.367-0.452,0.807-0.822,1.295-1.165c1.262-0.897,2.259-0.764,3.356,0.348c0.632,0.646,1.073,1.425,1.575,2.16
		c0.009,0.075,0.019,0.152,0.042,0.225c-2.331,0.193-4.669,0.413-7.022,0.657c-0.068-0.209-0.105-0.429-0.143-0.647
		C45.531,5.319,46,4.545,46.107,4.407 M37.867,4.847c1.018-1.474,3.774-2.341,5.26-1.108c0.942,0.783,0.849,1.706,0.998,2.598
		c-0.019,0.145,0.005,0.28,0.01,0.427c-1.2,0.126-2.409,0.257-3.623,0.393c-1.115,0.125-2.231,0.197-3.352,0.271
		c0.065-0.129,0.014-0.395-0.09-0.685C37.259,6.081,37.469,5.421,37.867,4.847 M28.891,6.509c0.305-0.547,0.703-1.048,1.219-1.443
		c0.957-0.736,1.407-0.875,2.677-0.798c1.462,0.089,1.501,0.272,2.199,1.244c0.317,0.437,0.632,0.462,0.876,1.086
		c0.137,0.338,0.137,0.634,0.148,0.919c-1.471,0.072-2.938,0.117-4.404,0.136c-1.031-0.07-2.062-0.146-3.09-0.188
		c-0.01-0.032-0.018-0.065-0.027-0.098C28.654,6.978,28.842,6.598,28.891,6.509 M22.277,5.895c0.75-1.076,1.5-1.358,2.873-1.502
		c1.678-0.174,1.781,1.892,2.18,2.953c0.012,0.03,0.029,0.059,0.043,0.089c-1-0.017-1.993,0.003-2.963,0.119
		c-0.221,0.026-0.445,0.054-0.668,0.082c-0.729-0.009-1.457,0-2.188-0.002c-0.019-0.089-0.051-0.173-0.069-0.26
		C21.705,6.866,21.944,6.364,22.277,5.895 M13.357,6.598c0.576-0.879,1.954-1.83,2.914-2.297c0.953-0.461,2.35-0.862,3.193,0.259
		c0.26,0.346,0.312,0.871,0.461,1.265c0.229,0.609,0.437,1.205,0.645,1.807c-2.512,0.003-5.027,0.031-7.532,0.158
		c-0.014-0.048-0.03-0.09-0.042-0.142C13.179,7.161,13.318,6.657,13.357,6.598 M3.025,11.764c-0.014-0.713,0.277-1.309,0.877-1.777
		c0.492-0.145,0.959-0.344,1.415-0.553C5.312,9.482,5.292,9.533,5.297,9.58c0.213,1.903,0.335,3.792,0.405,5.667
		c-0.292-0.178-0.657-0.216-1.139-0.41C2.899,14.165,2.617,13.399,3.025,11.764 M4.062,21.252c-1.026-0.606-2.054-2.166-1.491-3.226
		c0.525-0.989,1.768-1.478,2.99-1.491c0.058,0,0.113-0.025,0.167-0.04c0.045,1.734,0.068,3.467,0.054,5.198
		C5.165,21.598,4.507,21.511,4.062,21.252 M5.402,22.599c0.127,0.017,0.253,0.042,0.375,0.059c-0.015,1.753-0.028,3.524-0.033,5.294
		C3.701,27.273,3.63,23.82,5.402,22.599 M5.735,29.426c0,0.216-0.005,0.422-0.005,0.635c0.009,1.887,0.094,3.779,0.207,5.675
		C-0.012,34.702,2.895,30.797,5.735,29.426 M3.256,40.835c-0.264-1.476,1.219-3.665,2.736-4.15c0.17,2.595,0.371,5.191,0.512,7.788
		c-0.057,0.108-0.039,0.228,0.014,0.342c0,0.052,0,0.102,0.006,0.151C5.309,44.375,3.396,41.635,3.256,40.835 M3.143,61.889
		c0.148-0.638,0.249-1.8,0.689-2.288c0.52-0.579,1.219-0.854,1.949-1.063c0.108,0.023,0.211,0.061,0.312,0.072
		c-0.186,1.886-0.378,3.769-0.564,5.655c-0.006-0.077-0.047-0.154-0.146-0.183c-0.402-0.12-0.759-0.179-1.109-0.192
		c-0.01-0.003-0.043-0.017-0.051-0.02C3.077,63.448,2.88,62.994,3.143,61.889 M1.676,68.467c-0.117-1.005,0.938-2.102,1.541-2.913
		c0.329-0.446,0.664-0.633,1.057-0.769c0.327,0.107,0.77,0.313,1.176,0.351c-0.192,2.032-0.343,4.064-0.436,6.105
		c-0.02-0.007-0.033-0.021-0.057-0.021c-0.053-0.005-0.107,0.014-0.16,0.014c-0.136-0.074-0.29-0.145-0.51-0.248
		C3.189,70.476,1.807,69.636,1.676,68.467 M1.67,76.119c-0.576-1.631,0.967-3.407,2.611-4.137c0.15,0.057,0.31,0.117,0.45,0.166
		c0.085,0.031,0.169,0.015,0.241-0.016c-0.037,1.137-0.062,2.275-0.041,3.419c0.012,0.822-0.064,1.726-0.096,2.63
		c-0.018,0.005-0.039-0.004-0.053,0.005C3.865,78.58,3.429,78.493,2.74,77.77C2.362,77.373,1.849,76.618,1.67,76.119 M5.739,83.492
		c-0.21,0.21-0.604,0.798-0.886,0.917c-0.693,0.3-1.48-0.45-1.852-0.87c-0.854-0.97-0.811-2.306-0.103-3.345
		c0.069-0.104,0.3-0.325,0.562-0.56c0.444,0.04,0.903-0.117,1.368-0.551c0.031,1.517,0.352,2.927,1.697,3.802
		C6.255,83.075,5.979,83.259,5.739,83.492 M6.541,53.248c-0.094,1.508-0.225,3.011-0.367,4.51c-0.551-0.077-1.17-0.267-1.484-0.424
		c-1.674-0.846-2.446-2.44-0.717-3.986c0.295-0.268,1.65-1.138,2.605-1.515C6.564,52.305,6.574,52.778,6.541,53.248 M4.563,49.564
		c-1.431-0.454-1.667-1.274-0.708-2.457c0.666-0.806,1.504-1.329,2.512-1.56c0.109-0.033,0.162-0.123,0.17-0.212
		c0.078,1.723,0.098,3.441,0.078,5.155C5.932,50.305,5.334,50.09,4.563,49.564 M311.128,7.683l-52.483-1.212L95.871,5.607
		L6.274,8.417C6.105,8.443,5.945,8.53,5.805,8.647C5.749,8.145,5.684,7.641,5.848,7.154C6.33,5.699,7.746,5.424,9.199,5.188
		C10.146,5.033,11,4.892,11.397,5.83c0.132,0.319,0.155,0.67,0.29,0.994c0.125,0.292,0.254,0.579,0.385,0.864
		c-0.014,0.054-0.025,0.106-0.042,0.162c-1.927,0.119-3.847,0.281-5.756,0.567 M11.547,85.966c-0.815,0.691-1.405,1.059-2.493,0.377
		c-1.106-0.689-1.448-1.805-1.594-2.921c0.023-0.019,0.047-0.039,0.07-0.056c1.247,0.415,3.022,0.556,4.927,0.567
		c-0.07,0.114-0.104,0.248-0.023,0.394c0.042,0.082,0.094,0.166,0.141,0.248C12.569,84.988,11.717,85.817,11.547,85.966
		 M16.924,86.3c-1.848,0.626-2.672-0.637-3.431-1.963c-0.024-0.1-0.099-0.184-0.157-0.275c-0.025-0.042-0.049-0.086-0.074-0.131
		c1.785-0.019,3.625-0.128,5.221-0.223C18.616,84.798,18.171,85.878,16.924,86.3 M23.238,87.107
		c-3.08,1.157-3.029-0.784-3.398-2.176c-0.127-0.469-0.159-0.795-0.295-1.075c-0.006-0.07,0.016-0.139,0.004-0.21
		c0.877-0.047,1.637-0.077,2.207-0.067c0.929,0.014,1.862-0.014,2.791-0.021c0.021,0.065,0.029,0.137,0.045,0.205
		c0.02,0.091,0.029,0.176,0.053,0.269C24.785,85.171,24.367,86.683,23.238,87.107 M30.656,84.632
		c-0.785,0.858-1.559,1.404-2.82,1.268c-1.199-0.131-2.039-1.175-2.257-2.346c2.019-0.033,4.038-0.089,6.063-0.179
		C31.398,83.849,30.902,84.36,30.656,84.632 M38.641,83.184c0.033,1.457-0.238,2.927-1.898,3.516
		c-2.703,0.958-3.781-0.581-4.32-2.325c0.229-0.352,0.406-0.708,0.472-1.045c1.933-0.092,3.868-0.188,5.794-0.277
		C38.674,83.096,38.637,83.13,38.641,83.184 M40.223,84.142c-0.21-0.227-0.443-0.829-0.621-1.123
		c1.58-0.065,3.165-0.133,4.742-0.168c0.092,0,0.185,0,0.283,0c0.01,0.049,0.023,0.103,0.035,0.154
		C44.754,85.161,42.794,86.84,40.223,84.142 M50.168,85.044c-0.723,1.395-1.875,2.332-3.746,0.886
		c-0.402-0.312-0.633-0.782-0.808-1.289c0.016-0.035,0.037-0.061,0.049-0.098c0.259-0.643,0.126-1.175-0.047-1.702
		c1.786-0.025,3.571-0.023,5.353-0.014c0.016,0.061,0.037,0.121,0.053,0.183C50.887,83.732,50.398,84.599,50.168,85.044
		 M54.138,85.147c-0.884-0.228-1.87-1.301-2.212-2.322c1.649,0.014,3.3,0.054,4.95,0.093c0.004,0.021,0.004,0.04,0.014,0.059
		C56.493,84.163,56.505,85.757,54.138,85.147 M61.816,85.504c-0.929,1.237-2.002,0.815-2.836-0.244
		c-0.361-0.455-0.723-0.949-1.061-1.455c0.108-0.279,0.197-0.564,0.242-0.86c1.465,0.039,2.932,0.117,4.395,0.173
		c0.028,0.254,0.08,0.514,0.154,0.781C62.486,84.54,62.018,85.238,61.816,85.504 M65.257,85.747
		c-0.681-0.166-1.237-1.106-1.538-1.996c0.033-0.207,0.038-0.395,0.023-0.584c1.262,0.052,2.514,0.092,3.77,0.15
		C67.507,84.543,66.606,86.075,65.257,85.747 M73.029,85.705c-3.043,2.156-4.006-0.572-4.233-2.325
		c1.636,0.085,3.276,0.176,4.913,0.267c0.009,0.033,0,0.062,0.019,0.095C74.121,84.396,73.713,85.218,73.029,85.705 M76.066,86.021
		c-0.693-0.628-0.732-1.591-1.179-2.308c1.524,0.086,3.058,0.173,4.586,0.262C79.24,85.846,78.701,88.405,76.066,86.021
		 M84.984,86.102c-0.115,1.095-0.818,1.333-2.107,0.71c-1.195,0.38-1.828,0.149-1.9-0.689c-0.219-0.318-0.378-0.693-0.537-1.078
		c0.042-0.345,0.065-0.687,0.062-1.008c1.485,0.089,2.967,0.169,4.453,0.256c0.032,0.236,0.074,0.476,0.136,0.725
		C85.104,85.378,85.085,85.738,84.984,86.102 M89.557,86.354c-0.131,1.129-0.626,1.475-1.49,1.043
		c-0.512,0.061-0.813-0.104-0.92-0.492c-0.6-0.547-0.941-1.39-1.115-2.225c-0.004-0.11-0.01-0.223-0.018-0.33
		c1.377,0.08,2.76,0.154,4.139,0.228C90.4,85.292,90.194,85.325,89.557,86.354 M92.078,86.971c-0.355-0.495-0.516-1.111-0.722-1.706
		c-0.023-0.213-0.061-0.426-0.121-0.638c1.743,0.094,3.491,0.176,5.235,0.254c0,0.049-0.033,0.093-0.01,0.147
		C97.469,87.329,93.963,89.614,92.078,86.971 M100.609,87.596c-1.565-0.198-2.441-1.464-3.084-2.666
		c1.912,0.077,3.815,0.114,5.715,0.138c0.037,0.258,0.086,0.535,0.145,0.822C103.273,86.994,102.742,87.863,100.609,87.596
		 M104.763,87.453c-0.192-0.275-0.351-0.602-0.501-0.937c0.104-0.46,0.141-0.942,0.145-1.428c1.664,0.012,3.32,0.002,4.972-0.014
		C109.863,87.069,106.432,89.832,104.763,87.453 M113.824,86.971c-1.574,0.4-2.537-0.773-3.238-1.907
		c1.447-0.023,2.891-0.057,4.335-0.094C114.869,85.817,114.771,86.728,113.824,86.971 M122.103,86.34
		c-0.3,1.205-0.737,1.245-2.087,1.605c-1.008,0.689-1.809,0.582-2.423-0.317c-0.229-0.296-0.467-0.595-0.7-0.892
		c-0.287-0.394-0.504-0.825-0.786-1.214c-0.079-0.107-0.149-0.226-0.22-0.338c-0.005-0.079-0.005-0.156-0.014-0.238
		c2.07-0.061,4.143-0.148,6.211-0.233C122.177,85.255,122.238,85.801,122.103,86.34 M126.715,86.713
		c-1.932,0.624-2.986,0.395-3.16-0.698c-0.22-0.415-0.253-0.882-0.346-1.346c1.393-0.056,2.779-0.117,4.171-0.183
		c0,0.127,0.024,0.262,0.005,0.38C127.16,85.48,126.936,86.099,126.715,86.713 M133.615,86.387c-0.305,0.252-0.619,0.49-0.953,0.711
		c-1.912,1.237-3.187,0.926-3.824-0.926c-0.314-0.646-0.365-1.144-0.571-1.578c0-0.047,0.005-0.101,0.005-0.149
		c1.813-0.084,3.633-0.164,5.445-0.249C133.855,84.941,134.064,85.742,133.615,86.387 M136.877,86.898
		c-0.998-0.134-1.541-0.729-1.852-1.458c-0.045-0.42-0.191-0.839-0.303-1.289c1.85-0.085,3.701-0.159,5.558-0.229
		c0,0.077,0.007,0.154,0.012,0.233C139.994,85.315,137.969,87.041,136.877,86.898 M143.493,87.098
		c-1.661,0.087-2.126-1.055-2.394-2.291c0.137-0.318,0.24-0.635,0.277-0.923c1.678-0.062,3.365-0.109,5.053-0.161
		C146.397,85.392,145.957,86.975,143.493,87.098 M152.043,83.728c-0.037,0.369-0.072,0.74-0.112,1.111
		c-0.335,1.141-1.028,1.452-2.083,0.941c-1.443-0.258-1.917-1.06-2.213-2.099c0.474-0.012,0.942-0.035,1.416-0.044
		c0.998-0.021,2.002-0.023,3-0.035C152.048,83.643,152.043,83.692,152.043,83.728 M154.488,86.713
		c-0.512-0.487-0.943-1.261-1.289-2.039c0.117-0.363,0.188-0.731,0.188-1.088c1.9-0.019,3.797-0.023,5.695-0.023
		C159.367,85.668,156.648,88.782,154.488,86.713 M164.918,84.188c-0.479,0.611-1.064,1.13-1.753,1.552
		c-2.007,0.722-2.569-0.715-2.874-2.008c-0.008-0.062-0.027-0.116-0.037-0.175c1.65,0,3.299,0.015,4.949,0.023
		C165.109,83.783,165.025,83.989,164.918,84.188 M169.803,85.579c-0.35,0.398-0.845,0.429-1.479,0.093
		c-1.038,0.296-1.509,0.028-1.413-0.81c-0.174-0.308-0.254-0.73-0.323-1.148c0.019-0.044,0.047-0.083,0.061-0.128
		c1.676,0.014,3.352,0.03,5.025,0.047C171.223,84.458,170.35,85.339,169.803,85.579 M175.517,84.967
		c-1.632,0.953-2.26-0.176-2.493-1.324c1.059,0.012,2.122,0.021,3.184,0.03C176.13,84.153,176.056,84.652,175.517,84.967
		 M180.059,86.706c-1.285-0.549-1.734-1.883-2.307-3.021c2.213,0.018,4.426,0.031,6.637,0.038
		C183.836,85.682,182.896,87.925,180.059,86.706 M188.262,85.987c-1.332,0-2.166-1.137-2.412-2.262
		c1.604,0.002,3.202-0.006,4.805-0.018C190.432,84.848,189.986,85.987,188.262,85.987 M195.531,86.487
		c-0.502,0.207-1.035,0.125-1.6-0.243c-1.25,0.183-1.913-0.269-1.988-1.354c-0.131-0.354-0.242-0.723-0.354-1.087
		c0.004-0.033,0.02-0.063,0.025-0.097c2.084-0.014,4.163-0.055,6.246-0.097C197.707,84.913,197.172,86.155,195.531,86.487
		 M203.604,84.533c-0.482,0.511-1.256,1.378-2.111,1.52c-1.469,0.247-2.112-1.156-2.393-2.462c1.804-0.042,3.608-0.117,5.414-0.188
		C204.382,83.845,204.092,84.229,203.604,84.533 M208.741,85.514c-1.627,0.735-2.001,0.462-2.444-1.088
		c-0.121-0.434-0.214-0.771-0.368-1.076c0.839-0.035,1.678-0.051,2.521-0.096c0.699-0.037,1.407-0.04,2.105-0.065
		C210.396,84.155,209.748,85.052,208.741,85.514 M215.454,84.81c-1.692,1.003-2.705-0.34-3.373-1.674
		c1.558-0.047,3.11-0.086,4.671-0.098C216.579,83.756,216.171,84.384,215.454,84.81 M218.154,85.248
		c-0.291-0.588-0.324-1.113-0.46-1.615c0.061-0.196,0.112-0.393,0.146-0.595c2.146-0.005,4.293,0.032,6.445,0.069
		C224.275,85.682,220.479,89.825,218.154,85.248 M229.812,84.699c-1.327,1.681-3.783-0.082-4.56-1.584
		c1.652,0.032,3.307,0.068,4.957,0.113C230.079,83.84,229.98,84.486,229.812,84.699 M231.986,84.151
		c-0.164-0.232-0.238-0.565-0.338-0.886c1.172,0.033,2.34,0.059,3.507,0.091c0.665,0.019,1.326,0.003,1.993,0.01
		C236.717,85.806,233.702,86.568,231.986,84.151 M242.655,84.342c-0.562,1.105-1.739,2.463-3.304,1.054
		c-0.202-0.183-0.737-1.359-1.037-2.022c1.537,0.002,3.08,0.007,4.617-0.025C242.861,83.714,242.791,84.073,242.655,84.342
		 M250.029,85.511c-2.506,1.324-3.719,0.103-5.514-1.76c-0.194-0.207-0.285-0.329-0.365-0.438c2.315-0.061,4.627-0.143,6.939-0.214
		C250.971,83.966,251.468,84.746,250.029,85.511 M257.904,84.135c-1.027,0.482-2.051,0.966-3.075,1.448
		c-0.835-0.518-1.421-1.164-1.776-1.945c-0.133-0.199-0.211-0.397-0.296-0.586c1.851-0.052,3.702-0.08,5.555-0.084
		C258.204,83.413,258.072,83.929,257.904,84.135 M259.625,84.538c-0.16-0.425-0.188-0.952-0.367-1.373
		c0.01-0.069,0.029-0.135,0.033-0.202c0.301,0,0.601-0.005,0.896-0.003c2.117,0.021,4.236,0.059,6.35,0.102
		C265.699,85.705,260.846,87.791,259.625,84.538 M268.082,83.167c-0.012-0.023-0.016-0.052-0.029-0.075
		c1.855,0.04,3.71,0.078,5.563,0.11C272.205,85.147,269.982,86.338,268.082,83.167 M275.932,85.964
		c-0.596-0.688-0.717-1.677-1.139-2.499c0.033-0.082,0.07-0.159,0.098-0.241c1.777,0.025,3.559,0.04,5.335,0.04
		C279.593,84.923,277.947,88.291,275.932,85.964 M284.537,84.918c-1.551,1.398-3.25-0.158-3.229-1.659
		c1.348-0.005,2.695-0.023,4.045-0.052C285.32,83.803,285.181,84.342,284.537,84.918 M288.766,85.888
		c-0.838-0.22-1.373-1.205-1.785-1.795c-0.211-0.302-0.371-0.612-0.567-0.888c0-0.008,0.005-0.015,0.005-0.021
		c1.936-0.054,3.867-0.146,5.803-0.272C292.502,84.547,290.59,86.366,288.766,85.888 M281.66,80.95
		c-5.822,0.335-11.799-0.31-17.625-0.512c-6.216-0.211-12.328,0.443-18.567,0.361c-15.089-0.197-29.93-0.276-44.991,0.044
		c-15.572,0.333-30.975,0.38-46.537,0.014c-13.706-0.32-27.239,2.406-40.992,1.96c-26.672-0.862-53.301-3.689-80.049-2.602
		c-5.639,0.23-11.078,0.604-16.729,0.469c-5.487-0.129-8.236,1.632-8.477-3.909C7.201,65.422,9.482,54.262,8.717,42.898
		c-0.521-7.765-0.244-15.492-0.224-23.263c0.008-1.702-1.066-6.868-0.175-8.221c1.086-1.643,6.107-1.157,8.142-1.144
		c7.532,0.042,14.901-0.457,22.271-1.053c2.184,0.112,4.332,0.216,6.619,0.047c4.368-0.322,8.99-0.653,13.358-0.757
		c6.501-0.151,12.891-0.531,19.36-0.963c20.967,0.616,42.062,3.099,62.9,0.921c9.572,0.293,19.156,0.333,28.744,0.851
		c15.291,0.821,30.539-0.759,45.82-1.263c15.037-0.497,29.799,0.48,44.758,1.057c13.521,0.521,26.951,0.124,40.484,0.855
		c1.102,0.062,6.482-0.241,7.612,0.471c1.392,0.882,1.083,1.278,1.267,3.582c0.524,6.571-0.024,13.197,0.52,19.812
		c0.368,4.453,0.432,8.883,0.394,13.305c-0.009,0.034-0.004,0.066-0.004,0.104c-0.065,7.387-0.427,14.758-0.151,22.204
		c0.226,6.22,0.741,8.048-5.364,8.761C297.279,79.109,289.475,80.497,281.66,80.95 M296.955,84.59
		c-1.781,0.879-2.728-0.703-3.434-1.786c1.713-0.126,3.43-0.294,5.145-0.497c0.038,0.164,0.075,0.324,0.112,0.487
		C298.174,83.395,297.564,83.992,296.955,84.59 M304.725,82.533c-0.298,1.766-1.896,2.437-3.522,1.578
		c-0.651-0.342-1.065-0.956-1.468-1.57c-0.01-0.122-0.018-0.244-0.033-0.372c1.641-0.214,3.291-0.472,4.932-0.758
		C304.699,81.798,304.779,82.208,304.725,82.533 M309.906,82.656c-1.472,1.98-2.994-0.135-3.994-1.498
		c0.774-0.147,1.549-0.276,2.326-0.452c0.609-0.139,1.105-0.268,1.557-0.396c0.059,0.038,0.107,0.085,0.191,0.097
		c0.143,0.012,0.301,0.084,0.455,0.176c-0.01,0.091,0.033,0.163,0.107,0.243C310.314,81.448,310.256,82.183,309.906,82.656
		 M314.52,79.194c0.346,0.469,0.334,1.609-0.234,1.954c-0.84,0.502-2.021-0.265-2.742-0.74c-0.043-0.051-0.055-0.115-0.123-0.144
		c-0.078-0.032-0.158-0.067-0.24-0.101h-0.003c-0.112-0.074-0.216-0.152-0.335-0.227c0.944-0.425,1.448-1.011,1.836-2.114
		c0.027,0.005,0.061,0.012,0.093,0.017c0.321,0.229,0.629,0.478,0.909,0.693C313.952,78.74,314.326,78.93,314.52,79.194
		 M317.248,77.008c-0.746,0.143-1.562,0.096-2.307,0.138c-0.582,0.038-1.201,0.085-1.771,0.003c-0.08-0.05-0.16-0.096-0.24-0.143
		c0.1-0.369,0.193-0.779,0.295-1.243c0.086-0.394,0.146-0.806,0.212-1.209c0.179,0.019,0.366,0.019,0.544,0.023
		c0.361,0.258,0.727,0.506,1.125,0.75C315.757,75.725,316.82,76.273,317.248,77.008 M317.406,73.152
		c-0.969,0.817-2.432,0.811-3.82,0.571c0.184-1.213,0.306-2.461,0.376-3.727c0.196,0.012,0.397,0.023,0.59,0.047
		C315.583,70.17,319.469,71.408,317.406,73.152 M316.216,66.592c1.354,0.569,1.214,1.421-0.412,2.555
		c-0.183,0.073-0.403,0.105-0.64,0.12c-0.398-0.099-0.785-0.094-1.16-0.085c0.047-1.218,0.07-2.445,0.061-3.687
		c0.1-0.003,0.207,0.005,0.309,0.007c0.371,0.221,0.756,0.432,1.102,0.649C315.738,66.28,315.982,66.426,316.216,66.592
		 M317.374,62.899c0.497,0.334,0.464,0.711-0.094,1.123c-0.062,0.62-0.37,0.856-0.924,0.718c-0.796,0.082-1.583-0.232-2.299-0.221
		c-0.017-0.953-0.05-1.907-0.082-2.864c0.646,0.089,1.279-0.039,1.927,0.142C316.527,61.968,317.127,62.312,317.374,62.899
		 M316.905,58.864c0.796,1.833-1.679,1.721-2.963,1.992c-0.042-1.134-0.085-2.264-0.126-3.387c0.248,0.023,0.496,0.059,0.74,0.087
		C315.583,57.871,316.704,58.405,316.905,58.864 M315.391,56.708c-0.543,0-1.072-0.131-1.607-0.181
		c-0.033-1.066-0.057-2.121-0.061-3.163c0.263,0.037,0.529,0.072,0.792,0.101c0.567,0.061,1.139,0.067,1.709,0.129l1.164,0.151
		c1.323,0.296,1.444,0.868,0.366,1.711C316.977,56.696,316.835,56.704,315.391,56.708"/>
</g>
<g>
	<path class="st1" d="M62.161,58.48l0.223-16.276c0-7.154-0.394-12.58-1.181-16.276c0.476-0.683,1.062-1.024,1.76-1.024
		c1.128,0,2.155,0.253,3.083,0.757c0.928,0.505,1.682,1.173,2.261,2.004c1.202,1.737,1.803,3.719,1.803,5.945
		s-0.482,4.249-1.447,6.067s-2.382,3.232-4.252,4.241l0.355,14.207c0,1.262-0.505,1.893-1.514,1.893
		c-0.371,0-0.646-0.16-0.824-0.479C62.25,59.219,62.161,58.867,62.161,58.48z M64.299,41.714c2.315-2.167,3.473-4.742,3.473-7.726
		v-0.022c0-1.707-0.208-2.902-0.623-3.585c-0.208-0.326-0.375-0.582-0.501-0.769c-0.126-0.185-0.383-0.434-0.769-0.745
		c-0.46-0.371-1.165-0.898-2.115-1.581c0,1.603,0.09,4.008,0.268,7.214S64.299,40.112,64.299,41.714z"/>
	<path class="st1" d="M82.124,58.436l0.179-26.741v-5.61c0-0.356,0.074-0.608,0.223-0.758c0.148-0.147,0.538-0.223,1.169-0.223
		s1.269,0.152,1.915,0.457c0.646,0.305,1.19,0.709,1.636,1.213c0.431,0.535,0.802,1.129,1.113,1.781
		c0.594,1.263,0.891,2.636,0.891,4.119c0,1.485-0.371,3.185-1.113,5.1c-0.089,0.208-0.267,0.646-0.534,1.313
		c-0.267,0.668-0.423,1.062-0.468,1.18c0.015,2.257,0.587,5.188,1.715,8.795c0.386,1.217,0.936,2.883,1.647,4.998
		c0.713,2.115,1.158,3.455,1.336,4.02v0.111c0,1.023-0.119,1.621-0.356,1.793c-0.237,0.17-0.489,0.256-0.757,0.256
		c-0.564,0-1.113-0.408-1.647-1.225v-0.156c-0.148-2.762-1.099-6.939-2.85-12.535c-0.802-2.553-1.358-4.446-1.67-5.678v17.967
		c0,0.461-0.082,0.818-0.245,1.07c-0.164,0.252-0.461,0.377-0.891,0.377c-0.431,0-0.754-0.121-0.969-0.367
		c-0.216-0.244-0.323-0.545-0.323-0.9V58.436z M84.641,27.198l-0.245,9.307c0,0.936,0.015,1.633,0.045,2.093
		c0.519-0.489,1.031-1.076,1.536-1.759l0.712-3.941c0.045-0.207,0.067-0.445,0.067-0.712c0-0.728-0.148-1.61-0.445-2.649
		C85.895,28.11,85.338,27.331,84.641,27.198z"/>
	<path class="st1" d="M108.232,43.073l-1.135-0.045c-0.445,0-0.758,0.111-0.936,0.334v14.072c1.559-0.088,2.404-0.133,2.538-0.133
		c1.737,0,2.605,0.4,2.605,1.201v0.156c-0.208,0.416-0.564,0.734-1.069,0.957s-0.95,0.35-1.336,0.379s-0.883,0.045-1.491,0.045
		h-1.425c-1.129,0-1.826-0.223-2.094-0.668c-0.118-0.207-0.178-0.482-0.178-0.824V32.051c0-0.52-0.104-1.291-0.312-2.315
		c-0.208-1.024-0.312-1.804-0.312-2.338v-0.156c0.504-0.831,0.883-1.365,1.135-1.603l3.385-0.401c0.46,0,0.924,0.138,1.392,0.412
		s0.701,0.635,0.701,1.08c0,0.905-0.69,1.358-2.07,1.358l-1.313-0.045c-0.223,0-0.387,0.008-0.49,0.022l0.356,7.525
		c0,0.609-0.037,1.496-0.111,2.661s-0.111,2.015-0.111,2.549c0.163-0.029,0.386-0.081,0.668-0.155
		c0.623-0.163,1.109-0.245,1.458-0.245s0.66,0.126,0.936,0.379c0.274,0.252,0.412,0.557,0.412,0.912
		c0,0.356-0.111,0.676-0.334,0.958S108.589,43.073,108.232,43.073z"/>
	<path class="st1" d="M132.694,51.512l-1.781,0.178c-1.039,0-1.559-0.43-1.559-1.291c0-0.742,0.979-1.225,2.939-1.447
		c0.386-0.045,0.809-0.066,1.269-0.066s0.854,0.236,1.181,0.711c0.326,0.477,0.489,1.111,0.489,1.904
		c0,0.795,0.152,2.09,0.457,3.885c0.304,1.797,0.456,3.006,0.456,3.631c0,1.113-0.375,1.67-1.124,1.67
		c-0.75,0-1.251-0.32-1.503-0.959v-0.043c-0.179,0.074-0.513,0.244-1.002,0.512c-0.921,0.504-1.834,0.756-2.739,0.756
		c-0.653,0-1.307-0.133-1.959-0.4c-1.396-0.549-2.465-1.477-3.206-2.783c-0.802-1.381-1.329-2.701-1.581-3.963
		c-0.253-1.262-0.423-2.256-0.513-2.984c-0.104-0.74-0.186-1.588-0.244-2.537c-0.075-1.203-0.111-2.65-0.111-4.342l-0.022-3.362
		c0-2.938,0.096-5.046,0.289-6.323c0.193-1.276,0.39-2.322,0.59-3.14c0.201-0.815,0.435-1.539,0.702-2.171
		c0.267-0.63,0.593-1.242,0.979-1.837c0.386-0.608,0.831-1.105,1.336-1.491c1.083-0.861,2.322-1.288,3.718-1.28
		s2.094,0.441,2.094,1.303c0,0.326-0.119,0.586-0.356,0.779c-0.238,0.192-0.52,0.289-0.847,0.289l-1.313-0.223
		c-1.143,0.015-2.041,0.705-2.694,2.07c-0.697,1.5-1.143,2.925-1.336,4.275c-0.192,1.351-0.334,2.442-0.423,3.273
		c-0.119,0.816-0.193,1.744-0.223,2.783c-0.06,1.439-0.082,2.88-0.066,4.319l-0.022,2.827c0,2.91,0.13,4.98,0.39,6.213
		s0.53,2.213,0.812,2.939c0.268,0.742,0.594,1.352,0.979,1.826c1.262,0.965,2.368,1.506,3.318,1.625
		c1.351,0,2.471-0.639,3.361-1.916C133.385,54.02,133.14,52.283,132.694,51.512z"/>
	<path class="st1" d="M147.47,34.946l0.044-7.125c-0.223-0.252-0.334-0.563-0.334-0.936c0-0.37,0.13-0.697,0.39-0.979
		c0.26-0.281,0.568-0.423,0.924-0.423c1.099,0,1.648,1.084,1.648,3.251l0.423,15.853c0.178,0.401,0.33,1.21,0.456,2.427
		c0.126,1.217,0.189,2.164,0.189,2.84c0,0.674,0.107,1.506,0.323,2.492c0.215,0.988,0.512,1.986,0.891,2.996
		c0.378,1.01,0.891,1.869,1.536,2.582s1.258,1.068,1.837,1.068s1.009-0.137,1.291-0.412c0.282-0.273,0.475-0.664,0.579-1.168
		c0.163-0.803,0.245-1.641,0.245-2.516V45.99c0-0.965-0.097-2.397-0.29-4.298c-0.192-1.899-0.289-3.332-0.289-4.297v-0.312
		l-0.089-2.649l-0.334-7.815c0-0.371,0.186-0.672,0.557-0.902c0.371-0.229,0.757-0.345,1.157-0.345l1.113,1.068v0.758l-0.334,2.783
		c0,2.538,0.138,6.36,0.412,11.467c0.274,5.107,0.412,8.56,0.412,10.365c0,1.803-0.026,3.006-0.078,3.607
		c-0.052,0.6-0.167,1.242-0.345,1.926c-0.179,0.682-0.423,1.246-0.735,1.691c-0.728,1.039-1.841,1.559-3.34,1.559
		c-1.855,0.016-3.347-0.795-4.475-2.428c-1.188-1.721-2.02-3.785-2.494-6.189c-0.564-2.834-0.905-5.32-1.024-7.458
		C147.559,41.299,147.47,38.108,147.47,34.946z"/>
	<path class="st1" d="M172.487,35.881l0.312-8.372v-0.29c0-1.514,0.334-2.271,1.002-2.271c0.608,0,1.425,1.41,2.449,4.23
		c1.87,5.121,4.111,13.574,6.724,25.36l0.045,0.223l0.178-15.897V25.372c0.179-0.757,0.676-1.136,1.492-1.136
		s1.225,0.594,1.225,1.781v0.268c-0.178,0.371-0.268,0.816-0.268,1.336l-0.289,16.854v13.939c0,0.461-0.126,0.912-0.379,1.357
		c-0.252,0.445-0.563,0.668-0.935,0.668c-0.639,0-1.886-3.127-3.741-9.385c-1.855-6.256-3.688-12.984-5.499-20.183v14.962
		c0,1.456,0.107,3.622,0.322,6.502c0.216,2.879,0.323,5.047,0.323,6.5c0,0.283-0.171,0.518-0.512,0.703
		c-0.342,0.186-0.776,0.277-1.303,0.277c-0.527,0-0.791-0.236-0.791-0.713l0.223-3.273c0-1.572-0.097-4.125-0.289-7.658
		c-0.193-3.533-0.289-5.693-0.289-6.48V35.881z"/>
	<path class="st1" d="M203.673,33.298l-0.089,5.878l0.4,10.488l0.379,8.193c0,1.484-0.438,2.227-1.314,2.227
		c-0.505,0-0.876-0.238-1.113-0.713s-0.355-1.002-0.355-1.58l0.355-7.281c0-1.574-0.104-3.941-0.312-7.103
		c-0.208-3.162-0.312-5.529-0.312-7.103l0.066-3.985c0-2.183-0.141-3.6-0.423-4.253l-2.472,0.245c-0.386,0-0.73-0.115-1.035-0.346
		c-0.305-0.229-0.456-0.526-0.456-0.891c0-0.363,0.363-0.671,1.091-0.924c0.742-0.268,1.633-0.46,2.672-0.579
		c1.826-0.207,3.362-0.312,4.609-0.312c0.37,0,0.708,0.122,1.013,0.367c0.304,0.245,0.456,0.554,0.456,0.924
		c0,0.372-0.133,0.665-0.4,0.88c-0.268,0.216-0.594,0.323-0.979,0.323l-1.626-0.09c-0.208,0-0.363,0.008-0.467,0.022
		C203.568,29.439,203.673,31.309,203.673,33.298z"/>
	<path class="st1" d="M226.998,59.75c-0.936,0-1.403-0.393-1.403-1.18v-5.945c-0.431-0.297-1.206-0.549-2.326-0.758
		c-1.121-0.207-2.119-0.34-2.995-0.4c-0.312,0.535-0.567,1.307-0.769,2.316c-0.2,1.01-0.408,2.025-0.623,3.049
		c-0.216,1.025-0.501,1.834-0.857,2.428c-1.188,0-1.855-0.305-2.004-0.912c0.416-0.594,1.091-3.631,2.026-9.107
		c0.936-5.477,1.703-9.763,2.305-12.858c0.601-3.096,1.25-5.696,1.948-7.805c0.697-2.107,1.365-3.161,2.004-3.161
		c0.638,0,1.128,0.133,1.47,0.4c0,1.084,0.296,4.016,0.891,8.795c0.593,4.78,0.891,7.871,0.891,9.273
		c0,1.403,0.159,3.734,0.479,6.992c0.318,3.258,0.479,5.703,0.479,7.336C228.512,59.238,228.007,59.75,226.998,59.75z
		 M225.083,44.865c-0.268-2.693-0.509-5.262-0.724-7.703c-0.216-2.442-0.323-3.919-0.323-4.432c0-0.512,0.008-0.805,0.022-0.879
		c-0.476,0.489-1.162,3.214-2.06,8.171c-0.898,4.958-1.377,8.097-1.437,9.419c1.262,0.342,2.319,0.512,3.173,0.512
		s1.459-0.045,1.815-0.135C225.506,49.211,225.35,47.559,225.083,44.865z"/>
	<path class="st1" d="M239.836,59.238c0-0.816,0.342-1.225,1.024-1.225c0.342,0,0.791,0.115,1.348,0.344
		c0.557,0.23,1.038,0.346,1.447,0.346c0.407,0,0.85-0.26,1.324-0.779s0.847-1.164,1.113-1.938c0.549-1.572,0.824-2.994,0.824-4.264
		s-0.223-2.631-0.668-4.086c-0.445-1.453-0.987-2.82-1.626-4.096c-0.638-1.276-1.284-2.553-1.937-3.83
		c-1.544-3.043-2.309-5.818-2.294-8.327c-0.015-2.375,0.735-4.237,2.249-5.589c0.802-0.712,1.744-1.068,2.828-1.068
		c0.549,0,1.083,0.152,1.603,0.456c0.52,0.305,0.884,0.701,1.092,1.191l-0.779,0.979c-0.758,0-1.352-0.148-1.781-0.445
		c-0.564,0.06-1.055,0.327-1.47,0.802c-0.757,0.876-1.136,1.956-1.136,3.239c0,1.284,0.163,2.535,0.49,3.752
		c0.326,1.218,0.734,2.309,1.225,3.273c0.489,0.965,1.017,2.012,1.58,3.14c0.579,1.128,1.113,2.212,1.604,3.25
		c1.143,2.406,1.715,5.003,1.715,7.792c0.015,1.961-0.483,3.846-1.492,5.656c-0.476,0.861-1.128,1.57-1.959,2.127
		c-0.832,0.557-1.76,0.834-2.783,0.834c-1.099,0-1.964-0.162-2.595-0.49C240.151,59.957,239.836,59.609,239.836,59.238z"/>
</g>
</svg>
