<?xml version="1.0" encoding="utf-8"?>
<!-- Generator: Adobe Illustrator 16.0.0, SVG Export Plug-In . SVG Version: 6.00 Build 0)  -->
<!DOCTYPE svg PUBLIC "-//W3C//DTD SVG 1.1//EN" "http://www.w3.org/Graphics/SVG/1.1/DTD/svg11.dtd">
<svg version="1.1" id="Layer_1" xmlns="http://www.w3.org/2000/svg" xmlns:xlink="http://www.w3.org/1999/xlink" x="0px" y="0px"
	 width="163px" height="90px" viewBox="78.5 0 163 90" enable-background="new 78.5 0 163 90" xml:space="preserve">
<g>
	<g>
		<polygon fill="#FFFFFF" points="129.927,8.562 113.747,9.06 100.363,9.383 88.36,10.368 85.782,10.368 85.782,19.563 
			85.782,80.312 88.118,81.788 91.421,81.788 102.055,81.788 109.789,81.788 120.099,81.788 126.447,82.073 133.43,81.97 
			140.105,82.331 145.153,83.103 152.645,82.444 158.124,82.281 169.965,82.116 203.88,81.624 213.225,81.952 218.944,81.952 
			231.108,78.997 233.283,76.042 233.283,72.431 232.962,10.697 231.593,10.04 226.919,9.548 193.407,7.652 165.369,7.161 
			143.156,7.493 		"/>
		<g>
			<path fill="#CAC1B0" d="M153.665,83.919c0.526,0.029,1.056,0.061,1.584,0.09v-2.832c-14.526-0.779-29.062-1.348-43.633-0.756
				c-5.647,0.23-11.094,0.604-16.754,0.469c-5.494-0.129-8.248,1.633-8.488-3.908c-0.493-11.354,1.791-22.514,1.025-33.878
				c-0.522-7.765-0.244-15.491-0.225-23.263c0.008-1.702-1.068-6.868-0.176-8.221c1.088-1.644,6.116-1.157,8.154-1.144
				c7.543,0.041,14.923-0.457,22.303-1.054c2.188,0.112,4.339,0.216,6.629,0.048c4.374-0.322,9.003-0.654,13.378-0.758
				c2.202-0.051,4.39-0.135,6.573-0.232l11.213-0.026V6.001c-1.407-0.042-2.815-0.083-4.222-0.172
				c-0.882-0.056-1.749-0.065-2.626-0.101c0.014-0.242,0-0.494-0.028-0.754c1.128-2.956,5.972-3.112,6.519,1.072l0.906,0.062
				c-0.828-6.044-6.584-4.203-7.772-2.559c-0.116-0.313-0.254-0.605-0.403-0.844c-0.746-1.158-1.893-1.432-3.275-1.518
				c-1.645-0.101-2.936,0.322-3.836,1.61c-0.216,0.312-0.465,0.685-0.682,1.08c-0.225-0.302-0.474-0.593-0.746-0.853
				c-0.91-0.865-2.511-1.416-3.83-1.24c-1.142,0.154-3.031,1.425-3.826,2.771c-0.037-0.045-0.084-0.105-0.119-0.15
				c-0.805-1.11-1.777-2.535-3.409-2.62c-1.605-0.085-3.329,1.252-4.297,2.803c-0.112-0.334-0.271-0.665-0.548-0.965
				c-0.869-0.94-2.133-1.569-3.508-1.325c-2.31,0.411-3.685,1.737-4.305,3.449c-0.01-0.021-0.027-0.048-0.033-0.059
				c-0.37-0.504-0.854-1.027-1.285-1.496c-1.43-1.557-3.123-1.276-4.802-0.284c-1.066,0.624-1.847,1.351-2.349,2.317
				c-0.195-0.551-0.42-1.09-0.693-1.596c-0.521-0.949-1.414-1.072-2.503-0.947c-1.619,0.189-2.374,0.416-3.237,1.674
				c-0.186,0.271-0.373,0.576-0.541,0.896c-0.188-0.532-0.41-1.059-0.645-1.551c-0.539-1.132-1.501-1.562-2.854-1.476
				c-2.268,0.146-4.068,1.709-5.047,3.541c-0.164-0.43-0.319-0.86-0.506-1.287c-0.575-1.299-1.539-1.064-2.831-0.84
				c-1.548,0.271-2.935,0.365-3.771,1.734c-0.532,0.872-0.614,1.885-0.291,2.809c-2.423,0.215-3.507,1.5-3.549,4.045
				c-0.017,0.845,0.053,0.967,0.597,1.625c0.334,0.402,0.826,0.901,1.285,1.16c0.039,0.02,0.113,0.034,0.176,0.051
				c-1.458,0.601-2.531,1.699-2.621,3.336c-0.111,1.967,1.502,2.785,3.299,3.201c-3.162,1.654-3.263,5.275,0.127,6.4
				c-1.627,0.812-2.975,2.02-3.002,3.85c-0.024,1.916,1.238,3.098,2.967,3.694c-3.408,2.147-2.086,7.653,0.551,8.792
				c-1.52,0.338-2.772,1.718-2.815,3.196c-0.062,1.916,1.509,2.541,3.175,2.926c-1.725,0.852-3.428,2.535-3.434,3.666
				c-0.003,1.426,1.191,2.699,2.512,3.217c0.023,0.006,0.062,0.02,0.088,0.027c-0.594,0.256-1.134,0.66-1.565,1.119
				c-0.445,0.473-0.38,0.947-0.479,1.535c-0.112,0.66-0.408,1.297-0.385,1.975c0.025,0.73,0.385,1.15,0.896,1.455
				c-0.112,0.074-0.226,0.127-0.339,0.229c-0.9,0.826-1.814,2.162-2.175,3.266c-0.589,1.812,1.077,3.033,2.77,3.814
				c-1.95,0.791-3.568,2.873-2.858,4.695c0.4,1.018,1.156,2.342,2.086,2.994c-0.197,0.16-0.361,0.324-0.471,0.479
				c-0.829,1.182-1.064,2.729-0.275,3.971c0.488,0.764,1.973,2.193,3.123,1.912c0.796-0.195,1.266-1.08,1.791-1.58
				c0.082-0.074,0.174-0.125,0.258-0.193c0.234,1.83,1.504,4.004,3.551,3.604c0.703-0.137,2.027-0.994,2.684-1.91
				c0.889,1.391,2.066,2.531,4.184,1.787c1.146-0.404,1.817-1.283,2.094-2.275c0.302,1.688,0.092,3.789,2.786,3.561
				c1.677-0.143,2.796-1.383,3.256-2.781c0.581,0.896,1.411,1.596,2.474,1.535c1.267-0.07,3.005-1.145,4.074-2.377
				c0.412,1.842,1.469,3.594,3.863,3.062c0.99-0.217,2.286-0.98,2.99-1.629c0.56-0.514,0.764-1.01,0.828-1.547
				c0.883,1.346,1.852,2.35,4.144,1.49c0.703-0.26,1.158-0.609,1.503-1.102c0.58,1.688,1.541,3.262,3.262,2.814
				c1.201-0.312,2.506-2.041,3.1-3.689c0.67,1.035,1.731,1.855,2.971,1.797c1.356-0.062,2.385-0.758,2.989-1.707
				c0.291,0.477,0.604,0.924,0.847,1.311c0.465,0.76,1.197,1.809,2.351,1.607c0.869-0.148,1.864-1.143,2.465-2.256
				c0.563,0.979,1.44,1.746,2.614,1.648c1.011-0.086,1.846-0.76,2.338-1.613c0.555,1.416,1.972,2.684,3.521,2.537
				c1.398-0.131,2.089-1.367,2.807-2.332c0.005,0.008,0.005,0.02,0.011,0.023c0.29,0.633,0.696,2.215,1.96,2.289v-1.328
				C153.665,85.675,153.875,84.679,153.665,83.919z M141.331,3.479c0.742-1.119,1.821-1.401,3.182-1.277
				c1.246,0.115,2.08,0.584,2.404,1.744c0.102,0.359,0.24,0.793,0.375,1.236c-0.027,0.17-0.047,0.338-0.057,0.51
				c-2.188-0.06-4.361-0.08-6.506-0.025c-0.057-0.225-0.117-0.447-0.221-0.673c-0.021-0.045-0.054-0.087-0.078-0.129
				C140.698,4.354,141.077,3.861,141.331,3.479z M133.417,3.854c0.985-0.896,2.005-1.241,3.38-0.883
				c1.306,0.342,1.989,1.182,2.571,2.184c-0.027,0.193-0.023,0.378,0.004,0.561c-2.305,0.078-4.595,0.19-6.885,0.363
				c-0.08-0.178-0.213-0.342-0.328-0.512C132.426,4.909,132.872,4.355,133.417,3.854z M124.842,4.613
				c0.368-0.452,0.809-0.822,1.297-1.165c1.265-0.897,2.264-0.765,3.361,0.348c0.633,0.646,1.074,1.425,1.577,2.16
				c0.009,0.075,0.02,0.151,0.042,0.226c-2.334,0.192-4.676,0.412-7.031,0.656c-0.068-0.209-0.105-0.429-0.145-0.646
				C124.266,5.525,124.735,4.751,124.842,4.613z M116.591,5.053c1.019-1.474,3.779-2.341,5.267-1.107
				c0.943,0.783,0.852,1.705,1,2.598c-0.02,0.145,0.006,0.28,0.01,0.428c-1.201,0.125-2.412,0.256-3.628,0.393
				c-1.116,0.125-2.234,0.197-3.356,0.271c0.064-0.129,0.014-0.395-0.091-0.685C115.982,6.287,116.192,5.627,116.591,5.053z
				 M107.602,6.715c0.305-0.547,0.704-1.048,1.221-1.443c0.958-0.735,1.409-0.875,2.682-0.797c1.463,0.088,1.502,0.271,2.201,1.244
				c0.318,0.437,0.633,0.461,0.877,1.086c0.134,0.324,0.138,0.61,0.146,0.886l-4.738,0.148c-0.923-0.063-1.845-0.13-2.765-0.168
				c-0.011-0.032-0.018-0.065-0.026-0.098C107.364,7.184,107.553,6.805,107.602,6.715z M100.978,6.102
				c0.751-1.076,1.503-1.358,2.877-1.502c1.681-0.175,1.784,1.892,2.184,2.953c0.012,0.029,0.029,0.059,0.043,0.088
				c-1.001-0.017-1.995,0.004-2.968,0.119c-0.221,0.026-0.445,0.055-0.668,0.082c-0.73-0.009-1.46,0-2.191-0.002
				c-0.02-0.089-0.051-0.173-0.07-0.26C100.405,7.072,100.644,6.57,100.978,6.102z M92.045,6.805c0.576-0.88,1.957-1.83,2.918-2.298
				c0.955-0.461,2.354-0.862,3.197,0.259c0.261,0.347,0.312,0.871,0.462,1.266c0.229,0.609,0.438,1.205,0.646,1.807
				c-2.516,0.003-5.034,0.031-7.543,0.158c-0.015-0.048-0.03-0.09-0.042-0.143C91.868,7.367,92.006,6.863,92.045,6.805z
				 M81.698,11.971c-0.014-0.714,0.277-1.31,0.879-1.777c0.492-0.146,0.959-0.344,1.417-0.553c-0.005,0.047-0.024,0.099-0.021,0.146
				c0.213,1.903,0.336,3.792,0.406,5.667c-0.293-0.178-0.658-0.216-1.141-0.41C81.573,14.371,81.29,13.605,81.698,11.971z
				 M82.737,21.458c-1.027-0.606-2.057-2.166-1.493-3.226c0.525-0.989,1.771-1.479,2.994-1.491c0.058,0,0.113-0.025,0.167-0.04
				c0.045,1.734,0.068,3.467,0.055,5.197C83.841,21.805,83.182,21.717,82.737,21.458z M84.079,22.805
				c0.127,0.018,0.253,0.043,0.375,0.06c-0.015,1.753-0.027,3.524-0.032,5.294C82.375,27.479,82.303,24.025,84.079,22.805z
				 M84.412,29.632c0,0.216-0.005,0.423-0.005,0.636c0.009,1.887,0.095,3.778,0.207,5.674
				C78.657,34.908,81.568,31.003,84.412,29.632z M81.929,41.041c-0.264-1.477,1.222-3.665,2.741-4.15
				c0.17,2.596,0.371,5.191,0.512,7.789c-0.057,0.107-0.039,0.228,0.014,0.342c0,0.052,0,0.102,0.006,0.15
				C83.985,44.581,82.07,41.841,81.929,41.041z M81.817,62.095c0.148-0.639,0.248-1.801,0.689-2.287
				c0.521-0.58,1.221-0.855,1.951-1.064c0.109,0.023,0.213,0.062,0.312,0.072c-0.186,1.887-0.378,3.77-0.564,5.656
				c-0.006-0.078-0.047-0.154-0.146-0.184c-0.402-0.121-0.76-0.18-1.109-0.191c-0.01-0.004-0.044-0.018-0.051-0.021
				C81.75,63.653,81.553,63.2,81.817,62.095z M80.346,68.673c-0.116-1.006,0.939-2.102,1.545-2.912
				c0.328-0.447,0.664-0.635,1.059-0.77c0.326,0.107,0.771,0.312,1.177,0.35c-0.192,2.033-0.343,4.064-0.437,6.105
				c-0.02-0.006-0.033-0.02-0.057-0.02c-0.054-0.006-0.107,0.014-0.161,0.014c-0.136-0.074-0.29-0.146-0.51-0.248
				C81.863,70.683,80.479,69.841,80.346,68.673z M80.34,76.325c-0.576-1.631,0.969-3.408,2.615-4.137
				c0.15,0.057,0.311,0.117,0.451,0.166c0.085,0.031,0.17,0.014,0.241-0.018c-0.036,1.139-0.062,2.275-0.041,3.42
				c0.012,0.822-0.063,1.727-0.097,2.631c-0.018,0.004-0.039-0.006-0.053,0.004c-0.918,0.395-1.354,0.307-2.045-0.416
				C81.034,77.579,80.52,76.823,80.34,76.325z M84.416,83.698c-0.21,0.209-0.604,0.797-0.887,0.916
				c-0.694,0.301-1.481-0.449-1.854-0.869c-0.855-0.971-0.812-2.307-0.104-3.346c0.068-0.104,0.301-0.324,0.562-0.561
				c0.445,0.041,0.904-0.115,1.371-0.551c0.03,1.518,0.352,2.928,1.698,3.803C84.933,83.28,84.657,83.464,84.416,83.698z
				 M85.219,53.454c-0.094,1.508-0.225,3.01-0.367,4.51c-0.552-0.076-1.172-0.268-1.486-0.424c-1.677-0.846-2.449-2.439-0.719-3.986
				c0.297-0.268,1.653-1.139,2.609-1.516C85.243,52.511,85.252,52.983,85.219,53.454z M83.239,49.771
				c-1.434-0.455-1.67-1.275-0.709-2.457c0.666-0.807,1.506-1.33,2.516-1.561c0.109-0.033,0.162-0.123,0.17-0.212
				c0.078,1.724,0.098,3.44,0.078,5.155C84.61,50.511,84.01,50.296,83.239,49.771z M84.952,8.623c-0.17,0.025-0.33,0.113-0.469,0.23
				c-0.057-0.502-0.121-1.006,0.042-1.494c0.483-1.454,1.901-1.729,3.356-1.965c0.948-0.155,1.803-0.297,2.201,0.642
				c0.131,0.319,0.154,0.67,0.29,0.994c0.125,0.292,0.255,0.579,0.386,0.864C90.745,7.948,90.733,8,90.715,8.057
				C88.787,8.175,86.864,8.337,84.952,8.623z M90.233,86.171c-0.816,0.691-1.408,1.061-2.497,0.377
				c-1.108-0.688-1.45-1.805-1.597-2.92c0.023-0.02,0.047-0.039,0.07-0.057c1.248,0.416,3.025,0.557,4.935,0.568
				c-0.069,0.113-0.104,0.248-0.022,0.393c0.041,0.082,0.094,0.166,0.141,0.248C91.255,85.194,90.403,86.022,90.233,86.171z
				 M95.617,86.505c-1.851,0.627-2.676-0.637-3.435-1.963c-0.024-0.1-0.1-0.184-0.158-0.273c-0.024-0.043-0.049-0.086-0.074-0.131
				c1.787-0.02,3.631-0.129,5.229-0.225C97.312,85.003,96.866,86.083,95.617,86.505z M101.94,87.313
				c-3.084,1.156-3.033-0.785-3.402-2.176c-0.127-0.471-0.159-0.797-0.296-1.076c-0.006-0.07,0.017-0.139,0.005-0.209
				c0.877-0.047,1.639-0.078,2.209-0.068c0.932,0.014,1.865-0.014,2.796-0.02c0.021,0.064,0.029,0.137,0.045,0.205
				c0.021,0.09,0.029,0.176,0.053,0.268C103.49,85.376,103.071,86.89,101.94,87.313z M109.37,84.837
				c-0.787,0.859-1.561,1.404-2.824,1.27c-1.201-0.131-2.042-1.176-2.26-2.346c2.021-0.033,4.043-0.09,6.071-0.18
				C110.112,84.056,109.616,84.565,109.37,84.837z M117.366,83.39c0.033,1.457-0.238,2.928-1.9,3.516
				c-2.707,0.959-3.787-0.58-4.326-2.324c0.229-0.352,0.406-0.709,0.473-1.045c1.936-0.092,3.874-0.188,5.803-0.277
				C117.399,83.302,117.362,83.335,117.366,83.39z M118.95,84.349c-0.209-0.229-0.443-0.83-0.621-1.123
				c1.582-0.066,3.17-0.135,4.749-0.168c0.093,0,0.185,0,0.283,0c0.011,0.049,0.022,0.102,0.035,0.152
				C123.488,85.366,121.526,87.046,118.95,84.349z M128.911,85.249c-0.726,1.396-1.879,2.332-3.752,0.887
				c-0.402-0.312-0.635-0.781-0.811-1.289c0.017-0.035,0.038-0.061,0.05-0.098c0.26-0.643,0.126-1.176-0.046-1.703
				c1.787-0.023,3.575-0.021,5.359-0.014c0.017,0.062,0.037,0.121,0.054,0.184C129.629,83.938,129.14,84.806,128.911,85.249z
				 M132.885,85.353c-0.885-0.229-1.872-1.301-2.215-2.322c1.651,0.014,3.305,0.055,4.957,0.094
				c0.004,0.021,0.004,0.039,0.015,0.059C135.245,84.368,135.256,85.962,132.885,85.353z M140.575,85.71
				c-0.93,1.236-2.005,0.814-2.84-0.244c-0.361-0.455-0.725-0.949-1.062-1.455c0.107-0.279,0.197-0.564,0.242-0.859
				c1.467,0.039,2.936,0.117,4.402,0.172c0.027,0.254,0.08,0.514,0.152,0.781C141.246,84.745,140.778,85.444,140.575,85.71z
				 M144.02,85.952c-0.681-0.166-1.238-1.105-1.539-1.996c0.033-0.207,0.037-0.395,0.022-0.584c1.264,0.053,2.518,0.092,3.776,0.15
				C146.274,84.749,145.372,86.28,144.02,85.952z M151.803,85.911c-3.047,2.156-4.011-0.572-4.238-2.326
				c1.639,0.086,3.28,0.178,4.92,0.268c0.01,0.033,0,0.062,0.02,0.096C152.897,84.603,152.489,85.423,151.803,85.911z"/>
			<g>
				<path fill="none" d="M168.386,6.211c1.515,0.044,3.039,0.127,4.561,0.186c0.047-0.274,0.122-0.543,0.216-0.807
					C172.848,3.795,168.909,4.288,168.386,6.211z"/>
				<path fill="none" d="M161.538,5.627c0.016,0.143,0.001,0.291,0.001,0.438c1.855,0.037,3.709,0.058,5.57,0.111
					C168.961,1.988,162.77,4.439,161.538,5.627z"/>
				<path fill="none" d="M176.153,3.76c-1.047,0.393-1.687,1.244-2.006,2.168c0,0.168,0.005,0.338-0.023,0.516
					c1.917,0.076,3.836,0.138,5.76,0.234c0-0.015-0.009-0.023-0.006-0.035C180.363,4.91,177.94,3.087,176.153,3.76z"/>
				<path fill="none" d="M214.812,83.011c0.706,1.082,1.654,2.664,3.439,1.785c0.61-0.598,1.22-1.195,1.824-1.797
					c-0.037-0.162-0.073-0.322-0.111-0.486C218.247,82.716,216.528,82.884,214.812,83.011z"/>
				<path fill="none" d="M231.301,80.612c-0.083-0.012-0.132-0.059-0.19-0.096c-0.453,0.127-0.948,0.256-1.561,0.395
					c-0.777,0.176-1.554,0.305-2.328,0.453c1.001,1.363,2.525,3.477,4,1.498c0.35-0.473,0.409-1.209,0.643-1.83
					c-0.073-0.08-0.116-0.152-0.107-0.244C231.603,80.696,231.443,80.624,231.301,80.612z"/>
				<path fill="none" d="M221.003,82.374c0.015,0.129,0.021,0.25,0.032,0.373c0.404,0.613,0.818,1.229,1.47,1.57
					c1.629,0.859,3.229,0.188,3.527-1.578c0.054-0.326-0.025-0.736-0.092-1.123C224.299,81.903,222.645,82.161,221.003,82.374z"/>
				<path fill="none" d="M235.037,42.673c0.762-0.116,1.56-0.311,2.105-0.661c1.546-0.994,0.848-2.394-0.575-2.938
					c-0.581-0.225-1.21-0.354-1.747-0.629C234.904,39.852,234.981,41.262,235.037,42.673z"/>
				<path fill="none" d="M207.7,83.39c0,0.006-0.006,0.014-0.006,0.021c0.195,0.275,0.355,0.586,0.567,0.887
					c0.413,0.592,0.948,1.576,1.788,1.797c1.827,0.477,3.741-1.342,3.462-2.977C211.572,83.243,209.64,83.335,207.7,83.39z"/>
				<path fill="none" d="M235.043,53.569c0.004,1.043,0.029,2.098,0.062,3.164c0.535,0.049,1.066,0.18,1.608,0.18
					c1.446-0.004,1.589-0.012,2.367-1.252c1.08-0.842,0.958-1.414-0.365-1.711l-1.165-0.15c-0.572-0.062-1.146-0.068-1.713-0.129
					C235.573,53.642,235.308,53.606,235.043,53.569z"/>
				<path fill="none" d="M235.15,47.212c0.41-0.045,0.841-0.156,1.336-0.414c1.131-0.587,3.598-1.418,1.876-2.585
					c-0.945-0.639-2.174-0.354-3.272-0.355C235.128,44.977,235.15,46.095,235.15,47.212z"/>
				<path fill="none" d="M235.136,48.177c-0.006,0.787-0.014,1.572-0.048,2.359c-0.021,0.588-0.021,1.197-0.029,1.797
					c0.188-0.006,0.372-0.008,0.559-0.029c1.125-0.129,1.716-0.156,2.48-1.043c0.796-0.455,0.893-1,0.296-1.633
					c-0.356-0.357-0.713-0.721-1.069-1.076c-0.408-0.264-0.945-0.404-1.423-0.521C235.647,48.101,235.39,48.149,235.136,48.177z"/>
				<path fill="none" d="M235.137,57.675c0.041,1.123,0.084,2.254,0.125,3.387c1.288-0.271,3.766-0.158,2.969-1.992
					c-0.202-0.459-1.323-0.992-2.353-1.307C235.634,57.733,235.386,57.698,235.137,57.675z"/>
				<path fill="none" d="M174.284,83.845c0.357,0.779,0.944,1.426,1.779,1.943c1.026-0.48,2.051-0.965,3.08-1.447
					c0.169-0.205,0.3-0.723,0.408-1.168c-1.855,0.006-3.711,0.033-5.562,0.084C174.074,83.446,174.152,83.646,174.284,83.845z"/>
				<path fill="none" d="M160.564,85.603c1.565,1.408,2.745,0.051,3.307-1.055c0.137-0.27,0.207-0.629,0.277-0.992
					c-1.539,0.031-3.084,0.025-4.623,0.023C159.826,84.243,160.361,85.419,160.564,85.603z"/>
				<path fill="none" d="M180.532,83.169c-0.004,0.066-0.023,0.133-0.033,0.201c0.181,0.422,0.207,0.949,0.367,1.373
					c1.224,3.254,6.084,1.168,6.923-1.475c-2.118-0.043-4.238-0.082-6.359-0.104C181.136,83.163,180.834,83.169,180.532,83.169z"/>
				<path fill="none" d="M189.336,83.372c1.904,3.172,4.13,1.98,5.543,0.035c-1.855-0.031-3.714-0.07-5.572-0.109
					C189.32,83.321,189.324,83.351,189.336,83.372z"/>
				<path fill="none" d="M196.057,83.671c0.423,0.822,0.544,1.811,1.141,2.498c2.019,2.328,3.667-1.041,4.302-2.699
					c-1.779,0-3.563-0.016-5.344-0.039C196.127,83.513,196.09,83.589,196.057,83.671z"/>
				<path fill="none" d="M205.815,85.124c0.646-0.576,0.783-1.115,0.817-1.711c-1.353,0.029-2.701,0.047-4.051,0.051
					C202.561,84.966,204.262,86.522,205.815,85.124z"/>
				<path fill="none" d="M165.369,83.519c0.081,0.109,0.171,0.23,0.366,0.438c1.798,1.863,3.012,3.084,5.521,1.76
					c1.441-0.764,0.942-1.545,1.062-2.41C170.003,83.376,167.688,83.458,165.369,83.519z"/>
				<path fill="none" d="M235.695,65.708c-0.103-0.002-0.209-0.01-0.31-0.008c0.01,1.242-0.014,2.469-0.061,3.688
					c0.375-0.01,0.763-0.014,1.161,0.086c0.237-0.016,0.457-0.047,0.643-0.121c1.626-1.133,1.768-1.986,0.412-2.555
					c-0.234-0.166-0.479-0.312-0.741-0.441C236.453,66.14,236.067,65.929,235.695,65.708z"/>
				<path fill="none" d="M235.282,70.202c-0.069,1.266-0.192,2.514-0.376,3.727c1.391,0.24,2.856,0.246,3.825-0.57
					c2.065-1.744-1.824-2.982-2.858-3.109C235.681,70.226,235.479,70.214,235.282,70.202z"/>
				<path fill="none" d="M235.302,74.782c-0.178-0.004-0.365-0.004-0.544-0.021c-0.066,0.402-0.127,0.814-0.214,1.209
					c-0.101,0.463-0.195,0.873-0.295,1.242c0.081,0.047,0.16,0.094,0.241,0.143c0.57,0.082,1.19,0.035,1.772-0.002
					c0.746-0.043,1.563,0.004,2.312-0.139c-0.43-0.734-1.494-1.283-2.146-1.682C236.03,75.288,235.663,75.04,235.302,74.782z"/>
				<path fill="none" d="M234.743,37.209c0.951-0.095,1.933-0.083,2.872-0.17c2.593-0.241,0.482-2.564-0.758-3.258
					c-0.711-0.395-1.532-0.747-2.376-0.787C234.563,34.4,234.653,35.803,234.743,37.209z"/>
				<path fill="none" d="M234.09,78.044c-0.03-0.004-0.064-0.012-0.091-0.016c-0.39,1.102-0.894,1.689-1.839,2.113
					c0.118,0.076,0.223,0.152,0.335,0.227h0.003c0.082,0.035,0.161,0.07,0.239,0.102c0.067,0.029,0.081,0.094,0.124,0.145
					c0.723,0.475,1.903,1.242,2.746,0.74c0.569-0.346,0.581-1.486,0.233-1.955c-0.193-0.264-0.567-0.453-0.839-0.662
					C234.721,78.522,234.412,78.274,234.09,78.044z"/>
				<path fill="none" d="M238.7,63.104c-0.248-0.586-0.848-0.932-1.475-1.102c-0.649-0.182-1.283-0.053-1.93-0.143
					c0.032,0.957,0.064,1.912,0.082,2.865c0.718-0.012,1.506,0.303,2.303,0.221c0.556,0.137,0.862-0.098,0.925-0.719
					C239.165,63.815,239.197,63.438,238.7,63.104z"/>
				<path fill="none" d="M234.199,23.51c-0.018,1.098-0.011,2.194,0.009,3.284c0.155,0.022,0.31,0.054,0.47,0.062
					c1.102,0.052,1.549,0.086,2.25-0.782c1.556-1.947-0.725-2.39-2.726-2.722C234.199,23.403,234.199,23.461,234.199,23.51z"/>
				<path fill="none" d="M236.103,28.289c-0.375-0.236-0.867-0.395-1.374-0.499c-0.165,0.002-0.328,0.01-0.493,0.005
					c0.041,1.415,0.113,2.826,0.191,4.234c0.45-0.119,0.894-0.248,1.291-0.438C236.888,31.037,237.07,28.902,236.103,28.289z"/>
				<path fill="none" d="M232.906,6.124c-0.463-1.278-1.676-0.308-2.376,0.771c-0.036,0.309-0.111,0.623-0.21,0.918
					c0.276-0.049,0.564-0.1,0.797-0.172c0.406-0.129,0.982-0.019,1.328,0.248C232.87,7.361,233.15,6.79,232.906,6.124z"/>
				<path fill="none" d="M234.255,22.195c0.146,0.002,0.295,0.005,0.445-0.012c0.709-0.082,2.601-0.721,3.1-1.312
					c1.049-1.242-2.015-1.495-2.646-1.554c0.063,0.005-0.307-0.03-0.685-0.103C234.39,20.264,234.312,21.271,234.255,22.195z"/>
				<path fill="none" d="M236.509,10.92c0.862-1.359,0.238-2.906-1.378-2.791c0.207-0.016-1.231,0.602-1.908,0.775
					c0.632,1.033,0.995,2.258,1.196,3.576C235.189,12.03,236.042,11.655,236.509,10.92z"/>
				<path fill="none" d="M184.578,4.909c-0.609-0.306-2.093-0.134-2.628,0.245c-0.319,0.228-0.687,0.807-0.968,1.33
					c-0.021,0.072-0.025,0.146-0.051,0.217l4.439,0.103C185.364,6.035,185.128,5.183,184.578,4.909z"/>
				<path fill="none" d="M234.555,17.973c1.47-0.543,3.168-1.539,3.962-2.543c0.621-0.316,0.788-0.787,0.511-1.412
					c-0.61-0.475-1.312-0.805-2.12-0.988c-0.695-0.037-1.646,0.254-2.376,0.441C234.662,14.938,234.648,16.471,234.555,17.973z"/>
				<path fill="none" d="M190.27,5.028c-1.095-0.786-2.756,0.583-3.495,1.808l3.365,0.078c0.188,0,0.377,0.004,0.566,0.004
					C190.56,6.251,190.851,5.45,190.27,5.028z"/>
				<path fill="none" d="M195.956,4.707c-0.739-0.786-1.388-0.877-1.947-0.275c-0.909,0.428-1.694,1.385-2.163,2.334
					c0.043,0.045,0.097,0.084,0.117,0.146c1.817-0.01,3.635-0.033,5.449-0.053c-0.074-0.416-0.06-0.824,0.062-1.215
					C197.497,4.987,196.996,4.672,195.956,4.707z"/>
				<path fill="none" d="M200.644,4.21c-0.972,0.089-1.837,0.884-2.099,1.769c0.024,0.301,0.03,0.592,0.012,0.871
					c1.25-0.015,2.504,0,3.757-0.002c-0.056-0.486-0.07-0.977-0.253-1.471C201.737,4.484,201.54,4.128,200.644,4.21z"/>
				<path fill="none" d="M229.087,4.746c-0.354-0.37-0.687-0.354-1.012,0.047c-1.118,0.436-1.916,1.787-2.287,2.943l3.101,0.07
					c0.037-0.594,0.266-1.148,0.648-1.636c0.09-0.295,0.164-0.604,0.081-0.881C229.665,4.975,229.484,4.798,229.087,4.746z"/>
				<path fill="none" d="M206.365,3.678c-1.253,0.192-2.47,2.03-2.889,3.17c1.339,0.002,2.676-0.014,4.014,0.008
					c0.682,0.016,1.35,0.056,2.024,0.078c-0.095-0.447-0.217-0.935-0.374-1.283C208.802,4.893,207.393,3.52,206.365,3.678z"/>
				<path fill="none" d="M213.802,4.096c-1.409-0.375-1.904,0.094-2.597,1.207c-0.328,0.527-0.445,1.1-0.465,1.678
					c1.369,0.059,2.747,0.105,4.117,0.181c0.039-0.131,0.129-0.338,0.137-0.435C215.064,5.325,215.425,4.521,213.802,4.096z"/>
				<path fill="none" d="M223.139,4.814c-0.37,0.014-0.71,0.436-0.972,0.936c0.037,0.648-0.154,1.303-0.57,1.837
					c0.238,0.022,0.492,0.046,0.738,0.069l2.298,0.053c0-0.023-0.004-0.045,0.003-0.07c0.07-0.271,0.306-0.888,0.301-1.123
					C224.913,5.975,223.683,4.793,223.139,4.814z"/>
				<path fill="none" d="M225.724,7.934c1.105,0.068,2.18,0.095,3.15,0.043c0-0.027,0.007-0.053,0.007-0.079l-3.147,0.008
					C225.73,7.914,225.727,7.925,225.724,7.934z"/>
				<path fill="none" d="M218.701,4.184c-0.873,0.196-1.674,0.871-2.305,1.633c-0.003,0.113-0.003,0.225-0.026,0.346
					c-0.034,0.193-0.442,1.029-0.431,1.04c0.007,0.005,0.012,0.015,0.012,0.015c1.051,0.059,2.098,0.116,3.159,0.166
					c0.441,0.021,0.953,0.061,1.498,0.11c-0.016-0.03-0.04-0.056-0.046-0.09c-0.082-0.566,0.143-1.321,0.55-2.024
					C220.795,4.555,219.791,3.939,218.701,4.184z"/>
				<path fill="#CAC1B0" d="M238.658,61.728c-0.302-0.234-0.582-0.365-0.858-0.445c1.162-0.359,2.11-0.953,1.534-2.078
					c-0.277-0.539-0.888-1.043-1.615-1.424c0.521-0.047,1.042-0.123,1.513-0.301c1.032-0.393,1.911-1.268,1.864-2.33
					c-0.07-1.617-1.771-2.119-3.588-2.332c1.493-0.324,2.623-1.008,2.019-2.752c-0.342-1-1.399-1.979-2.595-2.436
					c1.148-0.504,3.129-1.388,3.347-2.302c0.248-1.045-1.079-1.812-1.977-2.098c-0.399-0.123-0.969-0.142-1.56-0.137
					c1.53-0.462,2.981-1.256,2.867-2.546c-0.093-0.983-1.216-1.579-2.077-1.944c-0.366-0.154-0.758-0.283-1.153-0.398
					c2.33-0.159,4.775-0.66,3.899-2.592c-0.694-1.53-2.728-2.911-4.738-3.305c1.822-0.78,3.625-1.973,2.243-3.815
					c-0.209-0.277-0.692-0.584-1.257-0.845c0.134-0.021,0.259-0.043,0.335-0.062c1.021-0.283,1.731-0.893,1.71-1.895
					c-0.023-1.058-0.564-2.036-1.551-2.59c-0.319-0.176-0.662-0.285-1.011-0.364c0.15-0.052,0.302-0.112,0.462-0.19
					c0.651-0.324,2.638-1.098,2.737-1.971c0.165-1.421-2.388-1.887-4.189-1.963c2.123-0.784,5.319-2.528,5.144-4.274
					c-0.083-0.827-1.243-1.727-2.055-2.051c-0.567-0.226-1.278-0.181-1.991-0.052c1.616-1.219,2.98-2.688,0.963-4.612
					c-0.716-0.679-2.164-0.511-3.294,0.038c0.073-0.219,0.164-0.422,0.201-0.688c0.107-0.765,0.248-2.099-0.625-2.576
					c-0.817-0.452-2.051,0.246-2.742,0.733c-0.097-0.618-0.369-1.217-1.025-1.465c-1.521-0.581-2.817,0.644-3.603,2.067
					c-0.154-1.182-0.82-2.301-2.127-2.34c-0.759-0.021-1.492,0.44-2.078,1.078c-0.348-0.584-0.909-1.049-1.69-1.22
					c-1.446-0.321-2.909,0.5-3.846,1.642c-0.084-0.215-0.183-0.432-0.323-0.653c-0.503-0.806-1.291-1.713-2.417-1.654
					c-1.522,0.082-2.714,1.244-3.356,2.575c-0.518-1.458-1.456-2.803-3.277-2.587c-1.602,0.185-3.108,1.636-3.665,3.126
					c-0.221-1.319-0.526-2.605-2.301-2.535c-1.075,0.044-2.062,0.541-2.723,1.258c-0.435-1.037-1.281-1.807-2.841-1.592
					c-1.432,0.202-2.838,1.454-3.63,2.812c-0.009-0.381-0.061-0.758-0.37-1.148c-0.455-0.583-1.046-0.864-1.826-0.811
					c-1.073,0.074-2.295,0.811-3.168,1.748c-0.438-1.041-1.433-1.813-2.972-1.939c-0.925-0.076-1.896,0.645-2.501,1.529
					c-0.513-1.373-2.016-2.662-3.421-2.637c-1.654,0.033-2.954,0.918-3.748,2.111c-0.576-0.852-1.677-1.393-3.112-1.225
					c-0.666,0.08-1.537,0.59-2.183,1.235c-0.371-1.301-2.057-1.622-3.984-1.341c-1.269,0.184-2.443,0.406-3.311,1.237
					c-1.2-1.699-4.981-1.378-6.373,1.662l1.188,0.021c0.024-0.016,2.843-3.402,4.42-0.68c-0.098,0.211-0.162,0.422-0.162,0.628
					c-1.648-0.028-3.798-0.011-5.446-0.035v2.454c8.757,0.235,17.986,0.522,26.783,0.861c13.541,0.521,26.991,0.123,40.544,0.854
					c1.104,0.062,6.49-0.241,7.624,0.472c1.393,0.881,1.083,1.277,1.268,3.582c0.524,6.57-0.023,13.196,0.521,19.812
					c0.368,4.453,0.434,8.883,0.394,13.305c-0.008,0.033-0.003,0.066-0.003,0.104c-0.064,7.387-0.427,14.758-0.151,22.205
					c0.228,6.219,0.741,8.047-5.372,8.76c-7.78,0.906-15.596,2.293-23.422,2.746c-5.83,0.336-11.815-0.309-17.65-0.512
					c-6.226-0.211-12.346,0.443-18.594,0.361c-3.827-0.051-7.638,0.201-11.441,0.172v2.832c0.37,0.008,0.742-0.004,1.111,0.006
					c0.668,0.02,1.209,0.016,1.878,0.021c-0.284,1.607-1.425,2.43-2.989,2.525v1.334c1.555,0.232,2.969-1.768,3.691-3.025
					c0.574,1.424,1.372,3.074,3.146,2.629c0.978-0.248,1.814-1.207,2.338-1.945c0.128-0.184,0.367-0.895,0.593-1.547
					c0.972,1.904,0.961,3.82,4.281,3.355c1.077-0.152,3.748-1.012,4.402-2.285c0.185,0.363,0.356,0.676,0.476,0.777
					c0.812,0.715,1.895,1.121,3.06,1.051c1.59-0.098,2.502-1.135,2.962-2.359c0.302,1.521,0.296,2.92,2.905,2.922
					c2.28,0.004,4.723-1.557,5.54-3.502c0.146,0.594,0.291,1.191,0.882,1.65c0.736,0.58,1.942,0.828,2.883,0.783
					c1.449-0.072,2.568-0.842,3.24-1.885c0.243,1.436,0.994,3.15,2.467,3.316c2.032,0.23,3.196-1.352,3.883-2.959
					c0.469,1.102,1.437,2.02,2.736,1.795c0.988-0.172,1.893-0.869,2.412-1.617c0.063-0.094,0.208-0.43,0.339-0.822
					c0.78,1.428,1.255,3.113,3.482,2.943c1.788-0.135,3.234-1.406,3.609-2.891c1.084,1.201,2.286,1.988,4.386,1.285
					c1.398-0.469,1.904-1.018,2.056-1.703c0.713,1.129,1.742,2.068,3.154,1.854c0.874-0.137,2.065-0.895,2.529-1.594
					c0.288-0.428,0.343-0.883,0.329-1.342c0.797,1.125,1.723,2.09,3.628,1.799c1.893-0.289,1.591-1.836,2.094-3.104
					c0.028,0.016,0.062,0.043,0.086,0.059c0.586,0.332,1.214,0.627,1.924,0.693c0.878,0.074,2.032-0.516,2.375-1.275
					c0.413-0.912-0.38-1.758-1.058-2.34c-0.172-0.148-0.361-0.309-0.547-0.469c1.195,0,2.618,0.023,3.696-0.365
					c0.194-0.064,0.322-0.225,0.265-0.422c-0.237-0.838-1.197-1.488-1.952-1.955c-0.298-0.182-0.653-0.438-1.043-0.682
					c0.052-0.008,0.106-0.002,0.16-0.014c0.997-0.164,2.698-0.449,3.201-1.398c0.535-1.027-0.202-2.156-1.066-2.768
					c-0.289-0.201-0.614-0.379-0.946-0.543c1.31-0.254,2.287-0.887,1.707-2.346c-0.348-0.885-1.365-1.373-2.229-1.869
					c1.524,0.062,3.015-0.051,2.99-1.553C240.305,63.323,239.381,62.292,238.658,61.728z M167.109,6.176
					c-1.861-0.054-3.715-0.074-5.57-0.111c0-0.146,0.015-0.295-0.001-0.438C162.77,4.439,168.961,1.988,167.109,6.176z
					 M172.946,6.396c-1.521-0.059-3.046-0.142-4.561-0.186c0.523-1.923,4.462-2.416,4.776-0.621
					C173.068,5.854,172.993,6.122,172.946,6.396z M179.884,6.678c-1.924-0.097-3.843-0.158-5.76-0.234
					c0.028-0.178,0.023-0.348,0.023-0.516c0.319-0.924,0.959-1.775,2.006-2.168c1.787-0.673,4.21,1.15,3.725,2.883
					C179.875,6.654,179.884,6.663,179.884,6.678z M180.932,6.701c0.025-0.07,0.029-0.145,0.051-0.217
					c0.281-0.523,0.648-1.103,0.968-1.33c0.535-0.379,2.019-0.551,2.628-0.245c0.55,0.273,0.786,1.126,0.793,1.895L180.932,6.701z
					 M190.14,6.914l-3.365-0.078c0.739-1.225,2.4-2.594,3.495-1.808c0.581,0.422,0.29,1.223,0.437,1.89
					C190.517,6.918,190.328,6.914,190.14,6.914z M197.412,6.859c-1.814,0.02-3.632,0.043-5.449,0.053
					c-0.021-0.062-0.074-0.102-0.117-0.146c0.469-0.949,1.254-1.906,2.163-2.334c0.56-0.602,1.208-0.511,1.947,0.275
					c1.04-0.035,1.541,0.28,1.518,0.938C197.353,6.035,197.338,6.443,197.412,6.859z M198.557,6.85
					c0.019-0.279,0.013-0.57-0.012-0.871c0.262-0.885,1.127-1.68,2.099-1.769c0.896-0.082,1.094,0.274,1.417,1.167
					c0.183,0.494,0.197,0.984,0.253,1.471C201.061,6.85,199.807,6.835,198.557,6.85z M207.49,6.855
					c-1.338-0.021-2.675-0.006-4.014-0.008c0.419-1.14,1.636-2.978,2.889-3.17c1.027-0.158,2.437,1.215,2.775,1.973
					c0.157,0.349,0.279,0.836,0.374,1.283C208.84,6.911,208.172,6.871,207.49,6.855z M213.802,4.096
					c1.623,0.426,1.263,1.229,1.192,2.631c-0.008,0.097-0.098,0.304-0.137,0.435c-1.37-0.075-2.748-0.122-4.117-0.181
					c0.02-0.578,0.137-1.15,0.465-1.678 M220.562,7.403c0.006,0.034,0.03,0.06,0.046,0.09c-0.545-0.05-1.057-0.09-1.498-0.11
					c-1.062-0.05-2.108-0.107-3.159-0.166c0,0-0.005-0.01-0.012-0.015c-0.012-0.011,0.396-0.847,0.431-1.04
					c0.023-0.121,0.023-0.232,0.026-0.346c0.631-0.762,1.432-1.437,2.305-1.633c1.09-0.244,2.094,0.371,2.411,1.195
					C220.705,6.082,220.48,6.837,220.562,7.403z M224.636,7.639c-0.007,0.025-0.003,0.047-0.003,0.07l-2.298-0.053
					c-0.246-0.023-0.5-0.047-0.738-0.069c0.416-0.534,0.607-1.188,0.57-1.837c0.262-0.5,0.602-0.922,0.972-0.936
					c0.544-0.021,1.774,1.16,1.798,1.701C224.941,6.751,224.706,7.368,224.636,7.639z M228.874,7.977
					c-0.971,0.052-2.045,0.025-3.15-0.043c0.003-0.009,0.007-0.02,0.01-0.028l3.147-0.008
					C228.881,7.924,228.874,7.949,228.874,7.977z M229.537,6.171c-0.383,0.487-0.611,1.042-0.648,1.636l-3.101-0.07
					c0.371-1.156,1.169-2.508,2.287-2.943c0.325-0.4,0.657-0.417,1.012-0.047c0.397,0.052,0.578,0.229,0.531,0.544
					C229.701,5.566,229.627,5.876,229.537,6.171z M163.871,84.548c-0.562,1.105-1.741,2.463-3.307,1.055
					c-0.204-0.184-0.739-1.359-1.039-2.023c1.539,0.002,3.083,0.008,4.623-0.023C164.078,83.919,164.008,84.278,163.871,84.548z
					 M171.257,85.716c-2.51,1.324-3.724,0.104-5.521-1.76c-0.195-0.207-0.285-0.328-0.366-0.438
					c2.318-0.061,4.634-0.143,6.949-0.213C172.199,84.171,172.698,84.952,171.257,85.716z M179.144,84.341
					c-1.029,0.482-2.054,0.967-3.08,1.447c-0.835-0.518-1.422-1.164-1.779-1.943c-0.132-0.199-0.21-0.398-0.295-0.588
					c1.852-0.051,3.707-0.078,5.562-0.084C179.443,83.618,179.312,84.136,179.144,84.341z M180.866,84.743
					c-0.16-0.424-0.187-0.951-0.367-1.373c0.01-0.068,0.029-0.135,0.033-0.201c0.302,0,0.604-0.006,0.897-0.004
					c2.121,0.021,4.241,0.061,6.359,0.104C186.95,85.911,182.09,87.997,180.866,84.743z M189.336,83.372
					c-0.012-0.021-0.016-0.051-0.029-0.074c1.858,0.039,3.717,0.078,5.572,0.109C193.466,85.353,191.24,86.544,189.336,83.372z
					 M197.197,86.169c-0.597-0.688-0.718-1.676-1.141-2.498c0.033-0.082,0.07-0.158,0.099-0.24c1.78,0.023,3.564,0.039,5.344,0.039
					C200.864,85.128,199.216,88.497,197.197,86.169z M205.815,85.124c-1.554,1.398-3.255-0.158-3.233-1.66
					c1.35-0.004,2.698-0.021,4.051-0.051C206.599,84.009,206.461,84.548,205.815,85.124z M210.05,86.095
					c-0.84-0.221-1.375-1.205-1.788-1.797c-0.212-0.301-0.372-0.611-0.567-0.887c0-0.008,0.006-0.016,0.006-0.021
					c1.939-0.055,3.872-0.146,5.812-0.271C213.791,84.753,211.877,86.571,210.05,86.095z M218.252,84.796
					c-1.785,0.879-2.733-0.703-3.439-1.785c1.716-0.127,3.435-0.295,5.152-0.498c0.038,0.164,0.074,0.324,0.111,0.486
					C219.472,83.601,218.862,84.198,218.252,84.796z M222.505,84.317c-0.651-0.342-1.065-0.957-1.47-1.57
					c-0.011-0.123-0.018-0.244-0.032-0.373c1.642-0.213,3.296-0.471,4.938-0.758c0.066,0.387,0.146,0.797,0.092,1.123
					C225.733,84.505,224.134,85.177,222.505,84.317z M231.222,82.862c-1.475,1.979-2.999-0.135-4-1.498
					c0.774-0.148,1.551-0.277,2.328-0.453c0.612-0.139,1.107-0.268,1.561-0.395c0.059,0.037,0.107,0.084,0.19,0.096
					c0.143,0.012,0.302,0.084,0.456,0.176c-0.009,0.092,0.034,0.164,0.107,0.244C231.631,81.653,231.571,82.39,231.222,82.862z
					 M238.23,59.069c0.797,1.834-1.681,1.721-2.969,1.992c-0.041-1.133-0.084-2.264-0.125-3.387
					c0.249,0.023,0.497,0.059,0.741,0.088C236.907,58.077,238.028,58.61,238.23,59.069z M237.55,53.8l1.165,0.15
					c1.323,0.297,1.445,0.869,0.365,1.711c-0.778,1.24-0.921,1.248-2.367,1.252c-0.542,0-1.073-0.131-1.608-0.18
					c-0.032-1.066-0.058-2.121-0.062-3.164c0.265,0.037,0.53,0.072,0.794,0.102C236.404,53.731,236.978,53.737,237.55,53.8z
					 M237.324,48.552c0.356,0.355,0.713,0.719,1.069,1.076c0.597,0.633,0.5,1.178-0.296,1.633c-0.765,0.887-1.355,0.914-2.48,1.043
					c-0.187,0.021-0.37,0.023-0.559,0.029c0.008-0.6,0.008-1.209,0.029-1.797c0.034-0.787,0.042-1.572,0.048-2.359
					c0.254-0.027,0.512-0.076,0.766-0.146C236.379,48.147,236.916,48.288,237.324,48.552z M238.362,44.213
					c1.722,1.167-0.745,1.998-1.876,2.585c-0.495,0.258-0.926,0.369-1.336,0.414c0-1.117-0.022-2.235-0.061-3.354
					C236.188,43.859,237.417,43.574,238.362,44.213z M236.567,39.074c1.423,0.544,2.121,1.943,0.575,2.938
					c-0.546,0.351-1.344,0.545-2.105,0.661c-0.056-1.411-0.133-2.821-0.217-4.228C235.357,38.721,235.986,38.85,236.567,39.074z
					 M236.857,33.781c1.24,0.693,3.351,3.017,0.758,3.258c-0.939,0.087-1.921,0.075-2.872,0.17c-0.09-1.406-0.18-2.809-0.262-4.215
					C235.325,33.034,236.146,33.387,236.857,33.781z M235.718,31.591c-0.397,0.19-0.841,0.319-1.291,0.438
					c-0.078-1.408-0.15-2.819-0.191-4.234c0.165,0.005,0.328-0.003,0.493-0.005c0.507,0.104,0.999,0.263,1.374,0.499
					C237.07,28.902,236.888,31.037,235.718,31.591z M236.928,26.073c-0.701,0.868-1.148,0.834-2.25,0.782
					c-0.16-0.008-0.314-0.039-0.47-0.062c-0.02-1.09-0.026-2.187-0.009-3.284c0-0.049,0-0.106,0.003-0.158
					C236.203,23.684,238.483,24.126,236.928,26.073z M235.154,19.318c0.631,0.059,3.694,0.312,2.646,1.554
					c-0.499,0.591-2.391,1.229-3.1,1.312c-0.15,0.017-0.3,0.014-0.445,0.012c0.058-0.924,0.135-1.932,0.215-2.979
					C234.848,19.288,235.218,19.323,235.154,19.318z M236.907,13.029c0.809,0.184,1.51,0.514,2.12,0.988
					c0.277,0.625,0.11,1.096-0.511,1.412c-0.794,1.004-2.492,2-3.962,2.543c0.094-1.502,0.107-3.035-0.023-4.502
					C235.262,13.283,236.212,12.992,236.907,13.029z M235.131,8.129c1.616-0.115,2.24,1.432,1.378,2.791
					c-0.467,0.735-1.319,1.11-2.09,1.561c-0.201-1.318-0.564-2.543-1.196-3.576C233.899,8.73,235.338,8.113,235.131,8.129z
					 M231.117,7.641c-0.232,0.072-0.521,0.123-0.797,0.172c0.099-0.295,0.174-0.609,0.21-0.918c0.7-1.078,1.913-2.049,2.376-0.771
					c0.244,0.666-0.036,1.237-0.461,1.765C232.1,7.622,231.523,7.512,231.117,7.641z M235.841,79.399
					c0.348,0.469,0.336,1.609-0.233,1.955c-0.843,0.502-2.023-0.266-2.746-0.74c-0.043-0.051-0.057-0.115-0.124-0.145
					c-0.078-0.031-0.157-0.066-0.239-0.102h-0.003c-0.112-0.074-0.217-0.15-0.335-0.227c0.945-0.424,1.449-1.012,1.839-2.113
					c0.026,0.004,0.061,0.012,0.091,0.016c0.322,0.23,0.631,0.479,0.912,0.693C235.273,78.946,235.647,79.136,235.841,79.399z
					 M238.574,77.214c-0.748,0.143-1.565,0.096-2.312,0.139c-0.582,0.037-1.202,0.084-1.772,0.002
					c-0.081-0.049-0.16-0.096-0.241-0.143c0.1-0.369,0.194-0.779,0.295-1.242c0.087-0.395,0.147-0.807,0.214-1.209
					c0.179,0.018,0.366,0.018,0.544,0.021c0.361,0.258,0.729,0.506,1.126,0.75C237.08,75.931,238.145,76.479,238.574,77.214z
					 M238.731,73.358c-0.969,0.816-2.435,0.811-3.825,0.57c0.184-1.213,0.307-2.461,0.376-3.727
					c0.197,0.012,0.398,0.023,0.591,0.047C236.907,70.376,240.797,71.614,238.731,73.358z M237.541,66.798
					c1.355,0.568,1.214,1.422-0.412,2.555c-0.186,0.074-0.405,0.105-0.643,0.121c-0.398-0.1-0.786-0.096-1.161-0.086
					c0.047-1.219,0.07-2.445,0.061-3.688c0.101-0.002,0.207,0.006,0.31,0.008c0.372,0.221,0.758,0.432,1.104,0.648
					C237.062,66.485,237.307,66.632,237.541,66.798z M238.605,64.228c-0.062,0.621-0.369,0.855-0.925,0.719
					c-0.797,0.082-1.585-0.232-2.303-0.221c-0.018-0.953-0.05-1.908-0.082-2.865c0.646,0.09,1.28-0.039,1.93,0.143
					c0.627,0.17,1.227,0.516,1.475,1.102C239.197,63.438,239.165,63.815,238.605,64.228z"/>
			</g>
		</g>
	</g>
	<g>
		<path fill="#CAC1B0" d="M142.117,32.596l-0.088,5.801l0.396,10.349l0.373,8.086c0,1.465-0.433,2.197-1.297,2.197
			c-0.498,0-0.864-0.234-1.098-0.703c-0.235-0.469-0.352-0.988-0.352-1.56l0.352-7.186c0-1.553-0.104-3.889-0.309-7.009
			c-0.205-3.12-0.307-5.457-0.307-7.009l0.065-3.933c0-2.153-0.14-3.552-0.417-4.197l-2.439,0.242c-0.381,0-0.722-0.113-1.021-0.34
			c-0.301-0.227-0.451-0.52-0.451-0.879s0.359-0.663,1.077-0.912c0.732-0.264,1.611-0.454,2.637-0.571
			c1.802-0.205,3.317-0.308,4.548-0.308c0.366,0,0.7,0.121,1,0.362c0.301,0.242,0.451,0.546,0.451,0.912s-0.133,0.656-0.396,0.868
			s-0.586,0.318-0.967,0.318l-1.604-0.088c-0.205,0-0.359,0.007-0.461,0.022C142.015,28.788,142.117,30.633,142.117,32.596z"/>
		<path fill="#CAC1B0" d="M154.288,27.037l-0.791-0.022c-0.293,0-0.509,0.062-0.647,0.187c-0.14,0.125-0.209,0.37-0.209,0.736
			c0,2.93,0.183,7.317,0.55,13.162c0.365,5.845,0.549,10.232,0.549,13.162v1.735c0.308-0.044,0.615-0.065,0.923-0.065
			c1.245,0,1.868,0.527,1.868,1.582v0.264l-1.121,0.769l-3.055,0.11c-2.592,0-3.889-0.447-3.889-1.341
			c0-0.718,0.454-1.076,1.362-1.076l0.944,0.065c0.439,0,0.66-0.352,0.66-1.055c0-2.314-0.14-5.782-0.418-10.404
			c-0.278-4.621-0.418-8.089-0.418-10.404l0.088-4.592c0-0.967-0.036-1.802-0.109-2.505c-0.396,0.132-0.747,0.198-1.055,0.198
			c-0.703,0-1.055-0.359-1.055-1.077c0-0.366,0.227-0.685,0.682-0.956c0.453-0.271,1.018-0.465,1.691-0.582
			c1.26-0.22,2.193-0.33,2.802-0.33c0.607,0,1.044,0.121,1.308,0.363c0.264,0.241,0.395,0.527,0.395,0.856
			c0,0.33-0.099,0.615-0.296,0.857C154.849,26.916,154.597,27.037,154.288,27.037z"/>
		<path fill="#CAC1B0" d="M160.856,57.447l0.22-16.062c0-7.061-0.389-12.415-1.164-16.062c0.468-0.674,1.047-1.011,1.735-1.011
			c1.113,0,2.128,0.249,3.043,0.747c0.916,0.498,1.659,1.157,2.23,1.978c1.187,1.714,1.78,3.669,1.78,5.867
			s-0.477,4.193-1.429,5.988s-2.351,3.189-4.196,4.186l0.352,14.019c0,1.245-0.499,1.868-1.494,1.868
			c-0.367,0-0.638-0.158-0.813-0.473S160.856,57.828,160.856,57.447z M162.966,40.902c2.285-2.139,3.428-4.68,3.428-7.625v-0.022
			c0-1.685-0.205-2.864-0.615-3.538c-0.205-0.322-0.37-0.575-0.494-0.758c-0.125-0.183-0.378-0.429-0.759-0.736
			c-0.454-0.366-1.149-0.886-2.087-1.56c0,1.582,0.088,3.955,0.264,7.119S162.966,39.32,162.966,40.902z"/>
		<path fill="#CAC1B0" d="M172.479,58.194c0-0.806,0.337-1.208,1.011-1.208c0.337,0,0.78,0.113,1.329,0.34
			c0.55,0.228,1.025,0.341,1.429,0.341c0.402,0,0.838-0.256,1.307-0.769s0.836-1.15,1.1-1.912c0.541-1.553,0.812-2.955,0.812-4.208
			c0-1.252-0.22-2.596-0.659-4.031c-0.439-1.436-0.975-2.784-1.604-4.043s-1.267-2.52-1.911-3.779
			c-1.523-3.003-2.278-5.742-2.263-8.218c-0.016-2.344,0.725-4.182,2.219-5.515c0.791-0.703,1.721-1.055,2.791-1.055
			c0.541,0,1.068,0.15,1.582,0.45c0.512,0.301,0.871,0.692,1.076,1.176l-0.77,0.967c-0.746,0-1.333-0.146-1.758-0.439
			c-0.557,0.059-1.04,0.322-1.449,0.791c-0.748,0.864-1.121,1.93-1.121,3.197s0.161,2.501,0.483,3.702s0.726,2.278,1.208,3.23
			c0.484,0.952,1.004,1.985,1.561,3.098c0.571,1.113,1.099,2.183,1.582,3.208c1.128,2.373,1.691,4.937,1.691,7.69
			c0.015,1.934-0.476,3.794-1.472,5.581c-0.469,0.85-1.113,1.549-1.934,2.099c-0.82,0.549-1.735,0.824-2.747,0.824
			c-1.084,0-1.937-0.161-2.56-0.483C172.79,58.905,172.479,58.561,172.479,58.194z"/>
	</g>
</g>
</svg>
