<?xml version="1.0" encoding="utf-8"?>
<!-- Generator: Adobe Illustrator 16.0.0, SVG Export Plug-In . SVG Version: 6.00 Build 0)  -->
<!DOCTYPE svg PUBLIC "-//W3C//DTD SVG 1.1//EN" "http://www.w3.org/Graphics/SVG/1.1/DTD/svg11.dtd">
<svg version="1.1" id="Layer_1" xmlns="http://www.w3.org/2000/svg" xmlns:xlink="http://www.w3.org/1999/xlink" x="0px" y="0px"
	 width="216.844px" height="186.4px" viewBox="0 0 216.844 186.4" style="enable-background:new 0 0 216.844 186.4;"
	 xml:space="preserve">
<style type="text/css">
<![CDATA[
	.st0{fill:#93D1B9;}
	.st1{fill:#FFFFFF;}
	.st2{fill:#67C6BE;}
	.st3{fill:#D9D0C7;}
]]>
</style>
<g>
	<path class="st1" d="M11.35,40.746v26.661l-0.36,0.226C10.878,67.701,0,74.719,0,93.2c0,18.536,10.878,25.499,10.988,25.566
		l0.361,0.226v26.663H23.9l-0.026,0.794c0,0.009-0.004,0.142-0.004,0.378c0,2.115,0.387,13.039,8.009,20.119
		c5.104,4.739,12.404,6.794,21.697,6.104l2.376-0.176c21.844-1.63,39.096-2.918,47.633,5.005c2.367,2.197,3.969,5.015,4.835,8.521
		c0.866-3.506,2.47-6.323,4.84-8.521c8.536-7.923,25.789-6.635,47.631-5.005l2.377,0.176c9.294,0.689,16.594-1.365,21.697-6.104
		c7.623-7.08,8.009-18.002,8.009-20.119c0-0.236-0.006-0.369-0.006-0.378l-0.03-0.794h12.557v-26.662l0.362-0.226
		c0.109-0.068,10.987-7.087,10.987-25.567c0-18.535-10.876-25.498-10.987-25.567l-0.362-0.224V40.746h-12.551l0.024-0.796
		c0-0.009,0.006-0.141,0.006-0.374c0-2.119-0.386-13.043-8.009-20.119c-5.104-4.74-12.403-6.796-21.697-6.106l-2.373,0.177
		c-21.846,1.63-39.099,2.919-47.635-5.009c-2.37-2.195-3.974-5.011-4.84-8.519c-0.866,3.508-2.468,6.323-4.835,8.519
		c-8.538,7.928-25.792,6.639-47.636,5.009l-2.374-0.177c-9.292-0.689-16.593,1.366-21.696,6.106c-7.623,7.077-8.01,18-8.01,20.119
		c0,0.235,0.004,0.365,0.004,0.374l0.032,0.796H11.35z"/>
	<g>
		<polygon class="st3" points="13.801,70.122 14.865,69.46 14.865,68.207 15.89,68.207 15.89,70.032 14.341,70.993 		"/>
		<path class="st3" d="M14.865,63.03v-3.106h1.024v3.106H14.865z M14.865,54.747V51.64h1.024v3.107H14.865z"/>
		<polygon class="st3" points="14.865,46.465 14.865,44.413 16.917,44.413 16.917,45.439 15.89,45.439 15.89,46.465 		"/>
		<rect x="20.644" y="44.413" class="st3" width="2.235" height="1.026"/>
		<polygon class="st3" points="26.609,45.439 26.609,44.413 27.614,44.413 27.575,43.408 28.602,43.37 28.681,45.439 		"/>
		<path class="st3" d="M27.478,38.052c0.071-1.061,0.201-2.144,0.392-3.222l1.009,0.18c-0.183,1.039-0.308,2.086-0.377,3.109
			L27.478,38.052z M29.284,29.618c0.397-1.042,0.857-2.037,1.367-2.959l0.898,0.499c-0.488,0.878-0.927,1.829-1.308,2.824
			L29.284,29.618z M33.926,22.317c0.101-0.101,0.205-0.199,0.312-0.297c0.688-0.641,1.444-1.232,2.245-1.758l0.562,0.856
			c-0.752,0.494-1.461,1.052-2.113,1.653c-0.098,0.093-0.195,0.185-0.29,0.277L33.926,22.317z M41.411,17.971
			c1-0.311,2.064-0.563,3.165-0.75l0.171,1.012c-1.056,0.18-2.075,0.421-3.031,0.717L41.411,17.971z M49.948,16.792h0.027
			c1.005,0,2.059,0.041,3.13,0.121l0.027,0.516l-0.039,0.512c-1.111-0.083-2.14-0.121-3.119-0.121L49.948,16.792z M58.391,18.335
			l0.076-1.023l3.176,0.23l-0.072,1.023L58.391,18.335z M66.876,18.917l0.062-1.021c1.072,0.062,2.132,0.123,3.178,0.174
			l-0.053,1.026C69.016,19.042,67.953,18.981,66.876,18.917z M75.383,19.302l0.026-1.025c1.076,0.026,2.136,0.044,3.175,0.049
			L78.58,19.35C77.531,19.347,76.465,19.33,75.383,19.302z M83.868,18.225c1.077-0.049,2.129-0.116,3.159-0.206l0.087,1.022
			c-1.043,0.09-2.11,0.16-3.201,0.208L83.868,18.225z M92.244,17.338c1.069-0.191,2.104-0.42,3.072-0.673l0.261,0.992
			c-0.995,0.26-2.054,0.493-3.151,0.691L92.244,17.338z M100.242,14.947c0.971-0.441,1.896-0.934,2.751-1.467l0.542,0.871
			c-0.894,0.556-1.857,1.071-2.868,1.528L100.242,14.947z"/>
		<path class="st3" d="M107.034,10.214c0.346-0.361,0.674-0.737,0.99-1.124l0.396-0.487l0.4,0.487
			c0.315,0.387,0.645,0.763,0.989,1.124l-0.741,0.706c-0.222-0.231-0.437-0.468-0.648-0.709c-0.208,0.241-0.424,0.478-0.645,0.709
			L107.034,10.214z"/>
		<path class="st3" d="M113.281,14.334l0.543-0.87c0.856,0.535,1.779,1.027,2.746,1.469l-0.424,0.934
			C115.139,15.408,114.174,14.893,113.281,14.334z M121.232,17.649l0.262-0.992c0.971,0.256,2.006,0.481,3.07,0.676l-0.184,1.01
			C123.291,18.144,122.231,17.909,121.232,17.649z M129.693,19.038l0.086-1.021c1.029,0.088,2.084,0.156,3.16,0.205l-0.049,1.026
			C131.801,19.197,130.734,19.129,129.693,19.038z M138.221,18.325c1.039-0.005,2.099-0.021,3.174-0.049l0.025,1.025
			c-1.083,0.029-2.147,0.045-3.193,0.048L138.221,18.325z M146.688,18.073c1.045-0.053,2.104-0.113,3.176-0.177l0.062,1.023
			c-1.076,0.063-2.14,0.123-3.186,0.177L146.688,18.073z M155.158,17.545l3.175-0.23l0.075,1.022l-3.178,0.23L155.158,17.545z
			 M163.629,16.92l0.109-0.007c1.066-0.079,2.113-0.12,3.11-0.121v1.027c-0.973,0-1.993,0.038-3.035,0.116l-0.111,0.009
			L163.629,16.92z M172.052,18.225l0.169-1.011c1.104,0.185,2.169,0.436,3.164,0.742l-0.303,0.979
			C174.132,18.643,173.111,18.402,172.052,18.225z M179.757,21.093l0.563-0.859c0.812,0.532,1.583,1.135,2.287,1.787l0.272,0.258
			l-0.712,0.738l-0.258-0.245C181.247,22.157,180.524,21.593,179.757,21.093z M185.271,27.115l0.896-0.499
			c0.514,0.921,0.976,1.914,1.374,2.952l-0.958,0.367C186.202,28.942,185.759,27.992,185.271,27.115z M187.956,34.958l1.012-0.179
			c0.188,1.072,0.323,2.185,0.395,3.222l-1.023,0.068C188.29,37.371,188.187,36.266,187.956,34.958z"/>
		<polygon class="st3" points="188.207,45.415 188.271,43.35 189.297,43.381 189.267,44.394 190.278,44.396 190.272,45.424 		"/>
		<polygon class="st3" points="193.99,44.413 196.215,44.413 196.215,45.439 194.023,45.439 		"/>
		<polygon class="st3" points="199.928,45.439 199.928,44.413 201.979,44.413 201.979,46.465 200.952,46.465 200.952,45.439 		"/>
		<path class="st3" d="M200.952,63.03v-3.106h1.027v3.106H200.952z M200.952,54.747V51.64h1.027v3.107H200.952z"/>
		<polygon class="st3" points="200.952,70.032 200.952,68.206 201.979,68.206 201.979,69.46 203.045,70.121 202.503,70.992 		"/>
		<path class="st3" d="M206.109,112.368c0.607-0.705,1.186-1.471,1.717-2.284l0.856,0.563c-0.557,0.85-1.161,1.654-1.8,2.392
			L206.109,112.368z M206.109,74.003l0.773-0.673c0.639,0.731,1.247,1.534,1.809,2.387l-0.856,0.563
			C207.3,75.468,206.719,74.701,206.109,74.003z M210.039,105.858c0.359-0.873,0.68-1.784,0.951-2.71l0.984,0.291
			c-0.283,0.957-0.615,1.903-0.984,2.807L210.039,105.858z M210.047,80.506l0.951-0.39c0.368,0.902,0.701,1.848,0.981,2.809
			l-0.983,0.291C210.723,82.288,210.404,81.375,210.047,80.506z M211.991,98.459c0.129-0.93,0.223-1.895,0.283-2.87l1.02,0.062
			c-0.056,0.999-0.153,1.992-0.287,2.948L211.991,98.459z M211.993,87.905l1.014-0.139c0.134,0.956,0.231,1.947,0.287,2.95
			l-1.023,0.061C212.214,89.802,212.12,88.836,211.993,87.905z"/>
		<polygon class="st3" points="200.952,118.191 200.952,116.369 202.503,115.408 203.045,116.278 201.979,116.938 201.979,118.191 
					"/>
		<path class="st3" d="M200.952,134.759v-3.106h1.027v3.106H200.952z M200.952,126.477v-3.107h1.027v3.107H200.952z"/>
		<polygon class="st3" points="199.928,141.987 199.928,140.962 200.952,140.962 200.952,139.938 201.979,139.938 201.979,141.987 
					"/>
		<rect x="193.964" y="140.962" class="st3" width="2.235" height="1.025"/>
		<polygon class="st3" points="188.162,140.962 190.232,140.962 190.232,141.987 189.229,141.987 189.267,142.991 188.243,143.031 
					"/>
		<path class="st3" d="M113.309,172.048c0.895-0.554,1.858-1.071,2.868-1.528l0.423,0.934c-0.967,0.44-1.892,0.934-2.75,1.467
			L113.309,172.048z M121.268,168.742c0.997-0.261,2.056-0.492,3.148-0.69l0.184,1.008c-1.067,0.196-2.102,0.422-3.072,0.674
			L121.268,168.742z M129.729,167.36c1.043-0.091,2.109-0.158,3.2-0.208l0.046,1.024c-1.076,0.05-2.129,0.117-3.158,0.206
			L129.729,167.36z M138.26,168.077l0.004-1.026c1.049,0.004,2.115,0.022,3.197,0.049l-0.025,1.025
			C140.36,168.099,139.301,168.081,138.26,168.077z M146.727,168.33l0.053-1.023c1.049,0.052,2.111,0.113,3.188,0.177l-0.062,1.024
			C148.832,168.442,147.771,168.383,146.727,168.33z M155.199,168.859l0.074-1.024l3.179,0.231l-0.075,1.024L155.199,168.859z
			 M163.709,168.972l0.041-0.512c1.102,0.083,2.128,0.123,3.119,0.123l0.026,1.026h-0.026c-1.018,0-2.071-0.04-3.131-0.12
			L163.709,168.972z M172.097,168.169c1.054-0.179,2.072-0.418,3.031-0.718l0.303,0.98c-1,0.311-2.064,0.562-3.163,0.749
			L172.097,168.169z M179.797,165.283c0.756-0.498,1.464-1.054,2.113-1.654c0.099-0.093,0.196-0.183,0.292-0.275l0.715,0.731
			c-0.101,0.099-0.204,0.197-0.311,0.297c-0.688,0.638-1.443,1.229-2.243,1.757L179.797,165.283z M185.295,159.243
			c0.486-0.88,0.928-1.83,1.308-2.824l0.956,0.364c-0.397,1.041-0.856,2.036-1.366,2.957L185.295,159.243z M187.965,151.395
			c0.183-1.042,0.308-2.09,0.378-3.11l1.022,0.066c-0.068,1.058-0.2,2.141-0.39,3.218L187.965,151.395z"/>
		<path class="st3" d="M107.034,176.187l0.741-0.707c0.221,0.231,0.438,0.468,0.645,0.71c0.211-0.242,0.426-0.479,0.648-0.71
			l0.741,0.707c-0.344,0.363-0.673,0.738-0.989,1.124l-0.4,0.488l-0.396-0.488C107.708,176.925,107.379,176.55,107.034,176.187z"/>
		<path class="st3" d="M27.481,148.4l1.022-0.068c0.048,0.696,0.151,1.802,0.383,3.109l-1.009,0.179
			C27.687,150.55,27.551,149.436,27.481,148.4z M29.302,156.833l0.957-0.368c0.381,0.996,0.826,1.944,1.313,2.821l-0.895,0.498
			C30.166,158.867,29.702,157.873,29.302,156.833z M33.963,164.121l0.712-0.735l0.256,0.242c0.663,0.615,1.388,1.182,2.153,1.68
			l-0.561,0.858c-0.815-0.531-1.584-1.131-2.288-1.787L33.963,164.121z M41.458,168.445l0.301-0.979
			c0.955,0.293,1.976,0.533,3.034,0.711l-0.17,1.012C43.522,169.002,42.458,168.753,41.458,168.445z M49.995,168.581
			c0.979,0,2-0.04,3.036-0.117l0.108-0.007l0.075,1.023l-0.111,0.009c-1.057,0.077-2.105,0.118-3.108,0.12V168.581z M58.434,168.062
			l3.181-0.229l0.071,1.024l-3.175,0.229L58.434,168.062z M66.917,167.481c1.076-0.065,2.139-0.124,3.185-0.178l0.052,1.024
			c-1.043,0.054-2.103,0.111-3.174,0.177L66.917,167.481z M75.423,167.099c1.084-0.028,2.147-0.044,3.195-0.049l0.005,1.027
			c-1.04,0.004-2.1,0.019-3.175,0.046L75.423,167.099z M83.905,168.179l0.046-1.023c1.09,0.049,2.157,0.115,3.2,0.208l-0.088,1.021
			C86.034,168.296,84.982,168.227,83.905,168.179z M92.28,169.066l0.181-1.008c1.091,0.197,2.15,0.431,3.15,0.692l-0.261,0.992
			C94.377,169.488,93.344,169.261,92.28,169.066z M100.272,171.469l0.424-0.935c1.008,0.46,1.972,0.975,2.865,1.532l-0.542,0.869
			C102.165,172.402,101.24,171.908,100.272,171.469z"/>
		<polygon class="st3" points="26.566,142.004 26.57,140.978 28.635,140.986 28.573,143.051 27.546,143.019 27.579,142.008 		"/>
		<polygon class="st3" points="20.628,141.987 20.628,140.962 22.818,140.962 22.857,141.987 		"/>
		<polygon class="st3" points="14.865,141.987 14.865,139.938 15.89,139.938 15.89,140.962 16.917,140.962 16.917,141.987 		"/>
		<path class="st3" d="M14.865,134.759v-3.106h1.024v3.106H14.865z M14.865,126.478v-3.108h1.024v3.108H14.865z"/>
		<polygon class="st3" points="13.801,116.278 14.341,115.408 15.89,116.369 15.89,118.191 14.865,118.191 14.865,116.938 		"/>
		<path class="st3" d="M3.547,90.75c0.059-0.994,0.155-1.985,0.289-2.951l1.015,0.141c-0.129,0.938-0.222,1.904-0.28,2.87
			L3.547,90.75z M3.548,95.682l1.023-0.061c0.059,0.977,0.153,1.943,0.28,2.872l-1.015,0.14C3.705,97.678,3.607,96.685,3.548,95.682
			z M4.863,103.474l0.984-0.291c0.274,0.937,0.593,1.849,0.948,2.713l-0.949,0.389C5.479,105.386,5.147,104.441,4.863,103.474z
			 M4.869,82.96c0.287-0.964,0.618-1.909,0.985-2.809l0.949,0.39c-0.354,0.866-0.675,1.778-0.949,2.71L4.869,82.96z M8.152,110.685
			l0.857-0.565c0.537,0.815,1.117,1.581,1.725,2.276L9.96,113.07C9.323,112.34,8.715,111.536,8.152,110.685z M8.162,75.751
			c0.56-0.853,1.165-1.656,1.799-2.391l0.776,0.671c-0.605,0.699-1.184,1.469-1.718,2.282L8.162,75.751z"/>
	</g>
	<g>
		<g>
			<path class="st2" d="M68.768,47.789c-4.049,29.484-8.388,59.096-16.777,87.727l9.497-4.145l6.994,7.579
				c0.203-0.006,0.335-0.047,0.352-0.105c8.518-28.832,12.875-58.665,16.972-88.371C85.838,50.233,68.785,47.771,68.768,47.789z"/>
		</g>
		<g>
			<path class="st0" d="M133.576,51.996c6.219,27.492,12.219,55.185,14.089,83.378l7.507-6.908l9.145,4.319
				c0.173-0.08,0.295-0.158,0.279-0.221c-1.809-28.434-7.86-56.329-14.128-84.034C150.421,48.312,133.574,51.976,133.576,51.996z"/>
		</g>
		<g>
			<g>
				<path class="st0" d="M68.896,47.789c7.253,10.409,12.093,21.268,16.426,32.189c2.175,5.47,4.185,10.951,6.456,16.397
					c2.25,5.369,3.812,11.557,7.624,16.64c0.209,0.294,9.15-1.154,9.808-1.201c0.585-0.022,9.13-0.663,9.263-0.486l0,0
					c-3.81-5.071-5.934-10.468-8.154-15.842c-2.269-5.452-4.311-10.94-6.469-16.398c-4.316-10.923-9.176-21.779-16.429-32.186"/>
			</g>
		</g>
		<g>
			<g>
				<path class="st2" d="M99.402,113.016c3.956-5.164,6.235-10.609,8.62-16.027c2.423-5.497,4.606-11.033,6.929-16.553
					c4.643-11.008,9.819-21.986,17.367-32.564c0.182-0.273,8.627,0.175,9.266,0.196c0.567,0.018,9.13,0.452,9.245,0.286
					c-7.542,10.572-12.71,21.549-17.37,32.571c-2.328,5.513-4.498,11.038-6.927,16.547c-2.397,5.412-4.658,10.85-8.612,16.032
					c-0.227,0.283-8.614-0.181-9.268-0.194C108.066,113.289,99.533,112.838,99.402,113.016L99.402,113.016z"/>
			</g>
		</g>
	</g>
</g>
</svg>
