<?xml version="1.0" encoding="utf-8"?>
<!-- Generator: Adobe Illustrator 16.0.0, SVG Export Plug-In . SVG Version: 6.00 Build 0)  -->
<!DOCTYPE svg PUBLIC "-//W3C//DTD SVG 1.1//EN" "http://www.w3.org/Graphics/SVG/1.1/DTD/svg11.dtd">
<svg version="1.1" id="Layer_1" xmlns="http://www.w3.org/2000/svg" xmlns:xlink="http://www.w3.org/1999/xlink" x="0px" y="0px"
	 width="212.795px" height="182.92px" viewBox="0 0 212.795 182.92" style="enable-background:new 0 0 212.795 182.92;"
	 xml:space="preserve">
<style type="text/css">
<![CDATA[
	.st0{fill:#93D1B9;}
	.st1{fill:#FFFFFF;}
	.st2{fill:#67C6BE;}
	.st3{fill:#D9D0C7;}
]]>
</style>
<path class="st1" d="M11.138,39.985v26.164l-0.354,0.221C10.676,66.436,0,73.324,0,91.46c0,18.19,10.675,25.022,10.783,25.088
	l0.355,0.222v26.164h12.316l-0.025,0.781c0,0.008-0.005,0.139-0.005,0.368c0,2.079,0.38,12.799,7.86,19.746
	c5.009,4.651,12.172,6.665,21.292,5.989l2.332-0.172c21.435-1.6,38.366-2.863,46.743,4.914c2.322,2.153,3.896,4.918,4.746,8.359
	c0.85-3.441,2.423-6.206,4.747-8.359c8.378-7.777,25.309-6.514,46.743-4.914l2.332,0.172c9.119,0.676,16.284-1.338,21.292-5.989
	c7.48-6.947,7.86-17.666,7.86-19.745c0-0.23-0.007-0.361-0.007-0.369l-0.029-0.781h12.323v-26.162l0.354-0.223
	c0.108-0.066,10.783-6.953,10.783-25.089c0-18.19-10.674-25.023-10.781-25.09l-0.355-0.219V39.985h-12.317l0.023-0.781
	c0-0.009,0.007-0.137,0.007-0.368c0-2.078-0.38-12.798-7.86-19.743c-5.008-4.652-12.173-6.668-21.292-5.992l-2.328,0.173
	c-21.438,1.6-38.369,2.864-46.747-4.914c-2.324-2.155-3.897-4.917-4.747-8.36c-0.85,3.443-2.424,6.205-4.746,8.36
	c-8.378,7.778-25.309,6.514-46.746,4.914l-2.329-0.173c-9.12-0.676-16.283,1.34-21.291,5.992
	c-7.481,6.946-7.861,17.665-7.861,19.743c0,0.232,0.005,0.359,0.005,0.368l0.031,0.781H11.138z"/>
<g>
	<polygon class="st3" points="13.543,68.812 14.587,68.163 14.587,66.934 15.594,66.934 15.594,68.724 14.073,69.666 	"/>
	<path class="st3" d="M14.588,58.804h1.006v3.049h-1.006V58.804z M14.588,50.676h1.006v3.049h-1.006V50.676z"/>
	<polygon class="st3" points="14.588,45.597 14.588,43.583 16.601,43.583 16.601,44.591 15.594,44.591 15.594,45.597 	"/>
	<rect x="20.26" y="43.583" class="st3" width="2.194" height="1.007"/>
	<polygon class="st3" points="26.112,44.59 26.112,43.583 27.099,43.583 27.062,42.597 28.068,42.56 28.146,44.59 	"/>
	<path class="st3" d="M26.966,37.34c0.069-1.039,0.197-2.104,0.384-3.161l0.99,0.176c-0.18,1.021-0.303,2.047-0.37,3.052
		L26.966,37.34z M28.739,29.064c0.389-1.021,0.84-1.999,1.341-2.903l0.881,0.489c-0.478,0.862-0.909,1.795-1.282,2.772
		L28.739,29.064z M33.293,21.899c0.099-0.098,0.201-0.194,0.306-0.291c0.676-0.627,1.417-1.208,2.203-1.724l0.552,0.84
		c-0.739,0.486-1.435,1.032-2.073,1.624c-0.097,0.09-0.192,0.18-0.286,0.271L33.293,21.899z M40.639,17.634
		c0.981-0.304,2.025-0.551,3.106-0.735l0.168,0.993c-1.037,0.176-2.038,0.413-2.975,0.703L40.639,17.634z M49.017,16.479h0.025
		c0.987,0,2.021,0.04,3.073,0.117l0.027,0.507l-0.039,0.502c-1.091-0.081-2.099-0.119-3.061-0.119L49.017,16.479z M57.302,17.991
		l0.074-1.003l3.117,0.226l-0.071,1.004L57.302,17.991z M65.627,18.564l0.062-1.004c1.052,0.062,2.091,0.121,3.118,0.172
		l-0.052,1.006C67.728,18.686,66.685,18.626,65.627,18.564 M73.976,18.941l0.026-1.006c1.055,0.026,2.095,0.043,3.115,0.047
		l-0.004,1.006C76.084,18.985,75.039,18.968,73.976,18.941 M82.303,17.884c1.057-0.048,2.089-0.114,3.099-0.202l0.086,1.003
		c-1.023,0.088-2.07,0.156-3.14,0.204L82.303,17.884z M90.521,17.015c1.049-0.19,2.065-0.413,3.015-0.662l0.256,0.974
		c-0.976,0.256-2.016,0.484-3.091,0.679L90.521,17.015z M98.371,14.668c0.952-0.433,1.86-0.917,2.699-1.439l0.531,0.855
		c-0.875,0.544-1.822,1.05-2.814,1.5L98.371,14.668z"/>
	<path class="st3" d="M105.036,10.021c0.338-0.354,0.662-0.722,0.971-1.102l0.39-0.479l0.392,0.479
		c0.31,0.38,0.633,0.748,0.971,1.102l-0.729,0.695c-0.217-0.228-0.428-0.46-0.634-0.697c-0.205,0.237-0.417,0.469-0.634,0.697
		L105.036,10.021z"/>
	<path class="st3" d="M111.167,14.066l0.532-0.854c0.841,0.524,1.746,1.009,2.695,1.442l-0.416,0.916
		C112.99,15.119,112.042,14.615,111.167,14.066 M118.968,17.319l0.257-0.974c0.954,0.251,1.969,0.473,3.015,0.664L122.059,18
		C120.989,17.805,119.95,17.575,118.968,17.319 M127.271,18.681l0.086-1.002c1.01,0.087,2.044,0.154,3.101,0.202l-0.048,1.007
		C129.34,18.838,128.294,18.77,127.271,18.681 M135.64,17.982c1.02-0.005,2.06-0.02,3.114-0.048l0.025,1.007
		c-1.062,0.028-2.107,0.044-3.135,0.047L135.64,17.982z M143.95,17.734c1.024-0.051,2.063-0.11,3.116-0.173l0.061,1.005
		c-1.056,0.063-2.099,0.121-3.125,0.174L143.95,17.734z M152.26,17.217l3.117-0.226l0.075,1.002l-3.121,0.227L152.26,17.217z
		 M160.574,16.604l0.108-0.008c1.046-0.077,2.072-0.116,3.052-0.117v1.007c-0.955,0-1.956,0.038-2.979,0.114l-0.108,0.009
		L160.574,16.604z M168.838,17.884l0.167-0.993c1.084,0.183,2.128,0.428,3.105,0.729l-0.296,0.961
		C170.88,18.293,169.878,18.058,168.838,17.884 M176.402,20.699l0.551-0.844c0.799,0.522,1.555,1.113,2.246,1.753l0.268,0.254
		l-0.7,0.724l-0.253-0.24C177.865,21.744,177.154,21.189,176.402,20.699 M181.812,26.607l0.879-0.489
		c0.504,0.904,0.958,1.879,1.349,2.897l-0.94,0.361C182.726,28.401,182.292,27.47,181.812,26.607 M184.447,34.305l0.992-0.175
		c0.185,1.052,0.318,2.144,0.388,3.16l-1.005,0.068C184.776,36.674,184.673,35.589,184.447,34.305"/>
	<polygon class="st3" points="184.694,44.566 184.755,42.54 185.762,42.57 185.732,43.563 186.725,43.567 186.72,44.575 	"/>
	<polygon class="st3" points="190.366,43.583 192.551,43.583 192.551,44.59 190.403,44.59 	"/>
	<polygon class="st3" points="196.195,44.59 196.195,43.583 198.208,43.583 198.208,45.596 197.202,45.596 197.202,44.59 	"/>
	<path class="st3" d="M197.202,58.804h1.008v3.049h-1.008V58.804z M197.202,50.676h1.008v3.049h-1.008V50.676z"/>
	<polygon class="st3" points="197.202,68.723 197.202,66.932 198.208,66.932 198.208,68.162 199.253,68.81 198.722,69.665 	"/>
	<path class="st3" d="M202.26,110.27c0.596-0.691,1.163-1.444,1.687-2.24l0.841,0.553c-0.547,0.832-1.141,1.622-1.766,2.346
		L202.26,110.27z M202.261,72.621l0.76-0.661c0.626,0.718,1.224,1.507,1.773,2.342l-0.84,0.553
		C203.429,74.058,202.859,73.306,202.261,72.621 M206.119,103.883c0.351-0.857,0.665-1.752,0.933-2.661l0.966,0.285
		c-0.278,0.94-0.604,1.868-0.967,2.756L206.119,103.883z M206.126,79.001l0.932-0.382c0.362,0.886,0.688,1.814,0.964,2.758
		l-0.966,0.284C206.79,80.751,206.476,79.855,206.126,79.001 M208.034,96.62c0.126-0.911,0.219-1.859,0.275-2.816l1.004,0.06
		c-0.057,0.982-0.153,1.957-0.282,2.895L208.034,96.62z M208.035,86.263l0.996-0.135c0.129,0.937,0.225,1.91,0.282,2.895
		l-1.004,0.06C208.251,88.125,208.16,87.176,208.035,86.263"/>
	<polygon class="st3" points="197.202,115.985 197.202,114.195 198.722,113.252 199.253,114.107 198.208,114.756 198.208,115.985 	
		"/>
	<path class="st3" d="M197.202,129.193h1.008v3.049h-1.008V129.193z M197.202,121.066h1.008v3.047h-1.008V121.066z"/>
	<polygon class="st3" points="196.195,139.336 196.195,138.33 197.202,138.33 197.202,137.322 198.208,137.322 198.208,139.336 	"/>
	<rect x="190.341" y="138.33" class="st3" width="2.193" height="1.006"/>
	<polygon class="st3" points="184.649,138.33 186.682,138.33 186.682,139.336 185.695,139.336 185.733,140.322 184.727,140.361 	"/>
	<path class="st3" d="M111.193,168.836c0.878-0.546,1.824-1.051,2.814-1.5l0.416,0.916c-0.949,0.432-1.857,0.916-2.699,1.439
		L111.193,168.836z M119.003,165.591c0.979-0.255,2.018-0.483,3.091-0.678l0.18,0.991c-1.048,0.189-2.063,0.412-3.017,0.66
		L119.003,165.591z M127.307,164.234c1.023-0.088,2.069-0.154,3.14-0.203l0.046,1.005c-1.058,0.048-2.091,0.114-3.1,0.202
		L127.307,164.234z M135.679,164.939l0.004-1.008c1.028,0.004,2.074,0.021,3.138,0.049l-0.025,1.006
		C137.74,164.96,136.701,164.943,135.679,164.939 M143.988,165.188l0.052-1.006c1.029,0.053,2.071,0.111,3.128,0.176l-0.062,1.004
		C146.054,165.297,145.013,165.238,143.988,165.188 M152.302,165.706l0.072-1.005l3.12,0.227l-0.075,1.006L152.302,165.706z
		 M160.655,165.816l0.038-0.502c1.08,0.082,2.088,0.121,3.061,0.121l0.025,1.006h-0.025c-0.998,0-2.032-0.041-3.072-0.119
		L160.655,165.816z M168.883,165.027c1.034-0.174,2.035-0.41,2.975-0.703l0.299,0.963c-0.983,0.304-2.028,0.551-3.105,0.734
		L168.883,165.027z M176.441,162.195c0.74-0.486,1.437-1.032,2.073-1.623c0.097-0.09,0.191-0.18,0.285-0.27l0.703,0.719
		c-0.099,0.098-0.201,0.193-0.306,0.291c-0.676,0.625-1.416,1.207-2.201,1.725L176.441,162.195z M181.834,156.27
		c0.479-0.863,0.911-1.795,1.283-2.771l0.939,0.357c-0.39,1.021-0.841,1.998-1.341,2.901L181.834,156.27z M184.457,148.566
		c0.179-1.022,0.302-2.049,0.369-3.053l1.004,0.066c-0.068,1.039-0.196,2.102-0.384,3.158L184.457,148.566z"/>
	<path class="st3" d="M105.036,172.896l0.727-0.693c0.217,0.227,0.429,0.459,0.634,0.697c0.206-0.238,0.417-0.471,0.634-0.697
		l0.729,0.693c-0.338,0.356-0.661,0.724-0.971,1.104l-0.392,0.479l-0.39-0.479C105.698,173.62,105.374,173.253,105.036,172.896"/>
	<path class="st3" d="M26.968,145.629l1.004-0.068c0.047,0.686,0.149,1.77,0.375,3.053l-0.991,0.175
		C27.17,147.738,27.038,146.645,26.968,145.629 M28.755,153.904l0.939-0.362c0.376,0.978,0.811,1.91,1.289,2.769l-0.878,0.49
		C29.603,155.9,29.148,154.926,28.755,153.904 M33.33,161.057l0.699-0.724l0.252,0.239c0.651,0.604,1.361,1.158,2.113,1.648
		l-0.551,0.842c-0.798-0.521-1.554-1.11-2.244-1.752L33.33,161.057z M40.686,165.301l0.295-0.961
		c0.938,0.287,1.939,0.522,2.977,0.696l-0.167,0.992C42.71,165.848,41.666,165.602,40.686,165.301 M49.062,165.434
		c0.96,0,1.963-0.039,2.978-0.114l0.107-0.009l0.074,1.004l-0.108,0.009c-1.038,0.077-2.066,0.116-3.05,0.116L49.062,165.434z
		 M57.343,164.926l3.121-0.227l0.071,1.004l-3.117,0.227L57.343,164.926z M65.668,164.354c1.056-0.063,2.098-0.121,3.126-0.174
		l0.052,1.004c-1.024,0.054-2.064,0.111-3.117,0.174L65.668,164.354z M74.015,163.979c1.063-0.027,2.108-0.043,3.136-0.047
		l0.004,1.006c-1.02,0.004-2.059,0.02-3.114,0.047L74.015,163.979z M82.339,165.038l0.045-1.004c1.069,0.047,2.116,0.114,3.14,0.203
		l-0.086,1.003C84.428,165.153,83.396,165.086,82.339,165.038 M90.557,165.91l0.177-0.99c1.072,0.194,2.111,0.422,3.092,0.68
		l-0.257,0.974C92.615,166.323,91.601,166.1,90.557,165.91 M98.401,168.266l0.416-0.916c0.989,0.451,1.935,0.957,2.812,1.504
		l-0.532,0.853C100.257,169.184,99.35,168.699,98.401,168.266"/>
	<polygon class="st3" points="26.071,139.352 26.074,138.346 28.101,138.354 28.039,140.379 27.033,140.348 27.064,139.355 	"/>
	<polygon class="st3" points="20.245,139.336 20.245,138.33 22.393,138.33 22.432,139.336 	"/>
	<polygon class="st3" points="14.588,139.336 14.588,137.322 15.594,137.322 15.594,138.33 16.601,138.33 16.601,139.336 	"/>
	<path class="st3" d="M14.588,129.195h1.006v3.047h-1.006V129.195z M14.588,121.066h1.006v3.049h-1.006V121.066z"/>
	<polygon class="st3" points="13.543,114.107 14.073,113.252 15.594,114.195 15.594,115.984 14.587,115.984 14.587,114.755 	"/>
	<path class="st3" d="M3.482,89.056c0.057-0.975,0.152-1.948,0.282-2.896l0.996,0.138c-0.126,0.921-0.218,1.869-0.274,2.816
		L3.482,89.056z M3.483,93.896l1.004-0.059c0.057,0.957,0.149,1.906,0.273,2.818l-0.996,0.136
		C3.636,95.854,3.54,94.879,3.483,93.896 M4.773,101.542l0.965-0.285c0.27,0.917,0.583,1.813,0.931,2.662l-0.931,0.381
		C5.378,103.418,5.051,102.492,4.773,101.542 M4.78,81.411c0.279-0.946,0.605-1.874,0.966-2.756l0.932,0.382
		c-0.348,0.85-0.663,1.745-0.933,2.659L4.78,81.411z M8,108.617l0.842-0.554c0.525,0.799,1.095,1.552,1.691,2.233l-0.758,0.662
		C9.15,110.242,8.551,109.453,8,108.617 M8.009,74.336c0.55-0.836,1.144-1.626,1.767-2.346l0.76,0.659
		c-0.593,0.685-1.161,1.439-1.685,2.239L8.009,74.336z"/>
</g>
<g>
	<path class="st2" d="M63.514,42.488c-4.392,31.99-9.1,64.118-18.202,95.181l10.305-4.499l7.586,8.222
		c0.22-0.005,0.365-0.048,0.383-0.109C72.827,110,77.553,77.63,82,45.402C82.034,45.141,63.53,42.469,63.514,42.488"/>
	<path class="st0" d="M133.827,47.053c6.749,29.827,13.258,59.874,15.288,90.46l8.145-7.493l9.921,4.685
		c0.187-0.087,0.319-0.17,0.301-0.238c-1.962-30.85-8.527-61.116-15.326-91.174C152.102,43.057,133.825,47.03,133.827,47.053"/>
	<path class="st0" d="M63.653,42.488c7.869,11.295,13.12,23.076,17.821,34.925c2.361,5.933,4.543,11.882,7.005,17.79
		c2.44,5.826,4.135,12.537,8.27,18.055c0.229,0.317,9.93-1.254,10.644-1.304c0.634-0.026,9.903-0.723,10.05-0.528
		c-4.136-5.503-6.439-11.356-8.851-17.187c-2.46-5.916-4.675-11.872-7.019-17.792c-4.682-11.85-9.955-23.629-17.821-34.919"/>
	<path class="st2" d="M96.75,113.258c4.291-5.604,6.766-11.511,9.352-17.393c2.631-5.961,5-11.969,7.516-17.957
		c5.039-11.944,10.655-23.854,18.845-35.331c0.199-0.298,9.359,0.188,10.054,0.212c0.614,0.018,9.902,0.491,10.028,0.311
		c-8.181,11.471-13.79,23.379-18.847,35.339c-2.523,5.979-4.88,11.973-7.514,17.951c-2.601,5.872-5.054,11.771-9.343,17.395
		c-0.249,0.304-9.348-0.196-10.055-0.21C106.149,113.552,96.893,113.063,96.75,113.258"/>
</g>
</svg>
