<?xml version="1.0" encoding="utf-8"?>
<!-- Generator: Adobe Illustrator 16.0.0, SVG Export Plug-In . SVG Version: 6.00 Build 0)  -->
<!DOCTYPE svg PUBLIC "-//W3C//DTD SVG 1.1//EN" "http://www.w3.org/Graphics/SVG/1.1/DTD/svg11.dtd">
<svg version="1.1" id="Layer_1" xmlns="http://www.w3.org/2000/svg" xmlns:xlink="http://www.w3.org/1999/xlink" x="0px" y="0px"
	 width="53.37px" height="53.37px" viewBox="0 0 53.37 53.37" enable-background="new 0 0 53.37 53.37" xml:space="preserve">
<g>
	<path fill="none" d="M49.367,26.685c0-2.211,1.793-4.004,4.004-4.004V4.001c-2.211,0-4.004-1.792-4.004-4.004H30.688
		c0,2.212-1.793,4.004-4.003,4.004c-2.213,0-4.004-1.792-4.004-4.004H4.001c0,2.212-1.794,4.004-4.002,4.004v18.68
		c2.208,0,4.002,1.793,4.002,4.004c0,2.213-1.794,4.004-4.002,4.004v18.682c2.208,0,4.002,1.793,4.002,4.002h18.681
		c0-2.209,1.791-4.002,4.004-4.002c2.21,0,4.003,1.793,4.003,4.002h18.679c0-2.209,1.793-4.002,4.004-4.002V30.689
		C51.16,30.689,49.367,28.898,49.367,26.685z M13.343,44.033c-2.213,0-4.006-1.791-4.006-4.004c0-2.211,1.793-4.002,4.006-4.002
		c2.209,0,4.002,1.791,4.002,4.002C17.345,42.242,15.552,44.033,13.343,44.033z M13.343,17.345c-2.213,0-4.006-1.791-4.006-4.004
		c0-2.209,1.793-4.004,4.006-4.004c2.209,0,4.002,1.795,4.002,4.004C17.345,15.554,15.552,17.345,13.343,17.345z M26.686,30.689
		c-2.213,0-4.004-1.791-4.004-4.004c0-2.211,1.791-4.004,4.004-4.004c2.21,0,4.003,1.793,4.003,4.004
		C30.688,28.898,28.896,30.689,26.686,30.689z M40.025,44.033c-2.209,0-4.002-1.791-4.002-4.004c0-2.211,1.793-4.002,4.002-4.002
		c2.213,0,4.006,1.791,4.006,4.002C44.031,42.242,42.238,44.033,40.025,44.033z M40.025,17.345c-2.209,0-4.002-1.791-4.002-4.004
		c0-2.209,1.793-4.004,4.002-4.004c2.213,0,4.006,1.795,4.006,4.004C44.031,15.554,42.238,17.345,40.025,17.345z"/>
	<path fill="#FFFFFF" d="M-0.001,49.371v4.002h4.002C4.001,51.164,2.207,49.371-0.001,49.371z"/>
	<path fill="#FFFFFF" d="M26.686,49.371c-2.213,0-4.004,1.793-4.004,4.002h8.007C30.688,51.164,28.896,49.371,26.686,49.371z"/>
	<path fill="#FFFFFF" d="M49.367,53.373h4.004v-4.002C51.16,49.371,49.367,51.164,49.367,53.373z"/>
	<path fill="#FFFFFF" d="M4.001,26.685c0-2.211-1.794-4.004-4.002-4.004v8.008C2.207,30.689,4.001,28.898,4.001,26.685z"/>
	<circle fill="#FFFFFF" cx="26.686" cy="26.685" r="4.004"/>
	<path fill="#FFFFFF" d="M49.367,26.685c0,2.213,1.793,4.004,4.004,4.004v-8.008C51.16,22.681,49.367,24.474,49.367,26.685z"/>
	<path fill="#FFFFFF" d="M4.001-0.002h-4.002v4.004C2.207,4.001,4.001,2.209,4.001-0.002z"/>
	<path fill="#FFFFFF" d="M26.686,4.001c2.21,0,4.003-1.792,4.003-4.004h-8.007C22.682,2.209,24.473,4.001,26.686,4.001z"/>
	<path fill="#FFFFFF" d="M53.371,4.001v-4.004h-4.004C49.367,2.209,51.16,4.001,53.371,4.001z"/>
	<circle fill="#FFFFFF" cx="40.025" cy="40.03" r="4.003"/>
	<path fill="#FFFFFF" d="M13.343,36.027c-2.213,0-4.006,1.791-4.006,4.002c0,2.213,1.793,4.004,4.006,4.004
		c2.209,0,4.002-1.791,4.002-4.004C17.345,37.818,15.552,36.027,13.343,36.027z"/>
	<circle fill="#FFFFFF" cx="40.025" cy="13.341" r="4.004"/>
	<path fill="#FFFFFF" d="M13.343,9.337c-2.213,0-4.006,1.795-4.006,4.004c0,2.213,1.793,4.004,4.006,4.004
		c2.209,0,4.002-1.791,4.002-4.004C17.345,11.132,15.552,9.337,13.343,9.337z"/>
</g>
</svg>
