<?xml version="1.0" encoding="utf-8"?>
<!-- Generator: Adobe Illustrator 16.0.0, SVG Export Plug-In . SVG Version: 6.00 Build 0)  -->
<!DOCTYPE svg PUBLIC "-//W3C//DTD SVG 1.1//EN" "http://www.w3.org/Graphics/SVG/1.1/DTD/svg11.dtd">
<svg version="1.1" id="Layer_1" xmlns="http://www.w3.org/2000/svg" xmlns:xlink="http://www.w3.org/1999/xlink" x="0px" y="0px"
	 width="26px" height="26px" viewBox="0 0 26 26" style="enable-background:new 0 0 26 26;" xml:space="preserve">
<style type="text/css">
<![CDATA[
	.st0{display:none;fill:#CAC1B0;}
	.st1{display:inline;fill:#CAC1B0;}
	.st2{fill:#CAC1B0;}
	.st3{display:none;}
]]>
</style>
<path class="st0" d="M13,0C5.821,0,0,5.82,0,13c0,7.182,5.821,13,13,13c7.182,0,13-5.818,13-13C26,5.82,20.182,0,13,0z
	 M18.212,10.327c0.005,0.116,0.008,0.232,0.008,0.348c0,3.555-2.705,7.649-7.65,7.649c-1.519,0-2.931-0.445-4.122-1.207
	c0.209,0.023,0.425,0.039,0.643,0.039c1.26,0,2.419-0.431,3.337-1.151c-1.176-0.022-2.168-0.8-2.509-1.868
	c0.163,0.034,0.331,0.049,0.505,0.049c0.243,0,0.482-0.034,0.708-0.092c-1.229-0.251-2.156-1.337-2.156-2.637v-0.033
	c0.362,0.197,0.777,0.318,1.216,0.332c-0.72-0.478-1.195-1.303-1.195-2.235c0-0.493,0.132-0.956,0.365-1.352
	c1.326,1.627,3.308,2.7,5.542,2.811c-0.046-0.199-0.07-0.402-0.07-0.613c0-1.488,1.205-2.689,2.688-2.689
	c0.774,0,1.474,0.328,1.963,0.85c0.613-0.121,1.188-0.343,1.708-0.652c-0.202,0.627-0.627,1.154-1.183,1.487
	c0.543-0.067,1.061-0.212,1.545-0.424C19.192,9.477,18.737,9.95,18.212,10.327z"/>
<path class="st2" d="M13,0C5.82,0,0,5.82,0,13c0,7.182,5.82,13,13,13c7.182,0,13-5.818,13-13C26,5.82,20.182,0,13,0z M16.637,8.036
	H14.88c0,0-0.929-0.026-1.006,1.083v1.989h2.71l-0.36,2.659h-2.35l-0.002,6.941l-2.786-0.003v-6.938H8.788v-2.685h2.298V8.68
	c0,0,0.103-2.787,2.814-3.124h2.737V8.036z"/>
<g class="st3">
	<path class="st1" d="M13,0C5.821,0,0,5.82,0,13c0,7.182,5.821,13,13,13c7.182,0,13-5.818,13-13C26,5.82,20.182,0,13,0z
		 M19.524,17.947c0,1.057-0.813,1.912-1.814,1.912H8.308c-1.002,0-1.815-0.855-1.815-1.912V8.335c0-1.057,0.813-1.914,1.815-1.914
		h9.402c1.001,0,1.814,0.857,1.814,1.914V17.947z"/>
	<path class="st1" d="M15.963,10.497c0,0,1.677,0,1.893,0c0.219,0,0.287-0.285,0.287-0.285s0-1.574,0-1.876
		C18.143,8.035,17.807,8,17.807,8h-1.81c-0.335,0-0.369,0.369-0.369,0.369v1.776C15.628,10.48,15.963,10.497,15.963,10.497z"/>
	<path class="st1" d="M16.092,15.774c-1.053,1.337-2.991,1.421-2.991,1.421c-1.598,0.026-2.677-0.956-2.677-0.956
		c-2.021-1.667-1.298-4.152-1.298-4.152h-1.27c0,0-0.014,5.519-0.014,5.821c0,0.302,0.374,0.374,0.374,0.374h9.566
		c0.367,0,0.392-0.394,0.392-0.394v-5.831h-1.232C17.439,14.191,16.092,15.774,16.092,15.774z"/>
	<circle class="st1" cx="13.029" cy="13.159" r="2.573"/>
</g>
<path class="st0" d="M26,13c0-7.179-5.82-13-13-13C5.821,0,0,5.821,0,13c0,7.18,5.82,13,13,13C20.18,26,26,20.18,26,13z
	 M16.813,16.212c-0.303,0.265-2.984,1.794-4.477-0.169l-0.756,2.738c0,0-0.377,0.943-0.698,1.226c0,0-0.925-0.263-0.964-0.377
	c0,0-0.055-1.284,0.094-1.719l1.116-4.607c0,0-0.491-1.304-0.133-2.172c0,0,0.567-1.53,1.738-1.265c0,0,1.057,0.246,0.831,1.625
	l-0.623,2.171c0,0-0.284,1.02,0.189,1.436c0,0,0.793,1.02,2.19,0.075c0,0,1.002-0.396,1.397-3.002c0,0,0.322-2.324-0.943-3.287
	c0,0-1.436-1.379-4.041-0.528c0,0-1.966,0.68-2.361,2.776c0,0-0.364,1.213,0.46,2.495c0,0,0.214,0.066,0.122,0.47L9.71,14.901
	c0,0-0.159,0.151-0.403,0.029c0,0-1.956-0.701-1.56-3.97c0,0,0.377-2.776,3.135-3.815c2.756-1.038,5.098-0.018,5.383,0.133
	c0.283,0.151,2.775,1.662,2.55,4.626C18.588,14.87,17.114,15.947,16.813,16.212z"/>
</svg>
