<?xml version="1.0" encoding="utf-8"?>
<!-- Generator: Adobe Illustrator 16.0.0, SVG Export Plug-In . SVG Version: 6.00 Build 0)  -->
<!DOCTYPE svg PUBLIC "-//W3C//DTD SVG 1.1//EN" "http://www.w3.org/Graphics/SVG/1.1/DTD/svg11.dtd">
<svg version="1.1" id="Layer_1" xmlns="http://www.w3.org/2000/svg" xmlns:xlink="http://www.w3.org/1999/xlink" x="0px" y="0px"
	 width="26px" height="26px" viewBox="0 0 26 26" enable-background="new 0 0 26 26" xml:space="preserve">
<g>
	<path fill="#CAC1B0" d="M15.628,8.369c0,0,0.034-0.369,0.369-0.369h1.81c0,0,0.336,0.035,0.336,0.336c0,0.302,0,1.876,0,1.876
		s-0.066,0.285-0.287,0.285c-0.215,0-1.893,0-1.893,0s-0.335-0.017-0.335-0.352V8.369z"/>
	<circle fill="#CAC1B0" cx="13.029" cy="13.159" r="2.573"/>
	<path fill="#CAC1B0" d="M18.174,17.889c0,0-0.025,0.394-0.392,0.394H8.216c0,0-0.374-0.072-0.374-0.374
		c0-0.303,0.014-5.821,0.014-5.821h1.27c0,0-0.723,2.485,1.298,4.152c0,0,1.079,0.98,2.677,0.956c0,0,1.938-0.084,2.991-1.422
		c0,0,1.348-1.582,0.85-3.717h1.232V17.889z"/>
	<path fill="#CAC1B0" d="M13,0C5.821,0,0,5.82,0,13c0,7.182,5.821,13,13,13c7.182,0,13-5.818,13-13C26,5.82,20.182,0,13,0z
		 M19.523,17.947c0,1.057-0.812,1.912-1.813,1.912H8.308c-1.002,0-1.815-0.855-1.815-1.912V8.335c0-1.057,0.813-1.914,1.815-1.914
		h9.402c1.001,0,1.813,0.857,1.813,1.914V17.947z"/>
</g>
</svg>
