<?xml version="1.0" encoding="utf-8"?>
<!-- Generator: Adobe Illustrator 16.0.0, SVG Export Plug-In . SVG Version: 6.00 Build 0)  -->
<!DOCTYPE svg PUBLIC "-//W3C//DTD SVG 1.1//EN" "http://www.w3.org/Graphics/SVG/1.1/DTD/svg11.dtd">
<svg version="1.1" id="Layer_1" xmlns="http://www.w3.org/2000/svg" xmlns:xlink="http://www.w3.org/1999/xlink" x="0px" y="0px"
	 width="26px" height="26px" viewBox="0 0 26 26" enable-background="new 0 0 26 26" xml:space="preserve">
<path display="none" fill="#CAC1B0" d="M13,0C5.821,0,0,5.82,0,13c0,7.182,5.821,13,13,13c7.182,0,13-5.818,13-13
	C26,5.82,20.182,0,13,0z M18.212,10.327c0.005,0.116,0.009,0.232,0.009,0.348c0,3.556-2.705,7.649-7.651,7.649
	c-1.519,0-2.931-0.445-4.122-1.207c0.209,0.023,0.425,0.039,0.643,0.039c1.26,0,2.419-0.432,3.337-1.151
	c-1.176-0.022-2.168-0.8-2.509-1.868c0.163,0.034,0.331,0.049,0.505,0.049c0.243,0,0.482-0.033,0.708-0.092
	c-1.229-0.251-2.156-1.337-2.156-2.637v-0.033c0.362,0.197,0.777,0.318,1.216,0.332c-0.72-0.478-1.195-1.303-1.195-2.235
	c0-0.493,0.132-0.956,0.365-1.352c1.326,1.627,3.308,2.7,5.542,2.811c-0.046-0.199-0.07-0.402-0.07-0.613
	c0-1.488,1.205-2.689,2.688-2.689c0.774,0,1.475,0.328,1.963,0.85c0.613-0.121,1.188-0.343,1.709-0.652
	c-0.202,0.627-0.627,1.154-1.184,1.487c0.543-0.067,1.061-0.212,1.545-0.424C19.191,9.477,18.736,9.95,18.212,10.327z"/>
<path display="none" fill="#CAC1B0" d="M13,0C5.82,0,0,5.82,0,13c0,7.182,5.82,13,13,13c7.182,0,13-5.818,13-13
	C26,5.82,20.182,0,13,0z M16.637,8.036H14.88c0,0-0.929-0.026-1.006,1.083v1.989h2.71l-0.359,2.66h-2.351l-0.002,6.94l-2.786-0.003
	v-6.938H8.788v-2.686h2.298V8.68c0,0,0.103-2.787,2.814-3.124h2.736V8.036z"/>
<g>
	<path fill="#CAC1B0" d="M13,0C5.821,0,0,5.82,0,13c0,7.182,5.821,13,13,13c7.182,0,13-5.818,13-13C26,5.82,20.182,0,13,0z
		 M19.523,17.947c0,1.057-0.812,1.912-1.813,1.912H8.308c-1.002,0-1.815-0.855-1.815-1.912V8.335c0-1.057,0.813-1.914,1.815-1.914
		h9.402c1.001,0,1.813,0.857,1.813,1.914V17.947z"/>
	<path fill="#CAC1B0" d="M15.963,10.497c0,0,1.678,0,1.893,0c0.22,0,0.287-0.285,0.287-0.285s0-1.574,0-1.876
		C18.143,8.035,17.807,8,17.807,8h-1.81c-0.335,0-0.369,0.369-0.369,0.369v1.776C15.628,10.48,15.963,10.497,15.963,10.497z"/>
	<path fill="#CAC1B0" d="M16.092,15.773c-1.053,1.338-2.991,1.422-2.991,1.422c-1.598,0.025-2.677-0.956-2.677-0.956
		c-2.021-1.667-1.298-4.152-1.298-4.152h-1.27c0,0-0.014,5.519-0.014,5.821c0,0.302,0.374,0.374,0.374,0.374h9.566
		c0.366,0,0.392-0.394,0.392-0.394v-5.832h-1.232C17.439,14.191,16.092,15.773,16.092,15.773z"/>
	<circle fill="#CAC1B0" cx="13.029" cy="13.159" r="2.573"/>
</g>
<path display="none" fill="#CAC1B0" d="M26,13c0-7.179-5.82-13-13-13C5.821,0,0,5.821,0,13c0,7.18,5.82,13,13,13
	C20.18,26,26,20.18,26,13z M16.812,16.212c-0.303,0.265-2.983,1.794-4.477-0.169l-0.756,2.738c0,0-0.377,0.943-0.698,1.226
	c0,0-0.925-0.263-0.964-0.377c0,0-0.055-1.284,0.094-1.719l1.116-4.607c0,0-0.491-1.304-0.133-2.172c0,0,0.567-1.53,1.738-1.265
	c0,0,1.057,0.246,0.832,1.625l-0.624,2.171c0,0-0.284,1.021,0.189,1.437c0,0,0.793,1.02,2.19,0.074c0,0,1.002-0.396,1.396-3.002
	c0,0,0.322-2.324-0.943-3.287c0,0-1.436-1.379-4.041-0.528c0,0-1.966,0.68-2.361,2.776c0,0-0.364,1.213,0.46,2.495
	c0,0,0.214,0.065,0.122,0.47L9.71,14.9c0,0-0.159,0.151-0.403,0.029c0,0-1.956-0.701-1.56-3.97c0,0,0.377-2.776,3.135-3.815
	c2.757-1.038,5.099-0.018,5.384,0.133c0.282,0.151,2.774,1.662,2.549,4.626C18.588,14.87,17.114,15.947,16.812,16.212z"/>
</svg>
