<?xml version="1.0" encoding="utf-8"?>
<!-- Generator: Adobe Illustrator 16.0.0, SVG Export Plug-In . SVG Version: 6.00 Build 0)  -->
<!DOCTYPE svg PUBLIC "-//W3C//DTD SVG 1.1//EN" "http://www.w3.org/Graphics/SVG/1.1/DTD/svg11.dtd">
<svg version="1.1" id="Layer_1" xmlns="http://www.w3.org/2000/svg" xmlns:xlink="http://www.w3.org/1999/xlink" x="0px" y="0px"
	 width="26px" height="26px" viewBox="0 0 26 26" enable-background="new 0 0 26 26" xml:space="preserve">
<path fill="#CAC1B0" d="M26,13c0-7.179-5.82-13-13-13C5.821,0,0,5.821,0,13c0,7.18,5.82,13,13,13C20.18,26,26,20.18,26,13z
	 M16.812,16.212c-0.304,0.265-2.983,1.794-4.478-0.169l-0.756,2.738c0,0-0.377,0.943-0.698,1.226c0,0-0.925-0.263-0.964-0.377
	c0,0-0.055-1.284,0.094-1.719l1.116-4.607c0,0-0.491-1.304-0.133-2.172c0,0,0.567-1.53,1.738-1.265c0,0,1.057,0.246,0.833,1.625
	l-0.625,2.171c0,0-0.284,1.021,0.189,1.437c0,0,0.793,1.021,2.189,0.074c0,0,1.002-0.396,1.396-3.002c0,0,0.322-2.324-0.943-3.287
	c0,0-1.436-1.379-4.041-0.528c0,0-1.966,0.68-2.361,2.776c0,0-0.364,1.213,0.46,2.495c0,0,0.214,0.065,0.122,0.47L9.71,14.9
	c0,0-0.159,0.15-0.403,0.029c0,0-1.956-0.701-1.56-3.971c0,0,0.377-2.776,3.135-3.815c2.757-1.038,5.099-0.018,5.384,0.133
	c0.282,0.151,2.774,1.662,2.549,4.626C18.588,14.87,17.114,15.947,16.812,16.212z"/>
</svg>
