<?xml version="1.0" encoding="utf-8"?>
<!-- Generator: Adobe Illustrator 16.0.0, SVG Export Plug-In . SVG Version: 6.00 Build 0)  -->
<!DOCTYPE svg PUBLIC "-//W3C//DTD SVG 1.1//EN" "http://www.w3.org/Graphics/SVG/1.1/DTD/svg11.dtd">
<svg version="1.1" id="Layer_1" xmlns="http://www.w3.org/2000/svg" xmlns:xlink="http://www.w3.org/1999/xlink" x="0px" y="0px"
	 width="26px" height="26px" viewBox="0 0 26 26" style="enable-background:new 0 0 26 26;" xml:space="preserve">
<style type="text/css">
<![CDATA[
	.st0{display:inline;fill:#FFFFFF;}
	.st1{fill:#FFFFFF;}
	.st2{display:none;}
]]>
</style>
<g class="st2">
	<path class="st0" d="M12.998,0.744c-6.756,0-12.254,5.499-12.254,12.255c0,6.759,5.498,12.257,12.254,12.257
		c6.759,0,12.258-5.498,12.258-12.257C25.256,6.243,19.757,0.744,12.998,0.744L12.998,0.744z M16.048,13.431h-1.993v7.108h-2.956
		v-7.108H9.694v-2.512h1.405V9.294c0-1.162,0.552-2.981,2.981-2.981l2.189,0.01V8.76h-1.588c-0.262,0-0.627,0.13-0.627,0.684v1.478
		h2.251L16.048,13.431z M16.048,13.431"/>
</g>
<g>
	<path class="st1" d="M12.999,0.596C6.161,0.596,0.596,6.162,0.596,13c0,6.84,5.564,12.405,12.402,12.405
		c6.839,0,12.406-5.564,12.406-12.405C25.404,6.162,19.838,0.596,12.999,0.596L12.999,0.596z M18.534,10.162
		c0.005,0.122,0.007,0.246,0.007,0.371c0,3.772-2.871,8.122-8.123,8.122c-1.613,0-3.113-0.471-4.376-1.283
		c0.224,0.027,0.451,0.041,0.681,0.041c1.339,0,2.568-0.455,3.546-1.223c-1.249-0.023-2.302-0.848-2.666-1.982
		c0.173,0.033,0.351,0.051,0.537,0.051c0.258,0,0.512-0.033,0.751-0.1C7.585,13.896,6.6,12.744,6.6,11.36
		c0-0.013,0-0.024,0.002-0.037c0.383,0.215,0.825,0.342,1.293,0.356c-0.766-0.51-1.271-1.386-1.271-2.376
		c0-0.522,0.142-1.013,0.386-1.435c1.407,1.728,3.513,2.864,5.883,2.983c-0.049-0.21-0.073-0.427-0.073-0.651
		c0-1.576,1.278-2.854,2.854-2.854c0.821,0,1.563,0.346,2.083,0.899c0.651-0.127,1.264-0.363,1.815-0.692
		c-0.215,0.668-0.667,1.227-1.257,1.58c0.578-0.067,1.13-0.221,1.64-0.448C19.576,9.257,19.09,9.759,18.534,10.162L18.534,10.162z
		 M18.534,10.162"/>
</g>
<g class="st2">
	<path class="st0" d="M12.999,15.459c1.355,0,2.46-1.103,2.46-2.46c0-0.535-0.174-1.029-0.465-1.434
		c-0.447-0.619-1.173-1.025-1.996-1.025c-0.819,0-1.547,0.404-1.994,1.025c-0.293,0.404-0.464,0.898-0.467,1.434
		C10.538,14.356,11.643,15.459,12.999,15.459L12.999,15.459z M12.999,15.459"/>
	<path class="st0" d="M18.371,9.989V7.62h-0.309L16,7.628l0.01,2.369L18.371,9.989z M18.371,9.989"/>
	<path class="st0" d="M12.999,0.71c-6.775,0-12.289,5.514-12.289,12.289c0,6.777,5.514,12.291,12.289,12.291
		c6.777,0,12.291-5.514,12.291-12.291C25.289,6.224,19.775,0.71,12.999,0.71L12.999,0.71z M19.988,11.565v5.724
		c0,1.489-1.211,2.7-2.701,2.7H8.711c-1.49,0-2.701-1.211-2.701-2.7V8.713c0-1.491,1.211-2.702,2.701-2.702h8.576
		c1.49,0,2.701,1.211,2.701,2.702V11.565z M19.988,11.565"/>
	<path class="st0" d="M16.822,12.999c0,2.107-1.713,3.823-3.824,3.823c-2.107,0-3.821-1.716-3.821-3.823
		c0-0.506,0.102-0.991,0.28-1.434H7.372v5.724c0,0.74,0.6,1.337,1.34,1.337h8.576c0.738,0,1.338-0.597,1.338-1.337v-5.724h-2.086
		C16.719,12.008,16.822,12.493,16.822,12.999L16.822,12.999z M16.822,12.999"/>
</g>
<g class="st2">
	<path class="st0" d="M13.001,0C5.82,0,0,5.82,0,13c0,7.178,5.82,13,13.001,13C20.18,26,26,20.179,26,13C26,5.82,20.18,0,13.001,0
		L13.001,0z M14.261,17.369c-1.182-0.09-1.677-0.676-2.602-1.239c-0.51,2.672-1.133,5.232-2.975,6.567
		c-0.568-4.035,0.835-7.066,1.487-10.285c-1.112-1.871,0.134-5.637,2.479-4.709c2.886,1.141-2.499,6.957,1.116,7.684
		c3.773,0.759,5.313-6.548,2.974-8.923c-3.381-3.43-9.841-0.078-9.047,4.833c0.193,1.2,1.435,1.565,0.496,3.221
		c-2.164-0.479-2.81-2.185-2.727-4.46c0.135-3.724,3.347-6.332,6.569-6.692c4.074-0.456,7.898,1.496,8.426,5.329
		C21.052,13.021,18.618,17.706,14.261,17.369L14.261,17.369z M14.261,17.369"/>
</g>
</svg>
