<?xml version="1.0" encoding="utf-8"?>
<!-- Generator: Adobe Illustrator 16.0.0, SVG Export Plug-In . SVG Version: 6.00 Build 0)  -->
<!DOCTYPE svg PUBLIC "-//W3C//DTD SVG 1.1//EN" "http://www.w3.org/Graphics/SVG/1.1/DTD/svg11.dtd">
<svg version="1.1" id="Layer_1" xmlns="http://www.w3.org/2000/svg" xmlns:xlink="http://www.w3.org/1999/xlink" x="0px" y="0px"
	 width="26px" height="26px" viewBox="0 0 26 26" enable-background="new 0 0 26 26" xml:space="preserve">
<path fill="#CAC1B0" d="M13,0C5.821,0,0,5.82,0,13c0,7.182,5.821,13,13,13c7.182,0,13-5.818,13-13C26,5.82,20.182,0,13,0z
	 M18.212,10.327c0.005,0.116,0.009,0.232,0.009,0.348c0,3.556-2.705,7.649-7.651,7.649c-1.519,0-2.931-0.445-4.122-1.207
	c0.209,0.023,0.425,0.039,0.643,0.039c1.26,0,2.419-0.432,3.337-1.151c-1.176-0.022-2.168-0.8-2.509-1.868
	c0.163,0.034,0.331,0.049,0.505,0.049c0.243,0,0.482-0.033,0.708-0.092c-1.229-0.251-2.156-1.337-2.156-2.637v-0.033
	c0.362,0.197,0.777,0.318,1.216,0.332c-0.72-0.478-1.195-1.303-1.195-2.235c0-0.493,0.132-0.956,0.365-1.352
	c1.326,1.627,3.308,2.7,5.542,2.811c-0.046-0.199-0.07-0.402-0.07-0.613c0-1.488,1.205-2.689,2.688-2.689
	c0.774,0,1.476,0.328,1.963,0.85c0.613-0.121,1.188-0.343,1.709-0.652c-0.201,0.627-0.627,1.154-1.184,1.487
	c0.543-0.067,1.061-0.212,1.545-0.424C19.191,9.477,18.736,9.95,18.212,10.327z"/>
</svg>
