<?xml version="1.0" encoding="utf-8"?>
<!-- Generator: Adobe Illustrator 16.0.0, SVG Export Plug-In . SVG Version: 6.00 Build 0)  -->
<!DOCTYPE svg PUBLIC "-//W3C//DTD SVG 1.1//EN" "http://www.w3.org/Graphics/SVG/1.1/DTD/svg11.dtd">
<svg version="1.1" id="Layer_1" xmlns="http://www.w3.org/2000/svg" xmlns:xlink="http://www.w3.org/1999/xlink" x="0px" y="0px"
	 width="646.167px" height="3.548px" viewBox="0 0 646.167 3.548" style="enable-background:new 0 0 646.167 3.548;"
	 xml:space="preserve">
<style type="text/css">
<![CDATA[
	.st0{fill:#CAC1B0;}
]]>
</style>
<g>
	<g>
		<path class="st0" d="M0,1.724l1-0.006c0.031,0,0.056,0.024,0.056,0.056c0,0.03-0.024,0.056-0.055,0.056c0,0,0,0-0.001,0L0,1.823
			c-0.028,0-0.05-0.022-0.05-0.05S-0.027,1.724,0,1.724z"/>
		<path class="st0" d="M5,1.695l1.001-0.006c0.046,0,0.084,0.037,0.084,0.084c0,0.046-0.037,0.084-0.083,0.084c0,0-0.001,0-0.001,0
			L5,1.852c-0.043,0-0.078-0.035-0.078-0.078C4.923,1.73,4.958,1.695,5,1.695z"/>
		<path class="st0" d="M10.001,1.667l1-0.006c0.062,0,0.112,0.05,0.113,0.111c0,0.062-0.05,0.113-0.112,0.113h-0.001l-1-0.006
			c-0.059,0-0.106-0.048-0.106-0.107C9.896,1.715,9.943,1.667,10.001,1.667z"/>
		<path class="st0" d="M15.002,1.639l1-0.006c0.078,0,0.141,0.062,0.142,0.14c0,0.078-0.062,0.142-0.14,0.142c0,0-0.001,0-0.001,0
			l-1-0.006c-0.075,0-0.135-0.061-0.134-0.136C14.868,1.698,14.928,1.639,15.002,1.639z"/>
		<path class="st0" d="M20.002,1.61l1-0.006c0.094-0.001,0.169,0.075,0.17,0.168c0,0.094-0.075,0.169-0.168,0.17
			c0,0-0.001,0-0.002,0l-1-0.006c-0.09,0-0.163-0.074-0.162-0.164S19.913,1.61,20.002,1.61z"/>
		<path class="st0" d="M25.003,1.582l1.001-0.006c0.109-0.001,0.198,0.087,0.198,0.196c0,0.108-0.087,0.197-0.196,0.198
			c0,0-0.001,0-0.002,0l-1.001-0.006c-0.105,0-0.191-0.087-0.19-0.192C24.813,1.667,24.898,1.582,25.003,1.582z"/>
		<path class="st0" d="M30.004,1.554l1-0.006c0.125-0.001,0.226,0.1,0.227,0.225c0,0.124-0.1,0.226-0.225,0.227c0,0-0.002,0-0.002,0
			l-1-0.006c-0.122-0.001-0.219-0.1-0.219-0.221S29.884,1.555,30.004,1.554z"/>
		<path class="st0" d="M35.004,1.531l1-0.002c0.135,0,0.245,0.108,0.245,0.243c0,0.135-0.108,0.245-0.243,0.245h-0.001l-1-0.002
			c-0.134-0.001-0.242-0.109-0.241-0.243C34.763,1.64,34.871,1.531,35.004,1.531z"/>
		<path class="st0" d="M40.005,1.521l1.001-0.002c0.141-0.001,0.255,0.113,0.255,0.254c0,0.142-0.114,0.256-0.254,0.256h-0.001
			l-1.001-0.002c-0.14,0-0.252-0.114-0.252-0.254C39.753,1.633,39.865,1.521,40.005,1.521z"/>
		<path class="st0" d="M45.006,1.51l1-0.002c0.147-0.001,0.266,0.118,0.267,0.265c0,0.147-0.119,0.267-0.266,0.267h-0.001l-1-0.002
			c-0.146,0-0.264-0.118-0.264-0.265C44.743,1.627,44.86,1.509,45.006,1.51z"/>
		<path class="st0" d="M50.006,1.498l1-0.002c0.153,0,0.277,0.124,0.278,0.276c0,0.153-0.124,0.277-0.276,0.278h-0.001l-1-0.002
			c-0.152-0.001-0.275-0.124-0.274-0.276C49.732,1.621,49.854,1.498,50.006,1.498z"/>
		<path class="st0" d="M55.007,1.487l1-0.002c0.159,0,0.289,0.128,0.289,0.287s-0.128,0.289-0.288,0.289h-0.001l-1-0.002
			c-0.158-0.001-0.286-0.129-0.285-0.287C54.722,1.615,54.849,1.487,55.007,1.487z"/>
		<path class="st0" d="M60.007,1.477l1.001-0.002c0.165-0.001,0.299,0.133,0.3,0.298s-0.133,0.3-0.299,0.3h-0.001L60.007,2.07
			c-0.164,0-0.296-0.134-0.296-0.298C59.711,1.608,59.844,1.477,60.007,1.477z"/>
		<path class="st0" d="M65.008,1.466l1-0.003c0.171,0,0.311,0.139,0.311,0.31c0,0.172-0.138,0.311-0.31,0.312h-0.001l-1-0.003
			c-0.17,0-0.308-0.139-0.308-0.309C64.701,1.603,64.838,1.465,65.008,1.466z"/>
		<path class="st0" d="M70.009,1.454l1-0.002c0.178,0,0.322,0.144,0.322,0.32c0,0.178-0.143,0.321-0.321,0.322h-0.001l-1-0.002
			c-0.176-0.001-0.319-0.144-0.318-0.32C69.691,1.597,69.833,1.454,70.009,1.454z"/>
		<path class="st0" d="M75.009,1.443l1.001-0.002c0.183-0.001,0.333,0.147,0.333,0.331c0,0.184-0.148,0.333-0.332,0.333H76.01
			l-1.001-0.002c-0.182,0-0.33-0.148-0.329-0.331C74.681,1.591,74.827,1.443,75.009,1.443z"/>
		<path class="st0" d="M80.01,1.433l1-0.002c0.189-0.001,0.344,0.152,0.344,0.342c0,0.189-0.153,0.344-0.342,0.344h-0.001l-1-0.002
			c-0.188,0-0.341-0.153-0.34-0.342S79.822,1.432,80.01,1.433z"/>
		<path class="st0" d="M85.011,1.422l1-0.003c0.196,0,0.354,0.158,0.355,0.354c0,0.196-0.158,0.354-0.354,0.355h-0.001l-1-0.003
			c-0.194,0-0.352-0.158-0.351-0.353C84.66,1.578,84.816,1.421,85.011,1.422z"/>
		<path class="st0" d="M90.011,1.41l1.001-0.002c0.202,0,0.365,0.163,0.366,0.364c0,0.202-0.163,0.366-0.364,0.366h-0.001
			l-1.001-0.002c-0.2-0.001-0.363-0.164-0.362-0.364S89.811,1.41,90.011,1.41z"/>
		<path class="st0" d="M95.012,1.399l1-0.002c0.208-0.001,0.376,0.167,0.377,0.375s-0.167,0.377-0.375,0.377h-0.001l-1-0.002
			c-0.207,0-0.374-0.168-0.374-0.375C94.639,1.566,94.805,1.398,95.012,1.399z"/>
		<path class="st0" d="M100.013,1.389l1-0.003c0.214,0,0.388,0.173,0.388,0.387s-0.172,0.388-0.386,0.389h-0.002l-1-0.003
			c-0.213,0-0.385-0.173-0.384-0.386S99.8,1.388,100.013,1.389z"/>
		<path class="st0" d="M105.013,1.377l1-0.002c0.22,0,0.399,0.178,0.399,0.397s-0.177,0.398-0.397,0.399h-0.002l-1-0.002
			c-0.219-0.001-0.396-0.179-0.395-0.397S104.794,1.377,105.013,1.377z"/>
		<path class="st0" d="M110.014,1.366l1.001-0.002c0.226-0.001,0.41,0.183,0.41,0.408c0,0.227-0.183,0.41-0.409,0.41h-0.001
			l-1.001-0.002c-0.225-0.001-0.407-0.184-0.406-0.408S109.789,1.366,110.014,1.366z"/>
		<path class="st0" d="M115.015,1.355l1-0.002c0.232-0.001,0.421,0.187,0.421,0.419s-0.188,0.421-0.419,0.421h-0.002l-1-0.002
			c-0.231,0-0.418-0.188-0.417-0.419C114.598,1.542,114.784,1.354,115.015,1.355z"/>
		<path class="st0" d="M120.015,1.344l1-0.002c0.238,0,0.432,0.192,0.433,0.431s-0.192,0.432-0.431,0.433h-0.002l-1-0.002
			c-0.237-0.001-0.429-0.193-0.428-0.431S119.778,1.344,120.015,1.344z"/>
		<path class="st0" d="M125.016,1.333l1.001-0.002c0.244-0.001,0.442,0.197,0.443,0.441c0,0.244-0.197,0.442-0.441,0.443h-0.002
			l-1.001-0.002c-0.243-0.001-0.439-0.198-0.439-0.441S124.772,1.333,125.016,1.333z"/>
		<path class="st0" d="M130.017,1.324l1,0.003c0.247,0,0.446,0.2,0.445,0.447c0,0.247-0.199,0.446-0.445,0.445l-1,0.003
			c-0.248,0-0.449-0.2-0.45-0.448c0-0.248,0.2-0.449,0.448-0.45H130.017z"/>
		<path class="st0" d="M135.017,1.336l1,0.002c0.241,0.001,0.435,0.196,0.435,0.437s-0.194,0.436-0.435,0.435l-1,0.002
			c-0.242,0.001-0.438-0.194-0.439-0.437s0.195-0.438,0.437-0.438H135.017z"/>
		<path class="st0" d="M140.018,1.347l1,0.002c0.235,0.001,0.424,0.191,0.424,0.426s-0.189,0.424-0.424,0.424l-1,0.002
			c-0.236,0.001-0.427-0.19-0.428-0.426s0.19-0.427,0.426-0.428H140.018z"/>
		<path class="st0" d="M145.018,1.357l1.001,0.003c0.228,0,0.413,0.186,0.413,0.414s-0.185,0.413-0.413,0.412l-1.001,0.003
			c-0.229,0-0.416-0.186-0.417-0.415s0.185-0.416,0.415-0.417H145.018z"/>
		<path class="st0" d="M150.019,1.369l1,0.002c0.222,0,0.402,0.181,0.402,0.403s-0.18,0.402-0.402,0.401l-1,0.002
			c-0.224,0.001-0.405-0.18-0.406-0.403s0.18-0.405,0.404-0.405H150.019z"/>
		<path class="st0" d="M155.02,1.38l1,0.002c0.216,0.001,0.391,0.176,0.391,0.393c0,0.216-0.174,0.391-0.391,0.391l-1,0.002
			c-0.217,0.001-0.394-0.175-0.395-0.393s0.175-0.395,0.393-0.395H155.02z"/>
		<path class="st0" d="M160.02,1.391l1.001,0.002c0.21,0.001,0.38,0.172,0.379,0.382s-0.169,0.38-0.379,0.38l-1.001,0.002
			c-0.211,0-0.383-0.171-0.383-0.382c0-0.212,0.17-0.383,0.382-0.384H160.02z"/>
		<path class="st0" d="M165.021,1.401l1,0.003c0.204,0,0.369,0.166,0.369,0.37s-0.165,0.369-0.369,0.368l-1,0.003
			c-0.206,0-0.372-0.166-0.373-0.371s0.166-0.372,0.371-0.373H165.021z"/>
		<path class="st0" d="M170.021,1.413l1,0.002c0.198,0,0.358,0.161,0.358,0.359s-0.16,0.358-0.358,0.357l-1,0.002
			c-0.199,0.001-0.361-0.16-0.361-0.359c0-0.199,0.161-0.361,0.36-0.361H170.021z"/>
		<path class="st0" d="M175.022,1.424l1,0.002c0.192,0.001,0.347,0.156,0.347,0.349c0,0.191-0.155,0.347-0.347,0.347l-1,0.002
			c-0.193,0.001-0.35-0.155-0.351-0.349c0-0.193,0.156-0.351,0.349-0.351H175.022z"/>
		<path class="st0" d="M180.022,1.435l1.001,0.002c0.186,0.001,0.336,0.151,0.335,0.338c0,0.186-0.15,0.336-0.335,0.336
			l-1.001,0.002c-0.187,0-0.339-0.151-0.339-0.338c0-0.188,0.151-0.339,0.338-0.34H180.022z"/>
		<path class="st0" d="M185.023,1.445l1,0.003c0.18,0,0.325,0.146,0.325,0.326s-0.145,0.325-0.325,0.324l-1,0.003
			c-0.181,0-0.328-0.146-0.329-0.327c0-0.182,0.146-0.328,0.327-0.329H185.023z"/>
		<path class="st0" d="M190.024,1.457l1,0.002c0.174,0,0.314,0.142,0.314,0.315s-0.14,0.313-0.314,0.313l-1,0.002
			c-0.175,0.001-0.317-0.141-0.317-0.315s0.141-0.317,0.316-0.317H190.024z"/>
		<path class="st0" d="M195.024,1.468l1.001,0.003c0.167,0,0.303,0.136,0.302,0.304c0,0.167-0.135,0.303-0.302,0.302l-1.001,0.003
			c-0.168,0-0.306-0.136-0.306-0.305s0.136-0.306,0.305-0.307H195.024z"/>
		<path class="st0" d="M200.025,1.48l1,0.002c0.161,0.001,0.291,0.131,0.29,0.292c0,0.16-0.129,0.29-0.29,0.29l-1,0.002
			c-0.162,0.001-0.294-0.13-0.294-0.292c0-0.162,0.131-0.294,0.293-0.294H200.025z"/>
		<path class="st0" d="M205.026,1.492l1,0.003c0.154,0,0.278,0.125,0.278,0.279c0,0.153-0.125,0.278-0.278,0.277l-1,0.003
			c-0.155,0-0.282-0.125-0.282-0.28c0-0.155,0.125-0.282,0.28-0.282H205.026z"/>
		<path class="st0" d="M210.026,1.505l1,0.002c0.147,0,0.267,0.12,0.266,0.268c0,0.146-0.119,0.266-0.266,0.266l-1,0.002
			c-0.148,0.001-0.269-0.119-0.27-0.268S209.876,1.505,210.026,1.505L210.026,1.505z"/>
		<path class="st0" d="M215.027,1.517l1.001,0.003c0.14,0,0.254,0.114,0.253,0.255c0,0.14-0.113,0.254-0.253,0.253l-1.001,0.003
			c-0.142,0-0.257-0.114-0.257-0.256C214.77,1.632,214.884,1.517,215.027,1.517L215.027,1.517z"/>
		<path class="st0" d="M220.028,1.529l1,0.002c0.134,0,0.242,0.109,0.242,0.243s-0.108,0.241-0.242,0.241l-1,0.002
			c-0.135,0.001-0.245-0.108-0.245-0.243c0-0.136,0.109-0.245,0.244-0.245H220.028z"/>
		<path class="st0" d="M225.028,1.541l1,0.002c0.127,0.001,0.23,0.104,0.229,0.231c0,0.127-0.102,0.229-0.229,0.229l-1,0.002
			c-0.128,0-0.233-0.104-0.233-0.231C224.795,1.646,224.899,1.541,225.028,1.541L225.028,1.541z"/>
		<path class="st0" d="M230.029,1.553l1.001,0.003c0.12,0,0.217,0.098,0.217,0.219c0,0.12-0.097,0.217-0.217,0.217l-1.001,0.003
			c-0.122,0-0.22-0.099-0.221-0.22C229.808,1.652,229.906,1.554,230.029,1.553L230.029,1.553z"/>
		<path class="st0" d="M235.03,1.565l1,0.002c0.114,0.001,0.206,0.093,0.205,0.206c0,0.114-0.091,0.206-0.205,0.206l-1,0.002
			c-0.115,0-0.208-0.093-0.209-0.207C234.821,1.659,234.914,1.565,235.03,1.565L235.03,1.565z"/>
		<path class="st0" d="M240.03,1.577l1,0.003c0.107,0,0.193,0.087,0.193,0.193c0,0.107-0.086,0.193-0.193,0.193l-1,0.003
			c-0.108,0-0.196-0.088-0.196-0.196C239.833,1.666,239.921,1.578,240.03,1.577L240.03,1.577z"/>
		<path class="st0" d="M245.031,1.59l1,0.002c0.101,0.001,0.182,0.082,0.181,0.182c0,0.101-0.081,0.182-0.181,0.182l-1,0.002
			c-0.102,0-0.184-0.082-0.184-0.184C244.846,1.672,244.929,1.59,245.031,1.59L245.031,1.59z"/>
		<path class="st0" d="M250.031,1.602l1.001,0.003c0.093,0,0.169,0.076,0.168,0.169c0,0.094-0.075,0.17-0.168,0.169l-1.001,0.003
			c-0.095,0-0.171-0.076-0.172-0.172C249.859,1.679,249.936,1.602,250.031,1.602L250.031,1.602z"/>
		<path class="st0" d="M255.032,1.614l1,0.002c0.087,0,0.157,0.071,0.157,0.157c0,0.087-0.07,0.157-0.157,0.157l-1,0.002
			c-0.088,0.001-0.16-0.07-0.16-0.159C254.872,1.686,254.943,1.614,255.032,1.614L255.032,1.614z"/>
		<path class="st0" d="M260.033,1.621l1-0.002c0.085,0,0.154,0.069,0.154,0.154c0,0.085-0.068,0.154-0.153,0.154h-0.001l-1-0.002
			c-0.084,0-0.152-0.068-0.152-0.152S259.949,1.621,260.033,1.621z"/>
		<path class="st0" d="M265.033,1.611l1.001-0.002c0.09,0,0.164,0.073,0.164,0.164c0,0.09-0.073,0.163-0.163,0.164h0l-1.001-0.002
			c-0.089-0.001-0.161-0.073-0.161-0.162C264.872,1.684,264.944,1.611,265.033,1.611z"/>
		<path class="st0" d="M270.034,1.603l1-0.002c0.096-0.001,0.173,0.077,0.173,0.173c0,0.096-0.077,0.173-0.173,0.173h0l-1-0.002
			c-0.095,0-0.171-0.077-0.171-0.171C269.863,1.679,269.939,1.602,270.034,1.603z"/>
		<path class="st0" d="M275.035,1.593l1-0.002c0.101,0,0.183,0.081,0.183,0.183c0,0.101-0.082,0.183-0.182,0.183h-0.001l-1-0.002
			c-0.1,0-0.181-0.081-0.181-0.181C274.854,1.673,274.935,1.593,275.035,1.593z"/>
		<path class="st0" d="M280.035,1.583l1.001-0.002c0.106,0,0.192,0.086,0.192,0.192c0,0.105-0.085,0.192-0.192,0.192h0l-1.001-0.002
			c-0.105,0-0.19-0.086-0.19-0.19C279.846,1.668,279.93,1.583,280.035,1.583z"/>
		<path class="st0" d="M285.036,1.573l1-0.002c0.111,0,0.202,0.09,0.202,0.202c0,0.111-0.09,0.201-0.202,0.202h0l-1-0.002
			c-0.111-0.001-0.2-0.09-0.2-0.2C284.836,1.663,284.925,1.573,285.036,1.573z"/>
		<path class="st0" d="M290.037,1.563l1-0.001c0.117-0.001,0.211,0.094,0.212,0.211c0,0.116-0.094,0.211-0.211,0.211h-0.001
			l-1-0.001c-0.116-0.001-0.209-0.095-0.209-0.21C289.828,1.657,289.921,1.563,290.037,1.563z"/>
		<path class="st0" d="M295.037,1.555l1-0.002c0.122,0,0.221,0.099,0.222,0.221c0,0.122-0.099,0.221-0.221,0.221h-0.001l-1-0.002
			c-0.121,0-0.219-0.099-0.219-0.219C294.819,1.652,294.916,1.554,295.037,1.555z"/>
		<path class="st0" d="M300.038,1.545l1.001-0.002c0.127,0,0.23,0.103,0.231,0.23c0,0.127-0.103,0.23-0.23,0.23h0l-1.001-0.002
			c-0.126,0-0.228-0.103-0.228-0.229C299.81,1.646,299.912,1.545,300.038,1.545z"/>
		<path class="st0" d="M305.039,1.535l1-0.002c0.133,0,0.24,0.107,0.241,0.24c0,0.132-0.107,0.24-0.24,0.24h-0.001l-1-0.002
			c-0.132,0-0.238-0.107-0.238-0.238C304.801,1.642,304.907,1.535,305.039,1.535z"/>
		<path class="st0" d="M310.039,1.525l1-0.002c0.138,0,0.25,0.111,0.25,0.25c0,0.138-0.111,0.249-0.25,0.25h-0.001l-1-0.002
			c-0.137-0.001-0.248-0.111-0.247-0.248C309.792,1.636,309.902,1.525,310.039,1.525z"/>
		<path class="st0" d="M315.04,1.517l1.001-0.002c0.143-0.001,0.259,0.115,0.259,0.259c0,0.143-0.115,0.259-0.258,0.259h-0.001
			L315.04,2.03c-0.142,0-0.257-0.115-0.257-0.257C314.783,1.631,314.897,1.516,315.04,1.517z"/>
		<path class="st0" d="M320.041,1.507l1-0.002c0.148-0.001,0.269,0.119,0.269,0.268c0,0.148-0.12,0.27-0.268,0.27h-0.001l-1-0.002
			c-0.147,0-0.267-0.12-0.267-0.268C319.774,1.626,319.893,1.506,320.041,1.507z"/>
		<path class="st0" d="M325.041,1.496l1.001-0.003c0.154,0,0.28,0.125,0.28,0.279c0.001,0.155-0.124,0.281-0.279,0.281h-0.001
			l-1.001-0.003c-0.153,0-0.277-0.125-0.277-0.278C324.765,1.62,324.889,1.496,325.041,1.496z"/>
		<path class="st0" d="M330.042,1.482l1-0.003c0.162,0,0.295,0.131,0.295,0.293s-0.131,0.294-0.293,0.295h-0.002l-1-0.003
			c-0.161,0-0.291-0.131-0.291-0.292C329.752,1.612,329.882,1.482,330.042,1.482z"/>
		<path class="st0" d="M335.042,1.469l1.001-0.003c0.17,0,0.308,0.137,0.309,0.307c0,0.17-0.137,0.308-0.307,0.309h-0.002
			l-1.001-0.003c-0.168,0-0.304-0.137-0.304-0.306C334.738,1.604,334.875,1.469,335.042,1.469z"/>
		<path class="st0" d="M340.043,1.455l1-0.003c0.178,0,0.322,0.144,0.322,0.32c0.001,0.178-0.143,0.321-0.32,0.322h-0.002l-1-0.003
			c-0.176,0-0.318-0.144-0.317-0.319C339.726,1.598,339.868,1.455,340.043,1.455z"/>
		<path class="st0" d="M345.043,1.441l1.001-0.003c0.185,0,0.335,0.149,0.336,0.334c0,0.185-0.149,0.335-0.334,0.336h-0.002
			l-1.001-0.003c-0.183-0.001-0.331-0.149-0.331-0.333C344.713,1.59,344.861,1.442,345.043,1.441z"/>
		<path class="st0" d="M350.044,1.428l1.001-0.003c0.192,0,0.349,0.155,0.349,0.348c0.001,0.192-0.154,0.349-0.347,0.35h-0.002
			l-1.001-0.003c-0.19-0.001-0.345-0.156-0.345-0.347C349.7,1.582,349.854,1.429,350.044,1.428z"/>
		<path class="st0" d="M355.045,1.414l1-0.003c0.2,0,0.363,0.161,0.363,0.361c0.001,0.2-0.161,0.362-0.361,0.363h-0.002l-1-0.003
			c-0.198-0.001-0.359-0.162-0.358-0.36C354.688,1.575,354.848,1.415,355.045,1.414z"/>
		<path class="st0" d="M360.045,1.4l1.001-0.003c0.208,0,0.376,0.168,0.377,0.375c0,0.207-0.167,0.376-0.375,0.377h-0.002
			l-1.001-0.003c-0.205-0.001-0.372-0.168-0.371-0.374C359.674,1.567,359.841,1.401,360.045,1.4z"/>
		<path class="st0" d="M365.046,1.387l1.001-0.003c0.215,0,0.39,0.174,0.39,0.389c0.001,0.215-0.173,0.39-0.388,0.391h-0.002
			l-1.001-0.003c-0.213-0.001-0.386-0.175-0.386-0.388C364.661,1.56,364.834,1.388,365.046,1.387z"/>
		<path class="st0" d="M370.047,1.373l1-0.002c0.223-0.001,0.403,0.179,0.404,0.401s-0.18,0.403-0.401,0.403h-0.003l-1-0.002
			c-0.222-0.001-0.399-0.181-0.399-0.401C369.648,1.552,369.827,1.374,370.047,1.373z"/>
		<path class="st0" d="M375.047,1.359l1.001-0.002c0.23-0.001,0.417,0.185,0.418,0.415c0,0.229-0.186,0.417-0.416,0.417h-0.002
			l-1.001-0.002c-0.229-0.001-0.413-0.187-0.412-0.415C374.636,1.545,374.82,1.36,375.047,1.359z"/>
		<path class="st0" d="M380.048,1.346l1.001-0.002c0.237-0.001,0.431,0.191,0.431,0.429c0.001,0.237-0.191,0.431-0.429,0.431h-0.002
			l-1.001-0.002c-0.236-0.001-0.427-0.193-0.426-0.429C379.622,1.537,379.813,1.347,380.048,1.346z"/>
		<path class="st0" d="M385.049,1.332l1-0.002c0.245-0.001,0.444,0.197,0.445,0.442s-0.197,0.444-0.442,0.444h-0.003l-1-0.002
			c-0.244-0.001-0.44-0.199-0.44-0.442C384.609,1.529,384.807,1.333,385.049,1.332z"/>
		<path class="st0" d="M390.049,1.323l1.001-0.001c0.249,0,0.451,0.202,0.451,0.451s-0.202,0.451-0.451,0.451l0,0l-1.001-0.001
			c-0.249,0-0.45-0.201-0.45-0.45S389.8,1.322,390.049,1.323z"/>
		<path class="st0" d="M395.05,1.321l1.001-0.001c0.25,0,0.453,0.203,0.453,0.453s-0.203,0.453-0.453,0.453l0,0l-1.001-0.001
			c-0.25,0-0.452-0.202-0.452-0.452S394.8,1.32,395.05,1.321z"/>
		<path class="st0" d="M400.051,1.319l1-0.001c0.252,0,0.455,0.204,0.455,0.455s-0.203,0.455-0.454,0.455h-0.001l-1-0.001
			c-0.251,0-0.455-0.203-0.455-0.454S399.8,1.318,400.051,1.319z"/>
		<path class="st0" d="M405.051,1.317l1.001-0.001c0.252,0,0.457,0.204,0.457,0.457c0,0.252-0.204,0.457-0.457,0.457l0,0
			l-1.001-0.001c-0.252,0-0.456-0.204-0.456-0.456S404.799,1.316,405.051,1.317z"/>
		<path class="st0" d="M410.052,1.315l1.001-0.001c0.253,0,0.458,0.205,0.459,0.459c0,0.253-0.206,0.459-0.459,0.459l0,0
			l-1.001-0.001c-0.253,0-0.458-0.205-0.458-0.458S409.799,1.315,410.052,1.315z"/>
		<path class="st0" d="M415.053,1.313l1-0.001c0.255,0,0.461,0.206,0.461,0.461c0,0.254-0.206,0.461-0.46,0.461h-0.001l-1-0.001
			c-0.255,0-0.461-0.206-0.461-0.46S414.798,1.313,415.053,1.313z"/>
		<path class="st0" d="M420.053,1.312l1.001-0.001c0.255,0,0.463,0.207,0.463,0.463c0,0.255-0.207,0.463-0.463,0.463l0,0
			l-1.001-0.001c-0.255,0-0.462-0.207-0.462-0.462C419.591,1.518,419.798,1.312,420.053,1.312z"/>
		<path class="st0" d="M425.054,1.31l1-0.001c0.257,0,0.465,0.208,0.465,0.465s-0.207,0.465-0.464,0.465h-0.001l-1-0.001
			c-0.257,0-0.464-0.208-0.464-0.464C424.59,1.517,424.797,1.31,425.054,1.31z"/>
		<path class="st0" d="M430.054,1.308l1.001-0.001c0.258,0,0.467,0.209,0.467,0.467s-0.209,0.467-0.467,0.467l0,0l-1.001-0.001
			c-0.257,0-0.466-0.209-0.466-0.466C429.588,1.516,429.797,1.308,430.054,1.308z"/>
		<path class="st0" d="M435.055,1.306l1.001-0.001c0.259,0,0.468,0.21,0.469,0.469c0,0.259-0.21,0.469-0.469,0.469l0,0l-1.001-0.001
			c-0.259,0-0.468-0.21-0.468-0.468C434.587,1.515,434.796,1.306,435.055,1.306z"/>
		<path class="st0" d="M440.056,1.304l1-0.001c0.26,0,0.471,0.211,0.471,0.471s-0.21,0.471-0.47,0.471h-0.001l-1-0.001
			c-0.26,0-0.47-0.21-0.47-0.47S439.796,1.304,440.056,1.304z"/>
		<path class="st0" d="M445.056,1.302l1.001-0.001c0.261,0,0.473,0.212,0.473,0.473s-0.211,0.473-0.473,0.473l0,0l-1.001-0.001
			c-0.26,0-0.472-0.211-0.472-0.472S444.796,1.302,445.056,1.302z"/>
		<path class="st0" d="M450.057,1.3l1.001-0.001c0.262,0,0.474,0.213,0.474,0.475c0.001,0.262-0.212,0.475-0.474,0.475l0,0
			l-1.001-0.001c-0.262,0-0.474-0.212-0.474-0.474S449.795,1.3,450.057,1.3z"/>
		<path class="st0" d="M455.058,1.298l1-0.001c0.264,0,0.477,0.214,0.477,0.477s-0.213,0.476-0.476,0.477h-0.001l-1-0.001
			c-0.263,0-0.476-0.213-0.476-0.476S454.795,1.298,455.058,1.298z"/>
		<path class="st0" d="M460.058,1.296l1.001-0.001c0.264,0,0.479,0.214,0.479,0.479c0,0.264-0.214,0.478-0.479,0.479l0,0
			l-1.001-0.001c-0.264,0-0.478-0.214-0.478-0.478S459.794,1.296,460.058,1.296z"/>
		<path class="st0" d="M465.059,1.294l1.001-0.001c0.265,0,0.479,0.215,0.479,0.48c0,0.265-0.215,0.479-0.479,0.48l0,0l-1.001-0.001
			c-0.265,0-0.479-0.215-0.479-0.479S464.794,1.294,465.059,1.294z"/>
		<path class="st0" d="M470.06,1.292l1-0.001c0.267,0,0.482,0.216,0.482,0.482c0,0.266-0.216,0.481-0.481,0.482h-0.001l-1-0.001
			c-0.267,0-0.481-0.216-0.481-0.481C469.578,1.507,469.793,1.292,470.06,1.292z"/>
		<path class="st0" d="M475.06,1.29h1.001c0.268-0.001,0.484,0.216,0.484,0.483c0,0.267-0.217,0.483-0.484,0.483l0,0h-1.001
			c-0.267,0-0.483-0.217-0.483-0.483C474.576,1.506,474.793,1.29,475.06,1.29z"/>
		<path class="st0" d="M480.061,1.288h1.001c0.268-0.001,0.485,0.217,0.485,0.485s-0.217,0.485-0.485,0.485l0,0h-1.001
			c-0.269,0-0.485-0.218-0.485-0.485C479.575,1.505,479.792,1.288,480.061,1.288z"/>
		<path class="st0" d="M485.062,1.286h1c0.27-0.001,0.488,0.218,0.488,0.487s-0.219,0.487-0.487,0.487h-0.001h-1
			c-0.27,0-0.487-0.219-0.487-0.487C484.574,1.504,484.792,1.286,485.062,1.286z"/>
		<path class="st0" d="M490.062,1.284h1.001c0.271-0.001,0.489,0.219,0.49,0.489c0,0.271-0.22,0.489-0.49,0.489l0,0h-1.001
			c-0.271,0-0.489-0.22-0.489-0.489C489.572,1.503,489.791,1.284,490.062,1.284z"/>
		<path class="st0" d="M495.062,1.282h1c0.271-0.001,0.492,0.22,0.492,0.491s-0.22,0.491-0.491,0.491h-0.001h-1
			c-0.271,0-0.491-0.22-0.491-0.491S494.791,1.282,495.062,1.282z"/>
		<path class="st0" d="M500.062,1.28h1.001c0.272,0,0.494,0.221,0.494,0.493s-0.221,0.493-0.493,0.493h-0.001h-1.001
			c-0.271,0-0.492-0.221-0.492-0.493S499.791,1.28,500.062,1.28z"/>
		<path class="st0" d="M505.063,1.278h1.001c0.273,0,0.495,0.222,0.495,0.495s-0.222,0.495-0.495,0.495l0,0h-1.001
			c-0.273,0-0.495-0.222-0.495-0.495S504.79,1.278,505.063,1.278z"/>
		<path class="st0" d="M510.064,1.276h1c0.275,0,0.498,0.222,0.498,0.497c0,0.274-0.223,0.497-0.497,0.497h-0.001h-1
			c-0.274,0-0.497-0.223-0.497-0.497S509.79,1.276,510.064,1.276z"/>
		<path class="st0" d="M515.064,1.274h1.001c0.276,0,0.499,0.223,0.5,0.499c0,0.275-0.224,0.499-0.499,0.499h-0.001h-1.001
			c-0.275,0-0.498-0.224-0.498-0.499S514.789,1.274,515.064,1.274z"/>
		<path class="st0" d="M520.065,1.279l1.001,0.003c0.271,0.001,0.49,0.222,0.489,0.492s-0.22,0.489-0.489,0.49l-1.001,0.003
			c-0.272,0-0.494-0.22-0.495-0.493c-0.001-0.272,0.22-0.494,0.492-0.495H520.065z"/>
		<path class="st0" d="M525.066,1.294l1,0.003c0.264,0.001,0.477,0.215,0.476,0.478s-0.213,0.475-0.476,0.476l-1,0.003
			c-0.265,0.001-0.48-0.213-0.481-0.479c0-0.265,0.214-0.479,0.479-0.48H525.066z"/>
		<path class="st0" d="M530.066,1.309l1.001,0.002c0.256,0.001,0.462,0.209,0.461,0.464s-0.207,0.461-0.461,0.462l-1.001,0.002
			c-0.257,0.001-0.466-0.207-0.466-0.464c-0.001-0.257,0.207-0.466,0.464-0.466H530.066z"/>
		<path class="st0" d="M535.067,1.322l1.001,0.003c0.247,0.001,0.447,0.202,0.446,0.449c0,0.247-0.2,0.446-0.446,0.447l-1.001,0.003
			c-0.249,0.001-0.451-0.201-0.452-0.45s0.2-0.451,0.449-0.452H535.067z"/>
		<path class="st0" d="M540.068,1.337l1,0.003c0.24,0,0.434,0.195,0.433,0.435c0,0.239-0.194,0.433-0.433,0.433l-1,0.003
			c-0.241,0.001-0.438-0.194-0.438-0.436s0.194-0.438,0.436-0.438H540.068z"/>
		<path class="st0" d="M545.068,1.351l1.001,0.003c0.231,0.001,0.419,0.189,0.419,0.421c-0.001,0.231-0.188,0.418-0.419,0.419
			l-1.001,0.003c-0.233,0-0.423-0.188-0.424-0.422c0-0.233,0.188-0.423,0.422-0.424H545.068z"/>
		<path class="st0" d="M550.069,1.365l1.001,0.003c0.224,0,0.404,0.183,0.404,0.406c-0.001,0.224-0.182,0.404-0.404,0.404
			l-1.001,0.003C549.844,2.183,549.66,2,549.66,1.774c-0.001-0.226,0.182-0.409,0.407-0.409H550.069z"/>
		<path class="st0" d="M555.07,1.379l1,0.003c0.217,0.001,0.391,0.177,0.391,0.393c-0.001,0.216-0.176,0.39-0.391,0.391l-1,0.003
			c-0.218,0-0.395-0.176-0.396-0.394s0.175-0.395,0.393-0.396H555.07z"/>
		<path class="st0" d="M560.07,1.394l1.001,0.003c0.208,0,0.377,0.17,0.376,0.378s-0.169,0.376-0.376,0.376l-1.001,0.003
			c-0.21,0.001-0.38-0.169-0.381-0.379c0-0.21,0.169-0.38,0.379-0.381H560.07z"/>
		<path class="st0" d="M565.071,1.408l1.001,0.002c0.2,0.001,0.362,0.164,0.361,0.364c0,0.2-0.162,0.361-0.361,0.362l-1.001,0.002
			c-0.202,0.001-0.366-0.162-0.367-0.364c0-0.202,0.163-0.366,0.365-0.366H565.071z"/>
		<path class="st0" d="M570.072,1.422l1,0.003c0.192,0.001,0.349,0.157,0.348,0.35c0,0.191-0.156,0.347-0.348,0.348l-1,0.003
			c-0.194,0-0.353-0.156-0.353-0.351c-0.001-0.194,0.156-0.352,0.351-0.353H570.072z"/>
		<path class="st0" d="M575.072,1.437l1.001,0.003c0.185,0,0.334,0.15,0.333,0.335c0,0.184-0.149,0.333-0.333,0.333l-1.001,0.003
			c-0.187,0.001-0.338-0.149-0.338-0.336c-0.001-0.187,0.15-0.338,0.336-0.338H575.072z"/>
		<path class="st0" d="M580.073,1.45l1.001,0.003c0.177,0.001,0.319,0.145,0.318,0.321c0,0.176-0.143,0.318-0.318,0.319
			l-1.001,0.003c-0.179,0-0.323-0.144-0.324-0.322c0-0.179,0.144-0.323,0.322-0.324H580.073z"/>
		<path class="st0" d="M585.074,1.465l1,0.003c0.169,0,0.306,0.138,0.306,0.307c-0.001,0.168-0.138,0.305-0.306,0.305l-1,0.003
			c-0.171,0.001-0.31-0.137-0.311-0.308c0-0.171,0.138-0.31,0.309-0.31H585.074z"/>
		<path class="st0" d="M590.074,1.479l1.001,0.003c0.161,0.001,0.291,0.132,0.291,0.293c-0.001,0.16-0.131,0.29-0.291,0.291
			l-1.001,0.003c-0.162,0-0.295-0.132-0.295-0.294c-0.001-0.163,0.131-0.295,0.293-0.296H590.074z"/>
		<path class="st0" d="M595.075,1.493l1,0.003c0.153,0,0.277,0.125,0.277,0.278c-0.001,0.152-0.124,0.276-0.277,0.276l-1,0.003
			c-0.155,0.001-0.281-0.125-0.281-0.279c-0.001-0.155,0.125-0.281,0.279-0.281H595.075z"/>
		<path class="st0" d="M600.075,1.507l1.001,0.003c0.146,0.001,0.263,0.119,0.263,0.265c0,0.145-0.118,0.262-0.263,0.263
			l-1.001,0.003c-0.146,0-0.267-0.119-0.267-0.266C599.809,1.627,599.927,1.508,600.075,1.507L600.075,1.507z"/>
		<path class="st0" d="M605.076,1.521l1.001,0.003c0.138,0,0.249,0.112,0.248,0.25c0,0.137-0.111,0.248-0.248,0.248l-1.001,0.003
			c-0.139,0-0.252-0.112-0.253-0.251C604.823,1.635,604.936,1.521,605.076,1.521L605.076,1.521z"/>
		<path class="st0" d="M610.077,1.536l1,0.002c0.13,0.001,0.235,0.106,0.234,0.236c0,0.129-0.104,0.233-0.234,0.234l-1,0.002
			c-0.132,0.001-0.238-0.105-0.238-0.236c-0.001-0.132,0.105-0.238,0.236-0.238H610.077z"/>
		<path class="st0" d="M615.077,1.553l1.001,0.005c0.119,0.001,0.215,0.098,0.215,0.217c-0.001,0.118-0.097,0.214-0.215,0.215
			l-1.001,0.005c-0.122,0.001-0.222-0.098-0.222-0.22c-0.001-0.122,0.098-0.222,0.22-0.222H615.077z"/>
		<path class="st0" d="M620.078,1.579l1.001,0.005c0.104,0.001,0.188,0.086,0.188,0.19c0,0.104-0.084,0.188-0.188,0.188
			l-1.001,0.005c-0.107,0.001-0.195-0.086-0.195-0.193c-0.001-0.107,0.086-0.195,0.193-0.195H620.078z"/>
		<path class="st0" d="M625.079,1.605l1,0.005c0.09,0.001,0.163,0.074,0.162,0.164c0,0.089-0.073,0.161-0.162,0.162l-1,0.005
			c-0.093,0.001-0.169-0.074-0.169-0.167c-0.001-0.093,0.074-0.169,0.167-0.169H625.079z"/>
		<path class="st0" d="M630.079,1.632l1.001,0.006c0.075,0,0.136,0.062,0.136,0.137c-0.001,0.074-0.062,0.135-0.136,0.135
			l-1.001,0.006c-0.078,0-0.142-0.062-0.142-0.141C629.937,1.696,630,1.633,630.079,1.632L630.079,1.632z"/>
		<path class="st0" d="M635.08,1.658l1.001,0.006c0.061,0,0.109,0.05,0.108,0.11c0,0.06-0.049,0.108-0.108,0.108l-1.001,0.006
			c-0.063,0-0.115-0.051-0.115-0.114C634.964,1.711,635.016,1.659,635.08,1.658L635.08,1.658z"/>
		<path class="st0" d="M640.081,1.686l1,0.005c0.046,0,0.083,0.038,0.083,0.083c0,0.046-0.037,0.083-0.083,0.083l-1,0.005
			c-0.049,0.001-0.089-0.039-0.089-0.088C639.991,1.725,640.031,1.686,640.081,1.686L640.081,1.686z"/>
		<path class="st0" d="M645.081,1.712l1.001,0.005c0.031,0,0.057,0.025,0.056,0.057c0,0.031-0.024,0.057-0.056,0.057l-1.001,0.005
			c-0.034,0-0.062-0.027-0.062-0.062C645.019,1.739,645.047,1.712,645.081,1.712L645.081,1.712z"/>
	</g>
</g>
</svg>
