<?xml version="1.0" encoding="utf-8"?>
<!-- Generator: Adobe Illustrator 16.0.0, SVG Export Plug-In . SVG Version: 6.00 Build 0)  -->
<!DOCTYPE svg PUBLIC "-//W3C//DTD SVG 1.1//EN" "http://www.w3.org/Graphics/SVG/1.1/DTD/svg11.dtd">
<svg version="1.1" id="Layer_1" xmlns="http://www.w3.org/2000/svg" xmlns:xlink="http://www.w3.org/1999/xlink" x="0px" y="0px"
	 width="548px" height="124px" viewBox="0 0 548 124" style="enable-background:new 0 0 548 124;" xml:space="preserve">
<style type="text/css">
<![CDATA[
	.st0{fill:#FFFFFF;}
	.st1{fill:#CAC1B0;}
]]>
</style>
<g>
	<path class="st0" d="M81.789,14.129c0,0,126.334-7.117,176.868-3.914c0,0,118.146-1.424,148.752,1.423
		c30.604,2.848,53.022-6.049,53.735,4.271c0,0,13.167,77.223-1.779,91.458c0,0-22.782,9.463-42.529,7.577
		c-19.747-1.885-158.892-3.307-197.326,1.675c0,0-89.678-6.763-134.872-2.847c0,0-7.472-9.608-4.271-26.69
		c0,0,6.589-46.296,2.585-60.223C78.943,12.931,78.587,18.044,81.789,14.129z"/>
	<g>
		<g>
			<path class="st1" d="M0.225,70.257c6.424,6.012,14.028,11.176,23.31,9.596c5.623-0.957,10.904-3.893,16.276-5.756
				c3.091-1.072,6.216-2.121,9.394-2.91c1.782-0.441,3.635-0.312,5.494-0.104c0.27,0.396,0.933,0.546,1.271,0.168
				c0.377,0.074,0.755,0.152,1.139,0.211c0.178,0.027,0.331-0.006,0.467-0.061c0.56,0.05,1.118,0.082,1.666,0.088
				c-0.002-0.012-0.002-0.025-0.004-0.035c0.959-0.051,1.088-1.453,0.004-1.572c-0.872-0.093-1.896-0.334-2.962-0.584
				c-0.933-4.027-10.421-7.149-13.336-7.229c-6.307-0.17-12.572-1.154-18.744,0.771c-3.292,1.029-6.431,2.424-9.68,3.571
				c-3.326,1.179-6.856,1.435-10.119,2.629c-0.283,0.106-0.447,0.349-0.489,0.603c-1.058-0.69-2.164-1.084-3.354-0.638
				C0.057,69.191-0.218,69.841,0.225,70.257z M54.234,68.858c-0.175-0.033-0.344-0.059-0.518-0.089
				c-6.539-1.896-13.55-3.431-19.934-0.696c-5.358,2.293-11.466,2.369-17.22,2.402c-1.772,0.01-3.352-0.203-4.931-0.51
				c2.222-0.662,4.392-1.621,6.31-2.389c4.985-1.996,9.884-3.938,15.356-3.953c3.765-0.01,8.368-0.328,11.984,0.801
				C46.467,64.797,52.47,66.719,54.234,68.858z M7.901,72.678c-0.858-0.472-1.718-1.251-2.606-1.983
				c7.819,3.52,16.46,1.813,24.704,0.924c1.678-0.18,3.316-1.053,4.845-1.729c2.841-1.256,5.444-1.066,8.388-1.083
				c1.552-0.01,3.031,0.189,4.481,0.479c-2.372,0.568-4.723,1.211-7.036,1.992c-5.091,1.715-10.205,4.446-15.427,5.648
				c-3.007,0.692-6.427,0.957-9.469,0.229C12.544,76.379,10.711,74.229,7.901,72.678z"/>
			<path class="st1" d="M68.223,68.705c0.291-0.042,0.584-0.083,0.876-0.126c0.675-0.096,1.247-0.117,1.861,0.243
				c0.733,0.43,1.195,1.235,1.195,2.087c0,0.637-0.256,1.257-0.706,1.705c-0.668,0.668-1.465,0.746-2.351,0.623
				c-0.292-0.043-0.586-0.086-0.876-0.127c-0.989-0.139-1.678-1.283-1.678-2.201C66.545,69.992,67.234,68.847,68.223,68.705z"/>
		</g>
		<g>
			<path class="st1" d="M547.443,69.004c-1.189-0.446-2.297-0.053-3.354,0.638c-0.042-0.254-0.206-0.496-0.492-0.603
				c-3.263-1.194-6.791-1.45-10.115-2.629c-3.25-1.147-6.388-2.542-9.682-3.571c-6.171-1.925-12.436-0.94-18.743-0.771
				c-2.916,0.081-12.403,3.202-13.337,7.229c-1.068,0.25-2.09,0.491-2.963,0.584c-1.082,0.119-0.953,1.521,0.006,1.572
				c-0.003,0.01-0.003,0.023-0.006,0.035c0.552-0.006,1.107-0.038,1.667-0.088c0.136,0.055,0.288,0.088,0.467,0.061
				c0.384-0.059,0.761-0.137,1.14-0.211c0.337,0.378,1,0.229,1.27-0.168c1.859-0.209,3.713-0.338,5.494,0.104
				c3.178,0.789,6.301,1.838,9.393,2.91c5.373,1.863,10.654,4.799,16.277,5.756c9.281,1.58,16.885-3.584,23.31-9.596
				C548.218,69.841,547.943,69.191,547.443,69.004z M502.719,64.425c3.616-1.129,8.22-0.811,11.984-0.801
				c5.471,0.016,10.371,1.957,15.356,3.953c1.917,0.768,4.088,1.727,6.31,2.389c-1.58,0.307-3.16,0.52-4.932,0.51
				c-5.754-0.033-11.861-0.109-17.221-2.402c-6.385-2.734-13.395-1.199-19.934,0.696c-0.174,0.03-0.343,0.056-0.519,0.089
				C495.529,66.719,501.532,64.797,502.719,64.425z M532.216,77.153c-3.04,0.729-6.46,0.464-9.467-0.229
				c-5.222-1.202-10.339-3.934-15.427-5.648c-2.314-0.781-4.664-1.424-7.037-1.992c1.451-0.289,2.931-0.488,4.482-0.479
				c2.943,0.017,5.547-0.173,8.389,1.083c1.527,0.677,3.166,1.55,4.844,1.729c8.244,0.89,16.886,2.596,24.705-0.924
				c-0.889,0.732-1.749,1.512-2.607,1.983C537.288,74.229,535.455,76.379,532.216,77.153z"/>
			<path class="st1" d="M479.777,68.705c-0.293-0.042-0.584-0.083-0.877-0.126c-0.676-0.096-1.247-0.117-1.861,0.243
				c-0.733,0.43-1.195,1.235-1.195,2.087c0,0.637,0.256,1.257,0.706,1.705c0.667,0.668,1.465,0.746,2.351,0.623
				c0.293-0.043,0.584-0.086,0.877-0.127c0.988-0.139,1.678-1.283,1.678-2.201C481.455,69.992,480.766,68.847,479.777,68.705z"/>
		</g>
		<path class="st1" d="M473.078,75.771c-0.089-2.24-2.217-2.934-4.493-3.229c1.87-0.45,3.286-1.396,2.531-3.812
			c-0.431-1.387-1.756-2.742-3.249-3.375c1.439-0.696,3.917-1.921,4.189-3.188c0.309-1.446-1.355-2.509-2.478-2.903
			c-0.497-0.172-1.205-0.195-1.95-0.189c1.922-0.64,3.733-1.74,3.588-3.527c-0.112-1.362-1.516-2.186-2.6-2.693
			c-0.457-0.214-0.946-0.394-1.441-0.552c2.922-0.221,5.975-0.915,4.878-3.593c-0.867-2.119-3.412-4.031-5.927-4.573
			c2.279-1.083,4.535-2.735,2.805-5.291c-0.263-0.384-0.864-0.807-1.574-1.166c0.166-0.03,0.328-0.062,0.419-0.088
			c1.284-0.395,2.168-1.236,2.142-2.624c-0.027-1.466-0.707-2.818-1.942-3.586c-0.396-0.247-0.823-0.399-1.263-0.508
			c0.191-0.071,0.381-0.157,0.578-0.265c0.813-0.451,3.301-1.519,3.427-2.725c0.204-1.972-2.983-2.619-5.243-2.72
			c2.66-1.087,6.654-3.504,6.436-5.923c-0.103-1.147-1.556-2.394-2.57-2.839c-0.711-0.311-1.599-0.253-2.489-0.072
			c2.021-1.687,3.727-3.725,1.202-6.389c-0.896-0.944-2.709-0.71-4.123,0.048c0.097-0.3,0.204-0.583,0.251-0.948
			c0.136-1.06,0.317-2.904-0.778-3.57c-1.025-0.625-2.57,0.343-3.436,1.019c-0.119-0.859-0.462-1.684-1.282-2.032
			c-1.901-0.806-3.522,0.892-4.51,2.866c-0.192-1.637-1.024-3.186-2.657-3.24c-0.955-0.031-1.871,0.609-2.604,1.49
			c-0.431-0.807-1.142-1.447-2.114-1.687c-1.809-0.446-3.645,0.691-4.814,2.275c-0.104-0.301-0.229-0.599-0.402-0.906
			c-0.631-1.118-1.615-2.375-3.023-2.294c-1.908,0.113-3.396,1.727-4.205,3.571c-0.645-2.022-1.816-3.883-4.098-3.589
			c-2.004,0.259-3.896,2.268-4.592,4.333c-0.273-1.826-0.658-3.611-2.878-3.512c-1.343,0.061-2.575,0.75-3.408,1.745
			c-0.541-1.437-1.605-2.506-3.554-2.203c-1.79,0.279-3.553,2.011-4.539,3.895c-0.012-0.531-0.078-1.05-0.465-1.595
			c-0.569-0.804-1.312-1.194-2.283-1.119c-1.35,0.104-2.875,1.122-3.97,2.419c-0.546-1.438-1.788-2.512-3.718-2.685
			c-1.155-0.103-2.371,0.892-3.131,2.119c-0.643-1.902-2.52-3.688-4.28-3.651c-2.071,0.045-3.698,1.271-4.69,2.922
			c-0.727-1.178-2.1-1.928-3.9-1.693c-0.831,0.109-1.921,0.813-2.723,1.711c-0.469-1.802-2.576-2.247-4.99-1.86
			c-1.592,0.256-3.059,0.565-4.148,1.716c-0.802-1.523-2.407-2.542-4.359-2.626c-2.416-0.104-4.013,1.364-4.781,3.373
			c-0.647-0.92-1.629-1.56-3.15-1.762c-1.379-0.182-2.354,0.356-2.961,1.231c-0.506-1.606-1.49-2.898-3.546-2.808
			c-2.069,0.092-4.106,1.595-5.021,3.506c-1.398-2.699-6.104-2.972-7.688-0.652c-0.994-1.092-2.484-1.989-3.396-2.068
			c-1.748-0.153-3.488,1.241-3.877,2.882c-0.358-0.447-0.799-0.845-1.259-1.169c-0.944-0.666-2.446-1.472-3.656-1.356
			c-0.998,0.096-2.019,0.797-2.782,1.725c-0.795-1.058-2.039-1.813-3.432-1.918c-1.326-0.101-3.077,0.739-4.143,1.942
			c-0.369-0.885-1.121-1.429-2.139-1.547c-2.402-0.279-4.232,1.23-5.428,3.103c-0.125-2.085,0.309-4.591-2.859-3.789
			c-1.029,0.26-3.057,1.548-4.014,2.979c-0.354-1.42-0.75-2.7-3.178-2.652c-2.069,0.04-3.591,0.907-4.475,2.321
			c-0.332-1.832-1.05-3.608-2.901-3.397c-1.282,0.145-3.033,1.692-3.957,3.357c-0.201-0.386-0.372-0.698-0.452-0.787
			c-0.853-0.958-2.061-1.644-3.352-1.778c-2.709-0.285-3.877,1.465-4.754,3.506c-1.331-2.367-3.227-4.033-6.375-3.303
			c-1.483,0.345-4.677,1.721-5.753,3.522c-0.909-1.118-2.053-2.482-2.391-2.705c-1.041-0.689-1.934-1.048-3.204-0.939
			c-2.206,0.19-3.921,1.419-4.725,3.231c-1.28-2.057-3.379-3.507-5.993-3.098c-1.636,0.255-3.701,1.387-4.751,2.934
			c-0.724-1.17-1.729-2.571-2.501-2.842c-2.44-0.858-4.193,1.167-5.792,2.679c-0.897-2.321-2.18-3.559-5.154-3.051
			c-1.789,0.306-4.123,1.316-5.234,2.909c-0.64-1.631-2.135-3.056-3.689-3.68c-3.068-1.232-5.128,0.651-6.45,3.095
			c-1.507-3.721-7.477-2.438-9.307,0.847c-2.072-3.66-8.103-4.355-10.238-0.75c-0.785-1.752-1.886-3.206-4.109-3.312
			c-3.248-0.156-5.327,1.671-6.703,4.08c-0.249-0.554-0.513-1.082-0.759-1.535c-0.776-1.424-2.077-2.485-3.741-2.487
			c-2.142-0.002-3.865,1.563-5.266,2.998c-0.176,0.18-0.396,0.389-0.624,0.616c-0.173-1.106-0.497-2.229-0.931-2.945
			c-0.775-1.283-2.433-2.156-3.898-1.95c-1.718,0.241-2.707,1.185-3.586,2.479c-0.745-2.038-2.381-3.777-4.336-3.672
			c-2.436,0.13-5.326,1.794-6.812,4.08c-0.147-0.436-0.316-0.846-0.506-1.174c-0.938-1.602-2.368-1.982-4.102-2.1
			c-2.056-0.139-3.668,0.447-4.795,2.233c-0.272,0.431-0.584,0.948-0.853,1.497c-0.284-0.42-0.596-0.823-0.938-1.183
			c-1.134-1.194-3.141-1.959-4.793-1.717c-1.43,0.211-3.792,1.972-4.789,3.838c-0.044-0.063-0.107-0.147-0.147-0.206
			c-1.01-1.541-2.222-3.512-4.269-3.632c-2.008-0.118-4.165,1.733-5.376,3.884c-0.143-0.467-0.338-0.922-0.687-1.34
			c-1.088-1.302-2.665-2.171-4.388-1.833c-2.888,0.567-4.613,2.405-5.386,4.775c-0.014-0.028-0.035-0.066-0.045-0.079
			c-0.461-0.701-1.071-1.425-1.607-2.074c-1.791-2.158-3.912-1.766-6.012-0.395c-1.329,0.866-2.309,1.872-2.935,3.213
			c-0.247-0.764-0.527-1.512-0.872-2.208c-0.652-1.318-1.768-1.493-3.129-1.315c-2.03,0.265-2.977,0.576-4.055,2.32
			c-0.232,0.377-0.463,0.799-0.677,1.237c-0.236-0.741-0.513-1.464-0.806-2.147c-0.673-1.568-1.877-2.164-3.57-2.044
			c-2.838,0.202-5.093,2.371-6.314,4.907c-0.206-0.597-0.405-1.195-0.64-1.786c-0.717-1.796-1.924-1.476-3.539-1.162
			c-1.936,0.377-3.673,0.504-4.718,2.401c-0.666,1.208-0.77,2.613-0.366,3.89c-3.03,0.299-4.385,2.08-4.439,5.604
			c-0.019,1.168,0.063,1.335,0.745,2.25c0.415,0.559,1.034,1.25,1.615,1.606c0.045,0.028,0.141,0.049,0.213,0.074
			c-1.821,0.83-3.167,2.351-3.281,4.618c-0.141,2.727,1.879,3.858,4.135,4.435c-3.959,2.292-4.081,7.308,0.155,8.869
			c-2.037,1.125-3.725,2.794-3.755,5.329c-0.035,2.657,1.55,4.294,3.713,5.12c-4.268,2.973-2.611,10.602,0.689,12.178
			c-1.901,0.467-3.466,2.379-3.525,4.426c-0.075,2.654,1.884,3.522,3.973,4.052c-2.154,1.181-4.287,3.516-4.294,5.081
			c-0.007,1.971,1.488,3.742,3.143,4.451c0.028,0.014,0.078,0.029,0.108,0.043c-0.743,0.352-1.418,0.914-1.959,1.55
			c-0.561,0.653-0.474,1.311-0.598,2.127c-0.143,0.915-0.511,1.797-0.482,2.734c0.03,1.011,0.482,1.591,1.12,2.016
			c-0.14,0.103-0.281,0.177-0.419,0.317c-1.13,1.145-2.279,2.994-2.726,4.523c-0.736,2.509,1.348,4.201,3.469,5.282
			c-2.442,1.096-4.467,3.981-3.577,6.509c0.499,1.408,1.449,3.24,2.606,4.143c-0.246,0.223-0.452,0.453-0.586,0.666
			c-1.038,1.637-1.333,3.777-0.344,5.501c0.609,1.058,2.468,3.039,3.909,2.646c0.992-0.269,1.583-1.494,2.241-2.186
			c0.103-0.107,0.218-0.176,0.326-0.271c0.289,2.539,1.88,5.547,4.439,4.994c0.884-0.19,2.539-1.379,3.361-2.648
			c1.111,1.929,2.588,3.506,5.229,2.479c1.437-0.561,2.278-1.781,2.627-3.152c0.371,2.335,0.113,5.246,3.485,4.932
			c2.098-0.199,3.495-1.917,4.074-3.854c0.727,1.239,1.768,2.211,3.099,2.127c1.58-0.1,3.755-1.584,5.093-3.293
			c0.523,2.55,1.84,4.977,4.842,4.242c1.235-0.305,2.862-1.361,3.741-2.258c0.699-0.709,0.952-1.396,1.034-2.142
			c1.104,1.866,2.316,3.252,5.187,2.068c0.876-0.362,1.451-0.847,1.877-1.527c0.731,2.336,1.929,4.515,4.083,3.897
			c1.507-0.43,3.139-2.826,3.877-5.109c0.839,1.433,2.175,2.566,3.717,2.486c1.705-0.086,2.988-1.047,3.748-2.364
			c0.363,0.659,0.757,1.28,1.055,1.815c0.586,1.051,1.502,2.506,2.946,2.229c1.085-0.211,2.332-1.584,3.085-3.124
			c0.703,1.354,1.802,2.419,3.269,2.28c1.264-0.118,2.309-1.051,2.928-2.232c0.691,1.963,2.466,3.716,4.402,3.514
			c1.753-0.184,2.62-1.895,3.516-3.232c0.005,0.012,0.007,0.026,0.012,0.035c0.366,0.877,0.851,1.704,1.514,2.389
			c0.767,0.787,1.772,1.501,2.937,1.399c1.354-0.117,2.133-1.107,2.571-2.351c0.239,0.754,0.487,1.406,0.625,1.63
			c0.68,1.094,2.126,1.838,3.422,1.676c1.76-0.218,2.651-1.349,3.071-2.754c0.724,1.395,1.816,2.454,3.368,2.353
			c1.749-0.111,2.859-1.132,3.344-2.459c0.609,2.15,1.451,3.974,4.393,3.373c2.008-0.41,3.358-1.697,3.743-3.326
			c1.224,1.613,2.846,2.798,5.196,2.588c1.345-0.12,2.135-0.729,2.611-1.564c0.654,1.722,1.788,3.064,3.912,2.414
			c1.699-0.521,3.337-2.066,3.977-3.838c0.754,1.523,1.692,2.608,4.048,2.174c2.229-0.411,2.944-1.326,3.105-2.696
			c0.5,1.158,0.997,2.509,1.275,2.863c1.018,1.294,2.576,2.249,4.256,1.878c1.899-0.422,2.878-1.82,3.312-3.457
			c0.469,1.332,1.229,2.413,2.958,2.334c2.182-0.102,3.16-1.874,3.537-3.83c0.469,2.17,1.024,4.266,3.989,4.021
			c1.458-0.12,3.633-1.89,4.324-3.094c1.05,1.566,2.703,2.368,5.185,1.172c0.633-0.306,1.401-1.162,2.023-2.168
			c0.408,2.002,1.479,3.404,4.596,2.83c1.243-0.229,2.522-0.971,3.338-1.934c0.457-0.537,0.696-1.069,0.83-1.605
			c0.918,1.751,2.327,3.057,4.57,2.215c0.862-0.322,1.626-1.16,2.147-2.164c0.598,2.203,1.824,4.23,4.137,4.092
			c2.128-0.127,3.919-1.816,4.735-3.826c0.891,1.607,2.297,2.59,4.661,1.558c1.111-0.485,2.228-1.552,3.005-2.807
			c0.082,0.979,0.283,1.917,0.939,2.552c0.945,0.914,2.544,0.88,3.647,0.301c1.064-0.558,2.323-1.605,3.177-2.834
			c0.473,1.406,1.352,2.535,2.994,2.373c1.109-0.109,1.963-0.882,2.623-1.738c0.281-0.365,0.609-0.97,0.82-1.438
			c0.274,1.106,0.586,2.599,0.945,3.047c0.771,0.965,2.66,2.766,3.996,2.816c2.562,0.098,3.9-2.277,4.709-4.666
			c0.531,1.48,1.551,2.686,3.234,2.752c2.245,0.088,3.534-1.003,4.284-2.531c0.333,1.113,0.762,2.201,0.994,2.487
			c0.879,1.073,2.222,1.481,3.593,1.276c1.439-0.216,3.261-1.264,4.201-2.355c0.33-0.383,0.562-0.766,0.738-1.15
			c0.719,1.744,1.957,2.943,4.141,2.127c1.222-0.457,3.195-1.939,4.245-3.592c0.11,2.057,0.374,4.436,2.409,4.457
			c1.57,0.018,3.689-2.314,4.604-3.334c0.271-0.303,0.464-0.59,0.619-0.873c0.684,1.606,1.647,2.82,4.008,2.45
			c1.498-0.235,2.602-1.159,3.281-2.376c0.438,2.721,0.684,6.029,4.172,5.313c2.766-0.566,4.818-2.774,5.48-5.341
			c1.113,2.228,2.729,3.646,5.573,2.404c1.235-0.539,2.04-1.565,2.442-2.768c0.26,1.861,0.822,3.523,3.321,3.637
			c1.999,0.089,3.75-1.344,4.657-3.1c0.72,1.969,1.715,4.257,3.939,3.637c1.219-0.338,2.271-1.67,2.923-2.691
			c0.162-0.254,0.46-1.237,0.745-2.143c1.217,2.639,1.203,5.297,5.354,4.648c1.354-0.213,4.693-1.404,5.511-3.163
			c0.228,0.5,0.448,0.934,0.598,1.077c1.017,0.991,2.372,1.551,3.825,1.453c1.997-0.137,3.134-1.572,3.71-3.27
			c0.378,2.105,0.368,4.047,3.634,4.049c2.857,0.006,5.91-2.156,6.936-4.852c0.183,0.821,0.365,1.65,1.102,2.286
			c0.928,0.8,2.432,1.149,3.611,1.085c1.814-0.101,3.214-1.167,4.055-2.611c0.305,1.988,1.245,4.368,3.09,4.6
			c2.543,0.316,3.998-1.873,4.855-4.102c0.589,1.527,1.799,2.794,3.43,2.484c1.232-0.235,2.365-1.203,3.014-2.236
			c0.083-0.131,0.261-0.598,0.422-1.141c0.978,1.975,1.576,4.311,4.362,4.077c2.241-0.187,4.053-1.949,4.521-4.005
			c1.354,1.663,2.859,2.756,5.484,1.781c1.753-0.647,2.386-1.408,2.571-2.359c0.896,1.562,2.185,2.867,3.947,2.566
			c1.097-0.188,2.59-1.238,3.174-2.207c0.355-0.592,0.424-1.219,0.408-1.856c1,1.556,2.156,2.896,4.541,2.491
			c2.368-0.402,1.992-2.541,2.621-4.301c0.033,0.025,0.075,0.062,0.105,0.082c0.738,0.459,1.523,0.869,2.407,0.957
			c1.099,0.109,2.546-0.709,2.975-1.762c0.513-1.264-0.474-2.438-1.322-3.243c-0.218-0.204-0.452-0.427-0.687-0.646
			c1.492-0.004,3.277,0.029,4.624-0.506c0.244-0.097,0.403-0.315,0.333-0.589c-0.298-1.159-1.498-2.059-2.442-2.704
			c-0.372-0.252-0.823-0.609-1.306-0.945c0.066-0.01,0.129-0.007,0.197-0.019c1.249-0.229,3.38-0.619,4.008-1.943
			c0.673-1.418-0.256-2.983-1.338-3.827c-0.359-0.277-0.765-0.526-1.182-0.755c1.641-0.35,2.863-1.224,2.143-3.249
			c-0.439-1.225-1.711-1.898-2.795-2.586c1.911,0.087,3.77-0.072,3.746-2.151c-0.017-1.257-1.17-2.685-2.079-3.467
			c-0.375-0.323-0.727-0.509-1.071-0.618c1.451-0.5,2.643-1.32,1.918-2.879c-0.346-0.744-1.111-1.443-2.021-1.971
			c0.657-0.063,1.307-0.173,1.89-0.416C472.035,78.456,473.135,77.246,473.078,75.771 M468.359,66.631
			c0.448,0.497,0.894,0.993,1.342,1.491c0.744,0.876,0.621,1.629-0.373,2.264c-0.954,1.227-1.692,1.267-3.104,1.443
			c-0.232,0.029-0.465,0.033-0.696,0.045c0.007-0.832,0.003-1.677,0.035-2.492c0.04-1.093,0.052-2.18,0.062-3.27
			c0.318-0.038,0.635-0.107,0.951-0.202C467.176,66.075,467.85,66.271,468.359,66.631 M469.66,60.624
			c2.152,1.616-0.934,2.766-2.35,3.581c-0.619,0.357-1.158,0.512-1.672,0.576c0-1.552-0.03-3.1-0.077-4.647
			C466.938,60.133,468.477,59.734,469.66,60.624 M467.416,53.503c1.778,0.753,2.652,2.694,0.719,4.069
			c-0.687,0.486-1.686,0.756-2.635,0.915c-0.074-1.954-0.166-3.906-0.273-5.854C465.898,53.015,466.687,53.194,467.416,53.503
			 M467.773,46.174c1.557,0.959,4.193,4.176,0.95,4.511c-1.173,0.122-2.405,0.101-3.594,0.233c-0.112-1.945-0.223-3.891-0.327-5.838
			C465.856,45.135,466.886,45.626,467.773,46.174 M466.352,43.141c-0.502,0.264-1.055,0.439-1.617,0.604
			c-0.096-1.951-0.186-3.903-0.236-5.862c0.201,0.003,0.407-0.005,0.613-0.009c0.633,0.146,1.247,0.362,1.719,0.692
			C468.044,39.413,467.812,42.37,466.352,43.141 M467.86,35.493c-0.874,1.206-1.437,1.154-2.815,1.085
			c-0.201-0.011-0.393-0.055-0.588-0.084c-0.025-1.512-0.035-3.029-0.012-4.549c0-0.069,0.005-0.15,0.008-0.22
			C466.956,32.187,469.811,32.799,467.86,35.493 M465.646,26.136c0.785,0.08,4.625,0.434,3.31,2.155
			c-0.623,0.815-2.992,1.699-3.881,1.812c-0.188,0.023-0.373,0.02-0.559,0.017c0.07-1.279,0.174-2.675,0.272-4.125
			C465.262,26.094,465.721,26.143,465.646,26.136 M467.84,17.423c1.006,0.253,1.889,0.712,2.648,1.376
			c0.35,0.861,0.139,1.513-0.638,1.953c-0.993,1.389-3.124,2.773-4.952,3.52c0.111-2.079,0.131-4.201-0.035-6.232
			C465.779,17.776,466.968,17.374,467.84,17.423 M465.617,10.635c2.021-0.159,2.804,1.983,1.723,3.871
			c-0.583,1.02-1.654,1.538-2.617,2.158c-0.251-1.825-0.708-3.52-1.496-4.954C464.075,11.473,465.875,10.614,465.617,10.635
			 M459.861,8.926c0.871-1.492,2.386-2.839,2.972-1.064c0.306,0.919-0.052,1.715-0.581,2.443c-0.429-0.371-1.155-0.521-1.657-0.345
			c-0.3,0.103-0.653,0.167-1.001,0.238C459.719,9.787,459.81,9.355,459.861,8.926 M456.789,6.018
			c0.402-0.557,0.822-0.58,1.258-0.067c0.502,0.072,0.722,0.322,0.663,0.754c0.108,0.385,0.012,0.813-0.099,1.222
			c-0.522,0.742-0.836,1.586-0.826,2.499c-1.217,0.069-2.562,0.036-3.945-0.058C454.267,8.715,455.305,6.652,456.789,6.018
			 M449.389,7.343c0.333-0.694,0.755-1.277,1.215-1.297c0.682-0.029,2.224,1.609,2.25,2.356c0.009,0.328-0.286,1.185-0.375,1.556
			c-0.029,0.12,0.012,0.212,0.037,0.31c-1.324-0.115-2.627-0.255-3.837-0.384C449.197,9.146,449.436,8.241,449.389,7.343
			 M442.135,7.911c0.027-0.167,0.027-0.322,0.035-0.479c0.785-1.054,1.788-1.984,2.881-2.256c1.366-0.339,2.623,0.509,3.021,1.655
			c-0.509,0.974-0.79,2.021-0.687,2.802c0.007,0.044,0.037,0.082,0.052,0.124c-0.678-0.067-1.319-0.123-1.872-0.151
			c-1.325-0.069-2.638-0.151-3.953-0.231c-0.006-0.006-0.006-0.014-0.016-0.02C441.579,9.339,442.09,8.181,442.135,7.911
			 M435.67,6.722c0.865-1.545,1.484-2.192,3.254-1.674c2.027,0.592,1.572,1.708,1.485,3.647c-0.005,0.13-0.116,0.418-0.169,0.6
			c-1.715-0.103-3.438-0.168-5.153-0.249C435.117,8.246,435.262,7.451,435.67,6.722 M429.613,4.472
			c1.287-0.219,3.053,1.682,3.475,2.733c0.193,0.484,0.354,1.158,0.469,1.777c-0.847-0.032-1.684-0.088-2.534-0.105
			c-1.673-0.034-3.35-0.013-5.025-0.014C426.525,7.283,428.041,4.739,429.613,4.472 M422.453,5.208
			c1.12-0.112,1.367,0.383,1.774,1.619c0.228,0.686,0.244,1.362,0.316,2.032c-1.567,0.005-3.136-0.012-4.704,0.007
			c0.019-0.388,0.014-0.789-0.014-1.204C420.151,6.434,421.236,5.332,422.453,5.208 M414.154,5.519
			c0.693-0.835,1.504-0.71,2.432,0.378c1.301-0.048,1.934,0.388,1.901,1.302c-0.149,0.541-0.173,1.105-0.077,1.682
			c-2.273,0.026-4.547,0.056-6.818,0.07c-0.025-0.082-0.094-0.138-0.147-0.202C412.03,7.435,413.01,6.108,414.154,5.519
			 M409.469,6.343c0.73,0.584,0.365,1.693,0.545,2.614c-1.654,0.003-3.309-0.012-4.963-0.04
			C405.955,7.204,408.083,5.238,409.469,6.343 M397.846,8.358c0.355-0.723,0.814-1.526,1.214-1.841
			c0.668-0.527,2.521-0.763,3.288-0.341c0.701,0.388,1.001,1.605,0.992,2.69c-1.602-0.042-3.2-0.061-4.801-0.15
			c-0.254-0.014-0.506-0.02-0.76-0.034C397.822,8.579,397.819,8.464,397.846,8.358 M389.293,7.589
			c0.4-1.281,1.201-2.461,2.512-3.006c2.236-0.933,5.268,1.598,4.662,3.995c-0.004,0.017,0.008,0.028,0.008,0.046
			c-2.41-0.129-4.811-0.218-7.213-0.322C389.302,8.058,389.295,7.825,389.293,7.589 M388.062,7.122
			c-0.12,0.366-0.214,0.737-0.274,1.113c-1.901-0.077-3.81-0.19-5.708-0.254C382.738,5.318,387.666,4.636,388.062,7.122
			 M380.482,7.933c-2.326-0.074-4.646-0.102-6.969-0.155c0.002-0.203,0.019-0.412-0.002-0.606
			C375.053,5.528,382.8,2.13,380.482,7.933 M365.729,5.254c2.225-1.429,5.661-0.934,6.3,1.613c-0.119,0.291-0.198,0.587-0.196,0.873
			c-2.435-0.049-4.872-0.133-7.306-0.162c-0.037-0.122-0.105-0.221-0.15-0.338C364.658,6.49,365.085,5.669,365.729,5.254
			 M362.006,6.27c0.469,0.293,0.769,0.769,1.017,1.287c-1.556-0.014-3.117-0.012-4.676-0.017
			C358.654,6.012,359.718,4.833,362.006,6.27 M352.014,4.823c1.748-1.025,3.288-1.378,4.753,1.693
			c0.065,0.141,0.12,0.561,0.162,1.024c-2.462-0.001-4.92-0.015-7.384,0.008c-0.006-0.06-0.041-0.102-0.051-0.161
			C350.129,6.368,351.098,5.358,352.014,4.823 M346.48,6.019c0.939,0.476,1.4,0.902,1.623,1.559
			c-1.875,0.021-3.759,0.07-5.639,0.107c-0.01-0.234-0.055-0.475-0.154-0.717C342.668,5.13,345.301,5.421,346.48,6.019
			 M335.145,7.256c0.26-1.529,1.121-2.057,2.58-1.582c1.016-0.448,1.75-0.271,2.209,0.533c0.466,0.39,0.804,0.876,1.055,1.426
			c0,0.026,0.004,0.054,0.007,0.081c-1.99,0.042-3.971,0.054-5.963,0.114C335.124,7.669,335.171,7.485,335.145,7.256 M330.698,5.679
			c1.329,0.323,2.037,1.151,2.431,2.202c-1.917,0.063-3.825,0.09-5.746,0.171c-0.02-0.365-0.088-0.722-0.203-1.062
			C328.036,6.011,329.672,5.431,330.698,5.679 M319.105,7.857c0.643-1.61,1.24-1.923,2.947-2.268
			c1.293-0.788,2.207-0.496,2.739,0.876c0.394,0.203,0.671,0.45,0.837,0.737c-0.119,0.3-0.197,0.604-0.246,0.91
			c-2.152,0.082-4.299,0.142-6.443,0.197c-0.002-0.008,0.002-0.015,0-0.023C318.988,8.148,319.045,8.013,319.105,7.857
			 M314.396,6.074c1.541-0.827,2.902,0.803,3.341,2.272c-1.864,0.043-3.722,0.074-5.581,0.097
			C312.693,7.479,313.377,6.621,314.396,6.074 M306.863,5.402c1.539-1.045,3.125-1.039,3.48,1.117
			c0.111,0.661-0.037,1.295-0.009,1.943c-1.718,0.018-3.44,0.048-5.156,0.053c-0.067-0.113-0.108-0.234-0.159-0.352
			C305.287,7.06,305.867,6.08,306.863,5.402 M303.468,6.811c0.243,0.478,0.208,1.119,0.296,1.706c-2.141,0.001-4.281,0-6.416-0.013
			C298.129,6.25,301.555,3.022,303.468,6.811 M295.349,5.248c0.524,0.775,0.522,2.147,0.574,3.245
			c-1.559-0.012-3.12-0.02-4.679-0.038c-0.127-0.158-0.337-0.54-0.572-0.978C291.547,5.363,293.688,2.793,295.349,5.248
			 M289.317,7.561c0.045,0.077,0.062,0.152,0.097,0.229c-0.028,0.218-0.062,0.44-0.04,0.645c-2.335-0.028-4.673-0.048-7.011-0.084
			C283.836,5.292,286.895,3.164,289.317,7.561 M277.12,5.619c2.253,0.492,2.757,1.046,3.499,2.706
			c-3.529-0.054-7.056-0.112-10.593-0.163C271.578,5.927,274.807,5.113,277.12,5.619 M261.89,5.678
			c3.155-0.556,5.297,0.288,6.483,2.46c-2.716-0.038-5.435-0.068-8.157-0.089C260.775,7.257,261.333,6.467,261.89,5.678
			 M258.204,8.016c-3.07-0.042-6.139-0.143-9.202-0.268C251.657,5.107,256.281,4.406,258.204,8.016 M246.948,7.011
			c0.131,0.214,0.207,0.443,0.3,0.667c-2.114-0.091-4.228-0.18-6.342-0.268C242.943,5.725,245.127,4.015,246.948,7.011
			 M235.039,4.72c1.938-0.014,3.162,0.929,3.835,2.611c-1.936-0.074-3.872-0.141-5.806-0.18c-1.005-0.02-2.006,0.006-3.009,0.018
			C231.392,5.837,233.964,4.73,235.039,4.72 M227.178,5.261c0.656,0.685,0.981,1.304,1.144,1.917
			c-2.785,0.063-5.562,0.197-8.337,0.365C221.33,4.572,224.225,2.188,227.178,5.261 M218.499,7.634
			c-2.585,0.159-5.166,0.323-7.749,0.443C212.857,5.325,218.368,2.984,218.499,7.634 M200.646,8.074
			c0.626-5.024,6.783-2.945,8.307-0.721c0.131,0.192,0.235,0.485,0.333,0.789c-2.89,0.111-5.78,0.129-8.677,0.016
			C200.615,8.126,200.641,8.11,200.646,8.074 M193.581,4.601c3.277-0.923,4.498,0.658,5.543,3.491
			c-2.217-0.126-4.435-0.313-6.661-0.663c-0.488-0.078-0.847,0.206-1.013,0.561c-0.614-0.007-1.229-0.005-1.842-0.009
			C190.532,6.45,192.24,4.979,193.581,4.601 M184.625,4.297c2.072,0.198,2.168,1.581,2.979,3.15c0.099,0.19,0.241,0.35,0.365,0.525
			c-2.016-0.013-4.031-0.027-6.046-0.031c-1.018-0.119-2.037-0.222-3.062-0.3C180.369,5.852,182.643,4.107,184.625,4.297
			 M170.645,5.648c0.933-1.474,2.117-3.142,4.059-2.618c2.133,0.575,2.241,2.648,2.686,4.531c-0.904-0.034-1.816-0.043-2.74,0.012
			c-1.15,0.069-2.29,0.164-3.434,0.249c-0.262-0.007-0.524-0.028-0.787-0.037C170.666,7.139,170.712,6.401,170.645,5.648
			 M160.721,4.292c1.057-1.312,3.525-3.063,5.376-2.724c1.81,0.333,2.789,2.348,3.089,4.091c-0.324,0.631-0.612,1.36-0.672,2.042
			c-1.882-0.061-3.767-0.118-5.651-0.25c-1.106-0.078-2.192-0.092-3.286-0.137c0.017-0.337,0-0.689-0.035-1.042
			C159.862,5.569,160.238,4.892,160.721,4.292 M150.726,4.194c0.929-1.551,2.283-1.938,3.987-1.766
			c1.556,0.157,2.597,0.807,3.007,2.415c0.124,0.496,0.3,1.097,0.469,1.711c-0.04,0.233-0.061,0.469-0.068,0.707
			c-2.74-0.081-5.459-0.109-8.149-0.035c-0.063-0.309-0.143-0.62-0.274-0.932c-0.025-0.062-0.068-0.118-0.096-0.18
			C149.934,5.404,150.41,4.725,150.726,4.194 M140.826,4.716c1.226-1.245,2.506-1.722,4.224-1.226
			c1.636,0.474,2.492,1.639,3.221,3.027c-0.033,0.265-0.028,0.524,0.007,0.778c-2.88,0.107-5.749,0.263-8.616,0.499
			c-0.101-0.241-0.268-0.471-0.413-0.708C139.583,6.176,140.139,5.411,140.826,4.716 M130.096,5.768
			c0.455-0.628,1.01-1.141,1.615-1.616c1.585-1.241,2.836-1.057,4.212,0.485c0.794,0.892,1.345,1.972,1.971,2.99
			c0.017,0.105,0.026,0.21,0.056,0.312c-2.922,0.263-5.85,0.571-8.803,0.912c-0.084-0.293-0.131-0.598-0.178-0.902
			C129.369,7.031,129.958,5.96,130.096,5.768 M119.766,6.377c1.275-2.044,4.73-3.241,6.591-1.535
			c1.181,1.083,1.064,2.361,1.251,3.594c-0.021,0.205,0.007,0.393,0.012,0.591c-1.505,0.179-3.017,0.362-4.542,0.55
			c-1.397,0.171-2.796,0.271-4.198,0.372c0.08-0.18,0.012-0.545-0.115-0.948C119.002,8.086,119.27,7.174,119.766,6.377
			 M108.516,8.679c0.38-0.757,0.879-1.452,1.528-2c1.2-1.019,1.76-1.21,3.354-1.104c1.831,0.123,1.877,0.378,2.759,1.723
			c0.396,0.604,0.79,0.643,1.097,1.507c0.167,0.469,0.167,0.877,0.18,1.268c-1.837,0.105-3.677,0.165-5.52,0.192
			c-1.29-0.099-2.581-0.199-3.867-0.261c-0.012-0.047-0.026-0.092-0.038-0.137C108.221,9.331,108.453,8.802,108.516,8.679
			 M100.224,7.827c0.942-1.49,1.884-1.884,3.603-2.081c2.104-0.24,2.236,2.62,2.733,4.094c0.014,0.042,0.038,0.08,0.051,0.121
			c-1.249-0.021-2.492,0.006-3.71,0.165c-0.279,0.035-0.56,0.076-0.839,0.114c-0.914-0.011-1.826,0-2.738-0.003
			c-0.023-0.12-0.068-0.241-0.094-0.361C99.513,9.173,99.811,8.478,100.224,7.827 M89.048,8.802c0.722-1.216,2.449-2.536,3.652-3.18
			c1.195-0.641,2.946-1.197,3.999,0.355c0.328,0.484,0.391,1.208,0.579,1.754c0.286,0.841,0.549,1.668,0.811,2.504
			c-3.152,0.001-6.302,0.039-9.441,0.218c-0.021-0.064-0.04-0.128-0.056-0.195C88.823,9.583,88.999,8.883,89.048,8.802
			 M76.098,15.959c-0.019-0.989,0.347-1.811,1.099-2.463c0.617-0.199,1.198-0.476,1.774-0.765c-0.007,0.066-0.035,0.136-0.028,0.2
			c0.272,2.639,0.42,5.253,0.511,7.856c-0.373-0.249-0.825-0.3-1.43-0.571C75.938,19.282,75.587,18.223,76.098,15.959
			 M77.394,29.099c-1.282-0.834-2.574-2.999-1.868-4.464c0.659-1.37,2.218-2.045,3.748-2.066c0.07-0.001,0.141-0.034,0.211-0.057
			c0.059,2.401,0.084,4.803,0.068,7.202C78.779,29.579,77.952,29.462,77.394,29.099 M79.075,30.965
			c0.157,0.027,0.316,0.06,0.471,0.083c-0.021,2.428-0.033,4.882-0.042,7.335C76.939,37.44,76.857,32.658,79.075,30.965
			 M79.494,40.426c0,0.297-0.007,0.583-0.007,0.879c0.012,2.611,0.115,5.233,0.255,7.861C72.29,47.732,75.932,42.324,79.494,40.426
			 M76.384,56.228c-0.331-2.042,1.528-5.076,3.434-5.748c0.206,3.592,0.461,7.193,0.635,10.789
			c-0.065,0.151-0.049,0.316,0.019,0.474c0.002,0.07,0.004,0.139,0.007,0.209C78.96,61.134,76.562,57.337,76.384,56.228
			 M76.243,85.39c0.188-0.883,0.312-2.492,0.863-3.169c0.654-0.802,1.528-1.181,2.447-1.47c0.131,0.029,0.263,0.081,0.389,0.099
			c-0.23,2.612-0.473,5.222-0.705,7.832c-0.007-0.105-0.059-0.211-0.186-0.252c-0.501-0.165-0.952-0.245-1.388-0.263
			c-0.014-0.007-0.059-0.027-0.065-0.029C76.161,87.552,75.913,86.924,76.243,85.39 M74.403,94.505
			c-0.145-1.391,1.176-2.914,1.934-4.035c0.412-0.615,0.832-0.879,1.321-1.064c0.408,0.149,0.968,0.434,1.475,0.487
			c-0.24,2.813-0.432,5.63-0.546,8.455c-0.026-0.007-0.042-0.028-0.07-0.029c-0.065-0.005-0.134,0.021-0.202,0.021
			c-0.166-0.104-0.36-0.201-0.64-0.344C76.305,97.29,74.57,96.124,74.403,94.505 M74.399,105.103
			c-0.722-2.258,1.209-4.719,3.271-5.729c0.19,0.078,0.387,0.162,0.563,0.231c0.105,0.04,0.208,0.021,0.302-0.022
			c-0.047,1.575-0.075,3.152-0.051,4.734c0.019,1.141-0.077,2.395-0.12,3.645c-0.021,0.004-0.044-0.004-0.065,0.006
			c-1.153,0.549-1.699,0.424-2.559-0.576C75.266,106.841,74.622,105.795,74.399,105.103 M79.499,115.319
			c-0.262,0.287-0.757,1.104-1.111,1.27c-0.87,0.417-1.861-0.625-2.32-1.205c-1.071-1.346-1.015-3.195-0.129-4.634
			c0.087-0.144,0.375-0.45,0.703-0.774c0.558,0.053,1.135-0.163,1.718-0.764c0.035,2.102,0.443,4.057,2.125,5.266
			C80.146,114.741,79.796,114.993,79.499,115.319 M80.504,73.425c-0.117,2.086-0.284,4.167-0.461,6.244
			c-0.691-0.105-1.47-0.366-1.861-0.586c-2.098-1.172-3.063-3.383-0.9-5.525c0.37-0.366,2.072-1.571,3.27-2.095
			C80.53,72.116,80.542,72.772,80.504,73.425 M78.025,68.318c-1.793-0.628-2.088-1.761-0.891-3.401
			c0.834-1.117,1.886-1.84,3.152-2.163c0.133-0.044,0.201-0.167,0.21-0.289c0.102,2.384,0.127,4.764,0.099,7.137
			C79.738,69.347,78.988,69.05,78.025,68.318 M80.169,11.322c-0.213,0.035-0.411,0.159-0.593,0.32
			c-0.065-0.698-0.147-1.394,0.056-2.07c0.605-2.017,2.379-2.396,4.2-2.725c1.188-0.215,2.257-0.41,2.756,0.893
			c0.167,0.44,0.197,0.926,0.366,1.373c0.154,0.407,0.318,0.804,0.48,1.201c-0.021,0.074-0.033,0.146-0.051,0.221
			C84.972,10.703,82.562,10.928,80.169,11.322 M86.776,118.744c-1.019,0.958-1.762,1.468-3.124,0.526
			c-1.39-0.959-1.814-2.504-2-4.049c0.031-0.023,0.061-0.055,0.091-0.078c1.561,0.574,3.788,0.77,6.174,0.785
			c-0.086,0.16-0.129,0.345-0.028,0.547c0.054,0.112,0.115,0.229,0.171,0.343C88.056,117.388,86.992,118.539,86.776,118.744
			 M93.518,119.208c-2.311,0.866-3.347-0.881-4.301-2.719c-0.028-0.137-0.125-0.256-0.197-0.383c-0.031-0.059-0.063-0.12-0.094-0.18
			c2.239-0.025,4.545-0.178,6.544-0.309C95.641,117.126,95.076,118.624,93.518,119.208 M101.43,120.326
			c-3.86,1.601-3.797-1.087-4.259-3.011c-0.157-0.65-0.199-1.102-0.372-1.494c-0.005-0.096,0.021-0.192,0.009-0.287
			c1.097-0.066,2.048-0.107,2.766-0.096c1.162,0.021,2.33-0.018,3.497-0.027c0.023,0.089,0.035,0.188,0.056,0.282
			c0.023,0.126,0.035,0.241,0.065,0.372C103.369,117.642,102.846,119.737,101.43,120.326 M110.726,116.896
			c-0.982,1.188-1.95,1.948-3.53,1.758c-1.505-0.182-2.56-1.624-2.832-3.253c2.529-0.041,5.063-0.12,7.599-0.242
			C111.657,115.814,111.033,116.522,110.726,116.896 M120.734,114.888c0.04,2.023-0.3,4.059-2.377,4.872
			c-3.392,1.327-4.744-0.804-5.418-3.22c0.286-0.486,0.511-0.979,0.592-1.449c2.424-0.124,4.845-0.262,7.262-0.382
			C120.774,114.771,120.732,114.815,120.734,114.888 M122.72,116.216c-0.268-0.312-0.558-1.146-0.783-1.553
			c1.983-0.092,3.968-0.184,5.944-0.231c0.117-0.003,0.236,0,0.356-0.003c0.014,0.068,0.028,0.143,0.044,0.213
			C128.395,117.627,125.942,119.956,122.72,116.216 M135.184,117.467c-0.905,1.934-2.353,3.233-4.697,1.23
			c-0.504-0.435-0.788-1.085-1.013-1.786c0.019-0.049,0.044-0.086,0.061-0.137c0.324-0.893,0.157-1.628-0.059-2.355
			c2.24-0.04,4.477-0.035,6.713-0.022c0.016,0.085,0.042,0.171,0.063,0.257C136.084,115.651,135.47,116.851,135.184,117.467
			 M140.158,117.61c-1.106-0.313-2.341-1.801-2.773-3.218c2.07,0.021,4.137,0.074,6.202,0.13c0.007,0.028,0.009,0.055,0.019,0.084
			C143.109,116.244,143.123,118.452,140.158,117.61 M149.779,118.107c-1.16,1.711-2.506,1.128-3.551-0.337
			c-0.455-0.635-0.905-1.32-1.329-2.02c0.136-0.385,0.249-0.781,0.302-1.191c1.838,0.056,3.673,0.162,5.508,0.242
			c0.037,0.346,0.103,0.707,0.195,1.077C150.618,116.769,150.03,117.738,149.779,118.107 M154.094,118.442
			c-0.853-0.23-1.554-1.533-1.927-2.765c0.042-0.286,0.047-0.548,0.031-0.81c1.575,0.071,3.15,0.125,4.725,0.208
			C156.914,116.774,155.785,118.899,154.094,118.442 M163.833,118.382c-3.809,2.987-5.018-0.79-5.304-3.219
			c2.053,0.115,4.106,0.244,6.16,0.371c0.012,0.045-0.007,0.083,0.019,0.129C165.204,116.57,164.693,117.708,163.833,118.382
			 M167.642,118.821c-0.869-0.869-0.914-2.205-1.479-3.198c1.915,0.121,3.833,0.243,5.747,0.366
			C171.619,118.577,170.944,122.124,167.642,118.821 M178.817,118.931c-0.146,1.521-1.024,1.85-2.637,0.985
			c-1.5,0.527-2.295,0.208-2.386-0.958c-0.271-0.437-0.474-0.958-0.67-1.489c0.052-0.478,0.08-0.952,0.075-1.396
			c1.861,0.121,3.722,0.234,5.583,0.354c0.04,0.324,0.094,0.66,0.166,1.006C178.968,117.931,178.946,118.427,178.817,118.931
			 M184.55,119.283c-0.162,1.564-0.785,2.045-1.87,1.442c-0.638,0.084-1.018-0.143-1.149-0.681c-0.752-0.755-1.184-1.926-1.396-3.08
			c-0.007-0.155-0.014-0.306-0.026-0.456c1.73,0.108,3.457,0.213,5.187,0.312C185.607,117.81,185.35,117.856,184.55,119.283
			 M187.71,120.136c-0.443-0.684-0.645-1.539-0.905-2.365c-0.028-0.291-0.075-0.588-0.152-0.877c2.187,0.124,4.376,0.24,6.563,0.348
			c0,0.068-0.04,0.128-0.012,0.204C194.467,120.634,190.07,123.798,187.71,120.136 M198.405,121.003
			c-1.966-0.273-3.063-2.027-3.867-3.694c2.398,0.107,4.781,0.16,7.163,0.194c0.047,0.354,0.107,0.739,0.18,1.139
			C201.74,120.171,201.079,121.375,198.405,121.003 M203.608,120.807c-0.242-0.384-0.441-0.835-0.628-1.298
			c0.126-0.636,0.175-1.31,0.183-1.98c2.083,0.018,4.158,0.006,6.23-0.018C209.998,120.274,205.699,124.102,203.608,120.807
			 M214.964,120.136c-1.971,0.557-3.178-1.068-4.057-2.645c1.814-0.029,3.624-0.072,5.431-0.128
			C216.275,118.538,216.148,119.8,214.964,120.136 M225.338,119.265c-0.377,1.668-0.923,1.724-2.615,2.222
			c-1.256,0.955-2.267,0.808-3.033-0.44c-0.293-0.41-0.586-0.822-0.879-1.232c-0.358-0.545-0.633-1.143-0.984-1.685
			c-0.098-0.149-0.188-0.311-0.277-0.466c-0.007-0.111-0.007-0.217-0.014-0.332c2.597-0.084,5.19-0.204,7.782-0.322
			C225.437,117.762,225.509,118.517,225.338,119.265 M231.121,119.78c-2.421,0.865-3.741,0.543-3.957-0.965
			c-0.276-0.576-0.323-1.227-0.436-1.867c1.742-0.08,3.485-0.165,5.229-0.254c0,0.177,0.026,0.365,0.002,0.526
			C231.68,118.075,231.402,118.929,231.121,119.78 M239.769,119.327c-0.38,0.35-0.775,0.68-1.193,0.986
			c-2.397,1.711-3.996,1.281-4.791-1.285c-0.398-0.894-0.459-1.583-0.722-2.182c0.002-0.068,0.009-0.141,0.009-0.21
			c2.271-0.116,4.55-0.228,6.823-0.343C240.069,117.322,240.332,118.436,239.769,119.327 M243.857,120.036
			c-1.251-0.184-1.931-1.009-2.32-2.019c-0.054-0.583-0.239-1.163-0.377-1.788c2.315-0.117,4.636-0.217,6.961-0.318
			c0.004,0.109,0.012,0.216,0.016,0.327C247.769,117.847,245.226,120.235,243.857,120.036 M252.152,120.315
			c-2.086,0.117-2.665-1.465-2.998-3.174c0.169-0.443,0.298-0.881,0.342-1.279c2.107-0.088,4.222-0.154,6.333-0.225
			C255.79,117.947,255.236,120.144,252.152,120.315 M262.866,115.644c-0.047,0.512-0.094,1.025-0.141,1.537
			c-0.42,1.581-1.289,2.016-2.609,1.305c-1.812-0.354-2.405-1.465-2.777-2.903c0.593-0.017,1.181-0.05,1.777-0.063
			c1.253-0.027,2.508-0.03,3.762-0.048C262.873,115.528,262.868,115.594,262.866,115.644 M265.931,119.778
			c-0.638-0.674-1.181-1.744-1.617-2.824c0.15-0.501,0.237-1.015,0.234-1.506c2.382-0.025,4.76-0.03,7.139-0.033
			C272.046,118.331,268.639,122.646,265.931,119.778 M279,116.284c-0.6,0.849-1.331,1.566-2.195,2.148
			c-2.513,1.002-3.218-0.99-3.603-2.781c-0.007-0.084-0.038-0.16-0.047-0.242c2.07,0.003,4.136,0.018,6.207,0.032
			C279.244,115.724,279.137,116.009,279,116.284 M285.12,118.211c-0.434,0.55-1.05,0.592-1.85,0.126
			c-1.304,0.413-1.892,0.04-1.77-1.119c-0.223-0.428-0.321-1.012-0.41-1.595c0.021-0.059,0.062-0.114,0.079-0.173
			c2.101,0.018,4.201,0.041,6.301,0.062C286.904,116.659,285.811,117.878,285.12,118.211 M292.285,117.362
			c-2.046,1.32-2.829-0.244-3.127-1.833c1.332,0.015,2.662,0.026,3.994,0.038C293.052,116.235,292.961,116.927,292.285,117.362
			 M297.977,119.771c-1.606-0.762-2.171-2.606-2.889-4.188c2.773,0.025,5.547,0.043,8.318,0.055
			C302.715,118.349,301.537,121.46,297.977,119.771 M308.261,118.772c-1.671,0.002-2.714-1.572-3.026-3.131
			c2.01,0.004,4.016-0.008,6.021-0.021C310.979,117.196,310.422,118.771,308.261,118.772 M317.371,119.466
			c-0.628,0.285-1.296,0.172-2.006-0.338c-1.568,0.255-2.398-0.369-2.492-1.872c-0.161-0.493-0.302-1.001-0.443-1.506
			c0.01-0.046,0.023-0.089,0.033-0.136c2.609-0.02,5.218-0.076,7.829-0.135C320.102,117.288,319.427,119.007,317.371,119.466
			 M327.485,116.761c-0.601,0.709-1.568,1.907-2.642,2.104c-1.846,0.342-2.646-1.603-2.998-3.411
			c2.26-0.059,4.523-0.161,6.785-0.258C328.463,115.806,328.1,116.337,327.485,116.761 M333.926,118.116
			c-2.034,1.02-2.508,0.643-3.061-1.506c-0.155-0.598-0.27-1.069-0.467-1.49c1.053-0.048,2.107-0.07,3.162-0.133
			c0.879-0.05,1.762-0.056,2.641-0.094C336,116.238,335.194,117.478,333.926,118.116 M342.343,117.144
			c-2.124,1.389-3.394-0.473-4.228-2.317c1.949-0.065,3.896-0.12,5.852-0.136C343.752,115.683,343.238,116.556,342.343,117.144
			 M345.73,117.749c-0.373-0.813-0.411-1.541-0.58-2.236c0.078-0.27,0.141-0.544,0.184-0.822c2.69-0.006,5.381,0.045,8.074,0.095
			C353.401,118.353,348.637,124.091,345.73,117.749 M360.334,116.989c-1.662,2.33-4.738-0.109-5.712-2.191
			c2.071,0.043,4.142,0.094,6.212,0.154C360.672,115.8,360.545,116.695,360.334,116.989 M363.064,116.229
			c-0.206-0.319-0.302-0.779-0.424-1.225c1.465,0.045,2.932,0.08,4.393,0.127c0.834,0.026,1.664,0.002,2.501,0.012
			C368.99,118.524,365.207,119.577,363.064,116.229 M376.436,116.493c-0.709,1.533-2.184,3.413-4.141,1.463
			c-0.254-0.253-0.926-1.885-1.306-2.804c1.934,0.006,3.865,0.011,5.792-0.036C376.689,115.622,376.607,116.122,376.436,116.493
			 M385.671,118.113c-3.136,1.835-4.654,0.142-6.904-2.438c-0.247-0.282-0.356-0.452-0.46-0.605
			c2.904-0.085,5.801-0.197,8.698-0.297C386.853,115.975,387.48,117.056,385.671,118.113 M395.546,116.208
			c-1.286,0.669-2.571,1.337-3.858,2.005c-1.037-0.716-1.778-1.612-2.227-2.692c-0.159-0.275-0.262-0.551-0.37-0.812
			c2.323-0.07,4.644-0.111,6.966-0.118C395.918,115.208,395.76,115.923,395.546,116.208 M397.702,116.765
			c-0.199-0.586-0.234-1.316-0.462-1.9c0.014-0.094,0.035-0.186,0.045-0.278c0.375,0.001,0.748-0.009,1.123-0.005
			c2.654,0.028,5.309,0.08,7.959,0.14C405.314,118.383,399.23,121.276,397.702,116.765 M408.304,114.868
			c-0.019-0.033-0.023-0.071-0.04-0.105c2.325,0.055,4.65,0.107,6.973,0.152C413.467,117.612,410.683,119.263,408.304,114.868
			 M418.141,118.741c-0.745-0.951-0.9-2.322-1.425-3.461c0.04-0.111,0.087-0.221,0.119-0.336c2.231,0.037,4.458,0.055,6.685,0.057
			C422.732,117.298,420.665,121.963,418.141,118.741 M428.927,117.294c-1.948,1.938-4.075-0.219-4.05-2.297
			c1.689-0.01,3.38-0.034,5.069-0.075C429.906,115.749,429.73,116.493,428.927,117.294 M434.227,118.636
			c-1.053-0.306-1.725-1.666-2.238-2.485c-0.266-0.418-0.467-0.849-0.713-1.23c0.002-0.011,0.005-0.021,0.007-0.03
			c2.427-0.074,4.85-0.201,7.271-0.374C438.912,116.78,436.512,119.298,434.227,118.636 M425.32,111.798
			c-7.297,0.465-14.785-0.43-22.094-0.707c-7.786-0.295-15.453,0.609-23.268,0.498c-18.907-0.272-37.514-0.384-56.389,0.062
			c-19.521,0.461-38.822,0.525-58.328,0.02c-17.18-0.445-34.14,3.33-51.375,2.713c-33.428-1.195-66.804-5.109-100.331-3.604
			c-7.064,0.316-13.885,0.838-20.965,0.65c-6.879-0.18-10.322,2.26-10.625-5.417c-0.617-15.727,2.243-31.188,1.284-46.927
			c-0.656-10.757-0.304-21.46-0.278-32.228c0.004-2.354-1.336-9.51-0.218-11.385c1.357-2.275,7.65-1.602,10.205-1.585
			c9.435,0.06,18.671-0.63,27.909-1.454c2.74,0.153,5.431,0.296,8.292,0.063c5.479-0.448,11.274-0.904,16.751-1.048
			c8.145-0.214,16.151-0.736,24.259-1.333c26.281,0.851,52.718,4.289,78.838,1.273c11.998,0.406,24.005,0.46,36.022,1.177
			c19.168,1.14,38.275-1.051,57.427-1.749c18.852-0.687,37.352,0.668,56.103,1.466c16.945,0.722,33.777,0.17,50.74,1.184
			c1.38,0.083,8.121-0.333,9.539,0.654c1.748,1.221,1.356,1.77,1.587,4.962c0.653,9.104-0.033,18.279,0.651,27.441
			c0.461,6.169,0.541,12.305,0.492,18.429c-0.012,0.05-0.005,0.094-0.002,0.146c-0.088,10.232-0.537,20.443-0.193,30.757
			c0.286,8.62,0.932,11.151-6.721,12.137C444.896,109.247,435.117,111.171,425.32,111.798 M444.49,116.839
			c-2.234,1.217-3.42-0.972-4.306-2.475c2.151-0.177,4.301-0.405,6.45-0.688c0.047,0.225,0.092,0.448,0.141,0.674
			C446.014,115.181,445.252,116.01,444.49,116.839 M454.227,113.991c-0.368,2.444-2.377,3.375-4.416,2.184
			c-0.812-0.472-1.334-1.322-1.838-2.176c-0.014-0.169-0.025-0.336-0.044-0.515c2.062-0.296,4.125-0.651,6.186-1.052
			C454.193,112.972,454.295,113.538,454.227,113.991 M460.719,114.158c-1.842,2.742-3.752-0.181-5.004-2.069
			c0.971-0.207,1.943-0.389,2.913-0.631c0.767-0.191,1.39-0.367,1.952-0.547c0.076,0.051,0.137,0.118,0.242,0.13
			c0.178,0.021,0.373,0.12,0.569,0.243c-0.009,0.128,0.044,0.231,0.136,0.34C461.232,112.485,461.16,113.503,460.719,114.158
			 M466.506,109.366c0.434,0.646,0.418,2.229-0.3,2.705c-1.05,0.694-2.526-0.365-3.437-1.024c-0.049-0.069-0.065-0.161-0.149-0.199
			c-0.101-0.046-0.202-0.092-0.303-0.139l-0.002,0.001c-0.142-0.106-0.274-0.211-0.422-0.316c1.187-0.588,1.815-1.397,2.299-2.93
			c0.038,0.009,0.077,0.015,0.117,0.022c0.405,0.321,0.79,0.666,1.142,0.961C465.791,108.733,466.26,108.998,466.506,109.366
			 M469.924,106.335c-0.936,0.197-1.955,0.131-2.896,0.193c-0.726,0.051-1.5,0.117-2.222,0.002c-0.096-0.07-0.197-0.133-0.295-0.201
			c0.121-0.507,0.241-1.075,0.37-1.717c0.11-0.548,0.178-1.116,0.268-1.676c0.222,0.023,0.452,0.022,0.679,0.031
			c0.451,0.357,0.912,0.701,1.411,1.041C468.056,104.562,469.389,105.319,469.924,106.335 M470.123,100.994
			c-1.217,1.134-3.05,1.121-4.789,0.794c0.229-1.686,0.377-3.411,0.469-5.167c0.248,0.021,0.497,0.035,0.743,0.069
			C467.835,96.868,472.707,98.579,470.123,100.994 M468.632,91.905c1.692,0.791,1.519,1.971-0.518,3.539
			c-0.232,0.1-0.507,0.146-0.802,0.168c-0.5-0.139-0.982-0.13-1.461-0.118c0.064-1.687,0.097-3.386,0.082-5.106
			c0.12-0.002,0.261,0.008,0.39,0.012c0.462,0.305,0.939,0.592,1.378,0.898C468.029,91.476,468.339,91.679,468.632,91.905
			 M470.08,86.791c0.621,0.467,0.582,0.985-0.117,1.558c-0.074,0.857-0.461,1.188-1.16,0.992c-0.996,0.113-1.982-0.321-2.878-0.304
			c-0.021-1.319-0.059-2.644-0.104-3.968c0.813,0.125,1.601-0.056,2.415,0.193C469.021,85.503,469.773,85.979,470.08,86.791
			 M469.492,81.206c0.998,2.537-2.1,2.381-3.709,2.755c-0.053-1.567-0.109-3.135-0.158-4.689c0.309,0.032,0.621,0.079,0.923,0.122
			C467.835,79.826,469.241,80.569,469.492,81.206 M467.598,78.214c-0.684,0.002-1.35-0.177-2.016-0.247
			c-0.042-1.477-0.072-2.938-0.079-4.383c0.333,0.05,0.665,0.101,0.995,0.14c0.711,0.083,1.428,0.094,2.139,0.177l1.463,0.21
			c1.656,0.411,1.809,1.202,0.459,2.374C469.581,78.2,469.408,78.208,467.598,78.214"/>
		<g>
			<path class="st1" d="M128.203,65.84l-0.4,5.768v0.2c-0.193,0.847-0.29,1.759-0.29,2.739c0,0.979-0.171,1.926-0.512,2.839
				c-0.342,0.913-0.861,1.722-1.559,2.427c-0.698,0.705-1.462,1.058-2.293,1.058c-0.832,0-1.589-0.282-2.271-0.847
				c-0.683-0.563-1.247-1.287-1.692-2.17s-0.839-1.938-1.18-3.162c-0.342-1.225-0.605-2.42-0.791-3.585
				c-0.186-1.165-0.338-2.394-0.457-3.685c-0.178-1.975-0.264-3.508-0.256-4.599c0.007-1.091,0.003-2.026-0.011-2.806
				c-0.015-0.779-0.03-1.48-0.044-2.104c0-0.312,0-0.657,0-1.036s0-0.783,0-1.213c0.014-0.876,0.041-1.663,0.078-2.36
				s0.104-1.451,0.201-2.26c0.096-0.809,0.219-1.521,0.367-2.137s0.349-1.221,0.601-1.815c0.267-0.608,0.564-1.105,0.891-1.492
				c0.742-0.861,1.596-1.292,2.561-1.292c0.964,0,1.789,0.175,2.471,0.523c0.683,0.349,1.258,0.91,1.726,1.681
				c0.468,0.772,0.876,1.522,1.225,2.249c0.349,0.728,0.623,1.741,0.824,3.04c0.2,1.299,0.36,2.349,0.479,3.151
				c0.119,0.816,0.201,1.981,0.245,3.496c0.059,2.034,0.089,3.622,0.089,4.765V65.84z M124.162,49.151
				c-0.305-0.779-0.683-1.38-1.136-1.803c-0.453-0.423-0.902-0.635-1.347-0.635s-0.812,0.156-1.102,0.468
				c-0.29,0.312-0.535,0.753-0.735,1.325c-0.201,0.572-0.378,1.184-0.535,1.837c-0.156,0.653-0.275,1.407-0.356,2.26
				c-0.082,0.854-0.152,1.629-0.211,2.327c-0.045,0.683-0.082,1.44-0.111,2.271c-0.03,1.381-0.052,2.457-0.067,3.229v0.2
				c0,2.034,0.156,4.228,0.467,6.579c0.312,2.354,0.635,4.279,0.969,5.779c0.334,1.499,0.783,2.771,1.347,3.818
				c0.564,1.047,1.195,1.57,1.893,1.57c0.608,0,1.121-0.572,1.537-1.715c0.415-1.158,0.712-2.583,0.891-4.275
				c0.297-3.028,0.449-5.154,0.457-6.379c0.007-1.225,0.007-2.119,0-2.684c-0.008-0.564-0.03-1.384-0.067-2.46
				c-0.037-1.076-0.1-2.085-0.189-3.028c-0.089-0.942-0.204-1.985-0.345-3.128s-0.327-2.16-0.557-3.05
				C124.733,50.766,124.466,49.931,124.162,49.151z"/>
			<path class="st1" d="M144.783,53.126l-0.089,5.878l0.401,10.488l0.378,8.193c0,1.485-0.438,2.227-1.314,2.227
				c-0.505,0-0.876-0.236-1.113-0.712c-0.237-0.475-0.356-1.002-0.356-1.581l0.356-7.281c0-1.572-0.104-3.941-0.312-7.103
				c-0.208-3.162-0.312-5.53-0.312-7.103l0.067-3.986c0-2.182-0.141-3.6-0.423-4.253l-2.472,0.245c-0.386,0-0.731-0.115-1.036-0.345
				s-0.456-0.527-0.456-0.891c0-0.363,0.363-0.671,1.091-0.924c0.742-0.267,1.633-0.46,2.672-0.579
				c1.826-0.208,3.362-0.312,4.609-0.312c0.371,0,0.708,0.123,1.013,0.367c0.304,0.245,0.457,0.553,0.457,0.924
				s-0.134,0.665-0.401,0.879c-0.267,0.215-0.594,0.323-0.98,0.323l-1.625-0.089c-0.208,0-0.364,0.008-0.467,0.022
				C144.679,49.267,144.783,51.137,144.783,53.126z"/>
			<path class="st1" d="M159.448,78.266l0.178-26.743v-5.611c0-0.356,0.074-0.608,0.223-0.757c0.148-0.148,0.538-0.223,1.169-0.223
				c0.631,0,1.269,0.152,1.915,0.457c0.646,0.304,1.191,0.709,1.636,1.213c0.431,0.534,0.802,1.128,1.114,1.781
				c0.593,1.262,0.891,2.635,0.891,4.119c0,1.485-0.372,3.184-1.114,5.099c-0.089,0.208-0.267,0.646-0.534,1.314
				s-0.423,1.062-0.468,1.18c0.015,2.256,0.586,5.188,1.715,8.795c0.386,1.218,0.935,2.884,1.647,4.999
				c0.713,2.115,1.158,3.455,1.336,4.019v0.111c0,1.025-0.119,1.622-0.356,1.793c-0.238,0.17-0.49,0.256-0.757,0.256
				c-0.564,0-1.113-0.408-1.647-1.225v-0.156c-0.148-2.76-1.099-6.939-2.85-12.535c-0.802-2.553-1.358-4.446-1.67-5.678v17.969
				c0,0.46-0.082,0.816-0.245,1.068c-0.164,0.252-0.46,0.379-0.891,0.379c-0.431,0-0.753-0.123-0.969-0.367
				c-0.215-0.245-0.323-0.546-0.323-0.902V78.266z M161.964,47.025l-0.245,9.308c0,0.935,0.015,1.633,0.045,2.093
				c0.519-0.49,1.031-1.076,1.536-1.759l0.712-3.941c0.045-0.208,0.067-0.445,0.067-0.712c0-0.727-0.148-1.61-0.445-2.649
				C163.218,47.938,162.662,47.159,161.964,47.025z"/>
			<path class="st1" d="M190.768,65.84l-0.4,5.768v0.2c-0.193,0.847-0.29,1.759-0.29,2.739c0,0.979-0.171,1.926-0.512,2.839
				c-0.342,0.913-0.861,1.722-1.559,2.427c-0.698,0.705-1.462,1.058-2.293,1.058c-0.832,0-1.589-0.282-2.271-0.847
				c-0.683-0.563-1.247-1.287-1.692-2.17s-0.839-1.938-1.18-3.162c-0.342-1.225-0.605-2.42-0.791-3.585
				c-0.186-1.165-0.338-2.394-0.457-3.685c-0.178-1.975-0.264-3.508-0.256-4.599c0.007-1.091,0.003-2.026-0.011-2.806
				c-0.015-0.779-0.03-1.48-0.044-2.104c0-0.312,0-0.657,0-1.036s0-0.783,0-1.213c0.014-0.876,0.041-1.663,0.078-2.36
				s0.104-1.451,0.201-2.26c0.096-0.809,0.219-1.521,0.367-2.137s0.349-1.221,0.601-1.815c0.267-0.608,0.564-1.105,0.891-1.492
				c0.742-0.861,1.596-1.292,2.561-1.292c0.964,0,1.789,0.175,2.471,0.523c0.683,0.349,1.258,0.91,1.726,1.681
				c0.468,0.772,0.876,1.522,1.225,2.249c0.349,0.728,0.623,1.741,0.824,3.04c0.2,1.299,0.36,2.349,0.479,3.151
				c0.119,0.816,0.201,1.981,0.245,3.496c0.059,2.034,0.089,3.622,0.089,4.765V65.84z M186.727,49.151
				c-0.305-0.779-0.683-1.38-1.136-1.803c-0.453-0.423-0.902-0.635-1.347-0.635s-0.812,0.156-1.102,0.468
				c-0.29,0.312-0.535,0.753-0.735,1.325c-0.201,0.572-0.378,1.184-0.535,1.837c-0.156,0.653-0.275,1.407-0.356,2.26
				c-0.082,0.854-0.152,1.629-0.211,2.327c-0.045,0.683-0.082,1.44-0.111,2.271c-0.03,1.381-0.052,2.457-0.067,3.229v0.2
				c0,2.034,0.156,4.228,0.467,6.579c0.312,2.354,0.635,4.279,0.969,5.779c0.334,1.499,0.783,2.771,1.347,3.818
				c0.564,1.047,1.195,1.57,1.893,1.57c0.608,0,1.121-0.572,1.537-1.715c0.415-1.158,0.712-2.583,0.891-4.275
				c0.297-3.028,0.449-5.154,0.457-6.379c0.007-1.225,0.007-2.119,0-2.684c-0.008-0.564-0.03-1.384-0.067-2.46
				c-0.037-1.076-0.1-2.085-0.189-3.028c-0.089-0.942-0.204-1.985-0.345-3.128s-0.327-2.16-0.557-3.05
				C187.298,50.766,187.03,49.931,186.727,49.151z"/>
			<path class="st1" d="M202.249,79.066c0-0.816,0.341-1.225,1.024-1.225c0.341,0,0.79,0.115,1.347,0.346
				c0.557,0.23,1.039,0.345,1.448,0.345c0.408,0,0.85-0.259,1.325-0.779c0.475-0.52,0.846-1.165,1.113-1.937
				c0.549-1.574,0.824-2.996,0.824-4.265s-0.223-2.631-0.668-4.086c-0.445-1.454-0.987-2.82-1.625-4.097
				c-0.638-1.277-1.284-2.553-1.937-3.83c-1.544-3.043-2.309-5.819-2.293-8.328c-0.015-2.375,0.735-4.238,2.249-5.589
				c0.801-0.712,1.744-1.069,2.828-1.069c0.549,0,1.083,0.153,1.604,0.457c0.519,0.305,0.883,0.702,1.091,1.191l-0.779,0.98
				c-0.757,0-1.351-0.148-1.781-0.446c-0.564,0.06-1.054,0.327-1.47,0.802c-0.757,0.876-1.136,1.956-1.136,3.24
				c0,1.284,0.164,2.535,0.49,3.752c0.326,1.217,0.734,2.309,1.225,3.273c0.49,0.965,1.017,2.012,1.581,3.14
				c0.579,1.128,1.114,2.212,1.604,3.25c1.143,2.405,1.714,5.003,1.714,7.794c0.015,1.959-0.482,3.844-1.492,5.655
				c-0.476,0.861-1.128,1.569-1.959,2.126c-0.832,0.557-1.759,0.836-2.783,0.836c-1.099,0-1.963-0.164-2.594-0.49
				C202.563,79.787,202.249,79.438,202.249,79.066z"/>
			<path class="st1" d="M238.392,78.31l0.223-16.277c0-7.155-0.394-12.581-1.18-16.277c0.475-0.683,1.061-1.024,1.759-1.024
				c1.128,0,2.156,0.253,3.084,0.757c0.928,0.505,1.681,1.173,2.26,2.004c1.202,1.737,1.804,3.718,1.804,5.945
				c0,2.227-0.483,4.25-1.447,6.067c-0.965,1.819-2.383,3.232-4.253,4.242l0.356,14.206c0,1.262-0.505,1.893-1.514,1.893
				c-0.371,0-0.646-0.159-0.824-0.479C238.481,79.049,238.392,78.695,238.392,78.31z M240.53,61.543
				c2.315-2.167,3.473-4.743,3.473-7.727v-0.022c0-1.707-0.208-2.902-0.623-3.585c-0.208-0.326-0.375-0.582-0.501-0.768
				c-0.126-0.186-0.383-0.434-0.769-0.746c-0.46-0.371-1.166-0.898-2.115-1.581c0,1.603,0.089,4.008,0.267,7.214
				C240.44,57.535,240.53,59.939,240.53,61.543z"/>
			<path class="st1" d="M258.356,78.266l0.178-26.743v-5.611c0-0.356,0.074-0.608,0.223-0.757c0.148-0.148,0.538-0.223,1.169-0.223
				c0.631,0,1.269,0.152,1.915,0.457c0.646,0.304,1.191,0.709,1.636,1.213c0.431,0.534,0.802,1.128,1.114,1.781
				c0.593,1.262,0.891,2.635,0.891,4.119c0,1.485-0.372,3.184-1.114,5.099c-0.089,0.208-0.267,0.646-0.534,1.314
				s-0.423,1.062-0.468,1.18c0.015,2.256,0.586,5.188,1.715,8.795c0.386,1.218,0.935,2.884,1.647,4.999
				c0.713,2.115,1.158,3.455,1.336,4.019v0.111c0,1.025-0.119,1.622-0.356,1.793c-0.238,0.17-0.49,0.256-0.757,0.256
				c-0.564,0-1.113-0.408-1.647-1.225v-0.156c-0.148-2.76-1.099-6.939-2.85-12.535c-0.802-2.553-1.358-4.446-1.67-5.678v17.969
				c0,0.46-0.082,0.816-0.245,1.068c-0.164,0.252-0.46,0.379-0.891,0.379c-0.431,0-0.753-0.123-0.969-0.367
				c-0.215-0.245-0.323-0.546-0.323-0.902V78.266z M260.872,47.025l-0.245,9.308c0,0.935,0.015,1.633,0.045,2.093
				c0.519-0.49,1.031-1.076,1.536-1.759l0.712-3.941c0.045-0.208,0.067-0.445,0.067-0.712c0-0.727-0.148-1.61-0.445-2.649
				C262.126,47.938,261.57,47.159,260.872,47.025z"/>
			<path class="st1" d="M289.676,65.84l-0.4,5.768v0.2c-0.193,0.847-0.289,1.759-0.289,2.739c0,0.979-0.172,1.926-0.513,2.839
				c-0.342,0.913-0.861,1.722-1.559,2.427c-0.698,0.705-1.462,1.058-2.294,1.058c-0.831,0-1.588-0.282-2.271-0.847
				c-0.682-0.563-1.246-1.287-1.691-2.17s-0.839-1.938-1.18-3.162c-0.342-1.225-0.605-2.42-0.791-3.585s-0.338-2.394-0.457-3.685
				c-0.178-1.975-0.264-3.508-0.256-4.599c0.008-1.091,0.004-2.026-0.011-2.806s-0.03-1.48-0.044-2.104c0-0.312,0-0.657,0-1.036
				s0-0.783,0-1.213c0.014-0.876,0.04-1.663,0.077-2.36s0.104-1.451,0.2-2.26c0.097-0.809,0.219-1.521,0.367-2.137
				s0.35-1.221,0.602-1.815c0.268-0.608,0.564-1.105,0.891-1.492c0.742-0.861,1.596-1.292,2.561-1.292s1.789,0.175,2.472,0.523
				c0.683,0.349,1.259,0.91,1.726,1.681c0.468,0.772,0.876,1.522,1.225,2.249c0.35,0.728,0.623,1.741,0.824,3.04
				c0.2,1.299,0.359,2.349,0.479,3.151c0.119,0.816,0.201,1.981,0.245,3.496c0.06,2.034,0.089,3.622,0.089,4.765V65.84z
				 M285.635,49.151c-0.305-0.779-0.684-1.38-1.136-1.803c-0.453-0.423-0.901-0.635-1.347-0.635s-0.812,0.156-1.103,0.468
				c-0.29,0.312-0.534,0.753-0.735,1.325c-0.2,0.572-0.378,1.184-0.534,1.837c-0.155,0.653-0.274,1.407-0.356,2.26
				s-0.152,1.629-0.211,2.327c-0.045,0.683-0.082,1.44-0.111,2.271c-0.03,1.381-0.053,2.457-0.066,3.229v0.2
				c0,2.034,0.155,4.228,0.467,6.579c0.312,2.354,0.635,4.279,0.969,5.779c0.334,1.499,0.783,2.771,1.348,3.818
				c0.563,1.047,1.194,1.57,1.893,1.57c0.607,0,1.12-0.572,1.536-1.715c0.415-1.158,0.712-2.583,0.891-4.275
				c0.297-3.028,0.448-5.154,0.456-6.379s0.008-2.119,0-2.684c-0.008-0.564-0.029-1.384-0.066-2.46s-0.1-2.085-0.189-3.028
				c-0.089-0.942-0.204-1.985-0.346-3.128c-0.141-1.143-0.326-2.16-0.557-3.05C286.206,50.766,285.938,49.931,285.635,49.151z"/>
			<path class="st1" d="M313.403,62.812l0.111,0.958c0.015,2.152-0.557,4.691-1.714,7.615c-1.307,3.34-2.851,5.708-4.633,7.104
				c-1.009,0.801-2.048,1.209-3.117,1.225c-0.564,0-1.076-0.131-1.535-0.391c-0.461-0.26-0.691-0.648-0.691-1.168
				c0.668-0.698,1.002-2.486,1.002-5.367c0-1.691-0.141-4.208-0.422-7.548c-0.283-3.34-0.424-5.841-0.424-7.504l0.134-4.988
				c0-0.802-0.167-1.881-0.501-3.24s-0.501-2.319-0.501-2.884c0-1.054,1.165-1.581,3.495-1.581h0.691
				c3.102,0,5.351,1.737,6.746,5.21c0.98,2.419,1.47,5.76,1.47,10.02v2.116C313.439,62.522,313.403,62.664,313.403,62.812z
				 M305.009,72.698v4.364c1.144-0.742,2.138-1.777,2.983-3.105c0.847-1.329,1.492-2.78,1.938-4.354
				c0.831-3.014,1.247-6.02,1.247-9.018c0-3.444-0.431-6.16-1.292-8.149c-0.875-2.049-1.959-3.399-3.25-4.053
				c-0.803-0.416-1.707-0.616-2.717-0.601v0.044c0,2.747,0.182,6.88,0.545,12.402C304.826,65.752,305.009,69.908,305.009,72.698z"/>
			<path class="st1" d="M325.129,54.774l0.045-7.125c-0.223-0.252-0.334-0.564-0.334-0.935s0.129-0.698,0.39-0.98
				c0.259-0.282,0.567-0.423,0.924-0.423c1.099,0,1.647,1.083,1.647,3.251l0.424,15.854c0.178,0.401,0.33,1.21,0.456,2.427
				c0.126,1.218,0.188,2.164,0.188,2.84s0.108,1.506,0.324,2.494c0.215,0.986,0.512,1.984,0.891,2.994
				c0.378,1.01,0.891,1.871,1.535,2.583c0.646,0.712,1.259,1.069,1.838,1.069c0.578,0,1.009-0.138,1.291-0.412
				c0.282-0.275,0.475-0.664,0.579-1.17c0.163-0.801,0.245-1.64,0.245-2.516v-8.906c0-0.965-0.097-2.397-0.289-4.298
				c-0.193-1.9-0.29-3.332-0.29-4.297v-0.312l-0.089-2.65l-0.334-7.815c0-0.371,0.186-0.672,0.557-0.902s0.757-0.345,1.158-0.345
				l1.113,1.069v0.757l-0.334,2.784c0,2.538,0.137,6.361,0.412,11.467c0.273,5.107,0.411,8.562,0.411,10.365
				c0,1.804-0.026,3.006-0.077,3.607c-0.053,0.602-0.168,1.243-0.346,1.926c-0.178,0.684-0.424,1.247-0.734,1.692
				c-0.729,1.039-1.842,1.559-3.34,1.559c-1.856,0.015-3.348-0.794-4.477-2.427c-1.188-1.723-2.019-3.785-2.494-6.19
				c-0.564-2.835-0.904-5.321-1.023-7.459C325.219,61.127,325.129,57.936,325.129,54.774z"/>
			<path class="st1" d="M352.574,57.357l-0.4,3.184v1.091c0,3.533,0.078,5.871,0.234,7.015c0.155,1.143,0.314,2.167,0.479,3.072
				c0.163,0.906,0.375,1.678,0.635,2.316c0.26,0.638,0.567,1.238,0.924,1.803c0.713,1.129,1.699,1.692,2.961,1.692
				c0.52,0,1.166-0.271,1.938-0.812s1.358-0.813,1.76-0.813c0.4,0,0.83,0.23,1.291,0.691c0,1.528-0.869,2.619-2.605,3.272
				c-0.861,0.312-1.797,0.468-2.806,0.468c-1.01,0-1.87-0.204-2.583-0.612s-1.307-0.935-1.781-1.581
				c-0.475-0.646-0.891-1.473-1.247-2.482s-0.638-2.012-0.846-3.006c-0.179-1.01-0.327-2.168-0.445-3.475
				c-0.179-2.196-0.274-4.602-0.29-7.214l0.045-5.455c0-1.737,0.104-3.14,0.312-4.208c-0.089-0.49-0.134-0.965-0.134-1.425
				c0-1.87,0.697-3.358,2.094-4.464c1.395-1.105,3.117-1.659,5.166-1.659c0.727,0,1.439,0.204,2.137,0.612s1.047,0.946,1.047,1.614
				c0,0.327-0.127,0.579-0.379,0.757c-0.252,0.178-0.679,0.267-1.279,0.267c-0.602,0-1.014-0.186-1.236-0.557v0.022h-0.623v-0.111
				c-1.768,0-2.97,0.549-3.607,1.648c-0.594,1.01-0.891,2.747-0.891,5.21L352.574,57.357z"/>
			<path class="st1" d="M379.375,53.126l-0.089,5.878l0.401,10.488l0.378,8.193c0,1.485-0.438,2.227-1.313,2.227
				c-0.506,0-0.877-0.236-1.113-0.712c-0.238-0.475-0.356-1.002-0.356-1.581l0.356-7.281c0-1.572-0.104-3.941-0.312-7.103
				c-0.207-3.162-0.312-5.53-0.312-7.103l0.067-3.986c0-2.182-0.142-3.6-0.424-4.253l-2.471,0.245c-0.387,0-0.732-0.115-1.036-0.345
				s-0.456-0.527-0.456-0.891c0-0.363,0.363-0.671,1.091-0.924c0.742-0.267,1.633-0.46,2.672-0.579
				c1.826-0.208,3.362-0.312,4.609-0.312c0.371,0,0.708,0.123,1.013,0.367c0.305,0.245,0.457,0.553,0.457,0.924
				s-0.134,0.665-0.4,0.879c-0.268,0.215-0.594,0.323-0.98,0.323l-1.625-0.089c-0.209,0-0.364,0.008-0.468,0.022
				C379.271,49.267,379.375,51.137,379.375,53.126z"/>
			<path class="st1" d="M405.262,65.84l-0.4,5.768v0.2c-0.193,0.847-0.289,1.759-0.289,2.739c0,0.979-0.172,1.926-0.513,2.839
				c-0.342,0.913-0.861,1.722-1.559,2.427c-0.698,0.705-1.462,1.058-2.294,1.058c-0.831,0-1.588-0.282-2.271-0.847
				c-0.682-0.563-1.246-1.287-1.691-2.17s-0.839-1.938-1.18-3.162c-0.342-1.225-0.605-2.42-0.791-3.585s-0.338-2.394-0.457-3.685
				c-0.178-1.975-0.264-3.508-0.256-4.599c0.008-1.091,0.004-2.026-0.011-2.806s-0.03-1.48-0.044-2.104c0-0.312,0-0.657,0-1.036
				s0-0.783,0-1.213c0.014-0.876,0.04-1.663,0.077-2.36s0.104-1.451,0.2-2.26c0.097-0.809,0.219-1.521,0.367-2.137
				s0.35-1.221,0.602-1.815c0.268-0.608,0.564-1.105,0.891-1.492c0.742-0.861,1.596-1.292,2.561-1.292s1.789,0.175,2.472,0.523
				c0.683,0.349,1.259,0.91,1.726,1.681c0.468,0.772,0.876,1.522,1.225,2.249c0.35,0.728,0.623,1.741,0.824,3.04
				c0.2,1.299,0.359,2.349,0.479,3.151c0.119,0.816,0.201,1.981,0.245,3.496c0.06,2.034,0.089,3.622,0.089,4.765V65.84z
				 M401.221,49.151c-0.305-0.779-0.684-1.38-1.136-1.803c-0.453-0.423-0.901-0.635-1.347-0.635s-0.812,0.156-1.103,0.468
				c-0.29,0.312-0.534,0.753-0.735,1.325c-0.2,0.572-0.378,1.184-0.534,1.837c-0.155,0.653-0.274,1.407-0.356,2.26
				s-0.152,1.629-0.211,2.327c-0.045,0.683-0.082,1.44-0.111,2.271c-0.03,1.381-0.053,2.457-0.066,3.229v0.2
				c0,2.034,0.155,4.228,0.467,6.579c0.312,2.354,0.635,4.279,0.969,5.779c0.334,1.499,0.783,2.771,1.348,3.818
				c0.563,1.047,1.194,1.57,1.893,1.57c0.607,0,1.12-0.572,1.536-1.715c0.415-1.158,0.712-2.583,0.891-4.275
				c0.297-3.028,0.448-5.154,0.456-6.379s0.008-2.119,0-2.684c-0.008-0.564-0.029-1.384-0.066-2.46s-0.1-2.085-0.189-3.028
				c-0.089-0.942-0.204-1.985-0.346-3.128c-0.141-1.143-0.326-2.16-0.557-3.05C401.792,50.766,401.524,49.931,401.221,49.151z"/>
			<path class="st1" d="M416.742,79.066c0-0.816,0.342-1.225,1.025-1.225c0.341,0,0.789,0.115,1.346,0.346
				c0.558,0.23,1.039,0.345,1.448,0.345c0.407,0,0.85-0.259,1.325-0.779c0.475-0.52,0.846-1.165,1.113-1.937
				c0.549-1.574,0.823-2.996,0.823-4.265s-0.223-2.631-0.668-4.086c-0.445-1.454-0.987-2.82-1.626-4.097
				c-0.638-1.277-1.283-2.553-1.937-3.83c-1.544-3.043-2.309-5.819-2.294-8.328c-0.015-2.375,0.735-4.238,2.25-5.589
				c0.801-0.712,1.744-1.069,2.827-1.069c0.55,0,1.083,0.153,1.604,0.457c0.519,0.305,0.883,0.702,1.091,1.191l-0.779,0.98
				c-0.758,0-1.352-0.148-1.781-0.446c-0.564,0.06-1.055,0.327-1.47,0.802c-0.757,0.876-1.136,1.956-1.136,3.24
				c0,1.284,0.164,2.535,0.49,3.752c0.326,1.217,0.734,2.309,1.225,3.273s1.017,2.012,1.58,3.14c0.58,1.128,1.114,2.212,1.604,3.25
				c1.143,2.405,1.715,5.003,1.715,7.794c0.015,1.959-0.482,3.844-1.492,5.655c-0.475,0.861-1.128,1.569-1.959,2.126
				c-0.832,0.557-1.76,0.836-2.783,0.836c-1.1,0-1.963-0.164-2.594-0.49C417.058,79.787,416.742,79.438,416.742,79.066z"/>
		</g>
	</g>
</g>
</svg>
