<?xml version="1.0" encoding="utf-8"?>
<!-- Generator: Adobe Illustrator 16.0.0, SVG Export Plug-In . SVG Version: 6.00 Build 0)  -->
<!DOCTYPE svg PUBLIC "-//W3C//DTD SVG 1.1//EN" "http://www.w3.org/Graphics/SVG/1.1/DTD/svg11.dtd">
<svg version="1.1" id="Layer_1" xmlns="http://www.w3.org/2000/svg" xmlns:xlink="http://www.w3.org/1999/xlink" x="0px" y="0px"
	 width="73px" height="19px" viewBox="0 0 73 19" enable-background="new 0 0 73 19" xml:space="preserve">
<g>
	<path fill="#CAC1B0" d="M0.648,8.854c6.424,6.012,14.027,11.174,23.309,9.596c5.62-0.959,10.903-3.891,16.274-5.757
		c3.092-1.072,6.217-2.119,9.395-2.908c1.781-0.443,3.635-0.312,5.494-0.106c0.269,0.396,0.932,0.547,1.27,0.168
		c0.377,0.076,0.755,0.153,1.139,0.212c0.179,0.027,0.331-0.006,0.467-0.062c0.561,0.052,1.118,0.082,1.666,0.087
		c-0.002-0.01-0.002-0.023-0.004-0.033c0.959-0.051,1.087-1.455,0.004-1.572c-0.871-0.094-1.896-0.333-2.963-0.586
		c-0.932-4.024-10.42-7.146-13.336-7.226c-6.307-0.171-12.571-1.154-18.742,0.77c-3.293,1.027-6.431,2.422-9.68,3.572
		C11.615,6.184,8.085,6.441,4.823,7.636c-0.284,0.106-0.45,0.348-0.49,0.604C3.276,7.548,2.169,7.156,0.979,7.601
		C0.477,7.787,0.205,8.438,0.648,8.854 M54.655,7.457c-0.178-0.034-0.345-0.061-0.518-0.089c-6.539-1.896-13.549-3.432-19.934-0.697
		c-5.357,2.292-11.465,2.37-17.219,2.403c-1.772,0.007-3.352-0.204-4.931-0.511c2.219-0.662,4.392-1.619,6.309-2.388
		c4.985-1.997,9.884-3.938,15.356-3.953c3.764-0.009,8.366-0.329,11.983,0.802C46.888,3.393,52.891,5.315,54.655,7.457
		 M8.324,11.274c-0.857-0.473-1.718-1.251-2.606-1.985c7.818,3.521,16.458,1.815,24.703,0.926c1.678-0.183,3.316-1.053,4.844-1.73
		c2.841-1.258,5.445-1.065,8.388-1.082c1.552-0.011,3.031,0.189,4.481,0.477c-2.372,0.569-4.722,1.209-7.036,1.992
		c-5.09,1.713-10.204,4.447-15.426,5.649c-3.007,0.691-6.426,0.955-9.468,0.229C12.967,14.976,11.134,12.825,8.324,11.274"/>
	<path fill="#CAC1B0" d="M68.643,7.302c0.29-0.043,0.583-0.084,0.877-0.124c0.675-0.096,1.247-0.119,1.86,0.241
		c0.734,0.43,1.195,1.234,1.195,2.086c0,0.639-0.255,1.258-0.705,1.706c-0.668,0.668-1.465,0.746-2.351,0.622
		c-0.294-0.041-0.587-0.084-0.877-0.128c-0.989-0.138-1.678-1.281-1.678-2.2C66.965,8.589,67.653,7.443,68.643,7.302"/>
</g>
</svg>
