<?xml version="1.0" encoding="utf-8"?>
<!-- Generator: Adobe Illustrator 16.0.0, SVG Export Plug-In . SVG Version: 6.00 Build 0)  -->
<!DOCTYPE svg PUBLIC "-//W3C//DTD SVG 1.1//EN" "http://www.w3.org/Graphics/SVG/1.1/DTD/svg11.dtd">
<svg version="1.1" id="Layer_1" xmlns="http://www.w3.org/2000/svg" xmlns:xlink="http://www.w3.org/1999/xlink" x="0px" y="0px"
	 width="488px" height="172px" viewBox="0 0 488 172" style="enable-background:new 0 0 488 172;" xml:space="preserve">
<style type="text/css">
<![CDATA[
	.st0{fill:#FFFFFF;}
	.st1{fill:#CAC1B0;}
]]>
</style>
<path class="st0" d="M1.053,87.064c0,0,61.541-39.691,76.138-39.274c0,0-4.005-25.984,15.195-27.784
	c19.201-1.8,46.202-10.2,86.404-16.201c40.202-6,138.607,3,154.207,3c15.602,0,93.604,13.2,81.004,30.001l0.758,14.381
	c0,0,67.672,30.05,67.357,50.137l-47.949,16.108c0,0,20.738,38.408,14.959,41.451c0,0-58.695-23.205-79.611-26.14
	s-14.316-18.535-11.316-32.936c0,0,7.801-4.2-5.4-5.4s-134.832-8.607-223.422,7.396c0,0,17.413,23.51-8.317,32.001
	c0,0-59.403,14.031-85.139,37.419c0,0,19.251-46.566,6.358-58.69C42.277,112.535,24.326,97.123,1.053,87.064z"/>
<g>
	<path class="st1" d="M487.539,102.767c-4.76-12.388-18.391-23.736-29.318-30.771c-5.281-3.399-10.785-6.886-16.605-9.353
		c-4.805-2.039-9.744-3.88-14.58-5.996c-2.492-1.091-9.645-2.408-10.758-4.405c-0.377-0.679-0.938-0.985-1.52-1.054
		c0.719-2.691,1.426-5.385,2.092-8.084c2.539-10.285,4.508-16.319-5.26-21.35c-13.176-6.784-26.396-9.557-41.008-11.725
		c-15.945-2.364-31.814-5.792-47.988-6.011c-16.836-0.229-33.674-0.324-50.461-1.37c-8.416-0.525-16.762-1.161-25.184-1.425
		c-2.37-0.075-4.901,0.117-7.454,0.317c-9.909-1.364-20.513-0.67-29.96-1.072c-15.738-0.671-31.99,1.166-47.486,4.013
		c-16.911,3.106-33.716,6.021-50.689,8.743c-7.913,1.267-26.122,3.198-31.821,9.981c-2.141,2.546-1.516,3.465-1.842,6.889
		c-0.483,5.038-0.605,10.49-0.542,15.792c-15.919,3.335-31.261,12.448-45.119,20.603c-4.125,2.428-8.449,4.61-12.702,6.813
		C14.63,75.737,7.125,77.366,3.202,80.86c-2.69,2.393-3.59,2.942-2.149,6.205c1.579,3.576,11.223,6.543,14.657,8.603
		c8.652,5.188,19.286,9.736,26.567,16.868c6.018,5.893,0.731,15.575-1.6,23.124c-3.443,11.152-4.525,22.663-7.832,33.776
		c-0.571,1.919,1.743,2.852,3.074,1.79c23.616-18.811,55.692-28.573,84.641-35.579c5.694-1.38,13.758-2.615,15.627-9.141
		c1.771-6.174-0.983-14.801-2.993-21.327c12.936-0.638,26.262-3.89,39.25-5.053c16.31-1.459,32.441-5.427,48.75-6.42
		c13.19-0.804,26.513-0.274,39.726-0.841c27.293-1.175,53.984-1.047,81.197,2.113c5.252,0.609,10.551,1.081,15.84,1.603
		c-3.6,3.174-5.908,25.32-2.936,30.075c5.674,9.076,27.023,9.418,36.08,13.035c12.779,5.104,24.014,11.226,37.449,14.619
		c5.439,1.377,11.15,2.007,16.301,4.427c2.461,1.155,4.006,2.781,6.836,3.079c1.266,0.133,1.998-1.276,1.773-2.328
		c-1.643-7.721-3.164-14.63-6.424-21.916c-1.434-3.197-3.422-6.194-4.865-9.395c-3.803-8.459-6.477-10.151,2.58-12.839
		c8.025-2.379,16.359-4.46,24.463-6.666c5.049-1.375,14.223-0.587,17.793-3.902C487.5,104.311,487.787,103.414,487.539,102.767
		 M127.56,128.931c-7.81,4.923-20.877,5.158-29.762,8.343c-20.759,7.442-41.669,15.59-59.933,28.162
		c2.174-8.089,3.387-16.36,5.787-24.453c1.98-6.692,6.816-16.408,6.313-23.662c-0.713-10.275-18.494-16.529-26.325-21.145
		c-3.489-2.056-6.911-4.518-10.462-6.442c-5.631-3.051-9.438-1.443-0.447-8.072c7.252-5.348,16.58-9.367,24.405-13.896
		C49.888,60.386,63.632,53.426,77.19,47.79c0.027,1.364,0.056,2.732,0.105,4.059c0.495,13.323,5.077,27.028,9.848,39.403
		c3.351,8.692,4.159,18.051,13.155,22.01c4.436,1.953,9.138,2.904,13.448,5.074c0.946,0.476,2.323,1.12,3.744,1.861
		c-0.21,0.589-0.375,1.181-0.57,1.617c-1.148,2.586-2.238,5.153-3.842,7.498c-0.091,0.133,0.095,0.33,0.229,0.229
		c1.506-1.148,2.451-2.592,3.212-4.319c0.442-1.003,0.847-2.027,1.264-3.042c0.145-0.354,0.302-0.952,0.5-1.557
		c1.979,1.077,3.902,2.318,4.728,3.557c-0.277-0.416-1.248,2.498-1.264,2.568c-0.343,1.516,1.746,2.039,2.291,0.63
		c1.588-4.099,3.549-3.087-0.328-7.311c-0.374-0.409-0.779-0.776-1.193-1.134c-0.744-1.967-1.23-4.222-1.561-5.24
		c-0.917-2.822-2.345-5.642-2.997-8.581c1.06-0.116,2.091-0.16,3.108-0.171c0.707,2.396,1.414,4.783,2.001,7.241
		c0.718,2.985,1.06,7.044,3.156,9.433c0.432,0.491,1.205-0.303,0.708-0.707c-0.041-0.034-0.081-0.066-0.121-0.099
		c-0.14-0.114-0.364-0.156-0.501,0c0.742-0.845-1.032-4.589-1.293-5.515c-0.555-1.982-1.058-3.975-1.578-5.967
		c-0.393-1.506-0.913-2.951-1.494-4.374c0.621,0.007,1.233,0.042,1.848,0.067c0.328,3.131,1.444,6.184,2.228,9.223
		c0.88,3.416,1.775,6.893,2.906,10.234c0.117,0.342,0.583,0.266,0.615-0.084c0.262-2.768-1.135-5.693-1.882-8.322
		c-1.011-3.552-2.463-7.33-2.898-11.016c0.951,0.045,1.916,0.085,2.877,0.126c0.342,3.098,0.674,6.194,1.142,9.284
		c0.328,2.176-0.19,5.371,2.087,6.576c0.323,0.17,0.734,0.024,0.836-0.342c0.08-0.289,0.162-0.58,0.242-0.869
		c0.129-0.463-0.469-0.645-0.724-0.306c-0.331,0.436-0.958-3.448-1.024-3.919c-0.191-1.375-0.546-2.717-0.764-4.087
		c-0.335-2.095-0.539-4.195-0.78-6.294c0.203,0.007,0.401,0.021,0.606,0.027C131.52,112.931,135.17,124.135,127.56,128.931
		 M119.817,115.537c-0.766-1.075-1.278-2.234-1.912-3.389c-1.062-1.937-2.893-4.293-3.476-6.562c0.71-0.115,1.554-0.238,2.585-0.392
		c0.004-0.001,0.009,0,0.015-0.001c0.661,3.98,2.557,8.035,3.763,11.77c0.081,0.252,0.167,0.535,0.256,0.832
		c-0.104-0.07-0.196-0.153-0.3-0.223c0.065-0.065,0.11-0.152,0.081-0.254C120.628,116.58,120.254,116.15,119.817,115.537
		 M358.238,115.032c0.383-2.008,0.715-4.032,1.207-5.985c0.566-2.231,1.113-4.474,1.477-6.746c0.193-1.22,0.99-3.448,0.949-4.252
		c0.01,0.171,0.275,0.172,0.266,0c-0.016-0.344-0.033-0.688-0.049-1.031c0.674,0.073,1.344,0.164,2.018,0.24
		c-1.811,7.218-4.154,14.428-5.51,21.76C358.301,117.725,358.188,116.396,358.238,115.032 M360.072,96.788
		c0.514,0.053,1.025,0.122,1.539,0.175c-0.682,0.969-1.07,2.202-1.328,3.512C360.324,99.24,360.273,98.008,360.072,96.788
		 M359.383,121.33c0.943-4.462,1.656-8.968,2.844-13.381c0.936-3.484,1.934-7.035,2.605-10.606c0.879,0.099,1.75,0.219,2.625,0.325
		c-2.096,8.535-4.84,16.908-7.066,25.363C360,122.475,359.656,121.908,359.383,121.33 M480.76,101.732
		c-5.188,1.399-10.244,2.282-15.385,3.887c-10.145,3.165-20.791,4.922-30.32,9.633c-0.818,0.403-1.027,1.374-0.889,2.182
		c2.4,13.974,11.596,25.615,15.016,39.555c-1.602-0.858-3.303-1.937-4.533-2.48c-3.777-1.666-7.641-2.535-11.691-3.441
		c-12.781-2.864-23.514-8.297-35.504-13.264c-10.918-4.521-28.914-4.869-36.531-14.069c2.498-8.643,5.146-17.177,7.289-25.972
		c0.824,0.102,1.645,0.219,2.467,0.326c-0.357,2.481-1.025,5.664-1.127,6.035c-0.625,2.234-1.436,4.398-2.133,6.607
		c-1.223,3.858-2.242,7.808-3.693,11.588c-0.119,0.307,0.385,0.518,0.533,0.223c2.396-4.742,3.553-10.247,5.1-15.31
		c0.764-2.499,2.137-5.94,2.27-9.017c0.635,0.088,1.262,0.203,1.895,0.297c-1.346,8.629-6.322,16.307-7.686,24.836
		c-0.035,0.227,0.26,0.307,0.342,0.094c3.07-7.908,7.113-16.26,7.928-24.836c1.127,0.168,2.26,0.324,3.375,0.527
		c-0.143,0.507-0.285,0.94-0.344,1.108c-0.936,2.753-2.184,5.413-3.355,8.073c-1.729,3.916-3.41,7.437-4.672,11.537
		c-0.133,0.432,0.453,0.621,0.689,0.291l0.174-0.242c0.236-0.333-0.264-0.666-0.541-0.416c1.822-1.633,2.035-4.137,3.062-6.352
		c1.025-2.203,2.014-4.364,2.951-6.611c1.012-2.422,1.945-4.814,2.613-7.304c1.307,0.206,2.695,0.321,4.029,0.593
		c-0.834,3.59-2.432,6.721-4.289,9.958c-0.654,1.143-2.697,3.085-1.709,4.436c0.152,0.205,0.574,0.173,0.547-0.147
		c-0.096-1.025,1.18-2.48,1.67-3.333c0.85-1.47,1.637-2.978,2.422-4.479c1.062-2.025,1.666-4.082,2.057-6.287
		c0.475,0.125,0.941,0.27,1.387,0.467c12.961,5.693,1.58,7.052-2.424,12.037c-0.543,0.68,0.174,1.928,1.025,1.325
		c4.041-2.864,14.686-4.017,13.504-10.625c-1.232-6.899-13.262-7.705-18.375-8.704c-13.352-2.605-27.432-3.172-40.992-4.513
		c-16.242-1.604-32.75-2.765-49.084-2.722c-32.248,0.086-65.129,2.074-96.972,6.739c-18.166,2.661-36.527,5.162-54.71,7.556
		c-1.342,0.174-2.727,0.253-4.134,0.282l-0.444-0.265c-0.759-0.453-1.618-0.25-2.191,0.271c-0.399-0.005-0.799-0.016-1.2-0.024
		c-0.064-0.395-0.115-0.788-0.191-1.181c-0.093-0.478-0.923-0.376-0.859,0.116c0.045,0.349,0.076,0.695,0.12,1.045
		c-5.173-0.129-10.459-0.342-15.167,1.238c-0.041-0.205-0.1-0.406-0.126-0.615c-0.063-0.491-0.777-0.525-0.792,0
		c-0.01,0.313,0.049,0.639,0.09,0.959c-1.501,0.585-2.952,1.324-4.298,2.37c-0.965,0.75-0.23,2.06,0.636,2.415
		c2.142,0.881,3.858,1.254,5.881,1.475c0.676,1.469,1.477,2.791,2.942,3.705c0.274,0.17,0.502-0.152,0.399-0.399
		c-0.45-1.062-1.041-2.105-1.655-3.153c0.024,0.002,0.044,0.006,0.069,0.007c0.089,0.007,0.16-0.022,0.216-0.064
		c0.315,0.549,0.628,1.079,0.913,1.575c1.17,2.049,2.052,3.975,3.535,5.738c-6.293-3.779-14.844-4.603-20.098-9.464
		c-4.223-3.907-7.408-15.319-9.498-20.679c-2.531-6.481-4.575-12.915-6.187-19.65c-1.574-6.579-3.102-12.812-3.051-19.629
		c0.044-6.122-1.299-17.156,2.869-21.455c8.315-8.575,25.895-8.836,36.945-10.94c14.674-2.795,29.63-5.673,44.403-8.003
		c21.649-3.415,43.712-4.338,65.631-3.624c8.972,2.203,20.199,0.961,29.148,1.783c16.83,1.546,33.779,2.79,50.684,3.193
		c16.301,0.392,31.83,1.509,47.949,4.324c16.43,2.871,38.475,2.697,52.074,13.808c7.814,6.386-0.658,28.187-3.314,37.456
		c-3.586,12.528-4.078,25.689-7.426,38.105c-1.465,5.432-2.664,7.734-7.77,11.592l-2.957,2.031
		c-3.955,2.704-8.203,4.045-12.75,4.023c-0.51,0.637-2.039,0.654-2.445,1.717c-2.125,5.601,10.025,6.67,12.254,6.576
		c0.117-0.006,0.191-0.079,0.285-0.127c-0.008,0.021-0.021,0.042-0.002,0.064c1.742,2.086,3.479,4.422,6.258,5.026
		c3.828,0.834,6.814,1.784,10.008,4.142c0.24,0.177,0.48-0.192,0.303-0.393c-1.812-2.048-4.082-3.487-6.76-4.059
		c-1.402-0.301-2.816-0.394-4.184-0.827c-2.346-0.743-3.746-2.397-5.521-3.994c-0.006-0.005-0.01,0.004-0.018,0
		c0.504-0.345,0.582-1.228-0.16-1.368c-1.002-0.189-9.682-1.418-9.135-3.721c0.178-0.754,5.633-0.943,5.686-0.959
		c5.623-1.679,11.055-5.498,15.113-9.586c6.898-6.953,6.021-16.703,7.742-25.936c1.924-10.322,4.777-20.466,7.545-30.615
		c1.568,1.469,3.723,1.668,6.061,2.552c7.305,2.758,15.354,6.149,22.488,9.38c11.455,5.186,21.256,13.199,29.977,22.028
		c2.434,2.464,5.191,4.614,7.365,7.328c0.904,1.405,1.811,2.808,2.717,4.211C481.73,101.404,481.291,101.529,480.76,101.732"/>
	<path class="st1" d="M88.786,25.685c-0.938,0.294-1,0.726-1.364,1.594c-0.908,2.161-1.542,4.6-2.149,6.862
		c-0.669,2.492-1.713,4.965-2.271,7.465c-0.232,1.031-0.328,1.459,0.387,2.24c0.182,0.198,0.433-0.056,0.344-0.267
		c-0.548-1.293,0.576-3.187,0.992-4.377c0.554-1.59,0.958-3.206,1.392-4.826c0.361-1.348,1.344-7.486,2.854-8.029
		C89.38,26.2,89.213,25.55,88.786,25.685"/>
	<path class="st1" d="M91.999,29.805c-3.035,3.182-4.215,7.311-5.669,11.359c-0.584,1.625-3.687,6.984-2.34,8.765
		c0.114,0.15,0.295,0.263,0.494,0.2c0.156-0.052,0.314-0.103,0.471-0.155c0.264-0.086,0.29-0.486,0-0.562
		c-0.729-0.19,2.132-7.589,2.273-8.002c1.332-3.918,2.384-8.021,5.2-11.179C92.685,29.944,92.269,29.522,91.999,29.805"/>
	<path class="st1" d="M91.32,37.223c-0.567,0.904-9.746,20.188-5.353,19.471c0.366-0.059,0.286-0.561,0-0.662
		c-2.64-0.945,5.654-18.275,5.803-18.547C91.932,37.191,91.499,36.939,91.32,37.223"/>
	<path class="st1" d="M93.646,42.22c-2.17,3.162-3.916,7.233-5.519,10.711c-1,2.17-2.787,5.34-2.347,7.773
		c0.059,0.32,0.475,0.449,0.732,0.297c0.183-0.106,0.367-0.215,0.548-0.322c0.29-0.17,0.193-0.726-0.183-0.68
		c-0.115,0.013,0.725-3.417,0.812-3.68c0.647-1.965,1.589-3.925,2.509-5.78c1.287-2.597,2.355-5.608,3.914-8.048
		C94.303,42.198,93.841,41.936,93.646,42.22"/>
	<path class="st1" d="M94.512,46.81c-1.874,3.494-3.701,7.069-5.203,10.744c-0.779,1.909-1.651,4.143-0.404,5.992
		c0.181,0.27,0.684,0.197,0.66-0.179c-0.356-5.595,3.195-11.266,5.685-16.125C95.498,46.755,94.773,46.323,94.512,46.81"/>
	<path class="st1" d="M96.846,50.146c-2.022,3.411-2.979,7.396-4.301,11.111c-1.286,3.609-3.281,7.145-3.51,11.013
		c-0.034,0.604,0.773,0.603,0.969,0.132c0.083-0.2,0.165-0.397,0.247-0.595c0.147-0.357-0.403-0.654-0.645-0.375
		c1.901-2.192,2.906-7.135,3.866-9.918c1.262-3.649,2.168-7.59,4.112-10.937C97.861,50.1,97.126,49.671,96.846,50.146"/>
	<path class="st1" d="M90.193,76.275c2.571-6.4,5.463-13.061,7.393-19.809c0.138-0.479-0.593-0.677-0.743-0.206
		c-1.241,3.932-2.979,7.797-4.46,11.647c-0.858,2.233-1.549,4.517-2.474,6.724c-0.506,1.203-0.952,1.66-0.54,2.892
		c0.127,0.382,0.698,0.641,1,0.262c0.484-0.606,0.501-0.623,0.542-1.412C90.933,75.929,90.335,75.922,90.193,76.275"/>
	<path class="st1" d="M97.41,63.57c-1.076,3.354-3.091,6.267-4.098,9.651c-0.907,3.049-2.012,5.962-2.425,9.133
		c-0.044,0.338,0.431,0.592,0.701,0.399c0.041-0.028,0.084-0.06,0.125-0.09c0.184-0.131,0.218-0.35,0.069-0.523
		c-0.114-0.131,0.932-3.448,1.038-3.799c0.546-1.797,1.109-3.601,1.665-5.396c0.983-3.172,2.879-5.94,3.869-9.115
		C98.543,63.226,97.601,62.97,97.41,63.57"/>
	<path class="st1" d="M99.531,68.939c-2.272,5.662-7.281,13.12-6.599,19.44c0.03,0.288,0.485,0.412,0.551,0.073
		c1.328-6.714,4.414-12.918,6.752-19.32C100.398,68.687,99.702,68.511,99.531,68.939"/>
	<path class="st1" d="M99.661,80.485c-0.717,0.829-0.946,2.107-1.329,3.117c-0.526,1.392-0.499,3.069-1.288,4.341
		c-0.118,0.192,0.155,0.405,0.311,0.24c0.785-0.814,0.834-1.843,1.079-2.906c0.159-0.688,0.421-1.333,0.676-1.988
		c0.285-0.726,0.477-1.77,0.994-2.36C100.368,80.628,99.926,80.182,99.661,80.485"/>
	<path class="st1" d="M101.124,95.814c-0.082-0.69-0.041-1.407-0.033-2.102c0.01-0.697-1.073-0.697-1.083,0
		c-0.023,1.629,0.234,2.698,0.958,4.15c0.132,0.269,0.541,0.127,0.542-0.146C101.516,97.043,101.202,96.484,101.124,95.814"/>
	<path class="st1" d="M73.826,55.809c-1.119,1.925-2.306,3.816-3.316,5.802c-0.708,1.396-1.225,2.589-0.922,4.168
		c0.054,0.281,0.506,0.276,0.562,0c0.732-3.533,2.654-6.422,4.433-9.527C74.862,55.76,74.108,55.321,73.826,55.809"/>
	<path class="st1" d="M71.635,65.23c-0.656,1.277-1.298,2.564-1.858,3.886c-0.238,0.562-0.544,1.199-0.594,1.82
		c-0.05,0.624,0.364,1.314,0.803,0.501c0.066-0.122-0.065-0.249-0.185-0.185c0.062-0.033,0.286-1.192,0.368-1.419
		c0.532-1.485,1.245-2.913,1.935-4.33C72.254,65.193,71.796,64.919,71.635,65.23"/>
	<path class="st1" d="M72.639,69.307c-0.792,0.609-1.048,1.337-1.236,2.3c-0.25,1.27-0.849,2.465-0.908,3.765
		c-0.016,0.357,0.542,0.533,0.699,0.189c0.416-0.918,0.756-1.9,0.992-2.879c0.232-0.969,0.156-1.97,1.009-2.654
		C73.595,69.705,73.051,68.988,72.639,69.307"/>
	<path class="st1" d="M70.973,80.22c-0.27,0.714-0.583,1.385-0.583,2.156c0,0.453,0.676,0.68,0.893,0.241
		c0.333-0.668,0.546-1.392,0.817-2.087C72.37,79.831,71.236,79.519,70.973,80.22"/>
	<path class="st1" d="M114.151,120.156c-1.534,3.495-3.765,6.738-5.363,10.184c-0.051,0.108,0.09,0.247,0.18,0.139
		c2.404-2.957,4.448-6.33,5.993-9.849C115.201,120.082,114.393,119.604,114.151,120.156"/>
	<path class="st1" d="M108.928,121.647c-0.825,2.288-2.753,4.076-4.188,5.999c-0.111,0.151,0.139,0.341,0.263,0.201
		c1.693-1.914,3.65-3.549,4.508-6.041C109.639,121.438,109.06,121.283,108.928,121.647"/>
	<path class="st1" d="M100.707,129.221c-0.208,0.236-0.417,0.475-0.624,0.711c-0.159,0.184,0.083,0.424,0.266,0.266
		c0.237-0.209,0.474-0.416,0.711-0.622C101.302,129.361,100.918,128.978,100.707,129.221"/>
	<path class="st1" d="M74.805,140.161c-5.028,1.249-9.261,2.348-13.6,5.154c-4.736,3.062-10.575,5.312-14.785,8.989
		c-0.126,0.112,0.037,0.312,0.178,0.23c5.027-2.88,10.259-5.083,15.19-8.219c4.191-2.665,8.756-3.646,13.209-5.697
		C75.262,140.495,75.07,140.096,74.805,140.161"/>
	<path class="st1" d="M82.659,136.365c-1.406,0.758-2.878,1.691-4.111,2.712c-0.395,0.329,0.143,1.04,0.557,0.72
		c1.272-0.979,3.045-1.512,4.074-2.76C83.477,136.672,83.108,136.123,82.659,136.365"/>
	<path class="st1" d="M100.774,80.252c-1.016,3.42-2.291,7.239-2.623,10.794c-0.041,0.459,0.652,0.515,0.778,0.104
		c1.089-3.496,1.71-7.138,2.729-10.655C101.823,79.927,100.943,79.688,100.774,80.252"/>
	<path class="st1" d="M115.005,79.717c-0.904,1.52-10.642,6.589-11.255,8.238c-0.305,0.82-0.66,1.619-0.963,2.439
		c-0.105,0.288-0.423,2.016-0.634,2.087c-0.259,0.091-0.208,0.451,0.064,0.472c0.09,0.006,0.181,0.014,0.271,0.02
		c0.134,0.012,0.244-0.099,0.285-0.215c0.506-1.463,1.206-2.832,1.763-4.275c0.641-1.658,1.168-3.336,2.088-4.869
		c0.312-0.521-0.502-0.993-0.81-0.474"/>
	<path class="st1" d="M106.218,91.58c-0.171,0-0.171,0.267,0,0.267C106.39,91.847,106.39,91.58,106.218,91.58"/>
	<path class="st1" d="M154.241,93.453c-5.257-0.316-10.017,0.254-15.124,1.294c-5.945,1.209-14.894,3.823-20.832,2.748
		c-0.286-0.052-0.411,0.364-0.122,0.442c4.718,1.262,10.114-0.133,14.901-0.835c7.1-1.043,14.008-2.467,21.177-3.129
		C154.573,93.944,154.58,93.475,154.241,93.453"/>
	<path class="st1" d="M166.835,93.246c-0.801,0.549-2.003,0.24-2.923,0.219c-0.323-0.01-0.321,0.487,0,0.499
		c1.065,0.04,2.231,0.28,3.112-0.474C167.158,93.377,166.981,93.146,166.835,93.246"/>
	<path class="st1" d="M184.128,90.83c-0.383,0.248-0.785,0.332-1.208,0.248c-0.387-0.032-0.386,0.57,0,0.604
		c0.655,0.056,1.01-0.049,1.512-0.459C184.66,91.037,184.369,90.703,184.128,90.83"/>
	<path class="st1" d="M230.277,85.459c-12.559,0.68-24.604,1.797-36.77,5.276c-0.4,0.114-0.232,0.721,0.172,0.622
		c12.127-2.981,24.415-3.486,36.665-5.406C230.621,85.908,230.556,85.445,230.277,85.459"/>
	<path class="st1" d="M251.953,85.408c0.041,0,0.041-0.062,0-0.062"/>
	<path class="st1" d="M251.953,85.408c0.041,0,0.041-0.062,0-0.062"/>
	<path class="st1" d="M408.486,30.145c-1.322,1.687-2.396,3.542-3.703,5.246c-1.186,1.545-1.939,3.213-2.949,4.856
		c-0.115,0.187,0.113,0.409,0.299,0.298c1.557-0.928,2.223-2.85,3.271-4.267c1.359-1.84,2.402-3.801,3.539-5.779
		C409.102,30.223,408.695,29.877,408.486,30.145"/>
	<path class="st1" d="M409.9,36.138c-1.404,0.945-2.199,2.598-3.221,3.899c-1.455,1.857-3.289,3.394-4.832,5.145
		c-0.182,0.204,0.049,0.551,0.301,0.393c1.721-1.082,2.963-2.615,4.326-4.115c1.34-1.477,2.084-3.687,3.68-4.889
		C410.402,36.38,410.172,35.955,409.9,36.138"/>
	<path class="st1" d="M408.77,43.1c-1.311,1.291-2.619,2.586-3.934,3.872c-1.131,1.11-1.988,2.326-2.996,3.538
		c-0.176,0.211,0.049,0.585,0.314,0.409c1.227-0.827,2.029-2.13,3.066-3.174c1.359-1.373,2.709-2.752,4.064-4.129
		C409.611,43.279,409.102,42.77,408.77,43.1"/>
	<path class="st1" d="M409.248,48.25c-1.494,1.795-3.334,3.187-5.037,4.771c-1.1,1.028-2.287,1.924-3.475,2.851
		c-0.932,0.726-1.947,2-3.096,2.323c-0.186,0.05-0.158,0.361,0.047,0.347c2.092-0.155,4.246-2.581,5.773-3.891
		c2.09-1.786,4.566-3.873,6.033-6.212C409.586,48.291,409.363,48.111,409.248,48.25"/>
	<path class="st1" d="M408.166,55.505c-3.117,2.698-6.826,6.107-10.908,7.177c-0.395,0.102-0.32,0.729,0.096,0.717
		c2.178-0.07,3.846-1.518,5.541-2.734c2.035-1.459,3.842-3.05,5.656-4.777C408.807,55.645,408.428,55.277,408.166,55.505"/>
	<path class="st1" d="M403.41,63.204c-0.939,1.556-2.779,1.904-4.266,2.736c-0.6,0.334-1.115,0.771-1.66,1.188
		c-0.73,0.558-1.5,0.866-2.268,1.342c-0.193,0.116-0.17,0.438,0.064,0.496c1.629,0.388,3.145-1.749,4.426-2.46
		c1.559-0.869,3.318-1.335,4.262-2.975C404.176,63.168,403.625,62.847,403.41,63.204"/>
	<path class="st1" d="M402.809,68.667c-2.543,1.885-5.912,3.073-8.055,5.438c-0.273,0.303,0.082,0.836,0.455,0.588
		c2.656-1.748,5.484-3.383,8.031-5.289C403.674,69.081,403.252,68.339,402.809,68.667"/>
	<path class="st1" d="M402.531,72.101c-2.484,1.354-4.953,2.771-7.279,4.388c-1.4,0.972-3.654,2.158-4.232,3.796
		c-0.119,0.332,0.344,0.566,0.576,0.333c3.205-3.207,7.336-5.737,11.252-7.977C403.197,72.44,402.885,71.91,402.531,72.101"/>
	<path class="st1" d="M399.066,78.754c-0.459,0.45-1.191,0.609-1.756,0.916c-0.496,0.271-0.939,0.625-1.4,0.952
		c-1.035,0.734-2.105,1.384-3.207,2.012c-0.475,0.274-0.963,0.523-1.264,1.009c-0.531,0.859-0.062,1.962-0.717,2.774
		c-0.293,0.36,0.064,0.878,0.504,0.655c0.598-0.303,0.814-0.644,0.928-1.297c0.111-0.617-0.137-1.167,0.311-1.759
		c0.285-0.376,0.957-0.621,1.355-0.865c1.139-0.69,2.16-1.506,3.242-2.269c0.832-0.587,1.871-0.824,2.578-1.554
		C400.008,78.952,399.443,78.387,399.066,78.754"/>
	<path class="st1" d="M379.346,100.627c-1.068,2.639-1.967,5.338-2.939,8.014c-0.537,1.473-2.057,7.022-3.852,7.877
		c-0.264,0.125-0.062,0.479,0.186,0.438c2.027-0.334,2.695-3.784,3.363-5.351c1.498-3.52,2.506-7.237,3.906-10.797
		C380.174,100.396,379.51,100.221,379.346,100.627"/>
	<path class="st1" d="M384.113,104.249c-1.027,1.656-2.156,3.246-3.156,4.919c-0.676,1.129-1.773,2.541-1.82,3.888
		c-0.008,0.202,0.297,0.292,0.387,0.106c1.498-3.012,3.312-5.773,5.057-8.641C384.764,104.223,384.297,103.953,384.113,104.249"/>
	<path class="st1" d="M386.754,104.981c-0.359,1.421-1.648,2.56-1.635,4.073c0.002,0.254,0.391,0.318,0.449,0.061
		c0.336-1.449,1.346-2.563,1.709-3.991C387.363,104.785,386.84,104.642,386.754,104.981"/>
	<path class="st1" d="M409.375,139.042c-0.035-0.022-0.064,0.032-0.029,0.054c0.441,0.284,0.832,0.542,1.336,0.682
		c0.051,0.013,0.074-0.068,0.023-0.082C410.18,139.558,409.818,139.317,409.375,139.042"/>
	<path class="st1" d="M420.645,143.123c-0.479-0.526-1.135-0.723-1.695-1.15c-0.506-0.389-1.033,0.489-0.506,0.863
		c0.529,0.374,1.137,0.631,1.721,0.909C420.568,143.938,420.957,143.469,420.645,143.123"/>
	<path class="st1" d="M460.383,103.021c-3.756,0.04-7.588,1.275-11.324,1.826c-3.979,0.586-11.203,4.306-14.885,2.64
		c-0.311-0.142-0.586,0.299-0.271,0.468c3.207,1.724,7.6-0.524,10.869-1.209c5.189-1.087,10.504-2.044,15.709-3.007
		C460.889,103.66,460.787,103.016,460.383,103.021"/>
	<path class="st1" d="M466.572,102.238c-0.121,0.1-0.24,0.201-0.363,0.303c-0.248,0.208,0.146,0.603,0.354,0.354
		c0.102-0.12,0.201-0.24,0.303-0.362C467.039,102.326,466.779,102.063,466.572,102.238"/>
	<path class="st1" d="M308.646,80.083c-5.689-0.155-11.281,0.019-16.969-0.311c-4.846-0.28-11.744,2.572-16.293,0.947
		c-0.404-0.144-0.576,0.498-0.176,0.644c4.227,1.554,9.758-0.813,14.039-0.858c6.506-0.065,12.832,0.58,19.398,0.162
		C309.02,80.643,309.025,80.092,308.646,80.083"/>
	<path class="st1" d="M321.652,80.614c-0.668-0.007-1.336-0.015-2-0.021c-0.148-0.003-0.148,0.231,0,0.229
		c0.664-0.007,1.332-0.015,2-0.022C321.771,80.8,321.773,80.616,321.652,80.614"/>
	<path class="st1" d="M335.008,81.681c-0.035-0.019-0.066,0.035-0.031,0.055c0.346,0.185,0.611,0.277,1.008,0.336
		c0.039,0.006,0.055-0.055,0.018-0.061C335.645,81.989,335.312,81.879,335.008,81.681"/>
	<path class="st1" d="M373.143,88.562c-5.586-1.249-10.803-3.275-16.51-3.934c-5.189-0.602-10.666-0.833-15.631-2.617
		c-0.031-0.011-0.055,0.043-0.023,0.058c4.121,1.75,8.883,2.737,13.295,3.512c6.258,1.099,12.465,3.286,18.736,3.964
		C373.57,89.607,373.688,88.686,373.143,88.562"/>
	<path class="st1" d="M386.682,90.797c-0.557-0.055-1.051-0.238-1.588-0.366c-0.365-0.085-0.521,0.478-0.158,0.563
		c0.621,0.146,1.111,0.366,1.746,0.302C387.004,91.265,387.004,90.828,386.682,90.797"/>
	<path class="st1" d="M413.615,91.244c-0.938,0.642-2.629,1.511-2.693,2.805c-0.006,0.137,0.189,0.127,0.209,0
		c0.154-1.151,1.781-1.962,2.645-2.533C413.941,91.403,413.781,91.13,413.615,91.244"/>
	<path class="st1" d="M410.018,99.517c-0.49,0.638-0.789,1.39-1.217,2.069c-0.164,0.26,0.197,0.51,0.41,0.316
		c0.6-0.551,0.883-1.303,1.428-1.904C411.021,99.579,410.371,99.059,410.018,99.517"/>
	<path class="st1" d="M409.416,105.89c-0.238,0.384-0.42,0.695-0.551,1.12c-0.057,0.188,0.201,0.275,0.305,0.128
		c0.223-0.311,0.473-0.596,0.752-0.855C410.248,105.954,409.664,105.485,409.416,105.89"/>
	<path class="st1" d="M174.341,113.941c-1.269-6.684-7.651-7.152-12.384-3.941c-3.532,2.396-5.566,5.521-8.937,7.998
		c-1.725,1.267-3.749,2.603-5.94,1.912c-0.739-0.232-0.905,0.155-1.581-0.534c-1.155-1.151-1.187-2.22-0.09-3.21
		c0.477-1.619,1.009-1.656,1.595-0.115c-0.354,1.603,2.044,2.285,2.471,0.682c1.185-4.473-2.301-6.656-6.008-3.494
		c-3.181,2.716-1.759,8.354,1.924,9.814c4.738,1.876,9.703-2.369,12.578-5.68c1.388-1.597,2.641-3.021,4.252-4.417
		c3.771-3.267,4.05-3.351,7.346,0.659c2.288,2.785,3.316,2.836,1.98,5.538c-0.366,0.739-1.417,2.091-2.351,2.302
		c-3.553,0.799-3.064-3.872-1.307-5.422c0.238-0.209,0.124-0.671-0.192-0.732c-3.624-0.691-4.633,5.51-2.29,7.464
		C171.047,127.469,175.16,118.252,174.341,113.941"/>
	<path class="st1" d="M351.082,109.084c-2.639-5.293-9.26-1.238-10.295,3.063c-0.191,0.803,0.922,1.646,1.514,0.883
		c0.732-0.936,1.621-1.728,2.607-2.397c4.447-3.029,3.547,3.607,0.424,4.926c-4.225,1.782-5.752-1.012-7.787-3.979
		c-1.57-2.294-3.963-4.47-6.82-4.755c-3.08-0.305-9.611,2.136-11.072,5.154c-1.436,2.963,0.195,7.498,2.496,9.6
		c1.58,1.441,4.83,2.649,6.891,1.467c2.039-1.17,4.469-6.303,3.338-8.557c-2.461-4.906-9.586,0.384-6.293,2.642
		c0.178,0.121,0.422,0.059,0.57-0.073c1.475-1.323,5.082-2.404,2.586,1.624c-0.18,0.286-3.932,3.271-4.355,3.237
		c-1.248-0.092-2.748-3.848-3.096-4.799c-1.398-3.819,0.637-5.666,4.391-7.045c5.463-2.011,7.9,0.444,10.518,5.118
		c1.514,2.702,2.088,3.935,5.307,3.999C346.994,119.289,353.994,114.932,351.082,109.084"/>
</g>
<g>
	<path class="st1" d="M126.796,79.37l-3.477-14.584c-1.616-6.389-3.192-11.145-4.729-14.267c0.27-0.717,0.716-1.154,1.339-1.312
		c1.007-0.254,1.982-0.261,2.925-0.021c0.942,0.242,1.766,0.668,2.47,1.279c1.466,1.279,2.45,2.913,2.953,4.901
		c0.503,1.988,0.529,3.903,0.078,5.745c-0.451,1.842-1.397,3.424-2.84,4.748l3.526,12.604c0.285,1.127-0.023,1.804-0.925,2.032
		c-0.332,0.083-0.612,0.003-0.844-0.242C127.043,80.009,126.884,79.714,126.796,79.37z M124.919,63.916
		c1.578-2.458,2.031-5.02,1.357-7.684l-0.005-0.02c-0.385-1.524-0.841-2.544-1.366-3.06c-0.259-0.245-0.466-0.436-0.621-0.573
		c-0.155-0.137-0.439-0.301-0.854-0.493c-0.495-0.227-1.243-0.539-2.246-0.934c0.362,1.432,0.984,3.559,1.868,6.381
		S124.557,62.484,124.919,63.916z"/>
	<path class="st1" d="M140.374,76.014l-5.153-24.085l-1.115-5.046c-0.071-0.32-0.054-0.562,0.05-0.725
		c0.104-0.163,0.439-0.307,1.007-0.433c0.567-0.125,1.172-0.115,1.813,0.03s1.212,0.401,1.713,0.766
		c0.493,0.395,0.945,0.855,1.355,1.381c0.785,1.017,1.325,2.193,1.62,3.527c0.295,1.335,0.299,2.938,0.012,4.807
		c-0.039,0.205-0.112,0.634-0.219,1.288c-0.108,0.654-0.17,1.039-0.186,1.154c0.461,2.026,1.558,4.549,3.289,7.569
		c0.589,1.018,1.414,2.407,2.475,4.168s1.728,2.877,2,3.349l0.022,0.1c0.204,0.921,0.215,1.482,0.036,1.683
		c-0.18,0.2-0.39,0.328-0.63,0.38c-0.507,0.112-1.082-0.146-1.725-0.774l-0.031-0.14c-0.682-2.454-2.367-6.022-5.054-10.708
		c-1.228-2.137-2.104-3.728-2.63-4.774l3.57,16.16c0.091,0.414,0.089,0.75-0.008,1.01c-0.097,0.259-0.339,0.432-0.726,0.518
		s-0.702,0.04-0.944-0.138c-0.243-0.177-0.399-0.426-0.47-0.747L140.374,76.014z M136.43,47.419l1.629,8.419
		c0.186,0.841,0.337,1.465,0.456,1.873c0.37-0.543,0.714-1.172,1.032-1.887l-0.143-3.686c-0.001-0.196-0.028-0.414-0.082-0.654
		c-0.144-0.654-0.453-1.419-0.927-2.294C137.739,47.991,137.083,47.4,136.43,47.419z"/>
	<path class="st1" d="M162.18,59.809l0.655,5.284l0.036,0.181c-0.025,0.799,0.049,1.641,0.222,2.527
		c0.173,0.885,0.185,1.771,0.038,2.657c-0.147,0.885-0.474,1.708-0.98,2.469s-1.135,1.214-1.887,1.361s-1.485,0.025-2.202-0.364
		c-0.717-0.389-1.354-0.944-1.913-1.664c-0.559-0.72-1.1-1.603-1.625-2.65s-0.974-2.081-1.347-3.101s-0.728-2.104-1.063-3.251
		c-0.509-1.753-0.857-3.124-1.042-4.111c-0.186-0.988-0.354-1.833-0.505-2.534c-0.151-0.702-0.288-1.333-0.412-1.895
		c-0.055-0.282-0.116-0.594-0.183-0.936c-0.067-0.342-0.138-0.708-0.214-1.097c-0.141-0.794-0.256-1.51-0.346-2.147
		c-0.09-0.637-0.163-1.33-0.218-2.078c-0.056-0.749-0.071-1.414-0.045-1.997c0.025-0.583,0.1-1.165,0.223-1.747
		c0.134-0.597,0.314-1.099,0.542-1.506c0.519-0.909,1.215-1.449,2.087-1.619s1.648-0.158,2.327,0.037
		c0.679,0.195,1.298,0.6,1.856,1.215c0.559,0.615,1.06,1.221,1.504,1.817c0.443,0.596,0.871,1.463,1.281,2.602
		c0.41,1.139,0.74,2.06,0.989,2.764c0.251,0.717,0.531,1.756,0.838,3.117c0.412,1.828,0.719,3.258,0.921,4.292L162.18,59.809z
		 M155.582,45.437c-0.413-0.651-0.861-1.127-1.345-1.43c-0.484-0.303-0.927-0.415-1.33-0.336c-0.403,0.079-0.708,0.284-0.914,0.617
		c-0.207,0.333-0.35,0.775-0.43,1.327c-0.081,0.552-0.133,1.137-0.159,1.755c-0.025,0.618,0,1.32,0.077,2.106
		c0.077,0.786,0.15,1.5,0.22,2.141c0.08,0.625,0.18,1.316,0.3,2.073c0.217,1.253,0.387,2.23,0.51,2.93l0.035,0.181
		c0.359,1.838,0.887,3.793,1.584,5.865c0.697,2.072,1.329,3.756,1.895,5.052s1.197,2.368,1.892,3.214
		c0.694,0.846,1.357,1.208,1.988,1.085c0.55-0.107,0.912-0.714,1.086-1.821c0.171-1.12,0.188-2.461,0.051-4.022
		c-0.266-2.79-0.504-4.739-0.713-5.847s-0.367-1.917-0.473-2.425c-0.106-0.509-0.271-1.246-0.495-2.212
		c-0.224-0.966-0.459-1.868-0.706-2.704c-0.247-0.836-0.535-1.758-0.864-2.767c-0.329-1.008-0.676-1.895-1.042-2.659
		S155.995,46.087,155.582,45.437z"/>
	<path class="st1" d="M179.248,54.018l0.247,0.853c0.342,1.953,0.211,4.346-0.395,7.178c-0.677,3.233-1.717,5.62-3.122,7.159
		c-0.795,0.882-1.676,1.411-2.645,1.588c-0.513,0.086-0.998,0.047-1.455-0.119c-0.458-0.166-0.726-0.484-0.805-0.957
		c0.5-0.735,0.53-2.411,0.091-5.027c-0.258-1.537-0.771-3.801-1.537-6.792c-0.766-2.99-1.276-5.241-1.53-6.751l-0.64-4.55
		c-0.123-0.728-0.439-1.684-0.95-2.866s-0.809-2.03-0.896-2.542c-0.161-0.957,0.817-1.614,2.934-1.97l0.627-0.105
		c2.818-0.474,5.125,0.761,6.923,3.703c1.259,2.048,2.214,5.007,2.864,8.876l0.323,1.921
		C179.237,53.75,179.226,53.884,179.248,54.018z M173.133,64.279l0.667,3.964c0.925-0.849,1.67-1.94,2.236-3.277
		c0.565-1.335,0.931-2.752,1.095-4.25c0.295-2.864,0.213-5.657-0.244-8.381c-0.526-3.128-1.332-5.529-2.417-7.205
		c-1.108-1.727-2.298-2.788-3.571-3.185c-0.792-0.255-1.645-0.298-2.559-0.131l0.007,0.041c0.419,2.495,1.215,6.222,2.389,11.182
		C171.907,57.997,172.707,61.745,173.133,64.279z"/>
	<path class="st1" d="M184.958,45.636l-0.873-6.504c-0.236-0.202-0.377-0.472-0.425-0.811c-0.047-0.338,0.029-0.653,0.23-0.943
		c0.2-0.29,0.463-0.458,0.788-0.504c1.002-0.141,1.642,0.777,1.92,2.754l2.419,14.405c0.214,0.343,0.457,1.061,0.728,2.155
		c0.271,1.094,0.45,1.949,0.537,2.565c0.086,0.616,0.292,1.361,0.614,2.233c0.323,0.873,0.722,1.745,1.197,2.617
		c0.475,0.872,1.052,1.591,1.732,2.159c0.68,0.567,1.285,0.813,1.812,0.739s0.903-0.254,1.125-0.541
		c0.222-0.287,0.348-0.667,0.378-1.141c0.046-0.752,0.013-1.527-0.099-2.326L195.9,54.37c-0.124-0.88-0.396-2.174-0.815-3.882
		c-0.42-1.708-0.691-3.002-0.815-3.882l-0.04-0.284l-0.421-2.405l-1.307-7.085c-0.047-0.338,0.083-0.636,0.392-0.894
		c0.309-0.257,0.646-0.412,1.012-0.463l1.152,0.832l0.097,0.691l0.052,2.581c0.326,2.315,0.941,5.784,1.847,10.406
		c0.906,4.623,1.474,7.755,1.706,9.4s0.362,2.745,0.392,3.3c0.029,0.555,0.007,1.156-0.068,1.801
		c-0.075,0.646-0.226,1.191-0.453,1.638c-0.53,1.041-1.479,1.658-2.846,1.85c-1.69,0.251-3.155-0.295-4.393-1.639
		c-1.304-1.418-2.327-3.193-3.068-5.326c-0.878-2.514-1.509-4.737-1.891-6.672C185.855,51.419,185.364,48.52,184.958,45.636z"/>
	<path class="st1" d="M206.529,45.173l-0.038,2.956l0.112,0.999c0.365,3.233,0.677,5.365,0.938,6.395
		c0.261,1.03,0.512,1.951,0.755,2.763c0.243,0.812,0.516,1.497,0.82,2.054c0.303,0.558,0.647,1.076,1.032,1.555
		c0.769,0.959,1.73,1.374,2.885,1.243c0.476-0.054,1.039-0.368,1.689-0.944c0.65-0.575,1.159-0.884,1.526-0.925
		c0.367-0.041,0.785,0.125,1.253,0.499c0.158,1.399-0.524,2.488-2.047,3.265c-0.756,0.374-1.596,0.613-2.52,0.717
		c-0.924,0.104-1.733,0.006-2.427-0.294c-0.694-0.3-1.292-0.721-1.793-1.263c-0.502-0.542-0.967-1.256-1.397-2.144
		s-0.792-1.775-1.084-2.664c-0.268-0.905-0.523-1.95-0.766-3.133c-0.39-1.992-0.727-4.183-1.01-6.573l-0.522-4.997
		c-0.179-1.59-0.229-2.884-0.149-3.884c-0.132-0.439-0.222-0.869-0.27-1.291c-0.193-1.712,0.292-3.146,1.455-4.302
		c1.163-1.156,2.682-1.84,4.557-2.051c0.666-0.075,1.338,0.038,2.02,0.34c0.681,0.302,1.055,0.758,1.125,1.369
		c0.034,0.299-0.056,0.543-0.269,0.732c-0.213,0.189-0.594,0.315-1.144,0.377s-0.946-0.065-1.188-0.382l0.002,0.02l-0.57,0.064
		l-0.012-0.102c-1.617,0.183-2.661,0.81-3.131,1.88c-0.439,0.985-0.532,2.605-0.277,4.86L206.529,45.173z"/>
	<path class="st1" d="M226.908,39.2l0.388,5.401l1.207,9.591l1.002,7.488c0.119,1.362-0.224,2.078-1.027,2.148
		c-0.463,0.04-0.823-0.148-1.079-0.565c-0.256-0.417-0.407-0.891-0.453-1.422l-0.255-6.709c-0.126-1.443-0.411-3.608-0.854-6.492
		c-0.444-2.885-0.728-5.049-0.854-6.493l-0.257-3.662c-0.174-2.002-0.417-3.292-0.728-3.869l-2.249,0.422
		c-0.354,0.031-0.68-0.047-0.978-0.234c-0.298-0.187-0.461-0.447-0.49-0.781c-0.029-0.333,0.28-0.645,0.927-0.935
		c0.66-0.304,1.461-0.552,2.406-0.745c1.659-0.336,3.06-0.555,4.204-0.655c0.34-0.029,0.66,0.056,0.959,0.256
		c0.298,0.2,0.463,0.471,0.493,0.811c0.03,0.341-0.069,0.621-0.297,0.839s-0.519,0.344-0.873,0.375l-1.499,0.048
		c-0.191,0.017-0.333,0.036-0.428,0.058C226.504,35.667,226.749,37.375,226.908,39.2z"/>
	<path class="st1" d="M247.647,49.502l-0.049,5.324l0.011,0.184c-0.131,0.789-0.169,1.633-0.114,2.534
		c0.054,0.9-0.051,1.78-0.313,2.638c-0.264,0.858-0.696,1.631-1.299,2.317c-0.603,0.687-1.286,1.054-2.05,1.1
		c-0.765,0.046-1.476-0.171-2.135-0.652c-0.659-0.48-1.218-1.115-1.676-1.902c-0.458-0.787-0.878-1.734-1.26-2.841
		s-0.69-2.191-0.925-3.252c-0.235-1.061-0.443-2.182-0.624-3.363c-0.273-1.805-0.437-3.209-0.49-4.213
		c-0.054-1.004-0.109-1.863-0.166-2.579c-0.057-0.715-0.109-1.359-0.157-1.932c-0.017-0.287-0.037-0.604-0.057-0.952
		c-0.021-0.348-0.043-0.72-0.067-1.116c-0.035-0.806-0.055-1.53-0.059-2.174s0.015-1.34,0.059-2.089s0.117-1.411,0.22-1.986
		c0.102-0.574,0.253-1.142,0.452-1.702c0.212-0.574,0.458-1.048,0.736-1.421c0.635-0.832,1.396-1.275,2.283-1.329
		c0.887-0.054,1.654,0.062,2.301,0.344c0.647,0.283,1.207,0.766,1.679,1.45c0.473,0.684,0.89,1.351,1.251,2
		c0.36,0.649,0.669,1.565,0.926,2.749c0.256,1.183,0.46,2.14,0.614,2.87c0.154,0.744,0.294,1.811,0.419,3.2
		c0.167,1.867,0.282,3.325,0.345,4.376L247.647,49.502z M243.009,34.383c-0.323-0.7-0.705-1.231-1.144-1.595
		c-0.44-0.364-0.864-0.534-1.273-0.509c-0.41,0.024-0.739,0.188-0.988,0.491c-0.249,0.303-0.449,0.723-0.602,1.259
		c-0.152,0.537-0.282,1.109-0.39,1.718c-0.107,0.609-0.175,1.309-0.203,2.098c-0.028,0.79-0.05,1.506-0.065,2.151
		c-0.003,0.63,0.004,1.328,0.023,2.094c0.049,1.271,0.088,2.262,0.117,2.972l0.011,0.185c0.112,1.87,0.377,3.877,0.794,6.023
		c0.417,2.146,0.82,3.899,1.21,5.259s0.873,2.505,1.45,3.436c0.577,0.931,1.186,1.377,1.827,1.338
		c0.56-0.034,0.999-0.587,1.317-1.661c0.318-1.087,0.513-2.414,0.583-3.979c0.104-2.801,0.127-4.764,0.066-5.89
		c-0.062-1.126-0.11-1.949-0.148-2.467s-0.104-1.271-0.197-2.258c-0.095-0.987-0.208-1.912-0.342-2.774
		c-0.135-0.861-0.298-1.813-0.491-2.857c-0.193-1.043-0.42-1.967-0.681-2.773C243.623,35.836,243.331,35.083,243.009,34.383z"/>
	<path class="st1" d="M254.55,61.388c-0.023-0.751,0.279-1.137,0.908-1.156c0.313-0.01,0.73,0.083,1.25,0.279
		c0.519,0.196,0.966,0.288,1.342,0.276s0.774-0.263,1.197-0.755s0.746-1.097,0.97-1.815c0.461-1.464,0.674-2.78,0.638-3.949
		s-0.28-2.416-0.731-3.742s-0.989-2.568-1.613-3.726c-0.624-1.157-1.255-2.313-1.893-3.47c-1.508-2.757-2.29-5.291-2.348-7.601
		c-0.082-2.186,0.556-3.922,1.911-5.209c0.718-0.679,1.575-1.034,2.572-1.064c0.506-0.016,1.002,0.109,1.489,0.375
		c0.487,0.266,0.833,0.621,1.038,1.065l-0.689,0.924c-0.697,0.021-1.248-0.098-1.652-0.359c-0.518,0.071-0.961,0.331-1.33,0.78
		c-0.672,0.828-0.989,1.833-0.953,3.015c0.036,1.182,0.223,2.329,0.558,3.44c0.335,1.112,0.742,2.104,1.221,2.979
		c0.479,0.875,0.993,1.823,1.545,2.845c0.564,1.022,1.088,2.005,1.568,2.947c1.12,2.181,1.721,4.557,1.8,7.125
		c0.069,1.803-0.335,3.553-1.212,5.249c-0.413,0.806-0.994,1.477-1.744,2.013c-0.749,0.536-1.595,0.819-2.538,0.848
		c-1.012,0.031-1.812-0.094-2.402-0.377S254.561,61.73,254.55,61.388z"/>
	<path class="st1" d="M289.654,46.223l0.085,0.883c-0.024,1.982-0.595,4.31-1.713,6.982c-1.262,3.052-2.726,5.206-4.391,6.459
		c-0.943,0.72-1.907,1.078-2.892,1.072c-0.521-0.01-0.989-0.138-1.408-0.386c-0.419-0.247-0.624-0.61-0.615-1.089
		c0.628-0.63,0.967-2.271,1.018-4.924c0.03-1.558-0.056-3.877-0.256-6.958c-0.201-3.081-0.287-5.386-0.257-6.917l0.211-4.59
		c0.014-0.738-0.121-1.736-0.404-2.992c-0.283-1.257-0.421-2.145-0.41-2.665c0.019-0.97,1.101-1.435,3.247-1.394l0.636,0.012
		c2.856,0.055,4.896,1.694,6.12,4.917c0.859,2.246,1.252,5.33,1.177,9.252l-0.038,1.948
		C289.693,45.957,289.656,46.086,289.654,46.223z M281.749,55.178l-0.077,4.019c1.065-0.663,2-1.599,2.803-2.808
		s1.423-2.533,1.86-3.974c0.819-2.76,1.255-5.521,1.308-8.282c0.062-3.171-0.287-5.68-1.045-7.527
		c-0.771-1.902-1.744-3.165-2.922-3.789c-0.73-0.397-1.562-0.597-2.491-0.602l-0.001,0.041c-0.048,2.529,0.046,6.339,0.283,11.43
		S281.799,52.608,281.749,55.178z"/>
	<path class="st1" d="M301.467,46.847l-1.043-0.097c-0.409-0.022-0.701,0.065-0.876,0.261l-0.695,12.942
		c1.438-0.005,2.219-0.004,2.342,0.002c1.597,0.085,2.376,0.497,2.336,1.234l-0.007,0.143c-0.212,0.372-0.556,0.648-1.03,0.828
		c-0.476,0.18-0.892,0.273-1.248,0.282c-0.356,0.008-0.814-0.003-1.374-0.033l-1.311-0.07c-1.038-0.056-1.668-0.295-1.892-0.718
		c-0.1-0.197-0.141-0.453-0.124-0.767l1.309-24.369c0.025-0.478-0.032-1.193-0.172-2.145c-0.142-0.953-0.198-1.674-0.172-2.166
		l0.008-0.143c0.505-0.74,0.88-1.212,1.124-1.418l3.132-0.202c0.423,0.023,0.844,0.172,1.26,0.448
		c0.417,0.276,0.614,0.618,0.592,1.028c-0.045,0.833-0.702,1.215-1.972,1.147l-1.206-0.106c-0.205-0.011-0.355-0.012-0.451-0.003
		l-0.044,6.939c-0.03,0.56-0.108,1.374-0.234,2.442s-0.201,1.848-0.228,2.339c0.151-0.019,0.358-0.056,0.622-0.11
		c0.581-0.119,1.032-0.17,1.353-0.153c0.321,0.017,0.602,0.148,0.842,0.394c0.24,0.246,0.352,0.532,0.334,0.86
		s-0.136,0.616-0.354,0.864C302.067,46.75,301.794,46.865,301.467,46.847z"/>
	<path class="st1" d="M313.229,47.163l-0.073,1.332l-0.016,0.184c-0.099,2.434-0.356,6.076-0.772,10.925l-0.091,1.062l3.188,0.273
		c0.564,0.46,0.831,0.874,0.8,1.242c-0.032,0.368-0.16,0.662-0.385,0.883c-0.225,0.221-0.446,0.322-0.664,0.303
		c-0.218-0.019-0.466-0.088-0.744-0.208c-0.236,0.035-0.504,0.039-0.804,0.013l-1.344-0.177c-0.314,0.315-0.687,0.456-1.116,0.418
		c-0.429-0.037-0.778-0.2-1.049-0.491c-0.271-0.291-0.39-0.613-0.359-0.967l0.423-1.816c0.272-3.174,0.541-7.943,0.806-14.309
		c0.265-6.365,0.533-11.134,0.805-14.308c0.022-0.259,0.143-0.458,0.36-0.597c0.218-0.139,0.479-0.195,0.786-0.169
		s0.575,0.166,0.808,0.419c0.232,0.253,0.334,0.55,0.305,0.891L313.229,47.163z"/>
	<path class="st1" d="M332.491,55.64l2.384-16.088c0.282-1.796,0.584-3.583,0.905-5.359l1.257-0.467
		c0.814,0.184,1.407,2.533,1.777,7.047c0.292,3.686,0.479,6.985,0.562,9.897c0.082,2.913,0.131,4.495,0.146,4.746
		c0.329-0.862,0.931-2.4,1.805-4.616c0.874-2.215,1.54-3.938,1.996-5.167c1.34-3.595,2.325-6.824,2.955-9.687l0.038-0.243
		c0.109-0.342,0.323-0.6,0.641-0.771s0.632-0.233,0.942-0.184s0.546,0.2,0.707,0.454s0.221,0.509,0.181,0.766
		c-0.521,3.309-1.175,8.285-1.963,14.929c-0.789,6.644-1.443,11.62-1.963,14.929c-0.104,0.662-0.37,1.208-0.798,1.639
		c-0.428,0.431-0.804,0.621-1.128,0.57c-0.675-0.106-0.927-0.706-0.755-1.8l2.584-17.488l0.331-2.107
		c-0.357,1.037-1.076,2.837-2.157,5.401s-1.828,4.539-2.239,5.928l-0.042,0.263c-0.044,0.104-0.125,0.354-0.242,0.75
		c-0.118,0.397-0.228,0.722-0.33,0.976s-0.239,0.533-0.412,0.838c-0.358,0.608-0.835,0.865-1.429,0.772
		c-0.986-0.155-1.276-1.522-0.871-4.102c0.401-2.553,0.342-6.223-0.179-11.01c-0.261-2.394-0.415-4.01-0.463-4.848
		c-0.402,2.207-0.691,3.87-0.867,4.991l-2.338,17.112c-0.094,0.594-0.385,1.081-0.873,1.461c-0.716-0.112-1.163-0.418-1.341-0.917
		c-0.178-0.498-0.204-1.139-0.081-1.923L332.491,55.64z"/>
	<path class="st1" d="M358.835,54.391l-1.015-0.258c-0.401-0.085-0.703-0.045-0.906,0.122l-2.699,12.677
		c1.421,0.219,2.191,0.341,2.312,0.367c1.564,0.333,2.27,0.861,2.116,1.583l-0.03,0.14c-0.268,0.334-0.649,0.554-1.146,0.658
		c-0.497,0.104-0.923,0.132-1.276,0.084s-0.804-0.129-1.353-0.246l-1.283-0.273c-1.017-0.216-1.603-0.551-1.758-1.003
		c-0.067-0.21-0.067-0.469-0.002-0.776l5.082-23.869c0.1-0.468,0.154-1.184,0.164-2.146c0.009-0.962,0.064-1.685,0.167-2.166
		l0.03-0.14c0.614-0.652,1.058-1.061,1.33-1.227l3.126,0.288c0.414,0.088,0.807,0.301,1.175,0.638
		c0.368,0.337,0.51,0.706,0.425,1.107c-0.174,0.816-0.883,1.091-2.126,0.826l-1.175-0.292c-0.201-0.042-0.35-0.067-0.445-0.074
		l-1.123,6.848c-0.117,0.549-0.32,1.34-0.61,2.376c-0.291,1.036-0.487,1.793-0.59,2.275c0.152,0.005,0.363,0.001,0.632-0.012
		c0.593-0.027,1.046-0.008,1.36,0.059s0.571,0.241,0.771,0.521c0.198,0.28,0.264,0.581,0.195,0.901s-0.229,0.587-0.484,0.798
		C359.443,54.388,359.156,54.459,358.835,54.391z"/>
	<path class="st1" d="M363.532,70.727c0.192-0.727,0.593-1.01,1.2-0.849c0.304,0.081,0.677,0.289,1.118,0.625
		c0.441,0.336,0.844,0.552,1.207,0.648s0.817-0.031,1.363-0.381s1.028-0.838,1.448-1.462c0.859-1.271,1.439-2.472,1.739-3.602
		c0.299-1.13,0.422-2.395,0.368-3.795c-0.053-1.4-0.214-2.744-0.48-4.031c-0.268-1.287-0.542-2.576-0.822-3.867
		c-0.657-3.073-0.683-5.725-0.078-7.955c0.547-2.118,1.654-3.6,3.32-4.445c0.882-0.445,1.805-0.541,2.77-0.285
		c0.489,0.129,0.929,0.391,1.32,0.784c0.391,0.394,0.62,0.833,0.69,1.318l-0.925,0.688c-0.674-0.178-1.168-0.45-1.481-0.816
		c-0.517-0.08-1.016,0.042-1.497,0.367c-0.881,0.602-1.473,1.474-1.775,2.617s-0.452,2.295-0.448,3.456
		c0.004,1.161,0.109,2.229,0.318,3.203s0.431,2.031,0.667,3.168c0.25,1.141,0.47,2.232,0.661,3.272
		c0.45,2.411,0.347,4.858-0.312,7.343c-0.449,1.748-1.336,3.31-2.662,4.684c-0.626,0.655-1.374,1.131-2.245,1.431
		c-0.872,0.299-1.764,0.329-2.676,0.087c-0.978-0.259-1.709-0.608-2.193-1.048C363.643,71.442,363.444,71.058,363.532,70.727z"/>
</g>
</svg>
