<?xml version="1.0" encoding="utf-8"?>
<!-- Generator: Adobe Illustrator 16.0.0, SVG Export Plug-In . SVG Version: 6.00 Build 0)  -->
<!DOCTYPE svg PUBLIC "-//W3C//DTD SVG 1.1//EN" "http://www.w3.org/Graphics/SVG/1.1/DTD/svg11.dtd">
<svg version="1.1" id="Layer_1" xmlns="http://www.w3.org/2000/svg" xmlns:xlink="http://www.w3.org/1999/xlink" x="0px" y="0px"
	 width="133px" height="75px" viewBox="0 0 133 75" style="enable-background:new 0 0 133 75;" xml:space="preserve">
<style type="text/css">
<![CDATA[
	.st0{fill:#C6BCAB;}
]]>
</style>
<g>
	<g>
		<path class="st0" d="M63.282,13.485c0,0.331-0.128,0.871-0.382,1.62c-0.255,0.75-0.533,1.523-0.833,2.317
			c-0.3,0.795-0.601,1.5-0.9,2.115c-0.3,0.615-0.466,0.953-0.495,1.012c-0.18,0.27-0.398,0.585-0.652,0.945
			c-0.255,0.36-0.503,0.728-0.743,1.102c-0.241,0.375-0.473,0.72-0.698,1.035c-0.225,0.315-0.382,0.593-0.472,0.833
			c0-0.15-0.045-0.27-0.135-0.36c-0.09,0.12-0.18,0.218-0.27,0.292c-0.09,0.075-0.135,0.188-0.135,0.337
			c0,0.12,0.015,0.203,0.045,0.248c0.029,0.045,0.075,0.143,0.135,0.292c-0.06,0.18-0.075,0.36-0.045,0.54
			c0.18,0.72,0.353,1.515,0.518,2.385c0.165,0.871,0.277,1.726,0.337,2.565c0,0.151,0.045,0.331,0.135,0.54
			c0.09,0.21,0.18,0.443,0.27,0.698c0.09,0.255,0.157,0.502,0.202,0.743c0.045,0.24,0.007,0.45-0.112,0.63
			c0.15,0.21,0.277,0.51,0.382,0.9c0.105,0.39,0.217,0.78,0.338,1.17c-0.151,0.18-0.196,0.39-0.135,0.63
			c0.06,0.24,0.12,0.45,0.18,0.63c0,0.18-0.075,0.33-0.225,0.45c-0.15,0.12-0.09,0.33,0.18,0.63c-0.18-0.06-0.368-0.173-0.562-0.337
			c-0.196-0.165-0.353-0.323-0.473-0.472c-0.21-0.3-0.435-0.675-0.675-1.125c-0.241-0.45-0.466-0.916-0.675-1.395
			c-0.21-0.479-0.413-0.96-0.607-1.44c-0.195-0.479-0.353-0.9-0.473-1.26c-0.18-0.66-0.405-1.297-0.675-1.913
			c-0.27-0.614-0.511-1.237-0.72-1.867c-0.18,0.12-0.323,0.263-0.427,0.427c-0.105,0.165-0.233,0.337-0.383,0.518
			c-0.21,0.18-0.472,0.398-0.787,0.652c-0.315,0.255-0.607,0.533-0.877,0.833c-0.061,0.03-0.09,0.105-0.09,0.225
			c0,0.12-0.03,0.225-0.09,0.315c-0.15,0.09-0.308,0.21-0.473,0.36c-0.165,0.151-0.337,0.27-0.518,0.36l0.18-0.27
			c-0.12-0.06-0.203-0.045-0.248,0.045s-0.112,0.15-0.203,0.18c-0.18,0.18-0.382,0.398-0.607,0.652
			c-0.225,0.255-0.443,0.473-0.652,0.652c-0.09,0.03-0.263,0.113-0.518,0.248c-0.255,0.135-0.533,0.27-0.833,0.405
			c-0.3,0.135-0.593,0.255-0.877,0.36c-0.286,0.104-0.503,0.157-0.652,0.157c-0.121,0-0.375-0.015-0.765-0.045
			c-0.39-0.03-0.78-0.045-1.17-0.045c-0.871-0.299-1.59-0.75-2.16-1.35c-0.57-0.6-1.02-1.26-1.35-1.98
			c-0.33-0.72-0.555-1.432-0.675-2.137c-0.12-0.705-0.18-1.312-0.18-1.823c0-1.95,0.304-3.787,0.912-5.513
			c0.608-1.725,1.414-3.592,2.418-5.602v-0.225c0.06-0.18,0.172-0.367,0.337-0.562c0.165-0.195,0.276-0.367,0.336-0.518
			c0.09-0.12,0.142-0.24,0.157-0.36c0.015-0.12,0.022-0.209,0.022-0.27c0.18-0.09,0.344-0.209,0.494-0.36
			c-0.09-0.06-0.149-0.082-0.179-0.067c-0.03,0.016-0.075,0.022-0.134,0.022c0.388-0.6,0.754-1.215,1.099-1.845
			c0.344-0.63,0.71-1.125,1.1-1.485c0.029-0.09,0.059-0.165,0.089-0.225c0.029-0.06,0.029-0.135,0-0.225
			c0.09-0.06,0.202-0.158,0.337-0.292c0.134-0.135,0.246-0.248,0.336-0.337c0.389-0.72,0.979-1.567,1.772-2.542
			c0.792-0.975,1.645-1.897,2.557-2.768c0.913-0.87,1.81-1.604,2.692-2.205c0.882-0.6,1.608-0.9,2.176-0.9
			c0.149,0,0.209,0.03,0.179,0.09c-0.029,0.061,0.03,0.09,0.18,0.09c0.149,0,0.209-0.029,0.179-0.09
			c-0.03-0.06,0.015-0.09,0.135-0.09c0.119,0,0.261,0.053,0.426,0.157C58.343,0.698,58.5,0.75,58.649,0.75
			c0.12,0,0.157-0.022,0.112-0.067c-0.045-0.045,0.008-0.068,0.157-0.068c0.299,0,0.621,0.075,0.966,0.225
			c0.345,0.15,0.66,0.315,0.945,0.495c0.285,0.18,0.54,0.345,0.765,0.495c0.225,0.15,0.367,0.24,0.428,0.27
			c0.09,0.06,0.195,0.143,0.315,0.247c0.12,0.105,0.18,0.233,0.18,0.383c0,0.15-0.038,0.218-0.112,0.203
			c-0.075-0.015-0.067,0.112,0.022,0.382v0.18v0.09c-0.12,0.09-0.27,0.135-0.45,0.135c-0.18,0-0.33,0.045-0.45,0.135
			c-0.36,0.36-0.728,0.788-1.103,1.282c-0.375,0.495-0.743,0.998-1.103,1.508c0.09-0.09,0.135-0.225,0.135-0.405
			c-0.09-0.06-0.173-0.074-0.248-0.045c-0.075,0.03-0.143,0.045-0.203,0.045c0.12-0.389,0.315-0.862,0.585-1.417
			c0.27-0.555,0.405-0.907,0.405-1.058v-0.36c-0.09-0.09-0.255-0.135-0.495-0.135c-0.18,0-0.45,0.098-0.81,0.292
			c-0.36,0.195-0.72,0.413-1.08,0.652c-0.36,0.241-0.698,0.48-1.013,0.72c-0.315,0.24-0.502,0.39-0.562,0.45
			c0.06,0.061,0.203,0.135,0.428,0.225s0.442,0.135,0.652,0.135l2.52,1.8c1.23,0.75,2.145,1.658,2.745,2.723
			C62.982,11.333,63.282,12.405,63.282,13.485z M59.637,13.305c0-0.27-0.045-0.607-0.135-1.012c-0.09-0.405-0.187-0.802-0.292-1.192
			c-0.104-0.39-0.216-0.757-0.336-1.103c-0.12-0.345-0.239-0.608-0.359-0.788c-0.27-0.54-0.749-1.027-1.437-1.462
			c-0.688-0.435-1.271-0.653-1.749-0.653c-0.12,0-0.314,0.128-0.583,0.383c-0.27,0.255-0.523,0.488-0.762,0.697
			c-0.061-0.06-0.128-0.104-0.203-0.135c-0.075-0.03-0.112-0.09-0.112-0.18c-0.06,0.12-0.165,0.203-0.314,0.248
			s-0.224,0.098-0.224,0.157c-0.179,0.18-0.351,0.368-0.516,0.562c-0.165,0.196-0.277,0.368-0.336,0.518
			c-0.3,0.75-0.733,1.463-1.302,2.138c-0.568,0.675-1.062,1.507-1.48,2.498c0,0.061-0.038,0.098-0.112,0.112
			c-0.075,0.016-0.127,0.053-0.157,0.113c-1.196,2.1-2.244,4.117-3.141,6.052c-0.897,1.935-1.436,3.878-1.615,5.828
			c-0.03,0.061-0.067,0.128-0.112,0.203c-0.045,0.075-0.098,0.143-0.158,0.202v2.97c0,0.15,0.038,0.413,0.113,0.788
			c0.074,0.375,0.142,0.713,0.202,1.012c0.12,0,0.224,0.016,0.314,0.045c0.09,0.03,0.18,0.045,0.27,0.045
			c0.149,0,0.208-0.015,0.179-0.045c-0.03-0.029-0.016-0.06,0.045-0.09c0.688-0.18,1.382-0.532,2.085-1.058
			c0.703-0.524,1.518-1.162,2.445-1.912c0.329-0.27,0.636-0.547,0.92-0.833s0.501-0.502,0.651-0.653
			c0.059-0.06,0.089-0.135,0.089-0.225c0-0.09,0.045-0.18,0.135-0.27c0.029,0.061,0.074,0.09,0.134,0.09h0.135
			c-0.12-0.12-0.12-0.24,0-0.36c0.209-0.24,0.448-0.502,0.717-0.788c0.269-0.285,0.509-0.578,0.719-0.877
			c0.059,0.09,0.119,0.135,0.179,0.135h0.045v-0.18c-0.03-0.119,0.007-0.247,0.112-0.382c0.104-0.135,0.157-0.277,0.157-0.427
			c0-0.03-0.045-0.232-0.134-0.608c-0.09-0.375-0.187-0.817-0.292-1.327c-0.104-0.51-0.224-1.035-0.358-1.575
			c-0.135-0.54-0.217-1.005-0.247-1.395c-0.03-0.36-0.068-0.743-0.113-1.147s-0.074-0.772-0.089-1.103
			c-0.015-0.33-0.03-0.614-0.045-0.855c-0.016-0.24-0.022-0.39-0.022-0.45c0-0.18,0.06-0.427,0.179-0.742s0.418-0.473,0.897-0.473
			c0.149,0,0.307,0,0.471,0c0.164,0,0.276,0.045,0.336,0.135c0-0.09,0.015-0.15,0.045-0.18c0-0.029,0.015-0.045,0.045-0.045
			c0.358,0.27,0.747,0.54,1.166,0.81s0.778,0.57,1.077,0.9c0.09,0.12,0.165,0.263,0.225,0.427c0.06,0.166,0.134,0.292,0.224,0.383
			c-0.06,0.09-0.165,0.36-0.313,0.81c-0.15,0.45-0.225,0.765-0.225,0.945c0,0.12,0.038,0.292,0.112,0.518
			c0.075,0.225,0.172,0.413,0.292,0.562c0.059-0.09,0.156-0.24,0.291-0.45c0.135-0.209,0.292-0.389,0.472-0.54
			c0.209-0.51,0.44-1.012,0.695-1.507s0.471-1.042,0.651-1.643c0.06-0.24,0.15-0.54,0.27-0.9S59.637,13.426,59.637,13.305z"/>
		<path class="st0" d="M82.182,28.246c-0.15,0.09-0.391,0.3-0.72,0.63c0.09,0.12,0.164,0.24,0.225,0.36
			c0.06,0.12,0.149,0.241,0.271,0.36c-0.211,0.3-0.436,0.66-0.676,1.08c-0.09,0.15-0.09,0.255,0,0.315
			c-0.119,0.18-0.345,0.42-0.675,0.72c0.091,0.09,0.173,0.128,0.247,0.112c0.075-0.015,0.158-0.067,0.248-0.157
			c0,0.09-0.022,0.173-0.067,0.248c-0.045,0.075-0.143,0.112-0.292,0.112c-0.181,0-0.241-0.022-0.181-0.067
			c0.06-0.045,0.06-0.097,0-0.158c-0.061,0.061-0.098,0.143-0.112,0.248c-0.016,0.105-0.067,0.203-0.158,0.292
			c-0.06,0.09-0.15,0.203-0.27,0.337c-0.12,0.135-0.285,0.263-0.494,0.383c-0.241,0.21-0.586,0.435-1.035,0.675
			c-0.451,0.241-0.751,0.36-0.9,0.36c-0.54,0-1.096-0.083-1.665-0.248c-0.57-0.165-1.096-0.337-1.575-0.517
			c-0.09-0.06-0.232-0.18-0.428-0.36c-0.195-0.18-0.337-0.344-0.428-0.495c-0.27-0.54-0.518-1.095-0.742-1.665
			s-0.443-1.095-0.652-1.575c-0.09-0.15-0.12-0.36-0.09-0.63c0.029-0.27,0.045-0.479,0.045-0.63c0-0.24-0.061-0.48-0.18-0.72
			c-0.811,0.99-1.65,2.002-2.521,3.038c-0.87,1.035-1.636,2.167-2.295,3.397c-0.09,0.061-0.21,0.143-0.36,0.248
			c-0.15,0.104-0.331,0.202-0.54,0.292l-0.09,0.045c0,0.029,0.045,0.075,0.135,0.135c-0.21,0-0.443-0.022-0.697-0.067
			c-0.255-0.045-0.503-0.067-0.743-0.067c-0.09-0.21-0.255-0.39-0.495-0.54c-0.24-0.15-0.465-0.33-0.675-0.54
			c-0.12-0.12-0.263-0.285-0.428-0.495c-0.165-0.209-0.263-0.405-0.292-0.585c-0.09-0.209-0.165-0.487-0.225-0.833
			c-0.061-0.344-0.09-0.607-0.09-0.787c0-1.05,0.105-1.958,0.315-2.723s0.405-1.657,0.585-2.678c0.209-0.209,0.375-0.45,0.495-0.72
			c0.12-0.27,0.209-0.54,0.27-0.81c0-0.12-0.022-0.254-0.067-0.405c-0.045-0.149-0.053-0.285-0.022-0.405
			c0.09-0.209,0.203-0.39,0.337-0.54c0.135-0.15,0.248-0.254,0.337-0.315c0.12-0.12,0.187-0.292,0.203-0.518
			c0.015-0.225,0.052-0.442,0.112-0.652c0.03-0.09,0.09-0.15,0.18-0.18c0.09-0.029,0.165-0.09,0.225-0.18
			c0-0.09-0.016-0.15-0.045-0.18c-0.03-0.03-0.03-0.09,0-0.18c0.24-0.419,0.472-0.892,0.697-1.417
			c0.225-0.524,0.457-1.005,0.698-1.44c0.24-0.435,0.532-0.817,0.878-1.147c0.344-0.33,0.787-0.495,1.327-0.495
			c0.149,0,0.292,0.038,0.427,0.113c0.136,0.075,0.293,0.083,0.473,0.022c0.029,0.18,0.127,0.368,0.293,0.562
			c0.164,0.195,0.307,0.382,0.428,0.562c0,0.09,0.021,0.188,0.067,0.292c0.045,0.105,0.067,0.232,0.067,0.382
			c0,0.57-0.225,1.291-0.676,2.16c-0.449,0.871-0.84,1.695-1.17,2.475c-0.18,0.39-0.382,0.817-0.607,1.282
			c-0.225,0.465-0.427,0.908-0.607,1.328c-0.18,0.45-0.397,0.922-0.652,1.417c-0.255,0.495-0.503,1.028-0.743,1.598
			c0,0.06,0,0.135,0,0.225c0,0.09,0.029,0.196,0.09,0.315c-0.18,0.27-0.308,0.562-0.382,0.877c-0.075,0.315-0.173,0.638-0.292,0.967
			v0.315h0.09c1.5-1.71,2.917-3.337,4.253-4.882c1.334-1.545,2.467-3.218,3.396-5.018c0.15-0.299,0.346-0.66,0.586-1.08
			c0.239-0.42,0.479-0.794,0.72-1.125c0.09,0.09,0.202,0.166,0.337,0.225c0.136,0.061,0.263,0.15,0.383,0.27
			c0.09,0,0.119-0.045,0.09-0.135c-0.029-0.09-0.045-0.165-0.045-0.225c0.09,0.06,0.158,0.135,0.203,0.225
			c0.045,0.09,0.142,0.135,0.292,0.135c0.12,0,0.149-0.022,0.091-0.067c-0.061-0.045-0.031-0.068,0.09-0.068
			c0.06,0,0.187,0.113,0.382,0.338c0.194,0.225,0.503,0.398,0.923,0.517c0.149,0.21,0.293,0.503,0.428,0.878
			c0.135,0.375,0.202,0.652,0.202,0.833c0,0.09-0.12,0.353-0.36,0.787c-0.24,0.436-0.42,0.818-0.539,1.147
			c-0.211,0.48-0.406,1.013-0.586,1.598s-0.33,1.163-0.449,1.732l-0.045,0.09c-0.09,0.06-0.136,0.12-0.136,0.18
			c-0.09,0.48-0.173,1.021-0.247,1.62c-0.075,0.601-0.113,0.99-0.113,1.17c0,0.21,0.105,0.345,0.315,0.405
			c0.091,0.06,0.194,0.09,0.315,0.09c0.149,0,0.562-0.083,1.237-0.248c0.675-0.165,1.207-0.307,1.598-0.427
			c0.45-0.12,0.899-0.322,1.35-0.608c0.45-0.285,0.885-0.547,1.306-0.787L82.182,28.246z"/>
		<path class="st0" d="M92.982,30.09c-0.24,0.09-0.435,0.203-0.585,0.337c-0.15,0.135-0.33,0.233-0.54,0.292
			c0,0.21,0.165,0.36,0.495,0.45c-0.09,0.12-0.173,0.278-0.248,0.473c-0.074,0.195-0.157,0.398-0.247,0.607
			c-0.39-0.09-0.683,0.053-0.878,0.427c-0.195,0.375-0.292,0.743-0.292,1.103c-0.271,0.09-0.548,0.158-0.833,0.203
			s-0.592,0.067-0.922,0.067c-0.12,0.06-0.143,0.105-0.067,0.135c0.074,0.029,0.157,0.045,0.247,0.045
			c-0.24,0.029-0.518,0.112-0.832,0.248c-0.315,0.135-0.593,0.217-0.833,0.248v0.135c0,0.06-0.06,0.09-0.18,0.09
			s-0.292-0.045-0.518-0.135s-0.435-0.158-0.63-0.203s-0.375-0.053-0.54-0.022c-0.165,0.03-0.263,0.15-0.292,0.36l-0.496-0.675
			c-0.66-0.15-1.146-0.345-1.462-0.585c-0.315-0.24-0.758-0.66-1.327-1.26c-0.211-0.119-0.354-0.209-0.428-0.27
			c-0.075-0.06-0.135-0.149-0.18-0.27c-0.045-0.119-0.121-0.36-0.226-0.72c-0.105-0.36-0.247-1.005-0.427-1.935
			c-0.121-0.9-0.113-1.612,0.021-2.138c0.135-0.524,0.248-0.967,0.338-1.327c0.09-0.42,0.285-1.02,0.585-1.8
			c0.3-0.78,0.614-1.514,0.944-2.205c0.181-0.36,0.391-0.787,0.631-1.282s0.524-1.013,0.855-1.553
			c0.148-0.209,0.344-0.464,0.584-0.765c0.24-0.3,0.436-0.6,0.586-0.9c0.329-0.299,0.576-0.569,0.742-0.81
			c0.164-0.24,0.473-0.495,0.922-0.765c0.21-0.09,0.48-0.209,0.811-0.36c0.33-0.15,0.465-0.345,0.404-0.585
			c-0.061,0.03-0.09,0.06-0.09,0.09c0,0.09,0.061,0.135,0.18,0.135c0.181,0,0.226-0.022,0.136-0.067s-0.045-0.067,0.135-0.067
			c0.12,0,0.308,0.075,0.562,0.225c0.255,0.15,0.487,0.255,0.698,0.315c0.059,0.21,0.09,0.405,0.09,0.585
			c0,0.18,0.074,0.27,0.225,0.27c0.18,0,0.24-0.022,0.18-0.067c-0.061-0.045-0.016-0.068,0.135-0.068
			c0.12,0,0.218,0.045,0.293,0.135c0.074,0.09,0.158,0.18,0.248,0.27c0,0.45,0.037,0.765,0.111,0.945
			c0.075,0.18,0.173,0.3,0.293,0.36c0.119,0.061,0.232,0.128,0.338,0.203c0.104,0.075,0.157,0.263,0.157,0.562
			c0,0.061-0.03,0.233-0.09,0.518c-0.061,0.286-0.128,0.615-0.202,0.99c-0.076,0.375-0.166,0.75-0.271,1.125
			c-0.105,0.375-0.202,0.713-0.292,1.013c-0.181,0.36-0.473,0.833-0.878,1.417s-0.803,1.118-1.192,1.598
			c-0.36,0.36-0.75,0.795-1.17,1.305c-0.421,0.511-0.84,0.983-1.26,1.417c-0.421,0.436-0.766,0.818-1.035,1.148
			c-0.271,0.33-0.405,0.555-0.405,0.675c0,0.18,0.157,0.382,0.473,0.607s0.607,0.398,0.878,0.518
			c0.149,0.09,0.366,0.135,0.652,0.135c0.284,0,0.502,0,0.652,0c0.239,0,0.473-0.06,0.697-0.18c0.225-0.12,0.518-0.105,0.877,0.045
			c0.6-0.18,1.178-0.36,1.732-0.54s1.059-0.33,1.508-0.45C92.682,30.031,92.832,30.09,92.982,30.09z"/>
		<path class="st0" d="M13.581,49.43c0,1.65-0.57,3.285-1.71,4.905c-1.141,1.62-2.536,3.15-4.185,4.59
			c-0.09,0.061-0.157,0.166-0.203,0.314c-0.045,0.15-0.098,0.271-0.157,0.361c-1.021,0.629-1.951,0.944-2.79,0.944
			c-0.69,0-1.253-0.173-1.688-0.518c-0.435-0.345-0.877-0.697-1.328-1.058c-0.15-0.119-0.292-0.375-0.427-0.765
			c-0.135-0.39-0.337-0.585-0.607-0.585c-0.061-0.27-0.135-0.607-0.225-1.013c-0.09-0.405-0.135-0.667-0.135-0.788
			c0-0.479,0.097-1.057,0.292-1.732c0.195-0.674,0.412-1.327,0.653-1.957c0.24-0.63,0.472-1.185,0.697-1.665
			c0.225-0.479,0.397-0.81,0.518-0.989c0.06-0.061,0.09-0.173,0.09-0.338s0.045-0.293,0.135-0.383c0.15-0.27,0.33-0.54,0.54-0.811
			c0.209-0.27,0.375-0.539,0.495-0.81c0.09-0.06,0.15-0.09,0.18-0.09c0.03,0,0.09-0.015,0.18-0.045
			c0.09-0.03,0.135-0.097,0.135-0.202s0.045-0.218,0.135-0.338c0.12-0.209,0.299-0.383,0.54-0.518
			c0.24-0.135,0.435-0.307,0.585-0.518c0.09-0.119,0.135-0.262,0.135-0.428c0-0.164,0.045-0.322,0.135-0.473
			c-0.061,0-0.15-0.021-0.27-0.066c-0.121-0.045-0.225,0.008-0.315,0.156c0-0.119-0.03-0.209-0.09-0.27
			c-0.09,0.061-0.135,0.18-0.135,0.36c0-0.21-0.105-0.315-0.315-0.315l0.09-0.045c0.029,0,0.09-0.045,0.18-0.135
			c-0.061-0.42,0.052-0.779,0.337-1.08c0.285-0.299,0.63-0.562,1.035-0.787c0.405-0.226,0.802-0.405,1.192-0.541
			c0.39-0.135,0.645-0.262,0.765-0.382c0.12,0.24,0.27,0.337,0.45,0.292s0.39-0.006,0.63,0.113c0.12,0.09,0.33,0.285,0.63,0.584
			c0.299,0.301,0.555,0.557,0.765,0.766c0,0.03,0.03,0.09,0.09,0.18c0.06,0.15,0.119,0.256,0.18,0.315
			c0.06,0.03,0.135,0.045,0.225,0.045s0.165,0.03,0.225,0.09c0.689,0.96,1.252,1.897,1.688,2.812
			C13.363,47.533,13.581,48.47,13.581,49.43z M9.846,47.99c0-0.18-0.061-0.441-0.18-0.787c-0.12-0.344-0.24-0.637-0.36-0.877
			c-0.241,0.48-0.57,0.982-0.99,1.508c-0.42,0.524-0.735,0.952-0.945,1.281c-0.24,0.451-0.525,0.99-0.855,1.621
			c-0.331,0.629-0.646,1.236-0.945,1.822c-0.3,0.585-0.548,1.109-0.743,1.574c-0.195,0.466-0.292,0.729-0.292,0.788v0.405
			c0.299-0.21,0.645-0.488,1.035-0.833c0.389-0.345,0.645-0.517,0.765-0.517c0.15,0,0.165,0.045,0.045,0.135
			c-0.121,0.09-0.09,0.135,0.09,0.135c0.12,0,0.299-0.158,0.54-0.473c0.24-0.314,0.479-0.66,0.72-1.035
			c0.24-0.375,0.473-0.727,0.698-1.058c0.225-0.329,0.352-0.524,0.382-0.585c0.06-0.09,0.15-0.299,0.27-0.63
			c0.12-0.329,0.24-0.675,0.36-1.035c0.12-0.36,0.217-0.682,0.292-0.968C9.808,48.178,9.846,48.021,9.846,47.99z M8.811,45.965
			v-0.675H8.585v0.675H8.811z"/>
		<path class="st0" d="M40.4,46.191c-0.21,0-0.428,0.061-0.653,0.182c-0.225,0.123-0.502,0.291-0.832,0.504L38.69,47.15
			c0.09,0.062,0.172,0.123,0.248,0.184c0.074,0.061,0.112,0.152,0.112,0.273c-0.21,0.062-0.435,0.145-0.675,0.252
			c-0.241,0.105-0.466,0.174-0.675,0.204c-0.03,0.213-0.128,0.351-0.292,0.411c-0.165,0.06-0.345,0.098-0.54,0.113
			c-0.195,0.016-0.42,0.022-0.675,0.022c-0.255,0-0.458,0.016-0.607,0.046c-0.36,0.092-0.795,0.25-1.305,0.479
			c-0.51,0.227-0.84,0.342-0.99,0.342c-0.18,0-0.248-0.023-0.203-0.068S33.08,49.34,32.93,49.34c-0.09,0-0.255,0.045-0.495,0.136
			c-0.24,0.09-0.533,0.18-0.877,0.27c-0.345,0.09-0.69,0.202-1.035,0.338c-0.345,0.135-0.668,0.232-0.968,0.292
			c-1.23,0.36-2.535,0.683-3.915,0.968s-2.715,0.607-4.005,0.967c-0.09,0.09-0.188,0.211-0.292,0.36
			c-0.105,0.15-0.158,0.255-0.158,0.315c-0.21,0.779-0.435,1.688-0.675,2.723c-0.24,1.034-0.458,2.1-0.652,3.194
			c-0.196,1.096-0.383,2.175-0.562,3.24c-0.18,1.064-0.345,2.047-0.495,2.947c-0.03,0-0.105-0.15-0.225-0.45
			c-0.12,0.181-0.225,0.45-0.315,0.811c-0.03,0.329-0.075,0.749-0.135,1.26c-0.061,0.51-0.09,0.84-0.09,0.99v2.97
			c0.24,0.119,0.397,0.27,0.473,0.45c0.075,0.18,0.112,0.375,0.112,0.585c0,0.209-0.015,0.412-0.045,0.607
			c-0.03,0.194-0.03,0.397,0,0.607l0.225-0.225c-0.061,0.299-0.038,0.449,0.067,0.449c0.105,0,0.158,0.045,0.158,0.136
			c0,0.18-0.053,0.389-0.158,0.63c-0.105,0.239-0.202,0.465-0.292,0.675H18.44c-0.03,0-0.09-0.045-0.18-0.135
			c-0.061,0-0.105,0.037-0.135,0.112c-0.03,0.074-0.045,0.157-0.045,0.247c-0.33-0.21-0.683-0.473-1.057-0.787
			c-0.375-0.315-0.683-0.639-0.923-0.969c-0.06-0.301-0.12-0.653-0.18-1.058c-0.061-0.406-0.105-0.796-0.135-1.171
			c-0.03-0.376-0.061-0.721-0.09-1.035c-0.03-0.315-0.045-0.503-0.045-0.562l0.81-8.825c0-0.091,0.06-0.405,0.18-0.946
			c0.12-0.539,0.262-1.178,0.428-1.914c0.165-0.734,0.33-1.508,0.495-2.318c0.165-0.809,0.277-1.516,0.337-2.115
			c-0.241-0.09-0.465-0.029-0.675,0.18c-0.06-0.119-0.173-0.209-0.337-0.27c-0.165-0.061-0.337-0.091-0.518-0.091
			c-0.15,0-0.195,0.022-0.135,0.067c0.06,0.045,0.09,0.098,0.09,0.158c-0.15-0.15-0.315-0.226-0.495-0.226
			c-0.15,0-0.285-0.029-0.405-0.09c-0.12-0.06-0.24-0.135-0.36-0.226c-0.121-0.09-0.263-0.209-0.428-0.359
			c-0.165-0.15-0.292-0.271-0.382-0.361c-0.03-0.029-0.105-0.172-0.225-0.427c-0.12-0.255-0.24-0.541-0.36-0.856
			c-0.12-0.314-0.225-0.637-0.315-0.968c-0.09-0.329-0.135-0.555-0.135-0.675c0-0.09,0.083-0.15,0.248-0.181
			c0.165-0.03,0.172-0.21,0.022-0.54c0.3,0.211,0.532,0.33,0.698,0.359c0.165,0.031,0.299,0.039,0.405,0.023
			c0.105-0.016,0.225-0.045,0.36-0.09c0.135-0.045,0.338-0.068,0.607-0.068c0.15,0,0.203-0.037,0.158-0.112
			c-0.045-0.074-0.008-0.112,0.112-0.112c0.21,0,0.45,0.008,0.72,0.022c0.27,0.016,0.585-0.037,0.945-0.157
			c0.33-0.15,0.84-0.225,1.53-0.225c0.24-1.14,0.479-2.324,0.72-3.553c0.24-1.229,0.495-2.369,0.765-3.418
			c0.18-0.63,0.345-1.297,0.495-2.002c0.15-0.705,0.33-1.356,0.54-1.957c0.299-0.93,0.622-1.934,0.967-3.013
			c0.345-1.079,0.705-2.151,1.08-3.215c0.375-1.064,0.788-2.113,1.237-3.148c0.45-1.034,0.945-1.986,1.485-2.856
			c0.06-0.12,0.18-0.284,0.36-0.495c0.18-0.209,0.375-0.427,0.585-0.652c0.209-0.225,0.405-0.412,0.585-0.562
			c0.18-0.149,0.33-0.225,0.45-0.225c0.149,0,0.27,0.03,0.36,0.09c0.09,0.061,0.195,0.135,0.315,0.225
			c0.15,0.09,0.337,0.135,0.562,0.135s0.442,0.016,0.652,0.045c0.21,0.09,0.428,0.196,0.653,0.315
			c0.225,0.12,0.397,0.225,0.518,0.315c0.299,0.24,0.622,0.518,0.967,0.833c0.345,0.315,0.622,0.593,0.833,0.833
			c0.15,0.33,0.337,0.72,0.562,1.17c0.225,0.45,0.337,0.75,0.337,0.9c0,0.18-0.098,0.562-0.292,1.147
			c-0.195,0.585-0.353,1.073-0.472,1.462c-0.21,0-0.413,0.105-0.608,0.315c-0.195,0.21-0.382,0.436-0.562,0.675
			c-0.09,0-0.173-0.038-0.248-0.113c-0.075-0.074-0.128-0.112-0.157-0.112l-0.36,0.225c-0.09-0.09-0.18-0.135-0.27-0.135
			c-0.09,0-0.166,0-0.225,0l0.225-0.225c-0.15-0.09-0.308-0.172-0.473-0.247c-0.165-0.075-0.292-0.158-0.382-0.248
			c-0.121-0.209-0.233-0.465-0.338-0.765c-0.105-0.299-0.157-0.524-0.157-0.675c0-0.18,0.037-0.3,0.112-0.36
			c0.075-0.06,0.142-0.119,0.203-0.18c0.09,0.061,0.135,0.112,0.135,0.157s0.045,0.113,0.135,0.203c0.18-0.33,0.27-0.705,0.27-1.125
			c0-0.12-0.008-0.24-0.022-0.36c-0.016-0.12-0.098-0.18-0.248-0.18c-0.21,0-0.435,0.218-0.675,0.652
			c-0.241,0.436-0.473,0.916-0.698,1.44c-0.225,0.525-0.443,1.05-0.652,1.575c-0.21,0.524-0.331,0.862-0.36,1.011
			c-0.15,0.419-0.458,1.152-0.922,2.199c-0.465,1.047-0.848,2.034-1.147,2.961c-0.21,0.719-0.458,1.586-0.743,2.603
			c-0.285,1.017-0.517,1.99-0.697,2.916c-0.12,0.449-0.255,0.936-0.405,1.459c-0.151,0.523-0.331,1.068-0.54,1.637
			c-0.061,0.061-0.121,0.09-0.18,0.09c-0.061,0-0.135,0.045-0.225,0.135c0,0.15,0.06,0.284,0.18,0.404
			c0.029,0.09,0.007,0.195-0.067,0.314c-0.075,0.12-0.158,0.24-0.248,0.359v0.315c0.45,0.151,0.99,0.165,1.62,0.046
			c0.63-0.12,1.185-0.211,1.665-0.271c0.57-0.091,1.177-0.136,1.823-0.136c0.645,0,1.282-0.045,1.913-0.135
			c0.27,0,0.479-0.074,0.63-0.225c0.66,0.03,1.447,0.022,2.362-0.022c0.915-0.045,1.778-0.067,2.588-0.067
			c0.06-0.029,0.135-0.045,0.225-0.045c0.09,0,0.15-0.045,0.18-0.135c0.33,0.09,0.69,0.111,1.08,0.066
			c0.39-0.045,0.765-0.082,1.125-0.111l0.045-0.045c0.09-0.091,0.18-0.136,0.27-0.136c0.15,0,0.172,0.038,0.067,0.112
			c-0.105,0.076-0.067,0.113,0.113,0.113c0.119,0,0.322-0.037,0.607-0.113c0.285-0.074,0.502-0.112,0.652-0.112
			c0.15,0,0.248,0.038,0.292,0.112C40.243,46.154,40.31,46.191,40.4,46.191z M17.72,67.385v-0.72h-0.225v0.72H17.72z M18.53,67.656
			h-0.18V66.89h0.18V67.656z M39.905,46.33v-0.184h-0.45v0.184H39.905z"/>
		<path class="st0" d="M45.89,46.191c-0.09,0.209-0.248,0.404-0.473,0.584c-0.225,0.181-0.292,0.376-0.203,0.586
			c-0.24,0-0.51-0.023-0.81-0.068s-0.66-0.021-1.08,0.068c-0.03-0.15-0.061-0.33-0.09-0.541c-0.03-0.209-0.075-0.465-0.135-0.765
			c-0.9,0.331-1.718,0.953-2.453,1.868c-0.735,0.915-1.388,1.807-1.958,2.678c0-0.15-0.061-0.226-0.18-0.226
			c-0.15,0.271-0.18,0.45-0.09,0.54c-0.061,0-0.105,0.016-0.135,0.045l-0.135,0.18c-0.03,0.061-0.015,0.113,0.045,0.158
			s0.09,0.111,0.09,0.202c-0.061,0-0.105,0.015-0.135,0.045c-0.03,0.03-0.09,0.045-0.18,0.045h-0.045c-0.09,0-0.135,0.03-0.135,0.09
			c-0.061,0.091-0.045,0.157,0.045,0.202s0.135,0.084,0.135,0.113c-0.27,0.51-0.63,1.064-1.08,1.664
			c0,0.091,0.022,0.158,0.067,0.203s0.052,0.083,0.022,0.113c-0.09,0.209-0.203,0.382-0.337,0.517
			c-0.135,0.136-0.278,0.278-0.428,0.428c-0.12,0.15-0.188,0.331-0.202,0.54c-0.016,0.21-0.068,0.404-0.158,0.585
			c-0.3,0.601-0.556,1.253-0.765,1.958c-0.21,0.705-0.21,1.372,0,2.002c-0.27,0.18-0.555,0.27-0.855,0.27
			c-0.09,0-0.27-0.061-0.54-0.18s-0.51-0.225-0.72-0.314c-0.09-0.09-0.135-0.232-0.135-0.428s-0.12-0.262-0.36-0.203
			c-0.15-0.479-0.315-0.899-0.495-1.26c-0.18-0.359-0.27-0.72-0.27-1.08c0-0.06,0.045-0.247,0.135-0.562
			c0.09-0.314,0.172-0.675,0.248-1.08c0.074-0.404,0.157-0.81,0.248-1.215c0.09-0.404,0.149-0.771,0.18-1.102
			c0.209-0.84,0.39-1.681,0.54-2.521c0.15-0.84,0.254-1.694,0.315-2.565c0.06-0.51,0.135-1.087,0.225-1.732
			c0.09-0.645,0.165-1.297,0.225-1.957c0.06-0.42,0.112-0.87,0.157-1.35c0.045-0.48,0.127-0.93,0.248-1.351h0.54
			c0.24,0,0.54,0.135,0.9,0.405c0.36,0.27,0.6,0.555,0.72,0.854c0.12,0.331,0.217,0.66,0.292,0.99
			c0.075,0.331,0.127,0.66,0.158,0.989c0.029,0.241,0.015,0.48-0.045,0.721s-0.09,0.525-0.09,0.855
			c0.12-0.301,0.353-0.615,0.698-0.945c0.344-0.33,0.72-0.652,1.125-0.968c0.405-0.315,0.839-0.577,1.305-0.788
			c0.465-0.209,0.877-0.314,1.238-0.314c0.659,0,1.417,0.18,2.272,0.54s1.537,0.854,2.047,1.485c0.09,0.12,0.165,0.27,0.225,0.449
			C45.68,45.831,45.77,46.01,45.89,46.191z"/>
		<path class="st0" d="M56.104,56.09c-0.24,0.09-0.435,0.202-0.585,0.337c-0.15,0.136-0.331,0.233-0.54,0.293
			c0,0.211,0.165,0.36,0.495,0.45c-0.09,0.12-0.173,0.278-0.248,0.473c-0.075,0.195-0.158,0.397-0.248,0.607
			c-0.39-0.091-0.683,0.053-0.877,0.427c-0.195,0.376-0.292,0.743-0.292,1.104c-0.27,0.09-0.548,0.157-0.833,0.202
			c-0.286,0.045-0.593,0.067-0.922,0.067c-0.12,0.061-0.143,0.105-0.067,0.135c0.074,0.029,0.157,0.045,0.247,0.045
			c-0.24,0.029-0.517,0.113-0.833,0.248c-0.315,0.135-0.592,0.217-0.833,0.248v0.135c0,0.059-0.06,0.09-0.18,0.09
			c-0.12,0-0.292-0.045-0.518-0.135s-0.435-0.158-0.63-0.203c-0.196-0.045-0.375-0.053-0.54-0.022
			c-0.166,0.03-0.263,0.149-0.292,0.36l-0.495-0.676c-0.66-0.15-1.147-0.344-1.462-0.584s-0.758-0.66-1.328-1.261
			c-0.21-0.119-0.353-0.21-0.427-0.271c-0.075-0.059-0.135-0.148-0.18-0.27c-0.045-0.119-0.12-0.359-0.225-0.72
			c-0.105-0.36-0.248-1.005-0.427-1.935c-0.121-0.9-0.113-1.613,0.022-2.139c0.135-0.523,0.248-0.967,0.337-1.326
			c0.09-0.42,0.285-1.02,0.585-1.801c0.299-0.779,0.615-1.514,0.945-2.205c0.18-0.359,0.39-0.787,0.63-1.282
			c0.24-0.495,0.524-1.013,0.855-1.553c0.149-0.21,0.344-0.464,0.585-0.765c0.24-0.3,0.435-0.6,0.585-0.9
			c0.33-0.299,0.577-0.569,0.742-0.81c0.165-0.239,0.473-0.495,0.923-0.765c0.209-0.09,0.479-0.21,0.81-0.36
			c0.33-0.149,0.464-0.345,0.405-0.585c-0.061,0.029-0.09,0.061-0.09,0.09c0,0.09,0.06,0.135,0.18,0.135
			c0.18,0,0.225-0.022,0.135-0.067s-0.045-0.067,0.135-0.067c0.12,0,0.308,0.075,0.562,0.225c0.255,0.15,0.487,0.256,0.698,0.315
			c0.06,0.21,0.09,0.405,0.09,0.585s0.075,0.27,0.225,0.27c0.18,0,0.24-0.021,0.18-0.066c-0.061-0.046-0.016-0.068,0.135-0.068
			c0.12,0,0.217,0.045,0.292,0.135c0.075,0.09,0.158,0.18,0.248,0.271c0,0.45,0.037,0.765,0.112,0.944
			c0.075,0.181,0.172,0.301,0.292,0.36c0.12,0.061,0.232,0.128,0.338,0.202c0.104,0.076,0.157,0.264,0.157,0.562
			c0,0.061-0.03,0.233-0.09,0.518c-0.061,0.286-0.128,0.615-0.203,0.99c-0.075,0.375-0.165,0.75-0.27,1.125
			c-0.105,0.375-0.203,0.713-0.292,1.013c-0.18,0.36-0.473,0.833-0.877,1.417c-0.405,0.586-0.803,1.119-1.192,1.598
			c-0.36,0.36-0.75,0.795-1.17,1.305c-0.421,0.512-0.84,0.984-1.26,1.418c-0.42,0.436-0.765,0.818-1.035,1.148
			s-0.405,0.555-0.405,0.674c0,0.181,0.158,0.383,0.473,0.607c0.315,0.226,0.607,0.398,0.877,0.518
			c0.15,0.09,0.367,0.135,0.652,0.135c0.285,0,0.502,0,0.652,0c0.24,0,0.473-0.059,0.698-0.18c0.225-0.119,0.518-0.104,0.877,0.045
			c0.6-0.18,1.177-0.359,1.732-0.539c0.555-0.181,1.058-0.33,1.508-0.451C55.804,56.031,55.954,56.09,56.104,56.09z"/>
		<path class="st0" d="M70.999,51.951c-0.12,0.12-0.225,0.3-0.314,0.539c-0.09,0.241-0.225,0.361-0.405,0.361
			c-0.15,0-0.218-0.023-0.202-0.068c0.015-0.045-0.008-0.022-0.068,0.068c0,0.09-0.021,0.15-0.066,0.18s-0.008,0.045,0.111,0.045
			c0.15,0,0.218-0.008,0.203-0.023c-0.016-0.014,0.022-0.021,0.112-0.021c-0.09,0.09-0.173,0.232-0.247,0.428
			c-0.076,0.195-0.083,0.337-0.023,0.427c-0.27,0.241-0.569,0.48-0.899,0.72c-0.331,0.24-0.615,0.48-0.854,0.721
			c0,0.12,0.074,0.18,0.225,0.18v0.45c-0.54,0.3-1.118,0.646-1.732,1.034c-0.615,0.391-1.328,0.826-2.138,1.306
			c-0.09,0.09-0.173,0.218-0.248,0.382c-0.075,0.166-0.173,0.293-0.292,0.383c-0.12,0.061-0.345,0.15-0.675,0.271
			c-0.331,0.12-0.683,0.24-1.058,0.36c-0.375,0.119-0.758,0.225-1.147,0.314c-0.39,0.09-0.705,0.135-0.945,0.135
			c-0.601,0-1.163-0.142-1.688-0.428c-0.525-0.284-0.99-0.637-1.395-1.057c-0.405-0.42-0.736-0.9-0.99-1.44
			c-0.255-0.54-0.398-1.05-0.427-1.53c0-0.18-0.008-0.375-0.022-0.584c-0.016-0.211-0.023-0.391-0.023-0.541
			c0-0.659,0.105-1.566,0.315-2.723c0.209-1.154,0.54-2.121,0.99-2.902c0.06-0.029,0.09-0.104,0.09-0.225
			c0-0.119,0.015-0.24,0.045-0.359c0.209-0.451,0.427-0.885,0.652-1.306c0.225-0.42,0.487-0.81,0.788-1.17
			c0.209-0.21,0.405-0.405,0.585-0.585c0.18-0.18,0.33-0.39,0.45-0.631c0-0.059-0.015-0.104-0.045-0.135
			c-0.12,0.121-0.18,0.195-0.18,0.226c0.27-0.33,0.562-0.765,0.877-1.306c0.315-0.539,0.652-1.004,1.012-1.395
			c0.09-0.15,0.24-0.24,0.45-0.27c0.209-0.029,0.405-0.09,0.585-0.18c0.15-0.091,0.27-0.195,0.36-0.316
			c0.09-0.119,0.225-0.18,0.405-0.18c0.12,0,0.405,0.045,0.855,0.135c0.45,0.091,0.794,0.196,1.035,0.315
			c0.24,0.151,0.555,0.391,0.945,0.72c0.39,0.331,0.66,0.676,0.81,1.035c0.119,0.24,0.225,0.541,0.315,0.9
			c0.09,0.359,0.135,0.63,0.135,0.811c0,0.119-0.03,0.353-0.09,0.697c-0.061,0.345-0.135,0.697-0.225,1.057
			c-0.09,0.36-0.195,0.705-0.315,1.035c-0.12,0.33-0.24,0.525-0.36,0.586c-0.12,0.09-0.345,0.135-0.675,0.135
			c-0.36,0-0.638-0.12-0.833-0.36c-0.195-0.239-0.337-0.524-0.427-0.854c-0.09-0.24-0.203-0.473-0.337-0.698
			c-0.135-0.225-0.158-0.457-0.068-0.697v-0.045h-0.135c-0.84,1.05-1.575,2.122-2.205,3.218s-1.141,2.062-1.53,2.902
			c-0.121,0.27-0.248,0.607-0.383,1.012c-0.135,0.406-0.263,0.811-0.382,1.215c-0.12,0.406-0.225,0.766-0.315,1.08
			c-0.09,0.315-0.135,0.504-0.135,0.562v0.631c0.209,0.09,0.45,0.165,0.72,0.225c0.27,0.061,0.465,0.09,0.585,0.09
			c0.12,0,0.39-0.097,0.81-0.292c0.42-0.194,0.81-0.367,1.17-0.518c0.81-0.33,1.717-0.683,2.723-1.058
			c1.004-0.375,2.032-0.832,3.083-1.373c0.271-0.149,0.712-0.396,1.327-0.742C69.881,52.484,70.459,52.191,70.999,51.951z"/>
		<path class="st0" d="M81.258,56.09c-0.24,0.09-0.435,0.202-0.584,0.337c-0.15,0.136-0.331,0.233-0.541,0.293
			c0,0.211,0.165,0.36,0.496,0.45c-0.09,0.12-0.174,0.278-0.248,0.473c-0.075,0.195-0.158,0.397-0.248,0.607
			c-0.39-0.091-0.682,0.053-0.877,0.427c-0.195,0.376-0.293,0.743-0.293,1.104c-0.27,0.09-0.547,0.157-0.832,0.202
			s-0.593,0.067-0.922,0.067c-0.121,0.061-0.144,0.105-0.068,0.135c0.074,0.029,0.158,0.045,0.248,0.045
			c-0.24,0.029-0.518,0.113-0.833,0.248s-0.593,0.217-0.833,0.248v0.135c0,0.059-0.06,0.09-0.18,0.09
			c-0.119,0-0.292-0.045-0.518-0.135c-0.225-0.09-0.435-0.158-0.629-0.203c-0.196-0.045-0.376-0.053-0.541-0.022
			s-0.263,0.149-0.292,0.36l-0.495-0.676c-0.66-0.15-1.147-0.344-1.463-0.584c-0.314-0.24-0.758-0.66-1.327-1.261
			c-0.21-0.119-0.353-0.21-0.427-0.271c-0.076-0.059-0.136-0.148-0.181-0.27c-0.045-0.119-0.12-0.359-0.226-0.72
			s-0.247-1.005-0.427-1.935c-0.12-0.9-0.112-1.613,0.022-2.139c0.135-0.523,0.248-0.967,0.338-1.326
			c0.09-0.42,0.284-1.02,0.584-1.801c0.3-0.779,0.615-1.514,0.945-2.205c0.18-0.359,0.39-0.787,0.631-1.282
			c0.239-0.495,0.523-1.013,0.854-1.553c0.149-0.21,0.345-0.464,0.585-0.765c0.24-0.3,0.435-0.6,0.585-0.9
			c0.329-0.299,0.577-0.569,0.742-0.81c0.165-0.239,0.473-0.495,0.923-0.765c0.209-0.09,0.479-0.21,0.811-0.36
			c0.329-0.149,0.464-0.345,0.404-0.585c-0.061,0.029-0.09,0.061-0.09,0.09c0,0.09,0.06,0.135,0.18,0.135
			c0.18,0,0.225-0.022,0.135-0.067s-0.045-0.067,0.135-0.067c0.12,0,0.309,0.075,0.562,0.225c0.256,0.15,0.488,0.256,0.698,0.315
			c0.06,0.21,0.09,0.405,0.09,0.585s0.075,0.27,0.226,0.27c0.18,0,0.239-0.021,0.18-0.066c-0.061-0.046-0.016-0.068,0.135-0.068
			c0.119,0,0.217,0.045,0.293,0.135c0.074,0.09,0.157,0.18,0.247,0.271c0,0.45,0.037,0.765,0.112,0.944
			c0.074,0.181,0.172,0.301,0.293,0.36c0.119,0.061,0.232,0.128,0.338,0.202c0.104,0.076,0.156,0.264,0.156,0.562
			c0,0.061-0.029,0.233-0.09,0.518c-0.061,0.286-0.127,0.615-0.202,0.99s-0.165,0.75-0.271,1.125s-0.202,0.713-0.292,1.013
			c-0.181,0.36-0.473,0.833-0.878,1.417c-0.404,0.586-0.803,1.119-1.191,1.598c-0.361,0.36-0.751,0.795-1.17,1.305
			c-0.422,0.512-0.841,0.984-1.261,1.418c-0.421,0.436-0.765,0.818-1.035,1.148s-0.405,0.555-0.405,0.674
			c0,0.181,0.158,0.383,0.473,0.607c0.315,0.226,0.607,0.398,0.878,0.518c0.149,0.09,0.366,0.135,0.652,0.135
			c0.284,0,0.502,0,0.652,0c0.239,0,0.473-0.059,0.698-0.18c0.225-0.119,0.518-0.104,0.877,0.045c0.6-0.18,1.178-0.359,1.732-0.539
			c0.555-0.181,1.058-0.33,1.508-0.451C80.958,56.031,81.108,56.09,81.258,56.09z"/>
		<path class="st0" d="M109.383,56.045c0.119,0.21,0.127,0.421,0.023,0.63c-0.105,0.211-0.174,0.391-0.203,0.54
			c-0.09,0.21-0.016,0.36,0.225,0.45c-0.061,0.12-0.143,0.218-0.248,0.293c-0.105,0.074-0.201,0.156-0.291,0.247
			c0.029,0.18,0,0.315-0.09,0.405c-0.332,0.15-0.668,0.314-1.014,0.494s-0.607,0.285-0.787,0.315c-0.15,0-0.404-0.067-0.766-0.202
			c-0.359-0.135-0.615-0.203-0.764-0.203c-0.121,0.03-0.135,0.068-0.045,0.113s0.059,0.082-0.09,0.111
			c-0.121,0-0.422-0.172-0.9-0.518c-0.48-0.344-0.871-0.666-1.17-0.967c-0.48-0.51-0.795-1.17-0.945-1.98
			c-0.15-0.81-0.314-1.635-0.496-2.475c-0.029-0.209-0.045-0.435-0.045-0.675c0-0.239-0.074-0.51-0.225-0.81
			c-0.18,0.209-0.322,0.42-0.428,0.629c-0.105,0.211-0.246,0.436-0.428,0.676c-0.24,0.359-0.682,0.9-1.326,1.619
			c-0.646,0.721-1.193,1.411-1.643,2.07c-0.301,0.36-0.607,0.742-0.924,1.148c-0.314,0.404-0.682,0.727-1.102,0.967
			c-0.061,0.09-0.076,0.158-0.045,0.203c0.029,0.045,0,0.082-0.09,0.111c-0.24,0.15-0.525,0.309-0.855,0.473
			c-0.33,0.166-0.57,0.248-0.72,0.248c-0.21,0.03-0.511-0.022-0.899-0.158c-0.391-0.135-0.773-0.329-1.148-0.584
			s-0.689-0.51-0.945-0.766c-0.254-0.254-0.397-0.486-0.427-0.697c-0.061-0.51-0.045-1.095,0.045-1.755
			c0.09-0.659,0.21-1.312,0.36-1.958c0.149-0.645,0.284-1.237,0.404-1.777c0.119-0.539,0.195-0.99,0.225-1.35
			c0.061-0.119,0.061-0.195,0-0.225c-0.06-0.03-0.09-0.075-0.09-0.136l0.136-0.18c-0.03-0.091-0.067-0.165-0.112-0.226
			c-0.045-0.059-0.068-0.149-0.068-0.27c-0.72,0.75-1.47,1.643-2.25,2.678c-0.779,1.035-1.529,2.018-2.25,2.947
			c-0.029,0.061-0.061,0.15-0.09,0.27c-0.029,0.121-0.074,0.24-0.135,0.36c-0.301,0.39-0.63,0.78-0.99,1.17c0,0.091,0,0.21,0,0.36
			c-0.3,0.27-0.578,0.615-0.832,1.035c-0.256,0.42-0.518,0.765-0.787,1.035c-0.121,0.09-0.323,0.225-0.607,0.404
			c-0.286,0.18-0.518,0.27-0.698,0.27c-0.12,0.03-0.331-0.06-0.63-0.27c-0.301-0.209-0.54-0.404-0.721-0.585
			c-0.24-0.149-0.39-0.39-0.449-0.72c-0.061-0.33-0.105-0.66-0.135-0.99c-0.09-0.72,0.007-1.672,0.292-2.857
			c0.285-1.185,0.608-2.348,0.968-3.487s0.705-2.167,1.035-3.083c0.33-0.914,0.524-1.553,0.585-1.912
			c0.06-0.24,0.157-0.562,0.292-0.967c0.135-0.406,0.232-0.773,0.293-1.104c0.029-0.029,0.067-0.06,0.112-0.09
			c0.045-0.029,0.083-0.09,0.112-0.18c0-0.66,0.068-1.23,0.203-1.71s0.396-1.155,0.787-2.025c0.15-0.029,0.322-0.082,0.518-0.157
			c0.195-0.075,0.367-0.113,0.518-0.113c0.299-0.029,0.569,0.045,0.811,0.225c0.029,0.12,0.074,0.196,0.135,0.226
			c0.329,0.061,0.6,0.308,0.81,0.742c0.21,0.436,0.315,0.713,0.315,0.832c0.029,0.18-0.023,0.668-0.158,1.463
			s-0.293,1.447-0.473,1.957c-0.029,0.211-0.112,0.488-0.247,0.833c-0.136,0.345-0.271,0.705-0.405,1.08
			c-0.135,0.376-0.247,0.713-0.338,1.013c-0.09,0.3-0.119,0.555-0.09,0.765c0.029,0,0.075-0.045,0.135-0.136
			c0.061-0.09,0.181-0.148,0.361-0.18c0.059,0,0.262-0.209,0.607-0.629c0.344-0.42,0.727-0.916,1.146-1.486
			c0.42-0.568,0.87-1.176,1.351-1.822c0.479-0.645,0.884-1.207,1.215-1.688c0.149-0.06,0.382-0.09,0.698-0.09
			c0.314,0,0.652,0.03,1.012,0.09c0.24,0.061,0.607,0.203,1.103,0.428s0.892,0.503,1.192,0.832c0.119,0.211,0.254,0.512,0.404,0.9
			c0.15,0.391,0.24,0.691,0.271,0.9c0,0.09-0.023,0.314-0.068,0.675s-0.105,0.788-0.18,1.282c-0.076,0.495-0.143,1.013-0.203,1.553
			s-0.105,1.006-0.135,1.395c-0.24,0.061-0.375,0.248-0.404,0.562c-0.031,0.315-0.061,0.607-0.09,0.878v0.045
			c0,0.03,0.014,0.075,0.045,0.136c0.148-0.15,0.254-0.277,0.314-0.383s0.225-0.158,0.494-0.158l5.852-7.109
			c0.059,0.03,0.186,0.03,0.383,0c0.193-0.029,0.396-0.016,0.607,0.045c0.119,0.03,0.262,0.12,0.426,0.27
			c0.166,0.15,0.293,0.256,0.383,0.315c0.029,0.03,0.113,0.038,0.248,0.022c0.135-0.015,0.248,0.022,0.338,0.112
			c0.119,0.061,0.24,0.144,0.359,0.247c0.119,0.105,0.254,0.248,0.404,0.428s0.24,0.376,0.271,0.586
			c0.029,0.209,0.148,0.39,0.359,0.539c-0.061,0.031-0.068,0.09-0.021,0.18c0.045,0.091,0.082,0.196,0.111,0.316
			c0,0.06-0.021,0.254-0.066,0.584s-0.092,0.705-0.137,1.125c-0.045,0.421-0.105,0.863-0.18,1.328s-0.111,0.848-0.111,1.146
			c-0.031,0.331-0.045,0.811-0.045,1.441c0,0.629,0.014,1.034,0.045,1.215c0.059,0.6,0.186,1.035,0.383,1.305
			c0.193,0.27,0.682,0.359,1.461,0.27c0.121,0,0.42-0.082,0.9-0.247S109.083,56.196,109.383,56.045z M100.473,53.166h-0.135
			l-0.27,0.404l0.225,0.136L100.473,53.166z"/>
		<path class="st0" d="M121.218,49.43c0,1.65-0.57,3.285-1.71,4.905c-1.141,1.62-2.535,3.15-4.185,4.59
			c-0.091,0.061-0.158,0.166-0.203,0.314c-0.045,0.15-0.098,0.271-0.157,0.361c-1.021,0.629-1.95,0.944-2.79,0.944
			c-0.69,0-1.253-0.173-1.688-0.518c-0.436-0.345-0.878-0.697-1.327-1.058c-0.15-0.119-0.293-0.375-0.428-0.765
			s-0.338-0.585-0.607-0.585c-0.061-0.27-0.135-0.607-0.226-1.013c-0.09-0.405-0.135-0.667-0.135-0.788
			c0-0.479,0.098-1.057,0.293-1.732c0.194-0.674,0.412-1.327,0.652-1.957c0.239-0.63,0.473-1.185,0.697-1.665
			c0.225-0.479,0.397-0.81,0.518-0.989c0.06-0.061,0.09-0.173,0.09-0.338s0.045-0.293,0.135-0.383c0.15-0.27,0.33-0.54,0.54-0.811
			c0.21-0.27,0.375-0.539,0.495-0.81c0.09-0.06,0.15-0.09,0.181-0.09c0.029,0,0.09-0.015,0.18-0.045s0.135-0.097,0.135-0.202
			s0.045-0.218,0.135-0.338c0.12-0.209,0.3-0.383,0.54-0.518s0.435-0.307,0.585-0.518c0.091-0.119,0.136-0.262,0.136-0.428
			c0-0.164,0.045-0.322,0.135-0.473c-0.061,0-0.15-0.021-0.271-0.066s-0.225,0.008-0.314,0.156c0-0.119-0.03-0.209-0.09-0.27
			c-0.091,0.061-0.136,0.18-0.136,0.36c0-0.21-0.105-0.315-0.314-0.315l0.09-0.045c0.029,0,0.09-0.045,0.18-0.135
			c-0.061-0.42,0.053-0.779,0.338-1.08c0.285-0.299,0.63-0.562,1.035-0.787c0.404-0.226,0.802-0.405,1.192-0.541
			c0.39-0.135,0.645-0.262,0.765-0.382c0.12,0.24,0.271,0.337,0.45,0.292s0.39-0.006,0.63,0.113c0.12,0.09,0.33,0.285,0.63,0.584
			c0.3,0.301,0.555,0.557,0.766,0.766c0,0.03,0.029,0.09,0.09,0.18c0.06,0.15,0.119,0.256,0.18,0.315
			c0.06,0.03,0.135,0.045,0.226,0.045c0.09,0,0.164,0.03,0.225,0.09c0.689,0.96,1.252,1.897,1.688,2.812
			C121,47.533,121.218,48.47,121.218,49.43z M117.483,47.99c0-0.18-0.06-0.441-0.18-0.787c-0.12-0.344-0.24-0.637-0.36-0.877
			c-0.24,0.48-0.569,0.982-0.989,1.508c-0.421,0.524-0.735,0.952-0.945,1.281c-0.24,0.451-0.525,0.99-0.854,1.621
			c-0.331,0.629-0.646,1.236-0.945,1.822c-0.301,0.585-0.548,1.109-0.742,1.574c-0.196,0.466-0.293,0.729-0.293,0.788v0.405
			c0.3-0.21,0.645-0.488,1.035-0.833c0.39-0.345,0.645-0.517,0.765-0.517c0.15,0,0.165,0.045,0.045,0.135s-0.09,0.135,0.09,0.135
			c0.12,0,0.3-0.158,0.54-0.473s0.479-0.66,0.721-1.035c0.239-0.375,0.473-0.727,0.697-1.058c0.225-0.329,0.353-0.524,0.383-0.585
			c0.06-0.09,0.149-0.299,0.27-0.63c0.119-0.329,0.24-0.675,0.36-1.035c0.119-0.36,0.217-0.682,0.292-0.968
			C117.446,48.178,117.483,48.021,117.483,47.99z M116.449,45.965v-0.675h-0.226v0.675H116.449z"/>
		<path class="st0" d="M132.648,42.095c0,0.15-0.016,0.264-0.045,0.338c-0.03,0.075-0.075,0.143-0.135,0.202
			c0.06,0.45,0.067,1.013,0.022,1.688s-0.173,1.223-0.383,1.643c-0.09,0.09-0.232,0.165-0.427,0.226
			c-0.196,0.061-0.368,0.09-0.518,0.09c-0.121,0-0.323-0.068-0.607-0.203c-0.286-0.135-0.533-0.307-0.743-0.518
			c-0.21,0.09-0.33,0.225-0.359,0.405c-0.211,1.681-0.293,3.391-0.248,5.13c0.045,1.74-0.083,3.465-0.383,5.176
			c-0.06,0.42-0.143,0.96-0.247,1.619c-0.105,0.66-0.277,1.312-0.518,1.957c-0.24,0.646-0.578,1.193-1.013,1.643
			c-0.435,0.451-0.967,0.676-1.598,0.676c-0.18,0-0.277-0.022-0.292-0.068c-0.016-0.045-0.067-0.082-0.157-0.111
			c-0.061-0.061-0.091-0.068-0.091-0.023s-0.09,0.068-0.27,0.068c-0.21,0-0.421-0.076-0.63-0.226c-0.21-0.15-0.421-0.292-0.63-0.427
			c-0.211-0.136-0.383-0.271-0.518-0.406c-0.135-0.135-0.232-0.201-0.293-0.201c-0.359-0.211-0.742-0.562-1.147-1.059
			c-0.404-0.494-0.78-1.041-1.125-1.643c-0.345-0.6-0.63-1.215-0.854-1.844c-0.226-0.631-0.338-1.171-0.338-1.621
			c0-0.27,0.09-0.697,0.271-1.282c0.18-0.585,0.404-1.072,0.675-1.462c0.149,0,0.27-0.029,0.359-0.09
			c0.03,0.119,0.016,0.262-0.045,0.427s-0.105,0.323-0.135,0.473c0.06,0.09,0.12,0.143,0.18,0.157
			c0.061,0.016,0.136,0.068,0.226,0.158c0.09,0,0.119,0.066,0.09,0.202c-0.03,0.135-0.045,0.308-0.045,0.518
			c0.119,0.12,0.202,0.188,0.247,0.202c0.045,0.016-0.037,0.128-0.247,0.338c0.18,0.33,0.239,0.6,0.18,0.81
			c0.09,0.181,0.218,0.368,0.383,0.562c0.164,0.196,0.187,0.413,0.067,0.653l0.18,0.18c0.15-0.18,0.315-0.271,0.495-0.271
			c0.24,0.421,0.42,0.886,0.54,1.396s0.405,0.915,0.855,1.215c0.27-0.24,0.495-0.54,0.675-0.9c0.18-0.359,0.33-0.704,0.45-1.035
			c0.27-0.629,0.465-1.372,0.585-2.227c0.119-0.855,0.209-1.718,0.27-2.588c0.06-0.87,0.075-1.695,0.045-2.475
			c-0.03-0.78-0.045-1.426-0.045-1.936c0-0.33,0.053-0.697,0.158-1.103c0.104-0.405,0.157-0.788,0.157-1.147
			c0-0.119-0.022-0.24-0.067-0.359c-0.045-0.12-0.067-0.24-0.067-0.361c0-0.299,0.029-0.6,0.09-0.899
			c0.06-0.3,0.119-0.689,0.18-1.17c0-0.12,0.007-0.427,0.022-0.923c0.015-0.494,0.074-1.012,0.18-1.552
			c0.105-0.54,0.24-1.02,0.405-1.44c0.165-0.42,0.383-0.63,0.652-0.63c0.181,0,0.285,0.016,0.315,0.045
			c0.029,0.03,0.09,0.075,0.18,0.135c0.72-0.09,1.508,0.128,2.362,0.652c0.855,0.525,1.508,1.012,1.958,1.462
			c0.029,0.09,0.045,0.173,0.045,0.247c0,0.076,0,0.158,0,0.248c0.18,0.12,0.345,0.322,0.495,0.607
			C132.573,41.728,132.648,41.946,132.648,42.095z M121.893,56.09h-0.18v-0.675h0.18V56.09z"/>
	</g>
	<g>
		<path class="st0" d="M97.93,8.453l-5.715,5.265h-3.24l4.185-5.265H97.93z"/>
	</g>
</g>
</svg>
