<?xml version="1.0" encoding="utf-8"?>
<!-- Generator: Adobe Illustrator 16.0.0, SVG Export Plug-In . SVG Version: 6.00 Build 0)  -->
<!DOCTYPE svg PUBLIC "-//W3C//DTD SVG 1.1//EN" "http://www.w3.org/Graphics/SVG/1.1/DTD/svg11.dtd">
<svg version="1.1" id="Layer_1" xmlns="http://www.w3.org/2000/svg" xmlns:xlink="http://www.w3.org/1999/xlink" x="0px" y="0px"
	 width="250.075px" height="122.58px" viewBox="0 -10.093 250.075 122.58" enable-background="new 0 -10.093 250.075 122.58"
	 xml:space="preserve">
<g>
	<g>
		<path fill="#C6BCAB" d="M20.143,76.627c0,2.283-0.83,4.547-2.489,6.785c-1.661,2.242-3.692,4.357-6.094,6.352
			c-0.132,0.082-0.229,0.227-0.294,0.436c-0.066,0.207-0.145,0.373-0.23,0.496c-1.485,0.873-2.839,1.309-4.062,1.309
			c-1.006,0-1.824-0.238-2.458-0.717c-0.635-0.477-1.277-0.963-1.934-1.461c-0.218-0.166-0.425-0.52-0.622-1.059
			c-0.196-0.539-0.491-0.811-0.885-0.811c-0.088-0.375-0.197-0.842-0.327-1.4c-0.131-0.561-0.197-0.924-0.197-1.09
			c0-0.662,0.141-1.461,0.426-2.396c0.282-0.932,0.6-1.838,0.95-2.707c0.35-0.871,0.688-1.637,1.015-2.305
			c0.328-0.662,0.579-1.119,0.754-1.367c0.087-0.082,0.131-0.24,0.131-0.467c0-0.229,0.065-0.406,0.197-0.529
			c0.218-0.373,0.479-0.748,0.786-1.121c0.305-0.373,0.545-0.746,0.72-1.119c0.132-0.082,0.218-0.125,0.262-0.125
			c0.043,0,0.131-0.021,0.262-0.062c0.132-0.039,0.197-0.133,0.197-0.279c0-0.145,0.066-0.299,0.195-0.465
			c0.175-0.291,0.438-0.531,0.787-0.719c0.349-0.186,0.633-0.422,0.851-0.715c0.132-0.166,0.197-0.363,0.197-0.592
			s0.065-0.443,0.197-0.652c-0.088,0-0.22-0.033-0.395-0.094c-0.174-0.062-0.326,0.01-0.458,0.219c0-0.166-0.044-0.291-0.131-0.375
			c-0.131,0.084-0.197,0.25-0.197,0.498c0-0.289-0.152-0.436-0.458-0.436l0.132-0.062c0.042,0,0.131-0.062,0.262-0.186
			c-0.088-0.582,0.076-1.078,0.492-1.496c0.414-0.412,0.917-0.775,1.506-1.088c0.59-0.312,1.168-0.561,1.735-0.748
			s0.938-0.361,1.114-0.527c0.174,0.332,0.394,0.469,0.655,0.404c0.261-0.062,0.566-0.01,0.916,0.154
			c0.175,0.125,0.48,0.396,0.918,0.811c0.436,0.416,0.807,0.768,1.113,1.059c0,0.041,0.043,0.123,0.131,0.248
			c0.088,0.209,0.175,0.354,0.262,0.436c0.087,0.043,0.197,0.064,0.328,0.064s0.24,0.041,0.328,0.123
			c1.004,1.33,1.823,2.625,2.458,3.891S20.143,75.302,20.143,76.627z M14.706,74.638c0-0.25-0.088-0.611-0.263-1.09
			c-0.174-0.479-0.351-0.883-0.523-1.215c-0.35,0.664-0.83,1.359-1.44,2.088c-0.611,0.727-1.071,1.314-1.375,1.77
			c-0.352,0.623-0.767,1.371-1.244,2.242c-0.482,0.871-0.94,1.711-1.376,2.52c-0.438,0.811-0.798,1.535-1.082,2.18
			c-0.285,0.643-0.426,1.008-0.426,1.088v0.562c0.436-0.289,0.938-0.674,1.507-1.152c0.566-0.475,0.938-0.717,1.112-0.717
			c0.22,0,0.24,0.062,0.066,0.188c-0.175,0.125-0.131,0.188,0.13,0.188c0.174,0,0.437-0.217,0.787-0.652
			c0.349-0.438,0.697-0.912,1.048-1.434c0.35-0.518,0.688-1.004,1.017-1.461c0.326-0.455,0.512-0.725,0.557-0.809
			c0.086-0.125,0.218-0.416,0.393-0.873c0.175-0.455,0.35-0.934,0.525-1.434c0.173-0.494,0.316-0.939,0.425-1.338
			C14.65,74.896,14.706,74.679,14.706,74.638z M13.198,71.84v-0.938h-0.329v0.938H13.198z"/>
		<path fill="#C6BCAB" d="M62.466,72.146c-0.306,0-0.623,0.084-0.95,0.254c-0.327,0.168-0.731,0.4-1.212,0.695l-0.327,0.381
			c0.131,0.084,0.251,0.168,0.359,0.252c0.109,0.084,0.165,0.211,0.165,0.377c-0.306,0.084-0.634,0.201-0.982,0.35
			c-0.352,0.146-0.679,0.24-0.982,0.281c-0.044,0.295-0.187,0.486-0.426,0.57c-0.24,0.082-0.502,0.135-0.786,0.156
			c-0.285,0.021-0.612,0.029-0.982,0.029c-0.372,0-0.667,0.021-0.885,0.064c-0.523,0.127-1.159,0.346-1.899,0.66
			c-0.744,0.314-1.225,0.475-1.441,0.475c-0.263,0-0.361-0.031-0.296-0.094c0.064-0.064-0.012-0.096-0.229-0.096
			c-0.131,0-0.372,0.062-0.722,0.188c-0.349,0.123-0.775,0.248-1.277,0.373c-0.503,0.123-1.006,0.281-1.507,0.465
			c-0.503,0.189-0.973,0.324-1.409,0.406c-1.791,0.498-3.691,0.943-5.699,1.34c-2.009,0.393-3.953,0.838-5.83,1.338
			c-0.131,0.123-0.274,0.289-0.428,0.496c-0.152,0.209-0.229,0.354-0.229,0.436c-0.307,1.08-0.634,2.334-0.983,3.768
			c-0.35,1.432-0.667,2.904-0.949,4.418c-0.285,1.516-0.558,3.01-0.819,4.48c-0.261,1.475-0.502,2.832-0.721,4.078
			c-0.043,0-0.153-0.209-0.327-0.625c-0.174,0.252-0.328,0.625-0.458,1.121c-0.044,0.457-0.11,1.039-0.196,1.744
			c-0.088,0.705-0.131,1.16-0.131,1.369v4.109c0.349,0.162,0.579,0.371,0.688,0.619c0.109,0.25,0.164,0.521,0.164,0.812
			c0,0.287-0.021,0.568-0.065,0.838s-0.044,0.551,0,0.842l0.327-0.311c-0.088,0.414-0.056,0.621,0.099,0.621
			c0.152,0,0.229,0.062,0.229,0.188c0,0.248-0.077,0.539-0.229,0.871c-0.153,0.33-0.294,0.643-0.426,0.934h-0.196
			c-0.043,0-0.132-0.062-0.262-0.186c-0.089,0-0.153,0.049-0.196,0.154c-0.044,0.104-0.065,0.219-0.065,0.342
			c-0.481-0.291-0.994-0.654-1.54-1.09c-0.547-0.438-0.994-0.883-1.344-1.338c-0.088-0.418-0.175-0.904-0.263-1.465
			s-0.153-1.1-0.196-1.619c-0.044-0.52-0.087-0.996-0.131-1.434c-0.044-0.436-0.065-0.693-0.065-0.777l1.179-12.205
			c0-0.125,0.088-0.562,0.263-1.311c0.173-0.744,0.382-1.629,0.622-2.645c0.24-1.02,0.481-2.086,0.721-3.207
			c0.24-1.119,0.404-2.098,0.491-2.928c-0.349-0.125-0.678-0.043-0.981,0.248c-0.088-0.164-0.252-0.291-0.493-0.373
			c-0.24-0.082-0.49-0.123-0.753-0.123c-0.22,0-0.284,0.029-0.196,0.092c0.087,0.062,0.131,0.135,0.131,0.219
			c-0.219-0.207-0.46-0.311-0.721-0.311c-0.219,0-0.416-0.041-0.59-0.123c-0.175-0.086-0.35-0.189-0.524-0.316
			c-0.174-0.123-0.383-0.287-0.622-0.496c-0.24-0.205-0.426-0.373-0.557-0.5c-0.044-0.039-0.153-0.236-0.328-0.59
			c-0.175-0.352-0.351-0.748-0.524-1.184c-0.175-0.436-0.327-0.883-0.458-1.34s-0.196-0.768-0.196-0.934
			c0-0.125,0.12-0.207,0.359-0.25c0.24-0.041,0.25-0.289,0.032-0.746c0.437,0.289,0.776,0.457,1.016,0.498s0.437,0.053,0.591,0.031
			c0.151-0.021,0.329-0.064,0.522-0.125c0.197-0.062,0.492-0.094,0.885-0.094c0.218,0,0.294-0.051,0.229-0.154
			c-0.065-0.104-0.012-0.156,0.164-0.156c0.305,0,0.656,0.012,1.048,0.029c0.393,0.023,0.852-0.051,1.375-0.217
			c0.481-0.207,1.223-0.311,2.228-0.311c0.351-1.578,0.699-3.213,1.05-4.916c0.348-1.697,0.72-3.275,1.112-4.727
			c0.264-0.869,0.502-1.793,0.722-2.77c0.218-0.975,0.479-1.875,0.786-2.708c0.436-1.284,0.905-2.675,1.408-4.168
			c0.501-1.493,1.025-2.977,1.573-4.447c0.545-1.476,1.146-2.926,1.801-4.357c0.655-1.429,1.376-2.746,2.162-3.95
			c0.087-0.164,0.264-0.392,0.524-0.683c0.263-0.29,0.546-0.591,0.852-0.901c0.306-0.312,0.589-0.57,0.853-0.777
			c0.261-0.207,0.479-0.312,0.654-0.312c0.218,0,0.394,0.042,0.524,0.124c0.13,0.085,0.283,0.188,0.459,0.312
			c0.218,0.123,0.491,0.186,0.818,0.186s0.644,0.022,0.949,0.062c0.306,0.125,0.623,0.271,0.951,0.437
			c0.327,0.167,0.578,0.312,0.753,0.437c0.437,0.332,0.906,0.717,1.409,1.151c0.501,0.435,0.906,0.819,1.212,1.151
			c0.218,0.457,0.49,0.996,0.819,1.617c0.327,0.622,0.491,1.038,0.491,1.244c0,0.249-0.143,0.778-0.426,1.589
			c-0.285,0.81-0.515,1.482-0.688,2.021c-0.308,0-0.603,0.146-0.885,0.437c-0.285,0.29-0.558,0.602-0.819,0.934
			c-0.131,0-0.252-0.052-0.359-0.154c-0.109-0.104-0.186-0.156-0.229-0.156l-0.524,0.312c-0.131-0.124-0.262-0.187-0.394-0.187
			c-0.131,0-0.24,0-0.327,0l0.327-0.312c-0.219-0.124-0.447-0.237-0.688-0.343c-0.239-0.104-0.426-0.218-0.558-0.341
			c-0.174-0.29-0.338-0.644-0.49-1.06c-0.153-0.414-0.229-0.726-0.229-0.934c0-0.249,0.055-0.414,0.164-0.497
			c0.107-0.084,0.207-0.166,0.295-0.25c0.131,0.084,0.195,0.155,0.195,0.218c0,0.062,0.065,0.155,0.197,0.28
			c0.262-0.456,0.394-0.975,0.394-1.558c0-0.165-0.011-0.331-0.033-0.498c-0.022-0.165-0.143-0.248-0.36-0.248
			c-0.306,0-0.634,0.302-0.981,0.902c-0.352,0.604-0.688,1.267-1.016,1.992c-0.328,0.727-0.646,1.451-0.95,2.177
			c-0.306,0.728-0.481,1.193-0.523,1.399c-0.219,0.58-0.667,1.595-1.344,3.042c-0.679,1.45-1.235,2.814-1.67,4.098
			c-0.307,0.995-0.667,2.196-1.082,3.603c-0.414,1.406-0.752,2.752-1.016,4.033c-0.175,0.619-0.371,1.293-0.589,2.016
			c-0.219,0.725-0.481,1.479-0.787,2.264c-0.088,0.086-0.176,0.125-0.263,0.125c-0.088,0-0.196,0.062-0.327,0.188
			c0,0.205,0.087,0.395,0.261,0.559c0.044,0.125,0.012,0.271-0.098,0.436c-0.109,0.168-0.229,0.334-0.36,0.5v0.438
			c0.655,0.205,1.442,0.227,2.36,0.061c0.916-0.164,1.725-0.291,2.423-0.373c0.83-0.125,1.714-0.188,2.653-0.188
			c0.938,0,1.868-0.062,2.785-0.188c0.393,0,0.697-0.104,0.917-0.311c0.961,0.041,2.106,0.031,3.439-0.033
			c1.332-0.061,2.589-0.09,3.768-0.09c0.087-0.043,0.196-0.064,0.327-0.064c0.132,0,0.219-0.062,0.263-0.188
			c0.479,0.125,1.004,0.156,1.572,0.094c0.566-0.061,1.113-0.113,1.639-0.154l0.064-0.062c0.131-0.125,0.263-0.186,0.394-0.186
			c0.218,0,0.25,0.053,0.099,0.154c-0.152,0.104-0.099,0.154,0.164,0.154c0.173,0,0.469-0.051,0.884-0.154
			c0.414-0.104,0.73-0.154,0.95-0.154c0.217,0,0.361,0.053,0.425,0.154C62.237,72.095,62.335,72.146,62.466,72.146z M29.446,101.463
			v-0.996h-0.329v0.996H29.446z M30.626,101.838h-0.263v-1.061h0.263V101.838z M61.746,72.342v-0.256h-0.655v0.256H61.746z"/>
		<path fill="#C6BCAB" d="M73.735,72.146c-0.131,0.291-0.361,0.561-0.688,0.811c-0.328,0.248-0.426,0.52-0.295,0.811
			c-0.35,0-0.743-0.033-1.179-0.094c-0.438-0.064-0.962-0.031-1.573,0.094c-0.044-0.209-0.087-0.457-0.131-0.748
			c-0.043-0.291-0.108-0.643-0.197-1.059c-1.31,0.457-2.5,1.318-3.569,2.584c-1.07,1.266-2.021,2.498-2.851,3.703
			c0-0.209-0.088-0.312-0.261-0.312c-0.219,0.373-0.262,0.623-0.132,0.748c-0.087,0-0.153,0.02-0.196,0.061l-0.197,0.248
			c-0.045,0.086-0.022,0.158,0.065,0.219c0.086,0.064,0.13,0.156,0.13,0.281c-0.088,0-0.154,0.021-0.196,0.062
			c-0.045,0.041-0.131,0.061-0.262,0.061h-0.066c-0.131,0-0.196,0.043-0.196,0.125c-0.088,0.125-0.065,0.219,0.065,0.281
			c0.131,0.061,0.197,0.115,0.197,0.154c-0.393,0.707-0.918,1.475-1.573,2.305c0,0.125,0.033,0.219,0.099,0.279
			s0.075,0.113,0.032,0.152c-0.131,0.293-0.295,0.529-0.49,0.719c-0.197,0.188-0.404,0.385-0.623,0.59
			c-0.175,0.209-0.274,0.459-0.295,0.748c-0.023,0.291-0.1,0.561-0.23,0.811c-0.437,0.828-0.809,1.73-1.113,2.705
			c-0.306,0.977-0.306,1.898,0,2.771c-0.394,0.25-0.809,0.373-1.244,0.373c-0.132,0-0.395-0.082-0.786-0.248
			c-0.396-0.164-0.743-0.312-1.051-0.438c-0.13-0.123-0.194-0.32-0.194-0.59c0-0.271-0.176-0.363-0.525-0.281
			c-0.219-0.664-0.458-1.244-0.721-1.742c-0.261-0.498-0.393-0.996-0.393-1.492c0-0.084,0.065-0.346,0.196-0.777
			c0.13-0.438,0.251-0.936,0.36-1.496c0.107-0.559,0.229-1.121,0.359-1.68c0.131-0.562,0.219-1.066,0.263-1.523
			c0.304-1.162,0.565-2.326,0.786-3.488c0.218-1.158,0.371-2.344,0.459-3.545c0.087-0.707,0.195-1.506,0.327-2.396
			c0.132-0.893,0.238-1.795,0.327-2.707c0.088-0.582,0.164-1.203,0.23-1.869c0.064-0.662,0.185-1.283,0.359-1.865h0.786
			c0.349,0,0.785,0.186,1.312,0.561c0.523,0.373,0.873,0.77,1.048,1.182c0.174,0.457,0.316,0.914,0.426,1.371
			c0.108,0.457,0.187,0.912,0.229,1.369c0.043,0.332,0.021,0.662-0.066,0.996s-0.13,0.727-0.13,1.182
			c0.174-0.412,0.512-0.848,1.015-1.307c0.501-0.457,1.05-0.902,1.639-1.338c0.59-0.438,1.223-0.801,1.899-1.09
			c0.678-0.291,1.277-0.438,1.803-0.438c0.96,0,2.062,0.25,3.309,0.748c1.245,0.498,2.238,1.182,2.98,2.053
			c0.132,0.168,0.24,0.373,0.328,0.625C73.429,71.65,73.559,71.898,73.735,72.146z"/>
		<path fill="#C6BCAB" d="M91.881,85.842c-0.349,0.125-0.632,0.279-0.851,0.467c-0.219,0.186-0.482,0.32-0.786,0.402
			c0,0.291,0.239,0.5,0.72,0.623c-0.131,0.166-0.252,0.385-0.359,0.654c-0.109,0.27-0.229,0.551-0.36,0.84
			c-0.568-0.125-0.994,0.072-1.278,0.594c-0.283,0.518-0.426,1.025-0.426,1.521c-0.393,0.125-0.797,0.219-1.212,0.281
			c-0.416,0.061-0.862,0.094-1.343,0.094c-0.176,0.082-0.209,0.143-0.099,0.188c0.109,0.041,0.229,0.061,0.359,0.061
			c-0.349,0.041-0.752,0.156-1.211,0.342c-0.458,0.189-0.863,0.301-1.212,0.344v0.188c0,0.082-0.087,0.125-0.263,0.125
			c-0.175,0-0.426-0.062-0.754-0.189c-0.326-0.123-0.633-0.217-0.915-0.277c-0.285-0.062-0.548-0.074-0.786-0.033
			c-0.242,0.043-0.384,0.209-0.428,0.5l-0.721-0.936c-0.96-0.205-1.669-0.477-2.129-0.809c-0.458-0.33-1.103-0.912-1.933-1.742
			c-0.307-0.166-0.514-0.291-0.623-0.375c-0.11-0.082-0.196-0.207-0.263-0.373c-0.065-0.166-0.175-0.498-0.326-0.996
			c-0.153-0.496-0.36-1.391-0.622-2.676c-0.176-1.246-0.164-2.229,0.032-2.957c0.196-0.725,0.36-1.338,0.491-1.836
			c0.13-0.58,0.415-1.408,0.853-2.49c0.437-1.076,0.894-2.096,1.376-3.049c0.261-0.498,0.566-1.09,0.917-1.773
			c0.349-0.686,0.764-1.402,1.246-2.146c0.218-0.291,0.501-0.645,0.851-1.059c0.349-0.416,0.633-0.83,0.852-1.246
			c0.48-0.414,0.841-0.787,1.082-1.119c0.239-0.332,0.688-0.686,1.344-1.059c0.305-0.123,0.697-0.289,1.178-0.498
			c0.48-0.207,0.678-0.477,0.591-0.809c-0.089,0.041-0.131,0.084-0.131,0.123c0,0.125,0.087,0.188,0.261,0.188
			c0.263,0,0.328-0.031,0.197-0.094s-0.066-0.094,0.197-0.094c0.173,0,0.445,0.105,0.816,0.312c0.371,0.209,0.71,0.354,1.017,0.436
			c0.087,0.291,0.132,0.561,0.132,0.809s0.109,0.373,0.327,0.373c0.262,0,0.349-0.031,0.262-0.092
			c-0.088-0.062-0.021-0.094,0.197-0.094c0.173,0,0.315,0.061,0.426,0.186c0.109,0.125,0.229,0.25,0.36,0.375
			c0,0.621,0.054,1.057,0.164,1.307c0.107,0.25,0.25,0.416,0.426,0.498c0.174,0.082,0.337,0.176,0.491,0.277
			c0.152,0.107,0.229,0.363,0.229,0.779c0,0.084-0.045,0.322-0.131,0.717c-0.088,0.395-0.188,0.852-0.295,1.369
			c-0.109,0.52-0.24,1.039-0.394,1.557c-0.152,0.518-0.295,0.986-0.426,1.398c-0.262,0.5-0.688,1.152-1.277,1.961
			c-0.591,0.811-1.169,1.549-1.736,2.211c-0.524,0.496-1.092,1.1-1.705,1.807c-0.611,0.705-1.223,1.357-1.833,1.959
			c-0.613,0.602-1.114,1.133-1.507,1.586c-0.395,0.457-0.589,0.77-0.589,0.936c0,0.248,0.229,0.527,0.688,0.84
			c0.458,0.312,0.884,0.551,1.277,0.717c0.218,0.123,0.534,0.186,0.95,0.186c0.414,0,0.729,0,0.948,0
			c0.35,0,0.688-0.082,1.017-0.248c0.327-0.164,0.754-0.145,1.277,0.062c0.873-0.252,1.714-0.498,2.523-0.746
			c0.807-0.25,1.538-0.459,2.194-0.623C91.444,85.758,91.664,85.842,91.881,85.842z"/>
		<path fill="#C6BCAB" d="M116.842,80.113c-0.174,0.166-0.328,0.418-0.455,0.748c-0.131,0.332-0.327,0.498-0.591,0.498
			c-0.22,0-0.317-0.033-0.295-0.094c0.02-0.062-0.015-0.033-0.099,0.094c0,0.125-0.033,0.207-0.1,0.25
			c-0.064,0.041-0.009,0.061,0.164,0.061c0.217,0,0.313-0.01,0.296-0.029c-0.022-0.021,0.032-0.031,0.164-0.031
			c-0.132,0.125-0.254,0.322-0.36,0.59c-0.113,0.271-0.121,0.467-0.033,0.592c-0.393,0.332-0.829,0.664-1.312,0.996
			c-0.479,0.332-0.896,0.664-1.241,0.996c0,0.166,0.107,0.248,0.328,0.248v0.623c-0.787,0.414-1.632,0.895-2.523,1.432
			c-0.896,0.539-1.933,1.143-3.113,1.807c-0.13,0.125-0.251,0.301-0.359,0.529c-0.11,0.229-0.252,0.404-0.427,0.527
			c-0.175,0.084-0.502,0.207-0.982,0.375c-0.481,0.166-0.994,0.332-1.54,0.496c-0.547,0.166-1.104,0.312-1.672,0.438
			c-0.567,0.123-1.026,0.188-1.375,0.188c-0.875,0-1.693-0.197-2.457-0.594c-0.767-0.395-1.441-0.881-2.031-1.463
			c-0.589-0.578-1.071-1.244-1.44-1.99c-0.371-0.746-0.58-1.453-0.623-2.115c0-0.252-0.012-0.521-0.032-0.811
			c-0.024-0.289-0.033-0.537-0.033-0.746c0-0.912,0.154-2.168,0.459-3.768c0.305-1.596,0.786-2.934,1.44-4.014
			c0.087-0.041,0.132-0.146,0.132-0.312c0-0.164,0.021-0.33,0.064-0.496c0.306-0.625,0.623-1.225,0.949-1.807
			c0.329-0.58,0.71-1.119,1.148-1.619c0.304-0.287,0.589-0.561,0.852-0.809c0.261-0.248,0.479-0.539,0.655-0.873
			c0-0.082-0.023-0.143-0.065-0.184c-0.176,0.166-0.263,0.27-0.263,0.309c0.394-0.455,0.818-1.057,1.277-1.805
			c0.46-0.744,0.951-1.391,1.475-1.93c0.131-0.205,0.349-0.33,0.655-0.371c0.305-0.043,0.59-0.125,0.852-0.248
			c0.218-0.127,0.394-0.271,0.523-0.438c0.132-0.168,0.328-0.25,0.591-0.25c0.173,0,0.589,0.062,1.245,0.188
			c0.654,0.123,1.155,0.27,1.507,0.436c0.349,0.209,0.807,0.539,1.375,0.996c0.567,0.457,0.961,0.934,1.179,1.432
			c0.176,0.334,0.328,0.746,0.457,1.246c0.131,0.496,0.196,0.871,0.196,1.119c0,0.166-0.042,0.488-0.131,0.963
			c-0.087,0.48-0.194,0.967-0.325,1.465c-0.132,0.498-0.284,0.977-0.46,1.432c-0.175,0.457-0.35,0.727-0.523,0.811
			c-0.175,0.125-0.503,0.186-0.981,0.186c-0.525,0-0.93-0.162-1.213-0.496c-0.285-0.334-0.491-0.729-0.622-1.186
			c-0.131-0.33-0.294-0.652-0.491-0.963s-0.23-0.633-0.099-0.965v-0.064h-0.196c-1.225,1.453-2.292,2.938-3.21,4.451
			c-0.917,1.518-1.66,2.855-2.229,4.016c-0.174,0.373-0.36,0.842-0.557,1.4c-0.197,0.562-0.383,1.121-0.557,1.682
			c-0.177,0.561-0.328,1.057-0.458,1.492c-0.132,0.438-0.197,0.697-0.197,0.777v0.873c0.306,0.123,0.656,0.229,1.048,0.309
			c0.393,0.086,0.676,0.129,0.852,0.129c0.175,0,0.567-0.137,1.18-0.406c0.611-0.27,1.179-0.508,1.705-0.715
			c1.178-0.457,2.499-0.945,3.962-1.465s2.96-1.15,4.487-1.898c0.396-0.205,1.036-0.549,1.933-1.027
			C115.215,80.851,116.059,80.445,116.842,80.113z"/>
		<path fill="#C6BCAB" d="M135.057,85.842c-0.351,0.125-0.634,0.279-0.852,0.467c-0.22,0.186-0.479,0.32-0.787,0.402
			c0,0.291,0.241,0.5,0.723,0.623c-0.132,0.166-0.255,0.385-0.361,0.654c-0.109,0.27-0.229,0.551-0.36,0.84
			c-0.566-0.125-0.993,0.072-1.276,0.594c-0.284,0.518-0.426,1.025-0.426,1.521c-0.393,0.125-0.799,0.219-1.214,0.281
			c-0.415,0.061-0.861,0.094-1.343,0.094c-0.174,0.082-0.207,0.143-0.099,0.188c0.109,0.041,0.229,0.061,0.36,0.061
			c-0.35,0.041-0.752,0.156-1.211,0.342c-0.46,0.189-0.862,0.301-1.213,0.344v0.188c0,0.082-0.089,0.125-0.263,0.125
			c-0.175,0-0.426-0.062-0.752-0.189c-0.328-0.123-0.636-0.217-0.918-0.277c-0.285-0.062-0.547-0.074-0.786-0.033
			c-0.241,0.043-0.384,0.209-0.427,0.5l-0.72-0.936c-0.961-0.205-1.671-0.477-2.131-0.809c-0.459-0.33-1.104-0.912-1.932-1.742
			c-0.308-0.166-0.517-0.291-0.623-0.375c-0.11-0.082-0.197-0.207-0.263-0.373s-0.177-0.498-0.328-0.996
			c-0.152-0.496-0.358-1.391-0.62-2.676c-0.176-1.246-0.165-2.229,0.031-2.957c0.196-0.725,0.36-1.338,0.489-1.836
			c0.131-0.58,0.415-1.408,0.854-2.49c0.436-1.076,0.895-2.096,1.376-3.049c0.263-0.498,0.566-1.09,0.917-1.773
			c0.349-0.686,0.763-1.402,1.244-2.146c0.218-0.291,0.501-0.645,0.854-1.059c0.35-0.416,0.632-0.83,0.851-1.246
			c0.479-0.414,0.842-0.787,1.081-1.119c0.24-0.332,0.688-0.686,1.343-1.059c0.308-0.123,0.698-0.289,1.182-0.498
			c0.479-0.207,0.675-0.477,0.588-0.809c-0.088,0.041-0.131,0.084-0.131,0.123c0,0.125,0.086,0.188,0.263,0.188
			c0.263,0,0.327-0.031,0.196-0.094s-0.065-0.094,0.197-0.094c0.174,0,0.447,0.105,0.818,0.312c0.368,0.209,0.709,0.354,1.017,0.436
			c0.087,0.291,0.129,0.561,0.129,0.809s0.11,0.373,0.328,0.373c0.263,0,0.349-0.031,0.263-0.092
			c-0.09-0.062-0.022-0.094,0.197-0.094c0.172,0,0.314,0.061,0.426,0.186c0.107,0.125,0.229,0.25,0.359,0.375
			c0,0.621,0.053,1.057,0.163,1.307c0.109,0.25,0.251,0.416,0.427,0.498c0.174,0.082,0.338,0.176,0.492,0.277
			c0.151,0.107,0.228,0.363,0.228,0.779c0,0.084-0.042,0.322-0.132,0.717c-0.086,0.395-0.186,0.852-0.293,1.369
			c-0.109,0.52-0.241,1.039-0.393,1.557c-0.156,0.518-0.298,0.986-0.429,1.398c-0.262,0.5-0.687,1.152-1.276,1.961
			c-0.588,0.811-1.169,1.549-1.736,2.211c-0.522,0.496-1.093,1.1-1.701,1.807c-0.615,0.705-1.224,1.357-1.836,1.959
			c-0.611,0.602-1.113,1.133-1.507,1.586c-0.395,0.457-0.591,0.77-0.591,0.936c0,0.248,0.229,0.527,0.688,0.84
			s0.883,0.551,1.277,0.717c0.218,0.123,0.535,0.186,0.949,0.186s0.73,0,0.951,0c0.35,0,0.687-0.082,1.015-0.248
			c0.329-0.164,0.753-0.145,1.277,0.062c0.875-0.252,1.714-0.498,2.521-0.746c0.81-0.25,1.539-0.459,2.195-0.623
			C134.621,85.758,134.839,85.842,135.057,85.842z"/>
		<path fill="#C6BCAB" d="M179.281,85.779c0.174,0.289,0.185,0.58,0.031,0.871c-0.153,0.289-0.252,0.539-0.294,0.746
			c-0.131,0.291-0.022,0.498,0.327,0.623c-0.089,0.166-0.208,0.301-0.36,0.404c-0.153,0.104-0.294,0.219-0.427,0.342
			c0.045,0.25,0,0.438-0.132,0.561c-0.479,0.209-0.973,0.438-1.475,0.686c-0.501,0.248-0.884,0.395-1.146,0.436
			c-0.218,0-0.588-0.094-1.111-0.281c-0.525-0.186-0.896-0.277-1.113-0.277c-0.177,0.041-0.197,0.094-0.066,0.152
			c0.131,0.064,0.087,0.115-0.131,0.158c-0.176,0-0.612-0.238-1.311-0.717c-0.701-0.477-1.27-0.924-1.704-1.34
			c-0.698-0.705-1.157-1.617-1.376-2.736c-0.22-1.121-0.459-2.262-0.722-3.424c-0.042-0.291-0.065-0.6-0.065-0.934
			c0-0.332-0.106-0.705-0.326-1.119c-0.263,0.289-0.471,0.58-0.623,0.871c-0.151,0.291-0.36,0.6-0.621,0.934
			c-0.352,0.496-0.995,1.244-1.934,2.24c-0.94,0.996-1.736,1.949-2.391,2.863c-0.438,0.496-0.887,1.025-1.344,1.588
			c-0.46,0.559-0.997,1.004-1.605,1.338c-0.089,0.123-0.109,0.217-0.064,0.277c0.041,0.064,0,0.115-0.132,0.156
			c-0.351,0.207-0.764,0.426-1.245,0.652c-0.481,0.229-0.831,0.342-1.049,0.342c-0.305,0.043-0.743-0.029-1.311-0.217
			s-1.125-0.455-1.669-0.811c-0.55-0.352-1.007-0.705-1.376-1.057c-0.372-0.352-0.58-0.676-0.623-0.967
			c-0.091-0.705-0.065-1.514,0.064-2.424c0.132-0.914,0.306-1.816,0.526-2.711c0.217-0.891,0.41-1.711,0.587-2.457
			c0.174-0.746,0.284-1.369,0.329-1.867c0.086-0.166,0.086-0.27,0-0.312c-0.09-0.041-0.131-0.102-0.131-0.188l0.195-0.248
			c-0.046-0.123-0.099-0.229-0.164-0.312c-0.066-0.08-0.099-0.205-0.099-0.371c-1.048,1.037-2.141,2.271-3.277,3.703
			c-1.134,1.432-2.227,2.791-3.272,4.074c-0.045,0.086-0.09,0.211-0.131,0.375c-0.045,0.168-0.111,0.334-0.197,0.498
			c-0.438,0.539-0.917,1.08-1.442,1.619c0,0.125,0,0.291,0,0.498c-0.438,0.371-0.841,0.85-1.211,1.432
			c-0.373,0.58-0.755,1.057-1.146,1.432c-0.177,0.125-0.47,0.311-0.886,0.561c-0.415,0.25-0.752,0.373-1.016,0.373
			c-0.177,0.039-0.48-0.084-0.917-0.373c-0.438-0.289-0.787-0.561-1.05-0.811c-0.349-0.205-0.567-0.537-0.653-0.994
			c-0.09-0.457-0.154-0.914-0.196-1.371c-0.132-0.996,0.01-2.312,0.427-3.951c0.415-1.639,0.884-3.246,1.408-4.824
			c0.521-1.576,1.023-2.996,1.507-4.262c0.479-1.268,0.762-2.148,0.852-2.646c0.087-0.332,0.229-0.777,0.426-1.34
			c0.197-0.559,0.339-1.064,0.425-1.521c0.045-0.043,0.1-0.084,0.164-0.127c0.065-0.039,0.119-0.123,0.164-0.248
			c0-0.912,0.1-1.699,0.297-2.365c0.195-0.662,0.578-1.596,1.146-2.801c0.217-0.039,0.468-0.111,0.754-0.219
			c0.283-0.104,0.534-0.152,0.752-0.152c0.437-0.043,0.83,0.059,1.18,0.311c0.045,0.164,0.109,0.27,0.196,0.311
			c0.48,0.084,0.874,0.426,1.18,1.027c0.305,0.602,0.459,0.984,0.459,1.152c0.043,0.248-0.033,0.922-0.229,2.021
			s-0.427,2.002-0.687,2.707c-0.045,0.289-0.164,0.676-0.361,1.15c-0.196,0.479-0.395,0.979-0.59,1.496
			c-0.197,0.518-0.361,0.982-0.49,1.398c-0.131,0.414-0.176,0.77-0.131,1.059c0.042,0,0.106-0.062,0.196-0.188
			c0.087-0.123,0.261-0.205,0.521-0.248c0.088,0,0.383-0.291,0.887-0.871c0.502-0.582,1.058-1.268,1.668-2.055
			c0.611-0.787,1.269-1.629,1.968-2.521c0.698-0.891,1.287-1.668,1.77-2.334c0.218-0.082,0.556-0.125,1.017-0.125
			c0.459,0,0.948,0.043,1.475,0.125c0.348,0.084,0.883,0.279,1.604,0.594c0.721,0.309,1.3,0.693,1.736,1.15
			c0.174,0.291,0.371,0.705,0.589,1.242c0.218,0.541,0.351,0.955,0.394,1.246c0,0.123-0.032,0.436-0.099,0.934
			c-0.065,0.498-0.153,1.09-0.262,1.773c-0.111,0.686-0.207,1.4-0.297,2.146c-0.086,0.746-0.151,1.393-0.193,1.932
			c-0.353,0.082-0.549,0.342-0.591,0.777c-0.045,0.436-0.089,0.84-0.132,1.211v0.062c0,0.043,0.021,0.105,0.066,0.189
			c0.217-0.209,0.368-0.385,0.459-0.531c0.086-0.145,0.325-0.217,0.719-0.217l8.519-9.836c0.086,0.043,0.271,0.043,0.559,0
			c0.282-0.039,0.578-0.021,0.883,0.062c0.174,0.043,0.383,0.166,0.624,0.373c0.239,0.209,0.425,0.355,0.556,0.438
			c0.045,0.041,0.164,0.053,0.361,0.029c0.195-0.02,0.359,0.033,0.492,0.156c0.173,0.082,0.349,0.197,0.521,0.344
			c0.176,0.145,0.371,0.342,0.592,0.59c0.217,0.25,0.35,0.521,0.394,0.809c0.043,0.291,0.219,0.539,0.522,0.748
			c-0.088,0.043-0.099,0.125-0.033,0.25c0.065,0.123,0.119,0.27,0.164,0.436c0,0.086-0.033,0.354-0.099,0.809
			c-0.065,0.457-0.131,0.975-0.196,1.557s-0.151,1.193-0.261,1.838c-0.11,0.643-0.163,1.172-0.163,1.588
			c-0.045,0.457-0.066,1.119-0.066,1.988c0,0.871,0.021,1.434,0.066,1.682c0.086,0.832,0.271,1.432,0.555,1.807
			c0.283,0.373,0.994,0.496,2.13,0.373c0.175,0,0.613-0.115,1.312-0.342C178.275,86.205,178.844,85.986,179.281,85.779z
			 M166.309,81.793h-0.197l-0.394,0.561l0.327,0.188L166.309,81.793z"/>
		<path fill="#C6BCAB" d="M199.786,76.627c0,2.283-0.829,4.547-2.488,6.785c-1.662,2.242-3.691,4.357-6.095,6.352
			c-0.13,0.082-0.229,0.227-0.294,0.436c-0.066,0.207-0.142,0.373-0.229,0.496c-1.485,0.873-2.841,1.309-4.063,1.309
			c-1.006,0-1.823-0.238-2.456-0.717c-0.633-0.477-1.277-0.963-1.935-1.461c-0.219-0.166-0.425-0.52-0.622-1.059
			c-0.194-0.539-0.491-0.811-0.882-0.811c-0.091-0.375-0.199-0.842-0.329-1.4c-0.132-0.561-0.196-0.924-0.196-1.09
			c0-0.662,0.141-1.461,0.427-2.396c0.283-0.932,0.601-1.838,0.949-2.707c0.352-0.871,0.687-1.637,1.015-2.305
			c0.328-0.662,0.58-1.119,0.755-1.367c0.087-0.082,0.132-0.24,0.132-0.467c0-0.229,0.065-0.406,0.194-0.529
			c0.219-0.373,0.48-0.748,0.787-1.121c0.305-0.373,0.547-0.746,0.721-1.119c0.13-0.082,0.217-0.125,0.262-0.125
			s0.131-0.021,0.264-0.062c0.131-0.039,0.196-0.133,0.196-0.279c0-0.145,0.063-0.299,0.196-0.465
			c0.174-0.291,0.437-0.531,0.784-0.719c0.35-0.186,0.634-0.422,0.854-0.715c0.131-0.166,0.194-0.363,0.194-0.592
			s0.065-0.443,0.197-0.652c-0.086,0-0.219-0.033-0.394-0.094c-0.175-0.062-0.326,0.01-0.458,0.219c0-0.166-0.045-0.291-0.13-0.375
			c-0.133,0.084-0.197,0.25-0.197,0.498c0-0.289-0.152-0.436-0.458-0.436l0.13-0.062c0.044,0,0.131-0.062,0.262-0.186
			c-0.086-0.582,0.078-1.078,0.493-1.496c0.415-0.412,0.916-0.775,1.507-1.088c0.589-0.312,1.167-0.561,1.736-0.748
			c0.566-0.188,0.938-0.361,1.112-0.527c0.174,0.332,0.393,0.469,0.655,0.404c0.262-0.062,0.566-0.01,0.917,0.154
			c0.174,0.125,0.481,0.396,0.918,0.811c0.437,0.416,0.81,0.768,1.112,1.059c0,0.041,0.044,0.123,0.131,0.248
			c0.088,0.209,0.174,0.354,0.264,0.436c0.086,0.043,0.197,0.064,0.328,0.064s0.238,0.041,0.325,0.123
			c1.005,1.33,1.823,2.625,2.459,3.891C199.469,74.006,199.786,75.302,199.786,76.627z M194.348,74.638
			c0-0.25-0.089-0.611-0.263-1.09c-0.176-0.479-0.348-0.883-0.523-1.215c-0.351,0.664-0.83,1.359-1.441,2.088
			c-0.612,0.727-1.069,1.314-1.375,1.77c-0.351,0.623-0.766,1.371-1.245,2.242c-0.481,0.871-0.939,1.711-1.376,2.52
			c-0.437,0.811-0.797,1.535-1.08,2.18c-0.284,0.643-0.427,1.008-0.427,1.088v0.562c0.436-0.289,0.938-0.674,1.507-1.152
			c0.566-0.475,0.938-0.717,1.116-0.717c0.218,0,0.238,0.062,0.062,0.188c-0.174,0.125-0.129,0.188,0.131,0.188
			c0.177,0,0.436-0.217,0.789-0.652c0.349-0.438,0.697-0.912,1.046-1.434c0.352-0.518,0.689-1.004,1.016-1.461
			c0.329-0.455,0.513-0.725,0.559-0.809c0.086-0.125,0.218-0.416,0.394-0.873c0.175-0.455,0.351-0.934,0.522-1.434
			c0.176-0.494,0.315-0.939,0.427-1.338C194.292,74.896,194.348,74.679,194.348,74.638z M192.843,71.84v-0.938h-0.328v0.938H192.843
			z"/>
		<path fill="#C6BCAB" d="M219.704,66.484c0,0.207-0.023,0.363-0.065,0.467c-0.046,0.104-0.109,0.197-0.196,0.279
			c0.087,0.623,0.099,1.4,0.032,2.334c-0.065,0.934-0.251,1.691-0.556,2.273c-0.131,0.123-0.34,0.227-0.625,0.309
			c-0.282,0.084-0.533,0.125-0.751,0.125c-0.176,0-0.471-0.092-0.885-0.279c-0.416-0.188-0.777-0.424-1.081-0.717
			c-0.309,0.127-0.481,0.311-0.525,0.562c-0.304,2.32-0.424,4.688-0.358,7.094c0.062,2.408-0.12,4.793-0.558,7.158
			c-0.09,0.582-0.209,1.328-0.36,2.24c-0.153,0.91-0.403,1.814-0.754,2.707s-0.842,1.65-1.474,2.271
			c-0.636,0.623-1.409,0.936-2.327,0.936c-0.261,0-0.403-0.033-0.425-0.094c-0.023-0.064-0.098-0.115-0.229-0.158
			c-0.09-0.082-0.132-0.092-0.132-0.029s-0.131,0.094-0.395,0.094c-0.305,0-0.611-0.104-0.915-0.312
			c-0.309-0.209-0.612-0.402-0.917-0.59c-0.309-0.188-0.558-0.373-0.755-0.561s-0.34-0.281-0.427-0.281
			c-0.522-0.291-1.08-0.775-1.671-1.463c-0.59-0.686-1.136-1.441-1.637-2.271c-0.504-0.828-0.918-1.68-1.245-2.553
			c-0.328-0.867-0.49-1.615-0.49-2.24c0-0.373,0.131-0.963,0.393-1.773c0.261-0.809,0.59-1.48,0.982-2.021
			c0.217,0,0.393-0.041,0.525-0.125c0.041,0.166,0.021,0.363-0.067,0.594c-0.089,0.227-0.153,0.445-0.195,0.65
			c0.087,0.125,0.172,0.199,0.264,0.219c0.085,0.021,0.194,0.096,0.324,0.219c0.132,0,0.176,0.094,0.132,0.281
			c-0.045,0.186-0.064,0.424-0.064,0.715c0.175,0.166,0.295,0.26,0.359,0.279c0.064,0.021-0.056,0.178-0.359,0.467
			c0.262,0.457,0.349,0.83,0.262,1.121c0.131,0.248,0.315,0.508,0.558,0.777c0.239,0.27,0.272,0.57,0.1,0.904l0.261,0.248
			c0.218-0.248,0.458-0.373,0.722-0.373c0.351,0.58,0.611,1.223,0.785,1.93c0.177,0.703,0.59,1.264,1.247,1.68
			c0.391-0.334,0.72-0.748,0.98-1.244c0.264-0.5,0.481-0.977,0.654-1.434c0.395-0.871,0.678-1.898,0.854-3.08
			c0.173-1.182,0.304-2.375,0.392-3.578c0.088-1.205,0.108-2.344,0.064-3.424c-0.041-1.078-0.064-1.971-0.064-2.676
			c0-0.457,0.076-0.967,0.229-1.527c0.151-0.559,0.229-1.086,0.229-1.586c0-0.164-0.035-0.33-0.1-0.496
			c-0.065-0.168-0.1-0.334-0.1-0.5c0-0.412,0.045-0.83,0.131-1.244c0.089-0.416,0.174-0.955,0.265-1.617
			c0-0.168,0.009-0.59,0.032-1.277c0.021-0.686,0.106-1.398,0.262-2.146c0.153-0.744,0.35-1.408,0.59-1.99
			c0.241-0.58,0.557-0.871,0.952-0.871c0.261,0,0.414,0.021,0.455,0.062c0.045,0.042,0.132,0.105,0.263,0.188
			c1.048-0.124,2.198,0.176,3.441,0.902c1.245,0.727,2.192,1.398,2.85,2.021c0.042,0.125,0.064,0.238,0.064,0.342
			c0,0.105,0,0.219,0,0.342c0.264,0.168,0.503,0.449,0.721,0.844C219.593,65.974,219.704,66.275,219.704,66.484z M204.047,85.842
			h-0.265v-0.936h0.265V85.842z"/>
	</g>
	<g>
		<path fill="#C6BCAB" d="M222.222,89.984c0-0.411,0.141-0.905,0.421-1.484c0.279-0.578,0.672-1.124,1.176-1.638
			s1.101-0.952,1.792-1.316c0.69-0.364,1.446-0.546,2.268-0.546c0.578,0,1.083,0.136,1.513,0.406
			c0.429,0.271,0.788,0.635,1.077,1.092c0.29,0.458,0.509,0.979,0.658,1.568c0.149,0.588,0.225,1.189,0.225,1.806
			c0,0.672-0.089,1.34-0.267,2.002c-0.178,0.663-0.443,1.256-0.798,1.778s-0.803,0.947-1.344,1.273
			c-0.542,0.326-1.176,0.49-1.904,0.49c-0.448,0-0.952-0.196-1.512-0.588c-0.561-0.393-1.083-0.872-1.568-1.442
			c-0.485-0.569-0.896-1.166-1.231-1.792C222.391,90.969,222.222,90.431,222.222,89.984z M228.607,68.676
			c-0.318,0-0.574-0.153-0.771-0.462c-0.195-0.308-0.35-0.69-0.462-1.147c-0.112-0.458-0.187-0.947-0.224-1.471
			c-0.038-0.522-0.057-0.998-0.057-1.428c0-0.877,0.159-1.764,0.477-2.66c0.317-0.896,0.746-1.754,1.288-2.576
			c0.541-0.821,1.176-1.586,1.903-2.296c0.729-0.709,1.503-1.33,2.324-1.861c0.821-0.532,1.666-0.947,2.534-1.246
			s1.722-0.448,2.562-0.448c1.642,0,3.159,0.233,4.55,0.7c1.39,0.467,2.59,1.144,3.598,2.029c1.008,0.888,1.792,1.979,2.353,3.276
			c0.56,1.298,0.84,2.768,0.84,4.41c0,0.858-0.215,1.703-0.645,2.534c-0.43,0.83-1.008,1.661-1.735,2.492
			c-0.729,0.83-1.564,1.661-2.507,2.491c-0.942,0.831-1.927,1.666-2.953,2.506c-1.027,0.841-2.059,1.69-3.095,2.549
			s-2.002,1.731-2.897,2.617c-0.896,0.888-1.699,1.792-2.408,2.717c-0.71,0.924-1.242,1.871-1.596,2.842
			c-0.616-0.112-1.14-0.317-1.568-0.616c-0.43-0.298-0.774-0.616-1.036-0.952s-0.453-0.648-0.574-0.938s-0.182-0.462-0.182-0.519
			c0.037-0.504,0.294-1.213,0.77-2.128c0.477-0.914,1.115-1.95,1.918-3.107s1.741-2.39,2.814-3.696s2.217-2.59,3.43-3.85
			c1.214-1.261,2.474-2.45,3.78-3.57s2.595-2.081,3.864-2.884c0.149-0.094,0.224-0.168,0.224-0.225c0-0.149-0.173-0.298-0.518-0.448
			c-0.346-0.148-0.724-0.279-1.134-0.392c-0.411-0.112-0.784-0.205-1.12-0.28c-0.336-0.074-0.495-0.111-0.477-0.111
			c-1.362,0-2.455,0.2-3.275,0.602c-0.822,0.401-1.503,0.905-2.044,1.512c-0.542,0.607-1.014,1.261-1.414,1.96
			c-0.402,0.7-0.864,1.354-1.387,1.96c-0.522,0.607-1.181,1.111-1.974,1.513C230.991,68.475,229.932,68.676,228.607,68.676z"/>
	</g>
</g>
<g>
	<g>
		<path fill="#C6BCAB" d="M129.258,21.295c0,0.457-0.187,1.203-0.556,2.24c-0.372,1.036-0.776,2.105-1.212,3.204
			c-0.438,1.103-0.874,2.076-1.311,2.927c-0.438,0.852-0.678,1.316-0.722,1.399c-0.261,0.374-0.579,0.811-0.949,1.309
			c-0.372,0.498-0.732,1.006-1.082,1.523c-0.349,0.521-0.688,0.996-1.015,1.434c-0.328,0.435-0.558,0.818-0.688,1.149
			c0-0.208-0.064-0.373-0.196-0.498c-0.131,0.167-0.263,0.302-0.394,0.405s-0.197,0.259-0.197,0.467
			c0,0.166,0.021,0.279,0.066,0.342c0.042,0.062,0.107,0.197,0.195,0.404c-0.087,0.25-0.108,0.498-0.064,0.748
			c0.262,0.995,0.512,2.095,0.754,3.299c0.239,1.203,0.402,2.386,0.491,3.547c0,0.209,0.066,0.457,0.197,0.747
			c0.129,0.29,0.261,0.612,0.393,0.965c0.131,0.354,0.229,0.695,0.294,1.027c0.065,0.332,0.011,0.622-0.164,0.87
			c0.219,0.292,0.403,0.707,0.558,1.245c0.151,0.539,0.315,1.08,0.49,1.619c-0.219,0.248-0.283,0.539-0.194,0.873
			c0.086,0.33,0.173,0.619,0.261,0.868c0,0.251-0.109,0.457-0.327,0.624c-0.22,0.164-0.131,0.458,0.261,0.874
			c-0.261-0.086-0.535-0.238-0.818-0.468c-0.284-0.229-0.513-0.449-0.688-0.655c-0.306-0.415-0.633-0.935-0.981-1.557
			c-0.351-0.624-0.677-1.267-0.983-1.93c-0.306-0.664-0.602-1.329-0.884-1.992c-0.284-0.663-0.514-1.245-0.689-1.743
			c-0.261-0.912-0.588-1.794-0.98-2.646c-0.395-0.851-0.743-1.71-1.048-2.582c-0.262,0.166-0.471,0.362-0.623,0.591
			c-0.154,0.229-0.339,0.467-0.558,0.716c-0.306,0.249-0.687,0.551-1.146,0.901c-0.459,0.354-0.884,0.737-1.278,1.151
			c-0.087,0.042-0.13,0.147-0.13,0.312s-0.044,0.311-0.131,0.435c-0.219,0.126-0.449,0.292-0.688,0.499
			c-0.24,0.208-0.491,0.373-0.752,0.497l0.262-0.373c-0.175-0.082-0.294-0.062-0.359,0.062c-0.066,0.124-0.164,0.208-0.295,0.249
			c-0.261,0.249-0.557,0.551-0.885,0.901c-0.328,0.354-0.646,0.654-0.95,0.902c-0.131,0.042-0.383,0.155-0.754,0.342
			c-0.372,0.188-0.776,0.374-1.212,0.562c-0.438,0.188-0.863,0.354-1.277,0.499c-0.417,0.144-0.731,0.217-0.951,0.217
			c-0.175,0-0.547-0.021-1.113-0.062c-0.567-0.041-1.136-0.062-1.703-0.062c-1.269-0.415-2.316-1.037-3.146-1.866
			c-0.829-0.83-1.484-1.744-1.965-2.739c-0.481-0.996-0.808-1.981-0.983-2.956c-0.175-0.976-0.261-1.815-0.261-2.521
			c0-2.696,0.442-5.238,1.328-7.624c0.885-2.386,2.059-4.969,3.521-7.75v-0.312c0.087-0.249,0.251-0.509,0.489-0.776
			c0.24-0.271,0.403-0.509,0.49-0.717c0.131-0.165,0.207-0.331,0.229-0.498c0.021-0.165,0.032-0.289,0.032-0.373
			c0.261-0.125,0.5-0.29,0.719-0.498c-0.132-0.082-0.218-0.114-0.263-0.095c-0.043,0.021-0.107,0.031-0.194,0.031
			c0.565-0.83,1.099-1.681,1.601-2.552c0.5-0.872,1.033-1.556,1.601-2.054c0.043-0.125,0.086-0.229,0.131-0.312
			c0.043-0.082,0.043-0.187,0-0.311c0.131-0.084,0.293-0.219,0.488-0.404c0.196-0.188,0.359-0.343,0.49-0.468
			c0.566-0.996,1.426-2.168,2.581-3.519c1.154-1.348,2.395-2.623,3.724-3.826s2.636-2.22,3.92-3.051
			c1.285-0.828,2.342-1.245,3.17-1.245c0.216,0,0.303,0.043,0.261,0.126c-0.042,0.082,0.043,0.124,0.262,0.124
			c0.216,0,0.305-0.042,0.261-0.124c-0.045-0.083,0.021-0.126,0.197-0.126c0.173,0,0.381,0.074,0.62,0.22
			c0.238,0.146,0.467,0.218,0.685,0.218c0.176,0,0.229-0.029,0.164-0.094c-0.065-0.062,0.012-0.094,0.229-0.094
			c0.434,0,0.902,0.104,1.406,0.312c0.501,0.209,0.961,0.436,1.375,0.685c0.415,0.25,0.785,0.479,1.114,0.687
			c0.328,0.207,0.534,0.333,0.622,0.373c0.131,0.084,0.284,0.196,0.458,0.343c0.175,0.145,0.264,0.321,0.264,0.528
			c0,0.209-0.057,0.302-0.165,0.279c-0.11-0.021-0.1,0.156,0.032,0.528v0.25v0.124c-0.174,0.124-0.394,0.188-0.654,0.188
			c-0.263,0-0.481,0.062-0.654,0.187c-0.524,0.498-1.06,1.089-1.605,1.773s-1.08,1.381-1.605,2.085
			c0.132-0.124,0.197-0.312,0.197-0.561c-0.131-0.083-0.251-0.104-0.361-0.062c-0.109,0.042-0.207,0.062-0.294,0.062
			c0.173-0.539,0.458-1.192,0.852-1.961c0.394-0.767,0.59-1.255,0.59-1.462V7.35c-0.133-0.126-0.372-0.188-0.722-0.188
			c-0.263,0-0.654,0.137-1.179,0.404c-0.526,0.271-1.049,0.571-1.573,0.903c-0.523,0.332-1.017,0.664-1.475,0.996
			s-0.731,0.539-0.819,0.622c0.087,0.084,0.295,0.187,0.623,0.311c0.327,0.124,0.645,0.188,0.95,0.188l3.669,2.488
			c1.789,1.038,3.122,2.295,3.996,3.767C128.821,18.317,129.258,19.799,129.258,21.295z M123.951,21.046
			c0-0.373-0.065-0.841-0.197-1.401c-0.131-0.56-0.271-1.11-0.425-1.647c-0.152-0.54-0.315-1.049-0.489-1.524
			c-0.175-0.477-0.348-0.84-0.522-1.09c-0.394-0.746-1.091-1.421-2.091-2.022c-1.002-0.602-1.853-0.901-2.548-0.901
			c-0.174,0-0.457,0.177-0.85,0.527c-0.393,0.354-0.761,0.677-1.109,0.965c-0.088-0.083-0.186-0.145-0.294-0.187
			c-0.108-0.041-0.163-0.125-0.163-0.249c-0.087,0.167-0.239,0.28-0.458,0.342c-0.218,0.062-0.326,0.136-0.326,0.218
			c-0.261,0.249-0.511,0.51-0.751,0.779c-0.238,0.27-0.402,0.509-0.489,0.716c-0.437,1.037-1.067,2.022-1.895,2.955
			c-0.829,0.936-1.547,2.086-2.157,3.454c0,0.084-0.055,0.136-0.163,0.157c-0.107,0.021-0.186,0.072-0.228,0.155
			c-1.743,2.903-3.268,5.693-4.574,8.371c-1.306,2.677-2.09,5.362-2.351,8.06c-0.044,0.085-0.098,0.178-0.164,0.281
			s-0.142,0.196-0.23,0.278v4.108c0,0.207,0.056,0.571,0.164,1.089c0.109,0.52,0.208,0.987,0.296,1.4
			c0.174,0,0.325,0.021,0.456,0.062c0.132,0.042,0.264,0.062,0.396,0.062c0.216,0,0.303-0.021,0.26-0.062s-0.021-0.083,0.065-0.124
			c1.002-0.249,2.013-0.735,3.036-1.464c1.023-0.725,2.21-1.605,3.562-2.644c0.478-0.374,0.923-0.759,1.338-1.152
			s0.731-0.694,0.949-0.902c0.086-0.083,0.13-0.187,0.13-0.312s0.065-0.249,0.197-0.373c0.042,0.083,0.106,0.124,0.194,0.124h0.196
			c-0.175-0.165-0.175-0.332,0-0.498c0.305-0.331,0.653-0.693,1.044-1.089c0.393-0.396,0.742-0.799,1.046-1.214
			c0.086,0.124,0.173,0.187,0.262,0.187h0.064v-0.249c-0.044-0.165,0.011-0.342,0.164-0.53c0.151-0.185,0.229-0.382,0.229-0.59
			c0-0.04-0.066-0.319-0.196-0.84c-0.131-0.52-0.272-1.131-0.425-1.836c-0.152-0.706-0.327-1.433-0.521-2.179
			c-0.197-0.747-0.315-1.392-0.359-1.931c-0.045-0.496-0.1-1.026-0.164-1.588c-0.066-0.56-0.108-1.066-0.132-1.522
			c-0.022-0.456-0.043-0.851-0.064-1.185c-0.022-0.331-0.033-0.539-0.033-0.622c0-0.249,0.087-0.592,0.261-1.026
			c0.176-0.437,0.609-0.652,1.308-0.652c0.217,0,0.446,0,0.686,0c0.24,0,0.402,0.062,0.491,0.187c0-0.124,0.021-0.207,0.064-0.248
			c0-0.041,0.021-0.063,0.065-0.063c0.522,0.373,1.088,0.748,1.698,1.12c0.608,0.375,1.133,0.788,1.567,1.246
			c0.132,0.166,0.239,0.363,0.327,0.59c0.087,0.229,0.196,0.405,0.326,0.53c-0.086,0.125-0.239,0.498-0.456,1.12
			c-0.218,0.622-0.327,1.059-0.327,1.307c0,0.166,0.056,0.405,0.163,0.716c0.109,0.312,0.25,0.571,0.425,0.778
			c0.087-0.124,0.228-0.331,0.424-0.621c0.196-0.292,0.425-0.539,0.687-0.749c0.305-0.703,0.641-1.4,1.011-2.085
			c0.371-0.683,0.688-1.441,0.948-2.271c0.088-0.332,0.218-0.746,0.393-1.244C123.864,21.544,123.951,21.212,123.951,21.046z"/>
		<path fill="#C6BCAB" d="M160.049,41.711c-0.22,0.123-0.565,0.414-1.049,0.87c0.131,0.167,0.243,0.332,0.328,0.498
			c0.089,0.167,0.221,0.333,0.393,0.497c-0.304,0.414-0.632,0.913-0.979,1.494c-0.132,0.208-0.132,0.354,0,0.436
			c-0.18,0.25-0.506,0.582-0.984,0.996c0.131,0.125,0.248,0.177,0.36,0.155c0.107-0.021,0.229-0.094,0.359-0.219
			c0,0.125-0.03,0.239-0.098,0.342c-0.065,0.105-0.211,0.157-0.426,0.157c-0.265,0-0.354-0.031-0.265-0.095
			c0.091-0.062,0.091-0.133,0-0.217c-0.089,0.084-0.141,0.196-0.163,0.343c-0.023,0.146-0.099,0.28-0.229,0.404
			c-0.089,0.124-0.221,0.279-0.394,0.467c-0.175,0.188-0.412,0.362-0.723,0.528c-0.347,0.29-0.849,0.602-1.505,0.934
			c-0.656,0.333-1.092,0.498-1.312,0.498c-0.783,0-1.595-0.114-2.425-0.342c-0.829-0.229-1.594-0.468-2.291-0.718
			c-0.133-0.082-0.339-0.248-0.623-0.497c-0.281-0.249-0.488-0.477-0.618-0.685c-0.396-0.747-0.756-1.515-1.084-2.304
			c-0.328-0.787-0.646-1.514-0.951-2.179c-0.131-0.207-0.174-0.497-0.131-0.869c0.047-0.375,0.063-0.664,0.063-0.872
			c0-0.333-0.084-0.664-0.262-0.996c-1.177,1.37-2.4,2.77-3.666,4.2c-1.271,1.433-2.381,2.999-3.342,4.699
			c-0.131,0.084-0.308,0.197-0.525,0.344c-0.22,0.144-0.479,0.279-0.786,0.403l-0.129,0.062c0,0.042,0.065,0.103,0.196,0.188
			c-0.307,0-0.646-0.03-1.016-0.094c-0.372-0.062-0.732-0.094-1.082-0.094c-0.132-0.291-0.372-0.538-0.721-0.747
			c-0.349-0.206-0.678-0.456-0.981-0.746c-0.177-0.166-0.383-0.395-0.622-0.686c-0.242-0.291-0.383-0.561-0.427-0.81
			c-0.132-0.29-0.24-0.674-0.327-1.151c-0.087-0.477-0.131-0.84-0.131-1.09c0-1.452,0.151-2.706,0.458-3.765
			c0.305-1.058,0.59-2.293,0.852-3.703c0.305-0.291,0.546-0.623,0.721-0.996c0.173-0.374,0.305-0.746,0.393-1.121
			c0-0.164-0.033-0.351-0.098-0.56c-0.064-0.208-0.076-0.395-0.032-0.562c0.13-0.289,0.294-0.539,0.491-0.746
			c0.196-0.207,0.359-0.354,0.49-0.437c0.175-0.165,0.273-0.403,0.296-0.716c0.021-0.312,0.075-0.611,0.164-0.902
			c0.042-0.124,0.13-0.206,0.262-0.249c0.132-0.04,0.24-0.125,0.328-0.249c0-0.124-0.023-0.207-0.065-0.248
			c-0.044-0.041-0.044-0.126,0-0.25c0.349-0.58,0.688-1.232,1.015-1.96c0.328-0.726,0.664-1.39,1.017-1.993
			c0.35-0.599,0.772-1.129,1.278-1.586c0.503-0.456,1.146-0.685,1.934-0.685c0.215,0,0.426,0.053,0.623,0.156
			c0.195,0.104,0.422,0.114,0.684,0.028c0.047,0.251,0.188,0.51,0.427,0.778c0.239,0.271,0.45,0.53,0.624,0.779
			c0,0.124,0.031,0.26,0.099,0.402c0.065,0.147,0.1,0.322,0.1,0.53c0,0.788-0.329,1.784-0.985,2.987
			c-0.65,1.203-1.224,2.345-1.702,3.423c-0.262,0.54-0.557,1.132-0.886,1.773c-0.328,0.644-0.622,1.256-0.881,1.835
			c-0.263,0.623-0.581,1.277-0.951,1.963c-0.373,0.684-0.73,1.421-1.082,2.208c0,0.085,0,0.188,0,0.312s0.043,0.271,0.131,0.437
			c-0.263,0.372-0.448,0.777-0.557,1.213c-0.11,0.436-0.252,0.883-0.427,1.339v0.436h0.131c2.182-2.364,4.249-4.616,6.19-6.753
			c1.943-2.137,3.595-4.45,4.948-6.939c0.217-0.414,0.502-0.912,0.851-1.493c0.351-0.58,0.697-1.1,1.049-1.557
			c0.131,0.124,0.295,0.229,0.492,0.312c0.196,0.084,0.38,0.209,0.559,0.373c0.127,0,0.173-0.062,0.127-0.187
			c-0.043-0.125-0.062-0.228-0.062-0.312c0.127,0.084,0.226,0.187,0.291,0.312s0.211,0.187,0.427,0.187
			c0.173,0,0.221-0.03,0.132-0.094c-0.09-0.062-0.043-0.093,0.131-0.093c0.09,0,0.271,0.155,0.559,0.468
			c0.28,0.311,0.73,0.551,1.341,0.715c0.221,0.291,0.426,0.694,0.623,1.214c0.196,0.52,0.296,0.901,0.296,1.151
			c0,0.123-0.174,0.487-0.525,1.09c-0.347,0.602-0.608,1.131-0.782,1.587c-0.311,0.664-0.591,1.399-0.854,2.209
			s-0.482,1.608-0.656,2.396l-0.064,0.124c-0.133,0.085-0.197,0.167-0.197,0.25c-0.131,0.664-0.248,1.411-0.36,2.24
			c-0.108,0.831-0.164,1.368-0.164,1.619c0,0.29,0.154,0.476,0.459,0.56c0.132,0.083,0.286,0.124,0.459,0.124
			c0.222,0,0.821-0.114,1.802-0.342c0.983-0.228,1.758-0.426,2.33-0.593c0.649-0.165,1.307-0.445,1.963-0.839
			c0.655-0.396,1.289-0.756,1.897-1.089L160.049,41.711z"/>
		<path fill="#C6BCAB" d="M179.048,44.26c-0.349,0.124-0.632,0.279-0.851,0.467c-0.22,0.188-0.48,0.322-0.787,0.404
			c0,0.291,0.24,0.498,0.721,0.623c-0.131,0.166-0.252,0.384-0.359,0.652c-0.109,0.271-0.229,0.551-0.36,0.842
			c-0.568-0.126-0.994,0.071-1.277,0.591c-0.284,0.519-0.424,1.026-0.424,1.523c-0.395,0.125-0.8,0.22-1.215,0.279
			c-0.414,0.062-0.862,0.095-1.343,0.095c-0.175,0.082-0.206,0.145-0.1,0.187c0.11,0.042,0.23,0.062,0.36,0.062
			c-0.35,0.04-0.751,0.155-1.211,0.344c-0.46,0.187-0.863,0.299-1.212,0.342v0.188c0,0.082-0.089,0.124-0.264,0.124
			c-0.176,0-0.427-0.062-0.752-0.188c-0.329-0.124-0.635-0.218-0.919-0.279c-0.283-0.062-0.547-0.074-0.785-0.032
			c-0.241,0.042-0.385,0.209-0.427,0.499l-0.72-0.935c-0.961-0.207-1.67-0.478-2.131-0.81c-0.459-0.332-1.104-0.911-1.932-1.742
			c-0.307-0.166-0.515-0.29-0.623-0.374c-0.109-0.082-0.196-0.205-0.263-0.372c-0.065-0.166-0.176-0.499-0.328-0.996
			c-0.151-0.499-0.358-1.392-0.621-2.677c-0.176-1.245-0.164-2.23,0.032-2.957c0.197-0.727,0.361-1.34,0.49-1.837
			c0.132-0.579,0.415-1.409,0.854-2.488c0.437-1.078,0.896-2.096,1.374-3.05c0.264-0.497,0.567-1.09,0.917-1.773
			c0.351-0.684,0.765-1.4,1.244-2.148c0.219-0.288,0.502-0.642,0.854-1.057c0.35-0.415,0.633-0.829,0.851-1.245
			c0.481-0.415,0.841-0.788,1.081-1.121c0.24-0.331,0.689-0.684,1.342-1.058c0.309-0.125,0.699-0.29,1.184-0.499
			c0.478-0.205,0.675-0.476,0.588-0.808c-0.087,0.042-0.132,0.083-0.132,0.124c0,0.123,0.087,0.188,0.264,0.188
			c0.262,0,0.328-0.032,0.195-0.094c-0.131-0.062-0.064-0.094,0.196-0.094c0.175,0,0.448,0.104,0.818,0.311
			c0.371,0.208,0.711,0.354,1.018,0.437c0.087,0.291,0.13,0.561,0.13,0.811c0,0.248,0.108,0.373,0.327,0.373
			c0.263,0,0.35-0.032,0.263-0.093c-0.089-0.062-0.023-0.096,0.196-0.096c0.175,0,0.316,0.062,0.427,0.188
			c0.107,0.125,0.229,0.249,0.358,0.372c0,0.623,0.055,1.06,0.165,1.309c0.108,0.248,0.249,0.414,0.426,0.498
			c0.174,0.083,0.338,0.177,0.491,0.279c0.153,0.104,0.229,0.364,0.229,0.778c0,0.084-0.043,0.32-0.132,0.716
			c-0.087,0.395-0.186,0.851-0.292,1.369c-0.111,0.52-0.242,1.036-0.396,1.557c-0.154,0.519-0.295,0.985-0.427,1.4
			c-0.263,0.499-0.688,1.149-1.277,1.961c-0.589,0.808-1.169,1.545-1.735,2.209c-0.522,0.498-1.094,1.1-1.701,1.805
			c-0.614,0.706-1.225,1.36-1.835,1.96c-0.613,0.603-1.114,1.133-1.508,1.588c-0.395,0.457-0.592,0.769-0.592,0.933
			c0,0.25,0.229,0.529,0.688,0.842c0.46,0.312,0.885,0.551,1.277,0.716c0.219,0.124,0.534,0.188,0.95,0.188c0.414,0,0.73,0,0.95,0
			c0.351,0,0.688-0.083,1.016-0.25c0.327-0.165,0.753-0.146,1.276,0.062c0.875-0.249,1.713-0.498,2.521-0.747
			c0.808-0.249,1.54-0.456,2.196-0.622C178.612,44.177,178.83,44.26,179.048,44.26z"/>
		<g>
			<path fill="#CCC0AF" d="M175.056,20.19c-0.219-0.125-0.42-0.259-0.604-0.405c-0.187-0.145-0.327-0.295-0.426-0.45
				s-0.144-0.326-0.132-0.515c0.011-0.187,0.114-0.394,0.312-0.622c0.546-0.704,1.092-1.311,1.638-1.82
				c0.546-0.509,1.069-0.989,1.573-1.446c0.501-0.456,0.994-0.928,1.474-1.416c0.481-0.487,0.95-1.062,1.41-1.727
				c0.654,0.27,1.254,0.526,1.8,0.777c0.547,0.248,1.064,0.502,1.558,0.761c0.492,0.262,0.973,0.529,1.439,0.812
				c0.471,0.28,0.957,0.575,1.458,0.887c0.264,0.167,0.389,0.404,0.377,0.715c-0.012,0.312-0.108,0.635-0.295,0.967
				c-0.186,0.331-0.432,0.643-0.737,0.933c-0.306,0.291-0.609,0.509-0.916,0.654c-0.589,0.29-1.344,0.605-2.261,0.948
				c-0.919,0.343-1.852,0.638-2.803,0.888c-0.947,0.249-1.865,0.398-2.75,0.451C176.286,20.633,175.582,20.503,175.056,20.19z"/>
		</g>
	</g>
	<g>
		<path fill="#C6BCAB" d="M88.264,39.309c0.317,0,0.574,0.153,0.77,0.462c0.196,0.308,0.35,0.69,0.462,1.147
			s0.187,0.947,0.224,1.471c0.037,0.521,0.056,0.998,0.056,1.428c0,0.896-0.159,1.787-0.476,2.674
			c-0.318,0.887-0.747,1.74-1.288,2.562c-0.542,0.821-1.176,1.587-1.904,2.297c-0.728,0.709-1.502,1.329-2.324,1.861
			c-0.822,0.533-1.666,0.948-2.534,1.247c-0.868,0.299-1.722,0.448-2.562,0.448c-1.643,0-3.22-0.21-4.732-0.63
			s-2.846-1.051-4.004-1.892c-1.157-0.84-2.081-1.881-2.772-3.122c-0.69-1.242-1.036-2.693-1.036-4.354
			c0-0.858,0.234-1.713,0.7-2.562c0.467-0.85,1.092-1.699,1.876-2.549c0.784-0.849,1.68-1.698,2.688-2.548
			c1.008-0.849,2.062-1.708,3.164-2.576c1.101-0.867,2.207-1.745,3.318-2.632c1.11-0.886,2.146-1.782,3.108-2.688
			s1.811-1.824,2.548-2.758s1.283-1.886,1.638-2.856c0.616,0.112,1.138,0.317,1.568,0.616c0.429,0.299,0.774,0.616,1.036,0.952
			c0.261,0.336,0.452,0.648,0.574,0.938c0.121,0.29,0.182,0.462,0.182,0.519c-0.038,0.504-0.294,1.213-0.77,2.128
			c-0.476,0.914-1.115,1.95-1.918,3.107c-0.803,1.158-1.741,2.39-2.814,3.696c-1.074,1.307-2.217,2.59-3.43,3.85
			c-1.214,1.261-2.474,2.45-3.78,3.57S73.237,45.198,71.968,46c-0.094,0.057-0.14,0.149-0.14,0.28c0,0.168,0.149,0.326,0.448,0.476
			c0.298,0.149,0.639,0.275,1.022,0.378s0.742,0.183,1.078,0.238s0.542,0.084,0.616,0.084c0.97,0,1.792-0.103,2.464-0.308
			c0.672-0.206,1.241-0.481,1.708-0.826c0.466-0.346,0.858-0.747,1.176-1.204c0.317-0.458,0.602-0.938,0.854-1.442
			c0.252-0.504,0.5-1.013,0.742-1.525c0.242-0.514,0.532-0.994,0.868-1.442c0.597-0.242,1.082-0.452,1.456-0.63
			c0.373-0.177,0.732-0.322,1.078-0.434c0.345-0.112,0.737-0.196,1.176-0.252C86.952,39.336,87.536,39.309,88.264,39.309z
			 M94.648,18c0,0.43-0.14,0.929-0.42,1.498c-0.28,0.569-0.672,1.111-1.176,1.624c-0.504,0.514-1.102,0.952-1.792,1.316
			c-0.691,0.363-1.447,0.546-2.268,0.546c-0.075,0-0.206-0.079-0.392-0.238c-0.187-0.158-0.402-0.359-0.644-0.602
			c-0.243-0.243-0.5-0.509-0.77-0.798c-0.271-0.29-0.523-0.556-0.756-0.799c-0.234-0.242-0.434-0.442-0.602-0.602
			c-0.168-0.158-0.28-0.238-0.336-0.238c-0.019,0-0.028,0.01-0.028,0.028c0-0.84,0.051-1.638,0.154-2.395
			c0.102-0.756,0.256-1.46,0.462-2.113c0.019-0.094,0.154-0.299,0.406-0.616c0.252-0.317,0.56-0.662,0.924-1.036
			c0.364-0.373,0.756-0.728,1.176-1.063c0.42-0.337,0.826-0.561,1.218-0.673c0.429,0.131,0.924,0.439,1.484,0.925
			s1.087,1.04,1.582,1.666c0.494,0.625,0.915,1.265,1.26,1.918S94.648,17.552,94.648,18z"/>
	</g>
</g>
</svg>
